<svg width="830" height="503" fill="none" xmlns="http://www.w3.org/2000/svg"><g clip-path="url(#clip0_95_154)"><path d="M641.777 454.355l18.652-4.317a62.654 62.654 0 00111.51-2.732 62.657 62.657 0 10-118.964-22.894l-15.508 3.598m-50.752 11.783l-17.32 3.997a11.766 11.766 0 00-8.799 14.115l.706 3.045a11.767 11.767 0 0014.122 8.793l19.604-4.55m162.476-37.164a42.032 42.032 0 11-18.281-42.97 42.04 42.04 0 0118.268 42.99l.013-.02z" fill="url(#paint0_linear_95_154)"/><path d="M273.113 210.144c-22.029-.526-41.573 1.999-55.122 10.445 3.118-56.774-22.648-111.357-68.398-126.724C83.159 71.549 57 108.573 48.101 141.56c-9.02 33.346 9.486 71.309 28.477 27.178 19.111-44.418 43.145-41.927 76.905-21.736 33.759 20.19 12.656 95.41 12.323 146.322-.18 29.443 6.375 54.47 17.673 71.583-18.612 29.536-57.587 29.589-54.423 51.185 3.743 25.547 19.611 74.767 20.763 85.072l87.357-.533s7.427-24.187-9.326-32.127c-16.753-7.941-28.797-1.746-28.797-1.746l-1.539-19.118c-.566-6.887 5.043-13.109 13.489-14.961 8.66-1.885 20.377-4.443 33.22-7.188a81.926 81.926 0 005.536 2.512c-3.384 9.992-5.922 18.059-6.328 21.023-1.386 10.145 17.319 21.396 31.574 31.048 14.256 9.653 26.752 20.191 26.752 20.191H406.46s.073-38.429-27.978-37.304l-31.015 1.852-20.057-14.335c-3.464-2.431-5.263-5.709-5.236-9.019 3.908.177 7.943.306 12.104.386 30.722.546 58.739.204 84.052-1.026 10.492 21.983 18.072 41.167 18.425 46.763.4 6.288.293 9.725 6.628 11.537 6.449 1.845 83.267-.1 83.267-.1s1.725-13.989-.287-18.318c-3.583-7.721-25.692-22.975-32.493-22.975 0 0-1.772-11.884-3.764-23.475 13.833-2.029 26.268-4.414 37.303-7.154 1.945 3.157 4.09 5.389 6.328 6.468 22.196 10.658 54.843-12.656 59.106 21.016 4.264 33.673 31.835 30.956 42.566 19.138 10.732-11.817 7.561-25.219-2.098-63.768-5.123-20.451-35.572-33.553-35.572-33.553a86.455 86.455 0 008.207-17.32" stroke="url(#paint1_linear_95_154)" stroke-width="6" stroke-linecap="round" stroke-linejoin="round"/><path d="M519.583 498.133s3.464-18.345-21.982-31.927" stroke="url(#paint2_linear_95_154)" stroke-width="6" stroke-linecap="round" stroke-linejoin="round"/><path d="M504.835 498.999s1.732-15.454-13.869-26.145" stroke="url(#paint3_linear_95_154)" stroke-width="6" stroke-linecap="round" stroke-linejoin="round"/><path d="M630.161 474.372c-.293-2.891 1.225-24.2-7.727-36.337" stroke="url(#paint4_linear_95_154)" stroke-width="6" stroke-linecap="round" stroke-linejoin="round"/><path d="M619.176 479.282s-9.752-26.799-9.179-41.247" stroke="url(#paint5_linear_95_154)" stroke-width="6" stroke-linecap="round" stroke-linejoin="round"/><path d="M392.151 499.599s1.059-26.679-21.089-29.183" stroke="url(#paint6_linear_95_154)" stroke-width="6" stroke-linecap="round" stroke-linejoin="round"/><path d="M381.56 499.865s-.1-16.467-17.986-22.822" stroke="url(#paint7_linear_95_154)" stroke-width="6" stroke-linecap="round" stroke-linejoin="round"/><path d="M230.062 499.599s3.75-18.512-4.91-24.58a26.64 26.64 0 00-17.319-4.91" stroke="url(#paint8_linear_95_154)" stroke-width="6" stroke-linecap="round" stroke-linejoin="round"/><path d="M219.084 499.599s5.489-16.467-9.532-18.778" stroke="url(#paint9_linear_95_154)" stroke-width="6" stroke-linecap="round" stroke-linejoin="round"/><path d="M595.168 330.308l-60.844-1.239a7.426 7.426 0 01-7.268-7.58l.227-10.659a7.413 7.413 0 012.281-5.202 7.413 7.413 0 015.293-2.065l59.952 1.252" stroke="url(#paint10_linear_95_154)" stroke-width="6" stroke-linecap="round" stroke-linejoin="round"/><path d="M692.777 189.181c3.564 18.446-.706 40.315-23.215 62.43-23.981 23.655-56.255 32.288-86.597 33.613-1.532 39.262-3.051 77.651-3.051 77.651s91.307 11.458 95.257-25.852c1.998-19.212-5.442-36.797-13.156-49.341l29.856-33.773c22.688-26.092 14.954-56.274.906-64.728zm-76.239 147.802a19.724 19.724 0 11.82-39.44 19.724 19.724 0 01-.82 39.44z" fill="url(#paint11_linear_95_154)"/><path d="M666.597 145.217l-50.292 3.65c-21.776 1.099-42.493-6.042-61.638-14.322-4.143-1.785-16.653-12.023-16.653-12.023l-.193-.393c-11.011-23.468-24.5-48.235-30.023-50.3-13.695-5.122-34.159 54.936-40.027 73.201-59.246 41.147 4.549 117.02 37.856 129.23 30.942 11.324 114.868 25.852 163.955-22.582 47.135-46.336 14.342-91.58-2.985-106.461z" stroke="url(#paint12_linear_95_154)" stroke-width="6" stroke-linecap="round" stroke-linejoin="round"/><path d="M511.308 82.234s-15.054 6.761-19.417 59.992" stroke="url(#paint13_linear_95_154)" stroke-width="6" stroke-linecap="round" stroke-linejoin="round"/><path d="M576.724 185.051c3.922-.157 6.901-5.303 6.653-11.495-.248-6.191-3.628-11.084-7.549-10.927-3.922.157-6.901 5.304-6.653 11.495.248 6.192 3.628 11.084 7.549 10.927z" fill="url(#paint14_linear_95_154)"/><path d="M631.03 185.593c3.918-.172 6.874-5.326 6.603-11.511-.271-6.186-3.667-11.061-7.585-10.89-3.918.172-6.874 5.326-6.603 11.512.271 6.185 3.667 11.061 7.585 10.889z" fill="url(#paint15_linear_95_154)"/><path d="M593.31 210.185c6.501 15.067 11.25.206 12.263-8.094 1.079 7.807 6.735 20.33 11.851 9.905" stroke="url(#paint16_linear_95_154)" stroke-width="6" stroke-linecap="round" stroke-linejoin="round"/><path d="M617.537 194.777l-9.479 8.24a3.995 3.995 0 01-5.069-.153l-8.92-7.994c-2.138-1.918-.773-4.982 2.245-5.022l18.405-.234c3.184-.053 4.996 3.264 2.818 5.163z" fill="url(#paint17_linear_95_154)"/><path d="M611.995 84.226c7.894-8.993 15.521-14.775 20.484-11.604 6.281 3.996 16.526 37.516 21.982 65.993" stroke="url(#paint18_linear_95_154)" stroke-width="6" stroke-linecap="round" stroke-linejoin="round"/><path d="M631.493 78.85s-29.616 36.157-23.148 59.645" stroke="url(#paint19_linear_95_154)" stroke-width="6" stroke-linecap="round" stroke-linejoin="round"/><path d="M566.051 105.722V94.164l-7.993 11.558h7.993z" fill="url(#paint20_linear_95_154)"/><path d="M583.124 91.26a3.792 3.792 0 00-2.791 1.166c-1.648 1.852-2.469 4.96-2.465 9.326.005 4.365.826 7.474 2.465 9.325a3.925 3.925 0 005.582 0c1.639-1.847 2.458-4.956 2.458-9.325 0-4.37-.819-7.479-2.458-9.326a3.81 3.81 0 00-2.791-1.166z" fill="url(#paint21_linear_95_154)"/><path d="M605.447 105.722V94.164l-7.994 11.558h7.994z" fill="url(#paint22_linear_95_154)"/><path d="M700.523 127.937c-7.207-3.064-52.877-7.227-70.836-8.773-.493-11.104-15.408-57.4-48.002-57.287-1.152 0-2.264.04-3.33.1l-.213-3.397s-37.364 1.871-55.656 33.686l17.033 38.809 2.711 1.399c.254.106 7.275 2.924 11.325 4.662 19.144 8.274 40.973 12.804 62.749 11.704l82.288-5.995c2.344-.113 4.23-1.492 4.509-3.284l.999-6.335c.314-2.131-1.092-4.236-3.577-5.289zm-128.29-19.984a1.274 1.274 0 01-.933.387h-2.624v5.255a1.265 1.265 0 01-.386.926 1.332 1.332 0 01-1.852 0 1.254 1.254 0 01-.387-.926v-5.255h-10.498a1.333 1.333 0 01-1.332-1.333 1.273 1.273 0 01.246-.772l11.817-17.073a1.198 1.198 0 011.066-.54 1.33 1.33 0 011.333 1.332v15.761h2.624a1.332 1.332 0 011.332 1.332 1.28 1.28 0 01-.433.913l.027-.007zm15.534 5.03a6.58 6.58 0 01-7.161 1.425 6.585 6.585 0 01-2.131-1.425c-2.154-2.221-3.231-5.958-3.231-11.211 0-5.254 1.077-8.991 3.231-11.211a6.587 6.587 0 019.292 0c2.159 2.22 3.238 5.957 3.238 11.211 0 5.253-1.079 8.992-3.238 11.217v-.006zm23.861-5.03a1.248 1.248 0 01-.926.387h-2.664v5.255a1.254 1.254 0 01-.387.926 1.332 1.332 0 01-1.852 0 1.265 1.265 0 01-.386-.926v-5.255h-10.505a1.333 1.333 0 01-1.332-1.333 1.273 1.273 0 01.246-.772l11.818-17.073a1.2 1.2 0 011.065-.54 1.33 1.33 0 011.333 1.332v15.761h2.664a1.273 1.273 0 01.926.386 1.335 1.335 0 010 1.852z" fill="url(#paint23_linear_95_154)"/><path d="M569.822 63.342c9.576 0 17.339-3.781 17.339-8.446 0-4.665-7.763-8.447-17.339-8.447-9.576 0-17.34 3.782-17.34 8.447 0 4.665 7.764 8.446 17.34 8.446z" fill="url(#paint24_linear_95_154)"/><path d="M567.963 47.961c-3.331-7.807-21.09-38.515-39.036-35.344-21.043 2.884 39.036 35.344 39.036 35.344z" stroke="url(#paint25_linear_95_154)" stroke-width="6" stroke-linecap="round" stroke-linejoin="round"/><path d="M568.042 47.648c-2.771-6.468-10.931-34.805 1.626-44.11 14.222-11.385-1.626 44.11-1.626 44.11z" stroke="url(#paint26_linear_95_154)" stroke-width="6" stroke-linecap="round" stroke-linejoin="round"/><path d="M568.629 48.168c7.674 0 16.84-6.222 15.561-20.79-1.279-14.568 17.845-25.726 28.35-11.517" stroke="url(#paint27_linear_95_154)" stroke-width="6" stroke-linecap="round" stroke-linejoin="round"/><path d="M568.729 46.47c5.002 4.15 14.335 5.049 21.376-5.13 7.041-10.178 25.526-7.114 24.687 7.82" stroke="url(#paint28_linear_95_154)" stroke-width="6" stroke-linecap="round" stroke-linejoin="round"/><path d="M670.128 193.844s47.615-44.67 103.577-10.798" stroke="url(#paint29_linear_95_154)" stroke-width="6" stroke-linecap="round" stroke-linejoin="round"/><path d="M669.795 202.684s55.289-34.732 103.723 9.226" stroke="url(#paint30_linear_95_154)" stroke-width="6" stroke-linecap="round" stroke-linejoin="round"/><path d="M417.111 306.86a12.979 12.979 0 00-18.718 12.043 12.976 12.976 0 1025.266-4.556 12.526 12.526 0 00-6.548-7.487z" fill="url(#paint31_linear_95_154)"/><path d="M562.315 218.444l-31.408-11.277c-73.035-27.012-78.744-41.747-77.751-48.295a62.65 62.65 0 0114.655-13.835c2.584-8.047 7.993-24.201 14.428-39.302-32.82 6.401-59.246 27.198-60.871 72.788 0 0-51.545-43.105-144.104-20.996-15.321 3.663-16.987 15.64-14.362 30.422 30.895 173.76 180.741 203.69 303.769 172.661.993-9.059 2.212-49.747 2.898-75.226h-.1l15.141-19.671c10.472-25.093-5.302-44.364-22.295-47.269zm-89.835-99.5a2 2 0 011.432 3.731c-13.988 5.375-20.45 19.644-19.624 30.968a1.997 1.997 0 01-1.845 2.138h-.14a1.998 1.998 0 01-1.998-1.852c-.94-12.789 6.374-28.916 22.175-34.985zM331.733 271.622a1.84 1.84 0 01-.713 1.245 1.756 1.756 0 01-1.332.413 16.698 16.698 0 01-9.557-5.658 16.708 16.708 0 0119.96-25.827 16.711 16.711 0 019.122 18.86 16.705 16.705 0 01-5.956 9.375 1.846 1.846 0 01-2.598-.313l-17.179-21.876a13.988 13.988 0 00-3.451 7.487 12.532 12.532 0 002.665 9.592 12.418 12.418 0 007.58 4.663c.418.09.789.326 1.046.666a1.747 1.747 0 01.413 1.373zm28.544 1.125a12.462 12.462 0 00-8.926 4.364l-9.826 11.157a1.814 1.814 0 01-1.272.633 1.879 1.879 0 01-1.998-1.739 1.75 1.75 0 01.466-1.332l19.657-22.309a1.783 1.783 0 011.266-.626 1.863 1.863 0 011.361.449c.186.161.338.357.447.578a1.847 1.847 0 01.097 1.42c-.08.23-.207.44-.373.618l-2.798 3.157c5.703-.36 10.292.993 13.769 4.057a15.821 15.821 0 013.997 5.096c.163.309.258.65.28.999a1.92 1.92 0 01-.495 1.322 1.921 1.921 0 01-1.264.63 1.819 1.819 0 01-1.332-.467 1.925 1.925 0 01-.506-.666 11.577 11.577 0 00-3.138-4.117 12.538 12.538 0 00-9.399-3.224h-.013zm22.502 18.119a12.44 12.44 0 00-8.333 5.443l-8.374 12.276a1.839 1.839 0 01-1.19.831 1.862 1.862 0 01-1.423-.283 1.839 1.839 0 01-.783-1.222 1.864 1.864 0 01.025-.74c.059-.242.165-.47.314-.671l16.746-24.56a1.79 1.79 0 011.186-.779 1.796 1.796 0 011.386.293 1.852 1.852 0 01.777 1.184 1.833 1.833 0 01-.291 1.387l-2.372 3.477c5.609-1.061 10.33-.284 14.162 2.332a15.834 15.834 0 014.617 4.556c.202.286.339.614.399.959.065.362.021.735-.127 1.071-.147.337-.39.622-.7.82a1.85 1.85 0 01-2.064-.039 1.877 1.877 0 01-.593-.619 11.548 11.548 0 00-3.617-3.697 12.523 12.523 0 00-9.732-2.019h-.013zm43.565 35.052a16.708 16.708 0 01-19.305 8.752 16.701 16.701 0 01-12.351-17.226 16.703 16.703 0 0125.487-13.103 16.711 16.711 0 017.002 8.814 16.088 16.088 0 01-.82 12.763h-.013zm33.779-3.804a1.835 1.835 0 01-.894 1.099 1.851 1.851 0 01-1.41.14 1.945 1.945 0 01-.753-.413 11.453 11.453 0 00-4.563-2.438 13.048 13.048 0 00-16.187 8.693l-4.29 14.229a1.84 1.84 0 01-2.311 1.239 1.836 1.836 0 01-1.233-2.305l8.587-28.457a1.77 1.77 0 01.892-1.099 1.853 1.853 0 012.665 2.171l-1.219 3.997c5.036-2.7 9.772-3.379 14.208-2.038a15.924 15.924 0 015.776 2.958c.276.213.504.483.666.792a1.798 1.798 0 01.08 1.432h-.014zm77.078-34.605h-.173c-20.93-1.825-40.014-8.2-56.727-18.965-13.363-8.606-25.234-19.984-35.305-33.893-17.087-23.594-22.902-45.883-23.142-46.815a1.99 1.99 0 01.19-1.542 1.988 1.988 0 011.236-.94 2.008 2.008 0 011.536.229 2.006 2.006 0 01.908 1.26c.06.227 5.916 22.589 22.596 45.583 15.321 21.11 43.192 47.109 89.035 51.099a2.002 2.002 0 011.265 3.473 1.997 1.997 0 01-1.438.524l.019-.013z" fill="url(#paint32_linear_95_154)"/><path d="M345.889 258.459a12.954 12.954 0 00-2.661-9.581 12.978 12.978 0 00-8.663-4.881c-2.797-.3-5.62.25-8.1 1.579l15.987 20.35a13.706 13.706 0 003.437-7.467z" fill="url(#paint33_linear_95_154)"/><path d="M552.423 193.844s-47.616-44.631-103.577-10.771" stroke="url(#paint34_linear_95_154)" stroke-width="6" stroke-linecap="round" stroke-linejoin="round"/><path d="M552.742 202.684s-55.289-34.732-103.723 9.226" stroke="url(#paint35_linear_95_154)" stroke-width="6" stroke-linecap="round" stroke-linejoin="round"/><path d="M-171.196 500.325H1009.86" stroke="url(#paint36_linear_95_154)" stroke-width="6" stroke-linecap="round" stroke-linejoin="round"/></g><defs><linearGradient id="paint0_linear_95_154" x1="669.216" y1="357.47" x2="669.216" y2="482.783" gradientUnits="userSpaceOnUse"><stop stop-color="#144794"/><stop offset="1" stop-color="#D3D3D3"/></linearGradient><linearGradient id="paint1_linear_95_154" x1="343.94" y1="87.069" x2="343.94" y2="501.164" gradientUnits="userSpaceOnUse"><stop stop-color="#144794"/><stop offset="1" stop-color="#06162E"/></linearGradient><linearGradient id="paint2_linear_95_154" x1="508.671" y1="466.206" x2="508.671" y2="498.133" gradientUnits="userSpaceOnUse"><stop stop-color="#144794"/><stop offset="1" stop-color="#06162E"/></linearGradient><linearGradient id="paint3_linear_95_154" x1="497.929" y1="472.854" x2="497.929" y2="498.999" gradientUnits="userSpaceOnUse"><stop stop-color="#144794"/><stop offset="1" stop-color="#06162E"/></linearGradient><linearGradient id="paint4_linear_95_154" x1="626.297" y1="438.035" x2="626.297" y2="474.372" gradientUnits="userSpaceOnUse"><stop stop-color="#144794"/><stop offset="1" stop-color="#06162E"/></linearGradient><linearGradient id="paint5_linear_95_154" x1="614.574" y1="438.035" x2="614.574" y2="479.282" gradientUnits="userSpaceOnUse"><stop stop-color="#144794"/><stop offset="1" stop-color="#06162E"/></linearGradient><linearGradient id="paint6_linear_95_154" x1="381.61" y1="470.416" x2="381.61" y2="499.599" gradientUnits="userSpaceOnUse"><stop stop-color="#144794"/><stop offset="1" stop-color="#06162E"/></linearGradient><linearGradient id="paint7_linear_95_154" x1="372.567" y1="477.043" x2="372.567" y2="499.865" gradientUnits="userSpaceOnUse"><stop stop-color="#144794"/><stop offset="1" stop-color="#06162E"/></linearGradient><linearGradient id="paint8_linear_95_154" x1="219.351" y1="470.047" x2="219.351" y2="499.599" gradientUnits="userSpaceOnUse"><stop stop-color="#144794"/><stop offset="1" stop-color="#06162E"/></linearGradient><linearGradient id="paint9_linear_95_154" x1="214.807" y1="480.821" x2="214.807" y2="499.599" gradientUnits="userSpaceOnUse"><stop stop-color="#144794"/><stop offset="1" stop-color="#06162E"/></linearGradient><linearGradient id="paint10_linear_95_154" x1="561.111" y1="303.561" x2="561.111" y2="330.308" gradientUnits="userSpaceOnUse"><stop stop-color="#144794"/><stop offset="1" stop-color="#06162E"/></linearGradient><linearGradient id="paint11_linear_95_154" x1="643.065" y1="189.181" x2="643.065" y2="364.534" gradientUnits="userSpaceOnUse"><stop stop-color="#144794"/><stop offset="1" stop-color="#06162E"/></linearGradient><linearGradient id="paint12_linear_95_154" x1="568.723" y1="71.52" x2="568.723" y2="285.483" gradientUnits="userSpaceOnUse"><stop stop-color="#144794"/><stop offset="1" stop-color="#06162E"/></linearGradient><linearGradient id="paint13_linear_95_154" x1="501.599" y1="82.234" x2="501.599" y2="142.226" gradientUnits="userSpaceOnUse"><stop stop-color="#144794"/><stop offset="1" stop-color="#06162E"/></linearGradient><linearGradient id="paint14_linear_95_154" x1="575.828" y1="162.629" x2="576.724" y2="185.051" gradientUnits="userSpaceOnUse"><stop stop-color="#144794"/><stop offset="1" stop-color="#06162E"/></linearGradient><linearGradient id="paint15_linear_95_154" x1="630.048" y1="163.192" x2="631.03" y2="185.593" gradientUnits="userSpaceOnUse"><stop stop-color="#144794"/><stop offset="1" stop-color="#06162E"/></linearGradient><linearGradient id="paint16_linear_95_154" x1="605.367" y1="202.091" x2="605.367" y2="216.656" gradientUnits="userSpaceOnUse"><stop stop-color="#144794"/><stop offset="1" stop-color="#06162E"/></linearGradient><linearGradient id="paint17_linear_95_154" x1="605.761" y1="189.614" x2="605.761" y2="203.849" gradientUnits="userSpaceOnUse"><stop stop-color="#144794"/><stop offset="1" stop-color="#06162E"/></linearGradient><linearGradient id="paint18_linear_95_154" x1="633.228" y1="71.744" x2="633.228" y2="138.615" gradientUnits="userSpaceOnUse"><stop stop-color="#144794"/><stop offset="1" stop-color="#06162E"/></linearGradient><linearGradient id="paint19_linear_95_154" x1="619.457" y1="78.85" x2="619.457" y2="138.495" gradientUnits="userSpaceOnUse"><stop stop-color="#144794"/><stop offset="1" stop-color="#06162E"/></linearGradient><linearGradient id="paint20_linear_95_154" x1="562.054" y1="94.164" x2="562.054" y2="105.722" gradientUnits="userSpaceOnUse"><stop stop-color="#144794"/><stop offset="1" stop-color="#06162E"/></linearGradient><linearGradient id="paint21_linear_95_154" x1="583.121" y1="91.26" x2="583.121" y2="112.243" gradientUnits="userSpaceOnUse"><stop stop-color="#144794"/><stop offset="1" stop-color="#06162E"/></linearGradient><linearGradient id="paint22_linear_95_154" x1="601.45" y1="94.164" x2="601.45" y2="105.722" gradientUnits="userSpaceOnUse"><stop stop-color="#144794"/><stop offset="1" stop-color="#06162E"/></linearGradient><linearGradient id="paint23_linear_95_154" x1="613.315" y1="58.58" x2="613.315" y2="149.003" gradientUnits="userSpaceOnUse"><stop stop-color="#144794"/><stop offset="1" stop-color="#06162E"/></linearGradient><linearGradient id="paint24_linear_95_154" x1="569.822" y1="46.449" x2="569.822" y2="63.342" gradientUnits="userSpaceOnUse"><stop stop-color="#144794"/><stop offset="1" stop-color="#D3D3D3"/></linearGradient><linearGradient id="paint25_linear_95_154" x1="546.21" y1="12.388" x2="546.21" y2="47.961" gradientUnits="userSpaceOnUse"><stop stop-color="#144794"/><stop offset="1" stop-color="#06162E"/></linearGradient><linearGradient id="paint26_linear_95_154" x1="569.232" y1="1.998" x2="569.232" y2="47.648" gradientUnits="userSpaceOnUse"><stop stop-color="#144794"/><stop offset="1" stop-color="#06162E"/></linearGradient><linearGradient id="paint27_linear_95_154" x1="590.585" y1="9.291" x2="590.585" y2="48.168" gradientUnits="userSpaceOnUse"><stop stop-color="#144794"/><stop offset="1" stop-color="#06162E"/></linearGradient><linearGradient id="paint28_linear_95_154" x1="591.774" y1="35.392" x2="591.774" y2="49.398" gradientUnits="userSpaceOnUse"><stop stop-color="#144794"/><stop offset="1" stop-color="#06162E"/></linearGradient><linearGradient id="paint29_linear_95_154" x1="721.916" y1="170.358" x2="721.916" y2="193.844" gradientUnits="userSpaceOnUse"><stop stop-color="#144794"/><stop offset="1" stop-color="#06162E"/></linearGradient><linearGradient id="paint30_linear_95_154" x1="721.657" y1="189.656" x2="721.657" y2="211.91" gradientUnits="userSpaceOnUse"><stop stop-color="#144794"/><stop offset="1" stop-color="#06162E"/></linearGradient><linearGradient id="paint31_linear_95_154" x1="411.363" y1="305.518" x2="411.363" y2="331.47" gradientUnits="userSpaceOnUse"><stop stop-color="#144794"/><stop offset="1" stop-color="#06162E"/></linearGradient><linearGradient id="paint32_linear_95_154" x1="424.93" y1="105.735" x2="424.93" y2="371.356" gradientUnits="userSpaceOnUse"><stop stop-color="#144794"/><stop offset="1" stop-color="#06162E"/></linearGradient><linearGradient id="paint33_linear_95_154" x1="336.226" y1="243.917" x2="336.226" y2="265.926" gradientUnits="userSpaceOnUse"><stop stop-color="#144794"/><stop offset="1" stop-color="#06162E"/></linearGradient><linearGradient id="paint34_linear_95_154" x1="500.634" y1="170.386" x2="500.634" y2="193.844" gradientUnits="userSpaceOnUse"><stop stop-color="#144794"/><stop offset="1" stop-color="#06162E"/></linearGradient><linearGradient id="paint35_linear_95_154" x1="500.88" y1="189.656" x2="500.88" y2="211.91" gradientUnits="userSpaceOnUse"><stop stop-color="#144794"/><stop offset="1" stop-color="#06162E"/></linearGradient><linearGradient id="paint36_linear_95_154" x1="419.329" y1="500.325" x2="419.329" y2="501.325" gradientUnits="userSpaceOnUse"><stop stop-color="#144794"/><stop offset="1" stop-color="#06162E"/></linearGradient><clipPath id="clip0_95_154"><path fill="#fff" d="M0 0h830v502.929H0z"/></clipPath></defs></svg>