<svg width="700" height="700" fill="none" xmlns="http://www.w3.org/2000/svg"><path d="M267.435 208.418a194.051 194.051 0 0018.9 17.941c.84.7 2.051-.469 1.218-1.218-3.248-2.891-6.58-5.691-9.8-8.582a870.738 870.738 0 01-9.653-8.813.495.495 0 10-.7.7l.035-.028z" fill="url(#paint0_linear_102_353)"/><path d="M222.6 160.629c5.747 2.408 10.591 6.524 15.176 10.738 10.584 9.723 20.356 20.3 30.1 30.849a15.99 15.99 0 013.325 4.606c1.834 4.536-.805 9.583-3.647 13.573a101.037 101.037 0 01-20.139 21.063c-1.617 1.267-3.5 2.548-5.53 2.31a8.065 8.065 0 01-3.024-1.225 146.414 146.414 0 01-26.6-19.775c-2.1-1.981-4.2-4.074-5.446-6.678-1.246-2.604-1.54-5.831-.056-8.309" fill="#fff"/><path d="M222.292 161.105c4.34 2.009 8.12 4.9 11.718 8.015 3.85 3.325 7.511 6.874 11.123 10.444 7.371 7.294 14.413 14.903 21.441 22.519 1.624 1.757 3.458 3.535 4.095 5.922.609 2.268.063 4.655-.84 6.762a31.625 31.625 0 01-3.577 5.943 102.09 102.09 0 01-4.62 5.873 102.296 102.296 0 01-9.891 10.122 65.722 65.722 0 01-5.74 4.711 7.608 7.608 0 01-2.947 1.435c-1.288.238-2.415-.294-3.5-.917-9.674-5.495-18.459-12.313-26.67-19.782-.819-.749-2.03.448-1.225 1.225a138.787 138.787 0 0024.836 18.823c2.044 1.232 4.2 2.8 6.748 2.422 2.317-.371 4.2-2.044 5.978-3.5a100.757 100.757 0 0011.2-10.542 81.113 81.113 0 009.191-11.739c2.436-3.92 4.27-8.876 1.932-13.265-1.197-2.247-3.185-4.074-4.9-5.922-1.89-2.044-3.787-4.083-5.691-6.118-3.731-3.99-7.49-7.945-11.333-11.83-4.249-4.298-8.575-8.519-13.083-12.537-4.137-3.689-8.61-7.056-13.818-9.1-.574-.224-.987.749-.42 1.008l-.007.028z" fill="url(#paint1_linear_102_353)"/><path d="M195.209 161.322c-3.5-3.577-8.82-4.48-13.783-5.005-7.28-.777-15.071-1.05-21.455 2.541-4.536 2.548-7.875 6.825-10.381 11.389-6.881 12.509-8.106 27.3-8.638 41.538-.308 8.246-.441 16.527.567 24.717.525 4.27 1.351 8.603.651 12.852-.28 1.701-.805 3.381-.7 5.096.196 3.927 3.5 6.958 6.727 9.17 10.57 7.175 23.352 10.5 36.085 11.592 12.733 1.092 25.536-.077 38.262-1.211 4.564-.406 9.709-1.127 12.376-4.844 2.8-3.885 1.61-9.184 1.708-13.958.105-5.313 1.946-10.43 4.039-15.316 3.794-8.862 8.512-17.381 11.151-26.656 2.639-9.275 2.961-19.719-1.813-28.098A26.064 26.064 0 00231.7 172.48" fill="#fff"/><path d="M252.266 184.856c-.651-1.351-1.995-2.422-3.073-3.437a81.338 81.338 0 00-2.8-2.527 43.905 43.905 0 00-4.837-3.766 27.903 27.903 0 00-9.597-3.626 1.01 1.01 0 00-1.085.449.992.992 0 00-.108.805 1.007 1.007 0 00.524.621c.126.061.264.094.403.099 1.668.168 3.312.523 4.9 1.057a20.136 20.136 0 014.2 2.1 38.817 38.817 0 014.599 3.612c.952.84 1.876 1.708 2.8 2.583.924.875 2.051 2.17 3.339 2.751a.545.545 0 00.735-.735v.014z" fill="url(#paint2_linear_102_353)"/><path d="M195.587 160.944c-2.73-2.947-6.601-4.249-10.5-4.9a68.095 68.095 0 00-12.677-1.036 27.692 27.692 0 00-12.39 2.8 25.78 25.78 0 00-8.932 8.288c-5.047 7.231-7.7 16.002-9.156 24.619-1.547 9.198-1.911 18.613-2.058 27.923-.12 5.04.036 10.083.469 15.106.462 4.956 1.736 10.038 1.029 15.029-.322 2.289-1.078 4.466-.665 6.797a10.59 10.59 0 002.681 5.096c2.758 3.122 6.671 5.334 10.325 7.224 17.038 8.799 36.687 9.31 55.384 8.064 4.9-.329 9.8-.7 14.7-1.211 3.647-.378 7.56-1.043 10.416-3.535 3.087-2.688 3.535-6.811 3.43-10.661-.056-2.1-.238-4.2-.112-6.3a29.75 29.75 0 011.4-7.063 70.514 70.514 0 012.576-6.769.992.992 0 00.042-.793.999.999 0 00-1.344-.567.99.99 0 00-.539.583c-1.813 4.291-3.311 8.659-3.794 13.3-.413 4.004.511 8.099-.217 12.061a8.519 8.519 0 01-2.506 4.83 11.198 11.198 0 01-4.69 2.373c-4.018 1.099-8.351 1.169-12.481 1.512-18.312 1.54-37.324 2.282-54.803-4.34a60.596 60.596 0 01-11.564-5.81c-3.066-1.988-6.692-4.655-7.273-8.54-.336-2.275.588-4.592.819-6.839.194-2.428.114-4.87-.238-7.28-.574-4.774-1.148-9.506-1.295-14.329-.263-9.239.06-18.486.966-27.685.847-8.624 2.506-17.325 6.209-25.2a37.496 37.496 0 016.601-10.108 21.076 21.076 0 0110.269-6.02c4.2-1.043 8.54-1.022 12.803-.7 3.857.28 7.833.63 11.494 1.946a13.932 13.932 0 014.9 2.912.535.535 0 10.756-.756l-.035-.021z" fill="url(#paint3_linear_102_353)"/><path d="M226.891 224a69.434 69.434 0 002.443-51.296c1.54-1.512 4.305-.924 5.768.7s1.953 3.822 2.317 5.95a98.763 98.763 0 01-5.152 51.555" fill="url(#paint4_linear_102_353)"/><path d="M227.395 224.28a70.449 70.449 0 005.537-40.299 67.848 67.848 0 00-2.849-11.494l-.203.756c1.232-1.113 3.178-.658 4.34.336 1.449 1.246 1.946 3.297 2.289 5.096a86.863 86.863 0 011.4 12.705 97.897 97.897 0 01-6.391 39.27c-.371.966 1.176 1.4 1.54.427a99.797 99.797 0 006.195-27.244c.392-4.673.448-9.368.168-14.049a88.692 88.692 0 00-.7-7 41.053 41.053 0 00-1.127-6.3c-.581-1.988-1.673-3.948-3.619-4.9a4.638 4.638 0 00-5.194.56.754.754 0 00-.203.756 69.022 69.022 0 011.638 39.9 66.789 66.789 0 01-3.829 10.885c-.308.7.7 1.26 1.001.581l.007.014z" fill="url(#paint5_linear_102_353)"/><path d="M224.224 170.002a6.573 6.573 0 013.066 1.736 8.141 8.141 0 011.498 3.164c.798 2.59 1.596 5.187 2.233 7.826a.582.582 0 01-.025.696.582.582 0 01-.675.172 12.768 12.768 0 01-6.391-2.296 10.11 10.11 0 01-1.176 3.241 4.193 4.193 0 01-1.4 1.582 1.941 1.941 0 01-2.016.077 2.857 2.857 0 01-.952-1.309 31.547 31.547 0 01-2.562-16.961" fill="url(#paint6_linear_102_353)"/><path d="M224.091 170.478c1.729.63 3.003 1.526 3.654 3.297.651 1.771 1.043 3.5 1.512 5.215.238.875.455 1.75.7 2.625.093.428.214.849.364 1.26 0 0-.896-.175-1.099-.21a12.588 12.588 0 01-4.9-2.1.788.788 0 00-.694-.047.8.8 0 00-.468.516c-.238 1.218-1.239 5.005-3.122 4.55-.896-.224-1.323-1.974-1.61-2.716a30.772 30.772 0 01-.931-2.849 34.649 34.649 0 01-.896-12.145c.07-.861-1.4-1.071-1.512-.21a30.557 30.557 0 001.687 15.337c.7 1.932 1.659 4.844 4.312 4.053 2.191-.658 3.206-3.605 3.598-5.6l-1.162.469a13.773 13.773 0 006.209 2.373c.861.105 1.89.084 2.1-.973a3.492 3.492 0 00-.217-1.484 38.693 38.693 0 00-.539-1.96 56.95 56.95 0 00-2.268-6.867c-.861-1.953-2.436-2.968-4.445-3.5a.499.499 0 00-.527.711c.054.11.147.196.261.241l-.007.014z" fill="url(#paint7_linear_102_353)"/><path d="M251.461 125.664c2.366 7.133-2.73 15.484.609 22.211.379.596.633 1.263.749 1.96.084 1.4-1.134 2.275-2.583 2.744a4.194 4.194 0 00-2.849 2.87 34.563 34.563 0 01-2.8 7.588c-1.673 3.122-3.199 7.182-6.545 8.351-3.346 1.169-8.246-.7-11.746-1.568-.896-.231-1.897-.455-2.695 0a3.56 3.56 0 00-1.169 1.4 385.178 385.178 0 00-5.033 9.1 4.512 4.512 0 01-1.687 2.044c-1.015.532-2.247.217-3.325-.161a32.671 32.671 0 01-18.599-17.003 3.3 3.3 0 01-.413-2.247 3.79 3.79 0 011.54-1.736c7.7-5.873 13.846-17.206 16.765-26.439.924-2.947-.952-4.389 0-7.329 1.316-4.2 2.667-8.4 5.18-11.998 2.513-3.598 6.412-6.461 10.78-6.643a21.354 21.354 0 014.62.469c4.298.756 8.7 1.554 12.445 3.78 3.745 2.226 6.749 6.251 6.504 10.598" fill="#fff"/><path d="M250.936 125.811c1.995 6.447-1.715 13.02-.476 19.537.156.771.391 1.524.7 2.247.308.749.994 1.624.924 2.471-.126 1.568-2.408 1.743-3.444 2.45-1.442.994-1.862 2.373-2.324 3.976a32.247 32.247 0 01-2.1 5.6c-1.274 2.562-2.485 5.642-4.683 7.56-2.534 2.212-6.251 1.281-9.17.504-1.554-.413-3.094-.966-4.669-1.246a3.344 3.344 0 00-3.78 1.715c-1.092 1.799-2.1 3.668-3.094 5.509-.476.861-.945 1.722-1.4 2.583-.393.953-.929 1.84-1.589 2.632-1.309 1.253-3.64 0-5.019-.588a31.508 31.508 0 01-4.249-2.226 32.31 32.31 0 01-7.406-6.384 30.302 30.302 0 01-2.94-4.046 29.882 29.882 0 01-1.113-1.974c-.399-.77-1.022-1.722-1.022-2.611 0-.889.966-1.435 1.589-1.911a27.48 27.48 0 001.729-1.456 38.56 38.56 0 003.36-3.5 62.103 62.103 0 0010.066-17.206 51.7 51.7 0 001.561-4.354 8.308 8.308 0 000-4.403 6.728 6.728 0 01-.189-2.009c.158-.958.416-1.896.77-2.8.574-1.785 1.169-3.563 1.911-5.285 1.4-3.29 3.367-6.44 6.3-8.603a12.866 12.866 0 014.34-2.149 13.17 13.17 0 015.6-.063c6.853 1.127 14.826 2.541 18.431 9.24a9.182 9.182 0 011.12 4.62c0 .742 1.099.7 1.148 0a11.612 11.612 0 00-3.717-8.841c-2.632-2.625-6.139-4.088-9.688-5.012-1.925-.497-3.878-.847-5.838-1.19a19.51 19.51 0 00-6.013-.427 14.744 14.744 0 00-8.708 4.865c-2.576 2.8-4.2 6.3-5.467 9.835a27.433 27.433 0 00-1.687 5.46c-.203 1.54.406 2.933.476 4.452.084 1.652-.742 3.367-1.316 4.9a68.391 68.391 0 01-2.065 4.9 63.784 63.784 0 01-5.341 9.317 39.969 39.969 0 01-6.916 7.812c-1.218 1.036-3.017 1.953-3.003 3.787 0 1.596 1.155 3.325 1.932 4.676a33.553 33.553 0 0015.064 13.678c1.491.7 3.178 1.498 4.837 1.547 2.009.056 3.024-1.4 3.878-3.01a331.022 331.022 0 013.164-5.761c.532-.961 1.071-1.916 1.617-2.863.595-1.029 1.127-1.582 2.387-1.351 3.5.637 6.727 2.212 10.318 2.142 3.262-.063 5.516-1.932 7.161-4.62a43.805 43.805 0 004.543-9.8c.574-1.862.742-3.906 2.765-4.753 1.295-.546 2.723-1.029 3.227-2.506.588-1.729-.784-3.234-1.281-4.809a14.624 14.624 0 01-.525-5.11c.175-3.549 1.064-7 1.078-10.591.03-1.66-.206-3.315-.7-4.9-.217-.658-1.253-.378-1.05.294l-.014.049z" fill="url(#paint8_linear_102_353)"/><path d="M245.546 141.148a.938.938 0 00-.203-.861 1.066 1.066 0 00-.574-.315 1.257 1.257 0 00-.854.126l-.161.098a1.52 1.52 0 00-.28.238 1.632 1.632 0 00-.336.644 1.3 1.3 0 000 .7c.081.272.257.506.497.658.185.114.398.174.616.175.224-.002.443-.062.637-.175a.873.873 0 00.42-.546.984.984 0 000-.511.845.845 0 00-.182-.315l-.147-.105a.53.53 0 00-.266-.091.43.43 0 00-.189 0 .412.412 0 00-.182.049.422.422 0 00-.154.091.555.555 0 00-.182.203v.042l.112-.147-.042.042.154-.119a1.082 1.082 0 00-.196.154l-.042.042.154-.119a.238.238 0 01-.084.049l.182-.077a.34.34 0 01-.119 0h.203-.126.203-.112l.182.077a.296.296 0 01-.077-.049l.154.119-.063-.056.119.154-.063-.105.077.175a.409.409 0 01-.035-.133v.203a.641.641 0 010-.175v.196a.88.88 0 01.049-.196l-.07.175c.037-.084.084-.164.14-.238l-.112.147c.046-.059.097-.113.154-.161l-.14.112a.69.69 0 01.161-.091l-.168.07a.619.619 0 01.147-.042h-.182.133-.182.119l-.154-.063h.07c.064.04.132.073.203.098l-.154-.063a.254.254 0 01.084.049l-.119-.098.056.063-.084-.119.042.077.084.112.112.084a.533.533 0 00.343.063.545.545 0 00.455-.392l-.028.077z" fill="url(#paint9_linear_102_353)"/><path d="M248.157 138.033a1.398 1.398 0 00-.49-.938 2.936 2.936 0 00-.7-.595 7.998 7.998 0 00-1.631-.546l.301.126h-.056l-.987 2.338c.294.042.581.063.868.105l-.343-.049a9.31 9.31 0 011.75.434l.7-2.506a13.634 13.634 0 00-1.89-.392 22.87 22.87 0 00-1.211-.14 5.175 5.175 0 00-.98-.042 1.4 1.4 0 00-.924.378 1.308 1.308 0 00.924 2.233h.322a1.205 1.205 0 001.078-.7 1.164 1.164 0 00-.245-1.281l-.238-.203-.917 2.233h.903s.609.049.91.091l-.35-.049c.651.092 1.294.23 1.925.413a1.315 1.315 0 001.603-.903 1.337 1.337 0 00-.91-1.603 8.042 8.042 0 00-1.162-.315 6.86 6.86 0 00-1.463-.182 1.283 1.283 0 00-1.277 1.454 1.293 1.293 0 00.569.899 1.277 1.277 0 001.051.16h.056l-.336.042h1.036c.11-.014.22-.014.329 0h-.168.203c.156.018.314.018.469 0a.365.365 0 01-.231 0c-.091 0-.091 0 0 0 .06.01.118.024.175.042a.503.503 0 01.133.042s.385.154.28.126a.82.82 0 00.287.035.7.7 0 00.7-.7l-.063-.007z" fill="url(#paint10_linear_102_353)"/><path d="M223.769 135.912l.154.098c.049 0-.084-.077 0 0l.07.07.056.063c.042.042-.07-.105 0 0 .032.044.06.091.084.14l.042.091c0-.042-.035-.105 0 0 .02.062.036.125.049.189v.315c0 .077-.035.28-.035.42 0-.049 0-.119 0 0a.33.33 0 010 .077v.098l.035-.084a.492.492 0 01.203-.133c-.091.035.161 0 .063 0a.605.605 0 01.217.056.329.329 0 01.147.175.374.374 0 010 .455.393.393 0 01-.399.182c.049 0 .049 0 0 0s-.049 0 0 0c.066.042.14.071.217.084a.598.598 0 00.75-.531.576.576 0 00-.078-.337.965.965 0 00-.819-.42.841.841 0 00-.777.595.762.762 0 00.357.847.85.85 0 00.819 0 1.34 1.34 0 00.49-1.246 2.5 2.5 0 00-.273-1.169 1.778 1.778 0 00-.938-.826.515.515 0 00-.595.287.5.5 0 00.21.623l-.049-.119z" fill="url(#paint11_linear_102_353)"/><path d="M222.817 131.075c1.827-.7 3.969.392 5.012 2.044 1.043 1.652 1.197 3.703 1.106 5.649-.294 6.265-2.842 12.152-4.774 18.116a8.408 8.408 0 00-.581 3.143c.01.538.162 1.064.44 1.524.277.461.671.841 1.142 1.101a4.73 4.73 0 00-2.475 6.686 4.737 4.737 0 001.873 1.882c.313.14.601.329.854.56.197.26.344.555.434.868a7.355 7.355 0 006.965 4.557 3.429 3.429 0 011.036.042c.413.155.79.393 1.106.7a8.753 8.753 0 006.3 2.226c2.268-.203 4.466-1.778 4.998-3.99 4.053-.063 7.511-4.256 6.804-8.239 1.4-.497 1.148.175 1.61-1.246a5.23 5.23 0 00.301-2.898 2.099 2.099 0 00-2.1-1.68c-.868-4.347-1.19-10.094-5.341-11.676-2.8-1.057-7.7-1.4-10.598-2.191a4.964 4.964 0 01-2.863-1.673 5.242 5.242 0 01-.7-2.8 40.485 40.485 0 01.532-8.918c.06-.634.303-1.237.7-1.736a4.734 4.734 0 011.645-.861 6.182 6.182 0 003.675-5.957 2.967 2.967 0 00-.462-1.519c-.7-.98-2.051-1.141-3.248-1.106a20.889 20.889 0 00-12.278 4.473" fill="url(#paint12_linear_102_353)"/><path d="M222.95 131.551c3.353-1.057 5.145 2.758 5.271 5.453a29.338 29.338 0 01-1.477 9.478c-.917 3.122-2.1 6.16-3.157 9.233-.875 2.534-1.911 6.167 1.099 7.763l.224-1.743a5.673 5.673 0 00-3.656 4.384 5.675 5.675 0 002.004 5.346c.427.357 1.134.567 1.477.987.343.42.56 1.337.938 1.911a8.396 8.396 0 006.629 3.787c.343 0 .7-.056 1.036 0 .361.057.695.229.952.49a12.78 12.78 0 001.834 1.288 9.485 9.485 0 004.249 1.239c2.989.098 5.957-1.757 6.755-4.704l-.903.7a8.285 8.285 0 007.7-9.429l-.651 1.148c.539-.175 1.253-.154 1.673-.581a5.08 5.08 0 00.868-2.317c.448-2.1-.406-4.9-2.996-4.753l.903.7c-.7-3.633-.917-8.302-3.885-10.948-1.54-1.4-3.584-1.806-5.6-2.17-2.219-.413-4.473-.644-6.664-1.169-1.106-.259-2.443-.595-3.059-1.652-.616-1.057-.518-2.849-.518-4.137.001-1.492.083-2.983.245-4.466.126-1.127.077-3.262 1.183-3.906.49-.287 1.064-.42 1.561-.7a6.575 6.575 0 001.4-.98 7.103 7.103 0 001.806-2.688c.735-1.883.77-4.648-1.295-5.691a7.052 7.052 0 00-3.654-.441c-1.396.1-2.779.334-4.13.7a22.133 22.133 0 00-7.812 3.934c-.791.623.329 1.729 1.113 1.113a20.21 20.21 0 016.699-3.437 19.504 19.504 0 013.696-.7c1.036-.098 2.324-.266 3.297.189 1.099.504 1.078 1.939.854 2.961a5.544 5.544 0 01-1.505 2.758c-.826.819-1.813 1.057-2.8 1.596a3.409 3.409 0 00-1.575 2.597 41.124 41.124 0 00-.588 8.134 9.146 9.146 0 00.553 3.689 4.388 4.388 0 002.296 2.1c3.78 1.652 8.225 1.071 12.005 2.73 1.862.819 2.737 2.8 3.276 4.62.616 2.1.868 4.298 1.295 6.447a.933.933 0 00.896.7c1.729-.098 1.26 2.282.959 3.255a2.5 2.5 0 00-.224.7c0 .224.301-.196.287-.21-.014-.014-.966.21-1.064.245a.962.962 0 00-.651 1.148c.539 3.451-2.45 6.937-5.901 7.056a.954.954 0 00-.903.7 4.814 4.814 0 01-4.802 3.318 7.287 7.287 0 01-3.444-.987c-1.001-.553-1.862-1.631-2.975-1.939-1.113-.308-2.1 0-3.164-.301a6.548 6.548 0 01-2.8-1.652 8.92 8.92 0 01-1.631-2.667c-.525-1.05-1.701-1.274-2.443-2.1a3.832 3.832 0 01-.035-4.966 3.83 3.83 0 011.435-1.061.97.97 0 00.676-.797.971.971 0 00-.445-.946c-1.505-.798-1.176-2.723-.791-4.081.476-1.666 1.064-3.304 1.61-4.942a67.063 67.063 0 002.8-9.982c.504-2.968.924-6.454-.42-9.275-1.057-2.219-3.675-3.836-6.125-2.947-.588.217-.35 1.141.259.952l-.07-.084z" fill="url(#paint13_linear_102_353)"/><path d="M237.839 124.159a43.967 43.967 0 0011.039 2.205c1.309.091 2.716.091 3.801-.637s1.568-2.471.609-3.36c1.792-.308 3.626-1.253 4.305-2.933.679-1.68-.462-4.032-2.282-3.99.469-1.253-.35-2.59-1.211-3.612-4.2-4.9-11.144-8.099-17.283-6.013a13.05 13.05 0 01-2.912.875c-2.87.287-5.6-2.268-8.4-1.617a7.621 7.621 0 00-2.471 1.253l-4.249 2.87c-3.129 2.1-6.3 4.2-8.855 7-2.555 2.8-4.501 6.3-4.669 10.038a29.7 29.7 0 00.7 6.125 65.61 65.61 0 01.819 13.139 97.408 97.408 0 0014.112-7.084 6.007 6.007 0 01.392-6.3" fill="url(#paint14_linear_102_353)"/><path d="M237.664 124.775a36.763 36.763 0 0012.061 2.478c1.554 0 3.276-.294 4.249-1.624a2.993 2.993 0 00-.084-3.864l-.378 1.4c2.226-.42 4.718-1.792 5.089-4.242.308-2.1-1.092-4.298-3.29-4.361l.826 1.085c.798-2.632-1.778-5.047-3.57-6.601a20.225 20.225 0 00-6.643-3.878 15.129 15.129 0 00-7.448-.7c-1.365.231-2.583.826-3.906 1.176s-2.709-.049-4.025-.532a13.965 13.965 0 00-3.633-1.029 6.061 6.061 0 00-3.78 1.113 182.943 182.943 0 00-7.938 5.348c-4.571 3.248-9.065 7.35-10.416 13.02-.84 3.5.084 6.951.574 10.437.515 3.78.717 7.597.602 11.41a.796.796 0 00.315.639.808.808 0 00.7.138 97.854 97.854 0 0014.28-7.224.75.75 0 00.259-1.008 5.274 5.274 0 01.287-5.642c.448-.658-.616-1.267-1.071-.623a6.933 6.933 0 00-.483 7l.259-1.008a102.34 102.34 0 01-13.958 6.937l1.022.777a61.042 61.042 0 00-.245-9.1c-.308-3.038-1.12-6.062-1.218-9.1-.161-5.467 3.416-9.975 7.448-13.265 2.198-1.792 4.592-3.325 6.951-4.9 1.246-.833 2.478-1.722 3.759-2.499a4.329 4.329 0 013.689-.497c2.324.651 4.438 1.939 6.93 1.323 1.253-.308 2.408-.889 3.675-1.148a12.191 12.191 0 013.346-.175 16.21 16.21 0 017.504 2.737 19.319 19.319 0 013.115 2.569c.945.959 2.422 2.366 1.974 3.843a.862.862 0 00.819 1.085c1.316.035 1.904 1.736 1.491 2.8-.574 1.491-2.296 2.149-3.738 2.422a.856.856 0 00-.572.597.854.854 0 00.194.803c.875.938-.364 2.1-1.232 2.394-1.316.413-2.884.147-4.2 0a48.127 48.127 0 01-9.254-1.743c-.798-.238-1.099.952-.343 1.232h.007z" fill="url(#paint15_linear_102_353)"/><path d="M205.8 135.681l40.054-11.592c2.856-.826 5.705-1.652 8.512-2.618a14.877 14.877 0 005.376-2.8c-2.8-2.142-4.053-5.635-6.062-8.498-2.8-3.962-7.035-6.741-11.606-8.323-7.301-2.52-15.47-2.912-22.82-.35-6.72 2.345-13.769 7.763-16.1 14.7-1.82 5.376-.658 11.277.798 16.8a6.2 6.2 0 01.301 2.716l1.001.448" fill="#fff"/><path d="M205.947 136.241c14.7-4.102 29.435-8.134 44.1-12.495 3.5-1.043 7.518-1.96 10.339-4.438a.881.881 0 000-1.246c-2.261-1.806-3.5-4.431-4.949-6.86a22.358 22.358 0 00-5.6-6.3c-4.9-3.745-11.2-5.509-17.241-5.978a32.902 32.902 0 00-17.822 3.5c-4.837 2.555-9.345 6.475-11.704 11.487a20.082 20.082 0 00-1.652 10.304c.159 1.855.449 3.695.868 5.509.217.952.455 1.897.7 2.8a7.56 7.56 0 01.49 2.905.831.831 0 00.378.917l1.001.441c.931.413 1.75-.945.805-1.4l-.987-.462.371.917c.238-1.526-.245-2.94-.602-4.41a67.998 67.998 0 01-.973-4.781 22.07 22.07 0 01.364-9.499c1.498-5.131 5.495-9.219 9.933-11.998a30.313 30.313 0 0116.632-4.508c5.859.091 12.04 1.547 17.01 4.746a20.707 20.707 0 016.468 6.643c1.554 2.541 2.884 5.306 5.271 7.189v-1.246c-2.471 2.198-6.132 3.003-9.219 3.948-3.577 1.092-7.175 2.1-10.773 3.171-7.112 2.1-14.231 4.158-21.329 6.3l-12.187 3.703a.58.58 0 00.308 1.12v.021z" fill="url(#paint16_linear_102_353)"/><path d="M231.981 127.4a161.002 161.002 0 01-6.923 22.057l1.197-.49c-5.089-3.787-7.7-9.842-10.129-15.477-.427-.973-1.834-.126-1.4.833 2.527 5.957 5.383 12.096 10.724 16.051.469.35 1.029-.049 1.204-.483a100.7 100.7 0 006.3-22.232c.091-.602-.784-.882-.931-.259h-.042z" fill="url(#paint17_linear_102_353)"/><path d="M224.868 149.933c.107 2.747.419 5.482.931 8.183a110.297 110.297 0 001.715 8.211 52.056 52.056 0 002.254 7.231 18.455 18.455 0 003.668 6.076c.595.588 1.736-.21 1.204-.924a25.265 25.265 0 01-3.563-6.118 61.157 61.157 0 01-2.1-7 116.344 116.344 0 01-1.701-7.868c-.476-2.632-.798-5.299-1.302-7.924-.119-.623-1.106-.469-1.099.147l-.007-.014z" fill="url(#paint18_linear_102_353)"/><path d="M214.34 118.692a10.91 10.91 0 012.8-3.738.596.596 0 00.042-.784.585.585 0 00-.763-.154c-.367.274-.71.581-1.022.917a11.02 11.02 0 00-.826 1.05 9.022 9.022 0 00-1.134 2.331.505.505 0 00.036.344c.053.106.142.19.251.237a.506.506 0 00.616-.203z" fill="url(#paint19_linear_102_353)"/><path d="M218.624 120.029a9.173 9.173 0 012.576-3.773.578.578 0 00-.031-.787.584.584 0 00-.788-.032 10.308 10.308 0 00-2.681 4.333.501.501 0 00.343.602.502.502 0 00.609-.343h-.028z" fill="url(#paint20_linear_102_353)"/><path d="M222.923 121.1c.315-.572.665-1.124 1.05-1.652l.14-.189a.76.76 0 01.07-.091c-.049.056.056-.077 0 0l.364-.462c.025-.029.048-.059.07-.091.047-.064.099-.125.154-.182.105-.14.224-.273.336-.406a.58.58 0 000-.819.592.592 0 00-.819 0 14.207 14.207 0 00-2.31 3.402.53.53 0 00.214.687.53.53 0 00.703-.155l.028-.042z" fill="url(#paint21_linear_102_353)"/><path d="M227.024 102.942a20.104 20.104 0 0113.475 5.754 20.433 20.433 0 014.263 5.936c.896 1.904 1.204 5.103 3.388 6.041a.636.636 0 00.862-.233.639.639 0 00-.218-.866c-1.141-.791-1.512-1.988-1.932-3.248a21.705 21.705 0 00-1.442-3.381 20.367 20.367 0 00-4.76-5.831 21.247 21.247 0 00-13.636-5.145.492.492 0 00-.431.486.492.492 0 00.431.487z" fill="url(#paint22_linear_102_353)"/><path d="M250.656 121.926a.549.549 0 00.484-.542.546.546 0 00-.484-.543.544.544 0 00-.484.543.544.544 0 00.484.542z" fill="url(#paint23_linear_102_353)"/><path d="M241.5 155.05c.008.134.027.268.056.399 0 .091.063.182.098.273.094.222.199.44.315.651.219.385.488.741.798 1.057a.597.597 0 00.84 0 .599.599 0 000-.84 5.569 5.569 0 01-.392-.406l-.091-.112-.042-.049c.105.126.042.056 0 0l-.168-.245a4.34 4.34 0 01-.273-.49l-.063-.133a2.79 2.79 0 00-.189-.364.482.482 0 00-.805-.052.482.482 0 00-.098.297l.014.014z" fill="#fff"/><path d="M219.198 185.731l.749-6.461a4.702 4.702 0 00-.203-2.625 4.597 4.597 0 00-1.967-1.743c-3.815-2.233-7.7-4.361-11.151-7.147-3.451-2.786-6.419-6.3-7.791-10.5l2.191-3.402-11.144 2.191c-.907.1-1.773.432-2.513.966-1.4 1.253-1.085 3.542-.448 5.334 2.954 8.337 9.373 14.91 15.729 21.063 1.246 1.211 2.597 2.464 4.298 2.8a6.217 6.217 0 004.718-1.239 18.377 18.377 0 003.5-3.591c-.511 1.897 1.358 3.542 3.045 4.557.28.175.644.343.931.175.287-.168.063-.777-.217-.588" fill="url(#paint24_linear_102_353)"/><path d="M219.758 185.731l.7-5.446c.196-1.491.553-3.129-.406-4.438-.854-1.162-2.366-1.806-3.577-2.506a161.521 161.521 0 01-4.347-2.59c-5.313-3.304-10.563-7.539-12.642-13.678l-.07.539c.7-1.134 1.449-2.275 2.191-3.402.357-.546-.231-1.127-.791-1.022l-7.441 1.4-3.717.7a6.138 6.138 0 00-2.632 1.001c-3.122 2.408-.532 7.469.812 10.15a49.106 49.106 0 007.28 10.346 104.61 104.61 0 004.459 4.69 42.625 42.625 0 004.424 4.137 6.305 6.305 0 006.3.945c2.275-.903 3.864-2.8 5.362-4.655l-1.274-.742c-.497 2.31 1.281 4.053 3.059 5.208.7.462 1.974.973 2.45-.098a1.067 1.067 0 00-.138-1.132 1.068 1.068 0 00-1.08-.366.77.77 0 00.406 1.477l.133-.035-.588-.077-.084-.875-.329-.203c-.147-.098-.301-.196-.441-.301a7.59 7.59 0 01-1.078-.924 2.517 2.517 0 01-.84-2.268c.147-.7-.756-1.4-1.274-.735-1.211 1.498-2.464 3.087-4.2 4.011a4.857 4.857 0 01-5.383-.392 36.514 36.514 0 01-4.102-3.85 110.458 110.458 0 01-3.878-4.018 52.615 52.615 0 01-6.734-8.883 32.743 32.743 0 01-2.478-5.159c-.49-1.33-1.141-3.227-.294-4.55.56-.868 1.638-1.043 2.576-1.232l3.71-.742 7.413-1.505-.791-1.022c-.385.616-.784 1.232-1.176 1.841-.322.497-1.078 1.295-1.099 1.911a4.54 4.54 0 00.546 1.582c.243.59.517 1.167.819 1.729a24.194 24.194 0 004.697 6.013 42.369 42.369 0 006.559 4.977c2.401 1.526 5.005 2.8 7.35 4.375 1.568 1.071 1.232 2.688 1.064 4.347l-.532 5.446c-.077.7 1.022.7 1.113 0l-.007.021z" fill="url(#paint25_linear_102_353)"/><path d="M137.48 251.405a53.993 53.993 0 0044.744-23.149c1.295-1.904 2.59-4.004 4.704-4.9a11.071 11.071 0 014.529-.616l39.424.175a2.653 2.653 0 011.512.315c.7.469.763 1.4.756 2.261-.042 8.4-1.274 18.585 5.523 23.569 1.05.77 2.282 1.4 2.968 2.492.518.995.789 2.099.791 3.22.42 5.096.835 10.194 1.246 15.295.364 4.459.7 9.1-.938 13.3-3.703 9.422-15.365 12.376-25.375 13.916-14 2.163-28.238 4.06-42.343 2.569-14.105-1.491-28.259-6.685-38.101-16.891a11.59 11.59 0 01-2.954-4.389c-.987-3.171.511-6.517 1.568-9.667a37.54 37.54 0 001.897-14c-.238-4.291-.133-10.185 4.095-10.969.72 4.173.924 8.419.609 12.642" fill="url(#paint26_linear_102_353)"/><path d="M137.48 251.923a53.56 53.56 0 0027.944-7.259 54.6 54.6 0 0011.501-8.862 52.66 52.66 0 004.746-5.544c1.449-1.939 2.639-4.424 4.704-5.796a7.25 7.25 0 013.997-1.001c1.526-.035 3.052 0 4.571 0l9.597.056 19.187.091h6.979c.7 0 1.365 0 1.582.749.294 1.036.084 2.324.063 3.388-.021 1.064-.056 2.254-.07 3.388-.063 4.333 0 8.925 1.694 12.985a12.837 12.837 0 003.584 4.984c.917.763 2.016 1.309 2.877 2.142 1.001.966 1.12 2.31 1.225 3.626.504 6.188 1.162 12.383 1.463 18.578.245 5.152-.448 10.283-4.088 14.196-2.898 3.122-6.874 5.005-10.871 6.3a85.892 85.892 0 01-13.741 2.8c-6.3.931-12.558 1.764-18.9 2.24-11.522.861-23.254.455-34.377-2.919a60.098 60.098 0 01-14.133-6.3 49.738 49.738 0 01-6.3-4.571c-1.967-1.68-4.2-3.556-5.453-5.852-1.456-2.646-.595-5.6.315-8.281a48.449 48.449 0 002.268-8.68c.365-2.805.468-5.639.308-8.463a20.301 20.301 0 01.406-5.859c.441-1.701 1.344-3.157 3.157-3.535l-.931-.532c.681 4.109.887 8.283.616 12.439-.056.931 1.365.917 1.442 0 .331-4.29.131-8.604-.595-12.845a.77.77 0 00-.931-.532c-4.2.861-4.739 5.831-4.746 9.345a78.818 78.818 0 01-.07 8.134 39.137 39.137 0 01-2.17 9.191c-.959 2.695-1.988 5.6-1.309 8.47.637 2.688 2.758 4.774 4.683 6.622A51.806 51.806 0 00150.836 294c10.164 4.984 21.469 7 32.725 7.217 6.518.072 13.033-.296 19.502-1.099 5.915-.7 11.858-1.491 17.71-2.583 8.323-1.554 18.312-4.515 22.239-12.824 2.548-5.39 1.715-11.508 1.246-17.241l-.812-9.912c-.21-2.618 0-5.747-2.191-7.602-.938-.791-2.037-1.4-2.947-2.191a10.922 10.922 0 01-2.037-2.457 16.733 16.733 0 01-2.1-6.223 44.014 44.014 0 01-.385-7.119c0-2.331.266-4.725.084-7.049a2.742 2.742 0 00-1.435-2.506 4.273 4.273 0 00-1.757-.252h-2.618l-9.94-.035-19.887-.077h-4.9a33.686 33.686 0 00-4.69.126c-2.653.364-4.438 2.009-5.943 4.109s-2.926 4.242-4.634 6.209a52.15 52.15 0 01-5.32 5.306 54.644 54.644 0 01-27.685 12.635c-2.525.36-5.073.529-7.623.504a.528.528 0 00-.465.522.529.529 0 00.465.521l.042-.056z" fill="url(#paint27_linear_102_353)"/><path d="M243.6 276.15a1748.907 1748.907 0 0128.882 82.74c21.966 68.355 39.83 138.754 42 210.511.483 15.988 1.505 34.657 14.7 43.701a375.28 375.28 0 01-49.161-.266c-4.298-.301-9.135-.966-11.69-4.431-1.701-2.296-1.967-5.313-2.219-8.155a309.375 309.375 0 00-19.775-84.7c-4.242-10.934-9.142-21.7-11.788-33.124-3.066-13.209-3.031-26.908-3.913-40.439-.21-3.241-.49-6.566-1.904-9.492-1.414-2.926-3.969-5.355-6.3-7.7-34.146-34.342-42.7-86.282-44.205-134.659" fill="url(#paint28_linear_102_353)"/><path d="M242.998 276.325a2018.115 2018.115 0 0124.395 69.636c7.511 22.834 14.602 45.815 20.916 69.006 6.314 23.191 11.816 46.578 16.1 70.217a586.767 586.767 0 018.666 71.4c.567 9.982.399 20.055 1.757 29.974 1.141 8.316 3.5 16.919 9.303 23.261a27.947 27.947 0 004.648 4.032l.427-1.568a373.674 373.674 0 01-44.184.112c-5.467-.315-14 .168-16.8-5.726-1.4-2.891-1.288-6.419-1.596-9.541-.35-3.57-.763-7.128-1.239-10.675a310.578 310.578 0 00-8.19-40.453 362.256 362.256 0 00-13.699-39.669 193.259 193.259 0 01-7.084-19.831 113.715 113.715 0 01-3.612-21.245c-.602-7.091-.826-14.21-1.246-21.308-.182-3.08-.294-6.251-1.148-9.233a18.393 18.393 0 00-4.312-7.273c-3.99-4.396-8.232-8.456-11.9-13.125a123.578 123.578 0 01-9.723-14.28 155.375 155.375 0 01-13.881-31.745c-7.105-22.449-10.045-46.032-11.2-69.482-.145-2.889-.261-5.78-.35-8.673 0-1.057-1.68-1.064-1.645 0 .756 23.702 3.073 47.6 9.282 70.532 6.027 22.26 15.974 43.715 31.591 60.9 4.354 4.795 9.835 8.785 11.074 15.512.651 3.5.7 7.182.861 10.738.189 3.668.35 7.329.567 10.99a154.804 154.804 0 002.429 21 123.785 123.785 0 006.132 20.167c5.124 13.391 10.57 26.544 14.63 40.32a309.676 309.676 0 019.163 41.3c1.064 7.077 1.54 14.217 2.506 21.301.357 2.618 1.141 5.208 3.101 7.077 1.82 1.743 4.298 2.604 6.727 3.066 3.049.482 6.126.77 9.212.861 3.654.21 7.308.371 10.962.483 7.42.229 14.842.229 22.267 0 3.766-.103 7.53-.266 11.291-.49a.842.842 0 00.783-.626.849.849 0 00-.363-.935c-7.392-5.173-10.85-13.65-12.488-22.246-1.799-9.464-1.631-19.173-2.1-28.763a572.344 572.344 0 00-7.728-70.308c-3.997-23.352-9.233-46.48-15.295-69.377-6.062-22.897-13.006-45.738-20.37-68.306a1641.461 1641.461 0 00-24.094-68.726 1285.192 1285.192 0 00-3.283-8.631c-.294-.777-1.554-.448-1.26.35z" fill="url(#paint29_linear_102_353)"/><path d="M136.5 262.738a415.893 415.893 0 00-18.004 103.544c-.497 11.004-.574 22.141-3.241 32.823-2.968 11.9-9.016 22.694-14.994 33.362L19.859 575.883c-1.155 2.051-2.33 4.2-2.359 6.573-.035 3.353 2.268 6.244 4.578 8.68A89.425 89.425 0 0058.8 614.362c1.085-24.5 23.8-41.342 42.189-57.603 19.334-17.101 133-112.7 83.3-285.467" fill="url(#paint30_linear_102_353)"/><path d="M136.003 262.605A390.742 390.742 0 00119.7 340.2c-1.442 13.181-1.834 26.369-2.625 39.592-.406 6.748-1.12 13.496-2.856 20.048a97.426 97.426 0 01-7.175 18.312c-5.936 11.9-12.838 23.429-19.348 35.056l-20.44 36.47-40.712 72.618-5.152 9.198c-1.4 2.555-3.15 5.117-4.123 7.896-1.925 5.495 1.82 9.898 5.46 13.573a89.228 89.228 0 0028.049 19.11 96.426 96.426 0 007.826 2.982.698.698 0 00.903-.7c.903-17.878 13.552-31.703 26.11-43.162 6.916-6.3 14.119-12.299 21.091-18.55a312.267 312.267 0 0013.125-12.481 285.713 285.713 0 0016.87-18.599 278.86 278.86 0 0018.123-24.409 262.992 262.992 0 0017.437-30.639 253.502 253.502 0 0014.231-36.274 251.712 251.712 0 009.023-42.378 266.412 266.412 0 001.512-48.363 307.366 307.366 0 00-8.232-54.236 350.715 350.715 0 00-3.759-14.21.798.798 0 00-1.533.427 321.7 321.7 0 0111.025 56.049 271.966 271.966 0 01.574 49.7 250.226 250.226 0 01-7.56 43.967 249.006 249.006 0 01-13.426 37.898 260.883 260.883 0 01-16.926 31.675 272.948 272.948 0 01-18.354 25.9 286.746 286.746 0 01-17.199 19.6 303.537 303.537 0 01-13.951 13.559c-5.152 4.697-10.444 9.247-15.708 13.818-12.523 10.885-26.222 22.834-31.703 39.053a43.392 43.392 0 00-2.177 11.662l.903-.7a88.634 88.634 0 01-29.981-17.059 87.902 87.902 0 01-6.349-6.055c-2.009-2.128-4.235-4.718-4.333-7.826-.098-3.108 2.1-6.216 3.612-8.897l4.984-8.883a110699.75 110699.75 0 0139.9-71.092l20.104-35.854c6.475-11.557 13.174-23.023 19.369-34.734 5.824-11.018 10.227-22.316 11.704-34.762 1.54-12.915 1.33-26.012 2.443-38.976a427.364 427.364 0 0113.937-77.301c.868-3.122 1.736-6.251 2.646-9.366a.508.508 0 00-.371-.57.513.513 0 00-.609.304l-.056.014z" fill="url(#paint31_linear_102_353)"/><path d="M410.102 143.01c-68.838 47.656-221.039 133.343-294.833 172.9-4.62 2.478-9.401 5.11-12.446 9.38-3.045 4.27-3.8 10.661-.259 14.525 2.583 2.8 6.741 3.633 10.563 3.395 6.139-.385 11.9-3.024 17.437-5.698C205.59 301.343 349.3 201.985 416.423 152.691c2.177-1.596 4.529-3.5 4.942-6.146.413-2.646-4.284-10.087-11.263-3.5" fill="url(#paint32_linear_102_353)"/><path d="M440.027 219.016a84.351 84.351 0 00-9.1-55.146c-3.57-6.454-7.98-12.404-12.397-18.312-10.696-14.322-21.826-28.791-36.687-38.745A14.495 14.495 0 01378 103.6c-.994-1.351-1.4-3.269-.574-4.711a6.15 6.15 0 012.023-1.862 95.111 95.111 0 0115.869-8.575 10.71 10.71 0 014.417-1.12c1.855.063 3.549 1.029 5.11 2.03 15.4 9.842 26.656 24.976 34.685 41.153 13.3 26.768 20.391 60.69 4.109 88.018a3.562 3.562 0 01-1.778 1.771c-.819.259-1.918-.399-1.729-1.239" fill="url(#paint33_linear_102_353)"/><path d="M440.482 219.142a83.576 83.576 0 00-.175-31.647 88.16 88.16 0 00-11.949-30.044c-3.038-4.83-6.503-9.38-9.905-13.944-3.199-4.291-6.426-8.547-9.8-12.691-6.678-8.204-13.944-15.967-22.442-22.323a78.363 78.363 0 00-3.304-2.352 27.026 27.026 0 01-2.982-2.1 5.05 5.05 0 01-1.876-2.996c-.168-1.28.56-2.149 1.547-2.863a83.536 83.536 0 0114.854-8.28 18.296 18.296 0 014.004-1.47 6.105 6.105 0 013.843.615 41.157 41.157 0 016.384 4.2 83.793 83.793 0 0111.2 10.045 112.826 112.826 0 0117.22 24.633 140.096 140.096 0 0111.2 27.895 99.224 99.224 0 013.85 29.743 68.944 68.944 0 01-7.161 29.071 70.655 70.655 0 01-1.89 3.276 5.475 5.475 0 01-.959 1.358c-.357.322-1.4.616-1.323-.189.091-.938-1.4-.931-1.47 0A1.912 1.912 0 00441 221.06a2.733 2.733 0 001.484-.222c.464-.212.859-.55 1.141-.975a22.744 22.744 0 002.023-3.367 69.394 69.394 0 001.764-3.5 68.52 68.52 0 004.9-14.854c2.1-10.199 1.96-20.72.301-30.982a126.49 126.49 0 00-8.988-29.96 131.01 131.01 0 00-15.512-27.055 89.336 89.336 0 00-22.568-21.413c-2.282-1.47-4.662-2.667-7.448-2.17a18.817 18.817 0 00-4.025 1.4 94.143 94.143 0 00-11.886 6.139 87.896 87.896 0 00-3.619 2.303 5.84 5.84 0 00-2.45 2.8c-.84 2.429.546 5.054 2.373 6.622 2.03 1.736 4.396 3.087 6.531 4.697 4.4 3.382 8.531 7.1 12.355 11.123 7.7 8.001 14.42 16.912 21.077 25.795 3.612 4.823 7.175 9.695 10.304 14.84a82.14 82.14 0 017.245 15.232 83.783 83.783 0 014.508 33.075 80.321 80.321 0 01-.91 8.302c-.091.588.798.847.91.252h-.028z" fill="url(#paint34_linear_102_353)"/><path d="M409.381 148.498l-33.957 22.043a55383.221 55383.221 0 01-50.897 33.047c-11.424 7.399-22.785 14.924-34.398 22.015-29.463 17.997-59.787 34.531-90.3 50.666-15.351 8.12-30.744 16.156-46.116 24.234a4402.91 4402.91 0 00-22.764 12.047c-3.789 2.03-7.567 4.067-11.333 6.111-3.36 1.82-6.874 3.5-10.031 5.663-2.457 1.687-4.529 3.808-5.488 6.685-.266.784.959 1.106 1.232.336 1.211-3.395 4.284-5.495 7.28-7.217 3.556-2.051 7.21-3.941 10.822-5.887 7.56-4.069 15.132-8.115 22.715-12.138 15.155-8.064 30.373-16.023 45.549-24.052 30.345-16.051 60.585-32.305 90.048-49.917 12.992-7.77 25.683-16.002 38.388-24.22a12614.859 12614.859 0 0050.239-32.655 16114.6 16114.6 0 0037.408-24.5l2.1-1.4c.546-.357.035-1.232-.511-.875l.014.014zM105.238 336.455l.7-.133c.237-.038.47-.089.7-.154a.515.515 0 00.347-.562.518.518 0 00-.487-.446 7.013 7.013 0 00-.798.14l-.749.133a.5.5 0 00-.315.245.548.548 0 00-.056.413.565.565 0 00.245.322.603.603 0 00.413.049v-.007zm2.912 2.947a.502.502 0 00.317-.835.508.508 0 00-.317-.166.508.508 0 00-.445.501.502.502 0 00.445.5zM412.069 146.51a1.15 1.15 0 00-.126.168l-.042.098-.042.098a2.617 2.617 0 000 .217 1.09 1.09 0 000 .14.603.603 0 000 .147c.023.068.051.133.084.196 0 .049.07.091.105.14.052.05.108.094.168.133a.699.699 0 00.441.056.473.473 0 00.196-.105.4.4 0 00.147-.161l.056-.133a.556.556 0 000-.308l-.056-.133a.575.575 0 00-.203-.21h-.049l.112.091a.204.204 0 01-.049-.056l.084.119v-.07l.056.133a.461.461 0 010-.091v.147-.091.147-.07l-.056.133a.175.175 0 010-.056l-.084.112a.412.412 0 00.112-.175.427.427 0 00.049-.21.457.457 0 00-.049-.217.412.412 0 00-.112-.175l-.112-.084a.51.51 0 00-.28-.077h-.147a.512.512 0 00-.245.14l.042.007zm2.471.525l.14.105a.437.437 0 00.189.063.388.388 0 00.203 0 .33.33 0 00.175-.091.434.434 0 00.133-.14l.049-.126a.454.454 0 000-.273l-.049-.126a.565.565 0 00-.182-.182l-.147-.091a.412.412 0 00-.189-.063.41.41 0 00-.203 0 .452.452 0 00-.175.091.322.322 0 00-.126.147l-.056.119a.57.57 0 000 .266l.056.126a.512.512 0 00.182.182v-.007z" fill="#fff"/><path d="M171.731 240.184c4.55-4.032 7.434-9.695 8.932-15.589 1.498-5.894 1.687-12.033 1.526-18.109a158.245 158.245 0 00-8.883-48.125c-.595-1.701-1.736-3.738-3.535-3.542a15.487 15.487 0 017.854-1.155c.785.028 1.54.305 2.156.791.482.523.82 1.162.98 1.855a179.643 179.643 0 018.757 56.077c0 6.888-.497 13.958-3.304 20.258" fill="url(#paint35_linear_102_353)"/><path d="M172.067 240.52c9.233-7.966 10.983-20.867 10.843-32.375a156.753 156.753 0 00-5.264-38.241 155 155 0 00-3.171-10.5c-.742-2.177-1.827-5.53-4.704-5.362l.203 1.505a14.237 14.237 0 018.092-1.05c1.505.308 1.785 1.498 2.205 2.8.467 1.428.903 2.863 1.309 4.305 1.624 5.6 2.978 11.27 4.06 17.01a177.44 177.44 0 013.059 35.168c-.084 6.258-.637 12.656-3.185 18.445-.413.938.98 1.764 1.4.812 2.366-5.383 3.15-11.2 3.353-17.052.183-6.204.014-12.414-.504-18.599a179.995 179.995 0 00-6.811-36.68c-.476-1.631-.959-3.262-1.512-4.9a3.843 3.843 0 00-2.569-2.737c-2.947-.854-6.531-.189-9.296.973-.7.301-.742 1.561.203 1.505 2.38-.147 3.171 4.004 3.717 5.649a147.828 147.828 0 012.632 8.743 158.41 158.41 0 013.724 17.857 158.758 158.758 0 011.645 18.319c.196 6.111.056 12.306-1.442 18.27-1.463 5.796-4.249 11.312-8.645 15.4-.448.413.21 1.057.665.7l-.007.035z" fill="url(#paint36_linear_102_353)"/><path d="M204.631 346.248c-4.634 11.942-8.113 24.5-9.583 37.212-.084.7 1.155.896 1.281.175 2.191-12.6 5.047-25.032 9.324-37.1.231-.644-.777-.903-1.022-.28v-.007z" fill="url(#paint37_linear_102_353)"/><path d="M121.275 188.419c-15.687 5.271-27.601 20.3-29.106 36.799-1.141 12.481 3.276 24.955 9.877 35.616 6.601 10.661 15.302 19.831 23.723 29.127a42.5 42.5 0 015.642 7.266c1.932 3.402 2.905 7.259 4.55 10.808 1.645 3.549 4.2 7 7.973 8.141a3.118 3.118 0 002.569-.098c.749-.476.966-1.743.217-2.219a3.283 3.283 0 001.747 2.581 3.291 3.291 0 004.538-4.238 3.298 3.298 0 00-.986-1.269 9.51 9.51 0 002.926 3.094c1.239.7 2.954.791 4.004-.189 1.666-1.554.623-4.305-.511-6.3 1.512 1.932 4.032 4.067 6.09 2.73 2.058-1.337 1.092-4.571-.126-6.748l-5.677-10.129a1.747 1.747 0 01-.301-1.512c.266-.574 1.022-.665 1.624-.84 2.24-.651 3.304-3.465 2.646-5.698-.658-2.233-2.583-3.885-4.648-4.956-2.065-1.071-4.347-1.68-6.461-2.66-8.176-3.78-12.95-12.355-16.338-20.699-3.388-8.344-6.139-17.283-12.285-23.87a12.017 12.017 0 016.09-3.626" fill="#fff"/><path d="M159.215 293.3c-.14-.343-.35-.7-.147-1.043.203-.343.462-.287.756-.357a4.795 4.795 0 001.512-.567 4.956 4.956 0 001.925-2.289 6.201 6.201 0 00-.987-6.3c-1.631-2.1-4.039-3.283-6.468-4.2-2.597-1.008-5.11-1.967-7.385-3.605-8.603-6.195-11.977-17.101-15.75-26.474-2.289-5.684-4.949-11.256-9.17-15.778v1.085a11.324 11.324 0 015.754-3.423.77.77 0 00-.406-1.484 13.26 13.26 0 00-6.426 3.822.783.783 0 000 1.085c7.406 8.106 9.8 19.215 14.413 28.875 2.135 4.438 4.823 8.708 8.512 12.026a23.27 23.27 0 006.083 4.011c2.611 1.162 5.509 1.834 7.84 3.556 2.065 1.526 3.612 4.2 2.233 6.706-.277.53-.703.968-1.225 1.26-.511.273-1.106.336-1.617.616-1.218.665-1.043 1.89-.371 2.898.294.448 1.162.168.924-.385v-.035z" fill="url(#paint38_linear_102_353)"/><path d="M158.438 308.063a.51.51 0 000-1.015.513.513 0 00-.452.508.51.51 0 00.452.507z" fill="url(#paint39_linear_102_353)"/><path d="M151.487 310.674a.898.898 0 00-.084.658c.014.148.06.291.133.42.099.16.206.314.322.462.252.353.525.69.819 1.008.069.07.147.132.231.182a.616.616 0 00.217.105l-.231-.14c0 .035.091.07.119.098.028.028.077.063.112.105l.392.392c.164.159.345.3.539.42.168.105.336.189.497.308a.78.78 0 00.584.08.768.768 0 00.418-1.211.767.767 0 00-.225-.199l-.14-.07c.07.077-.119-.049 0 0l-.21-.182-.238-.182c.112.084.063.049 0 0l-.217-.168a2.902 2.902 0 01-.217-.182 2.417 2.417 0 00-.196-.196c.091.119.049 0 0 0l-.042-.056c.07.14.063.133 0 0a1.795 1.795 0 00-.294-.434c-.056-.063-.105-.14-.161-.203.161.182.042.063 0 0l-.091-.126-.336-.448a2.106 2.106 0 00-.581-.651 1.718 1.718 0 00-.364-.168.752.752 0 00-.812.322l.056.056z" fill="url(#paint40_linear_102_353)"/><path d="M146.391 316.743c.106.022.214.034.322.035a.923.923 0 00.7-.329c.132-.143.247-.3.343-.469.094-.169.165-.35.21-.539a1.027 1.027 0 00-.196-1.078l.126.168.084.189a.902.902 0 010-.147v-.049.203a2.722 2.722 0 00-.147-.742 1.402 1.402 0 00-.602-.7l.154.119a.602.602 0 00-.091-.091.761.761 0 00-.903-.133.772.772 0 00-.385.502.77.77 0 00.357.842l.112.056-.147-.119v.042l-.119-.154c.092.126.169.263.231.406l-.084-.189c.042.101.072.207.091.315v-.203a.33.33 0 010 .077v-.21a.902.902 0 010 .147l.203-.35.168-.126a.889.889 0 00-.434.637 2.191 2.191 0 01-.077.224l.084-.203a1.838 1.838 0 01-.252.441l.14-.175a2.17 2.17 0 00-.259.315c-.086.166-.13.352-.126.539a.759.759 0 00.553.7l-.056.049z" fill="url(#paint41_linear_102_353)"/><path d="M121.142 187.936c-16.212 4.508-28.217 20.559-29.82 37.03-2.037 21 10.815 39.487 23.926 54.495 3.892 4.459 7.994 8.729 11.9 13.195a29.906 29.906 0 014.9 7.504c1.19 2.716 2.044 5.558 3.269 8.26.406.903 1.743.126 1.33-.777-1.127-2.436-1.953-4.998-2.975-7.483a28.72 28.72 0 00-3.696-6.482c-3.052-3.99-6.65-7.581-10.01-11.305-6.769-7.511-13.461-15.246-18.501-24.052-4.942-8.638-8.449-18.466-8.582-28.504a41.892 41.892 0 017.126-23.8 46.415 46.415 0 0121.42-17.129c.595-.238.378-1.155-.266-.973l-.021.021z" fill="url(#paint42_linear_102_353)"/><path d="M236.11 289.59a21.385 21.385 0 003.43 8.939c1.694 2.618 3.99 5.292 6.72 6.867.56.322 1.246-.49.7-.917a41.547 41.547 0 01-3.437-2.905 22.856 22.856 0 01-2.968-3.647 28.44 28.44 0 01-3.5-8.463c-.14-.504-1.001-.427-.938.126h-.007z" fill="url(#paint43_linear_102_353)"/><path d="M29.225 562.485a2169.092 2169.092 0 0016.1 10.059 24.205 24.205 0 003.591 2.1c1.4.56 2.64.14 4.067.084 2.856-.112 5.222 2.303 7.252 3.997 2.646 2.205 5.215 4.515 7.75 6.853.657.609 1.63-.35.986-.987a128.655 128.655 0 00-6.776-6.181c-2.1-1.771-4.256-3.878-6.895-4.76a7.627 7.627 0 00-3.745-.147c-1.694.259-2.8-.427-4.2-1.274l-8.19-4.942c-3.129-1.89-6.3-3.738-9.415-5.6a.48.48 0 00-.483.826l-.042-.028z" fill="url(#paint44_linear_102_353)"/><path d="M267.169 588.7c5.803.532 12.551.7 17.682-2.506 1.261-.807 2.4-1.79 3.381-2.919a12.313 12.313 0 013.808-3.248c2.653-1.253 5.761-1.127 8.624-1.162 3.318 0 6.587-.224 9.548-1.869.84-.469.091-1.736-.756-1.288-5.278 2.765-11.382.63-16.863 2.527a10.047 10.047 0 00-3.549 2.1c-1.218 1.106-2.156 2.485-3.402 3.577a16.297 16.297 0 01-8.134 3.5c-3.416.581-6.888.427-10.339.364-.623 0-.602.903 0 .959v-.035z" fill="url(#paint45_linear_102_353)"/><path d="M166.635 156.8c-6.146 1.036-11.795 3.948-17.22 7-12.523 7.063-24.444 15.141-36.351 23.198a15.977 15.977 0 00-4.284 3.724c-2.8 4.004-1.4 9.52.462 14.049a101.31 101.31 0 0014.812 25.095c1.288 1.596 2.8 3.269 4.865 3.5a8.107 8.107 0 003.22-.504 146.535 146.535 0 0030.38-13.216c2.499-1.449 5.012-3.01 6.825-5.264 1.813-2.254 2.8-5.334 1.939-8.085" fill="#fff"/><path d="M166.488 156.261c-5.208.742-10.094 2.8-14.7 5.299-4.788 2.569-9.464 5.369-14.084 8.232-4.62 2.863-9.289 5.908-13.874 8.953-2.247 1.491-4.48 2.996-6.72 4.501-2.24 1.505-4.438 2.863-6.51 4.473a10.321 10.321 0 00-3.864 5.39 13.808 13.808 0 00-.063 6.3 34.19 34.19 0 002.219 6.734 103.798 103.798 0 003.108 6.692 101.857 101.857 0 007.917 13.006 57.27 57.27 0 004.585 5.873c1.526 1.631 3.423 2.8 5.726 2.492a23.867 23.867 0 004.305-1.183c1.4-.462 2.856-.945 4.27-1.449a148.586 148.586 0 008.022-3.129 131.856 131.856 0 0016.1-8.064.86.86 0 00.312-1.18.865.865 0 00-1.18-.311 156.262 156.262 0 01-27.657 12.348c-2.191.7-4.781 1.995-6.958.7-1.876-1.141-3.213-3.227-4.515-4.942a102.283 102.283 0 01-7.945-12.257 75.612 75.612 0 01-5.838-12.768c-1.337-4.109-1.862-8.876 1.596-12.096 1.743-1.631 3.892-2.856 5.859-4.2 2.231-1.512 4.466-3.019 6.706-4.522 4.298-2.87 8.617-5.712 12.985-8.477 4.9-3.094 9.877-6.111 14.952-8.918 4.9-2.73 10.024-5.264 15.575-6.412.7-.147.385-1.162-.294-1.064l-.035-.021z" fill="url(#paint46_linear_102_353)"/><path d="M143.899 307.531a35.097 35.097 0 001.981 5.782c.658 1.526 1.491 3.269 3.094 3.997a.703.703 0 00.871-.294.697.697 0 00-.171-.903c-1.309-.875-2.023-2.261-2.688-3.647-.805-1.687-1.512-3.43-2.163-5.187a.477.477 0 00-.861-.098.477.477 0 00-.056.35h-.007z" fill="url(#paint47_linear_102_353)"/><path d="M149.037 304.367a12.21 12.21 0 00.833 2.933c.343.952.7 1.897 1.085 2.835.637 1.589 1.4 3.269 2.926 4.2a.752.752 0 00.869-.018.754.754 0 00-.106-1.284c-1.218-.917-1.869-2.338-2.485-3.689a97.985 97.985 0 01-1.148-2.611 27.987 27.987 0 00-1.043-2.604.506.506 0 00-.823-.045.502.502 0 00-.108.297v-.014z" fill="url(#paint48_linear_102_353)"/><path d="M155.029 301.266c.658 1.946 1.477 3.822 2.317 5.691.392.861.763 1.736 1.204 2.576.441.84.938 1.764 1.778 2.1.623.231 1.05-.539.798-1.036a7.438 7.438 0 00-.791-.98 9.8 9.8 0 01-.651-1.106c-.42-.798-.833-1.596-1.239-2.394a123.111 123.111 0 01-2.548-5.201c-.224-.49-1.043-.147-.868.364v-.014z" fill="url(#paint49_linear_102_353)"/><path d="M153.3 287.364a95.298 95.298 0 017.994 11.991c.581.98 1.918.126 1.484-.868a37.573 37.573 0 00-8.694-11.9.554.554 0 00-.784.777z" fill="url(#paint50_linear_102_353)"/><path d="M266.28 256.837a67.801 67.801 0 0075.558-25.466c2.541-3.584 4.725-7.406 6.909-11.2l7.364-12.88c2.891-5.054 5.887-10.717 4.634-16.401-.84-3.829-3.5-7-6.363-9.681-1.96-1.841-4.788-3.64-7.14-2.338-1.715.945-2.289 3.297-1.652 5.145a8.167 8.167 0 003.92 4.2c-.434-1.918-1.071-3.885-2.478-5.264-1.407-1.379-3.78-1.939-5.376-.784-1.477 1.064-1.799 3.213-1.239 4.942.56 1.729 1.799 3.143 3.017 4.494a118.941 118.941 0 00-4.2-4.494 4.053 4.053 0 00-1.694-1.211c-2.1-.609-3.64 2.415-2.94 4.508.7 2.093 2.527 3.612 3.5 5.6a6.046 6.046 0 00-6.013-5.271c-1.498.056-3.185 1.036-3.164 2.534.101.818.468 1.58 1.043 2.17 3.129 3.899 7.189 8.554 5.341 13.202-.847 2.142-2.8 3.619-4.655 4.984l-22.505 16.464" fill="#fff"/><path d="M329.518 195.678c.581 1.33 1.645 2.443 2.478 3.619a21.997 21.997 0 012.17 3.619c1.197 2.681.966 5.446-1.113 7.623a24.812 24.812 0 01-3.395 2.8c-1.4 1.029-2.8 2.1-4.2 3.122l-8.295 6.076a1474.07 1474.07 0 00-9.401 6.93c-.77.574-.035 1.883.763 1.309 6.132-4.41 12.208-8.89 18.291-13.356 1.484-1.085 2.989-2.135 4.459-3.227a19.605 19.605 0 003.311-2.87 7.94 7.94 0 001.463-7.973 17.328 17.328 0 00-2.422-4.459 16.556 16.556 0 00-3.423-3.864c-.455-.329-.861.287-.7.7l.014-.049z" fill="url(#paint51_linear_102_353)"/><path d="M266.147 257.313c4.837 1.981 10.22 2.835 15.4 3.213 5.26.38 10.547.159 15.757-.658a67.96 67.96 0 0027.013-10.5 69.291 69.291 0 0019.502-19.516c3.087-4.648 5.754-9.569 8.519-14.406 2.709-4.732 5.775-9.415 7.847-14.469a18.757 18.757 0 001.617-8.295 14.702 14.702 0 00-2.702-7.364 25.91 25.91 0 00-5.404-5.726c-1.96-1.505-4.452-2.597-6.832-1.4-.868.441-.105 1.736.763 1.302 2.212-1.106 4.669.791 6.209 2.233a25.997 25.997 0 014.361 5.103 12.718 12.718 0 012.051 6.769 18.421 18.421 0 01-1.589 6.958 61.29 61.29 0 01-3.57 6.902l-3.941 6.888c-2.611 4.557-5.131 9.184-7.966 13.608A67 67 0 01283.143 259c-5.705-.28-11.2-1.463-16.73-2.667a.508.508 0 00-.378.046.513.513 0 00-.235.301.502.502 0 00.173.525.5.5 0 00.174.087v.021z" fill="url(#paint52_linear_102_353)"/><path d="M341.894 182.301c.266-.14.7.091.924.189.357.147.7.28 1.05.455a5.176 5.176 0 011.519 1.204 9.667 9.667 0 011.127 1.582c.175.28.336.574.49.868.14.382.382.719.7.973a.597.597 0 00.601.001.608.608 0 00.302-.519c0-.406-.308-.854-.497-1.204s-.385-.7-.602-1.029a9.122 9.122 0 00-1.47-1.834 6.45 6.45 0 00-2.1-1.295c-.735-.28-1.771-.7-2.499-.217a.479.479 0 00.483.826h-.028z" fill="url(#paint53_linear_102_353)"/><path d="M336.7 185.969a10.491 10.491 0 016.209 5.642.74.74 0 001.015.266.77.77 0 00.266-1.015 10.792 10.792 0 00-7.217-5.887.52.52 0 00-.549.744.516.516 0 00.276.25z" fill="url(#paint54_linear_102_353)"/><path d="M332.241 190.225a11.335 11.335 0 012.905 1.813c.443.373.853.782 1.225 1.225.399.469.7.987 1.092 1.463a.643.643 0 001.015-.784 6.44 6.44 0 00-1.162-1.617 11.039 11.039 0 00-4.788-3.15.545.545 0 00-.586.788c.063.122.17.215.299.262z" fill="url(#paint55_linear_102_353)"/><path d="M434.553 596.533h239.022v17.836H434.553v-17.836z" fill="url(#paint56_linear_102_353)"/><path d="M425.635 566.048h169.554v38.528H425.635v-38.528z" fill="#fff"/><path d="M595.189 603.869H432.523c-2.177 0-4.438-.175-6.608 0h-.28l.7.7v-38.5l-.7.7h162.659c2.177 0 4.438.182 6.608 0h.287l-.7-.7v38.5a.696.696 0 00.7.7.704.704 0 00.7-.7v-38.5a.7.7 0 00-.7-.7H432.523c-2.205 0-4.41-.042-6.608 0h-.28a.7.7 0 00-.7.7v38.5a.696.696 0 00.7.7h162.659c2.205 0 4.41.042 6.608 0h.287a.704.704 0 00.7-.7.7.7 0 00-.7-.7z" fill="url(#paint57_linear_102_353)"/><path d="M595.189 566.048H682.5v38.528h-87.311v-38.528z" fill="url(#paint58_linear_102_353)"/><path d="M682.5 603.869h-85.995a7.359 7.359 0 00-1.169 0h-.147l.7.7v-38.5l-.7.7h85.988c.391.035.785.035 1.176 0h.147l-.7-.7v38.5a.7.7 0 101.4 0v-38.5a.7.7 0 00-.7-.7h-83.762c-1.127 0-2.275-.07-3.402 0h-.147a.704.704 0 00-.7.7v38.5a.7.7 0 00.7.7h83.755c1.127 0 2.282.07 3.409 0a.902.902 0 01.147 0 .7.7 0 100-1.4z" fill="url(#paint59_linear_102_353)"/><path d="M441.252 587.006a1.967 1.967 0 100-3.935 1.967 1.967 0 000 3.935zm12.726 0a1.967 1.967 0 100-3.935 1.967 1.967 0 000 3.935zm12.733 0a1.967 1.967 0 100-3.935 1.967 1.967 0 000 3.935zm12.726 0a1.967 1.967 0 100-3.935 1.967 1.967 0 000 3.935zm12.733 0a1.967 1.967 0 100-3.935 1.967 1.967 0 000 3.935z" fill="#fff"/><path d="M434.553 548.212h239.022v17.836H434.553v-17.836z" fill="url(#paint60_linear_102_353)"/><path d="M425.635 517.727h169.554v38.528H425.635v-38.528z" fill="url(#paint61_linear_102_353)"/><path d="M595.189 555.548H432.523c-2.177 0-4.438-.175-6.608 0h-.28l.7.7v-38.5l-.7.7h162.659c2.177 0 4.438.175 6.608 0 .095-.007.191-.007.287 0l-.7-.7v38.5a.696.696 0 00.7.7.704.704 0 00.7-.7v-38.5a.7.7 0 00-.7-.7H432.523c-2.205 0-4.41-.042-6.608 0h-.28a.7.7 0 00-.7.7v38.5a.696.696 0 00.7.7h162.659c2.205 0 4.41.042 6.608 0h.287a.704.704 0 00.7-.7.7.7 0 00-.7-.7z" fill="url(#paint62_linear_102_353)"/><path d="M595.189 517.727H682.5v38.528h-87.311v-38.528z" fill="url(#paint63_linear_102_353)"/><path d="M682.5 555.548h-85.995a7.13 7.13 0 00-1.169 0h-.147l.7.7v-38.5l-.7.7h85.988c.392.031.785.031 1.176 0a.517.517 0 01.147 0l-.7-.7v38.5a.7.7 0 101.4 0v-38.5a.7.7 0 00-.7-.7h-83.762c-1.127 0-2.275-.07-3.402 0h-.147a.704.704 0 00-.7.7v38.5a.7.7 0 00.7.7h83.755c1.127 0 2.282.07 3.409 0h.147a.7.7 0 100-1.4z" fill="url(#paint64_linear_102_353)"/><path d="M441.252 538.685a1.967 1.967 0 100-3.935 1.967 1.967 0 000 3.935zm12.726 0a1.967 1.967 0 100-3.935 1.967 1.967 0 000 3.935zm12.733 0a1.967 1.967 0 100-3.935 1.967 1.967 0 000 3.935zm12.726 0a1.967 1.967 0 100-3.935 1.967 1.967 0 000 3.935zm12.733 0a1.967 1.967 0 100-3.935 1.967 1.967 0 000 3.935z" fill="#fff"/><path d="M434.553 499.891h239.022v17.836H434.553v-17.836z" fill="url(#paint65_linear_102_353)"/><path d="M425.635 469.406h169.554v38.528H425.635v-38.528z" fill="#fff"/><path d="M595.189 507.227H432.523c-2.177 0-4.438-.175-6.608 0a1.87 1.87 0 01-.28 0l.7.7v-38.5l-.7.7h162.659c2.177 0 4.438.175 6.608 0h.287l-.7-.7v38.5a.696.696 0 00.7.7.704.704 0 00.7-.7v-38.5a.7.7 0 00-.7-.7H432.523c-2.205 0-4.41-.042-6.608 0h-.28a.7.7 0 00-.7.7v38.5a.696.696 0 00.7.7h162.659c2.205 0 4.41.042 6.608 0h.287a.704.704 0 00.7-.7.7.7 0 00-.7-.7z" fill="url(#paint66_linear_102_353)"/><path d="M595.189 469.406H682.5v38.528h-87.311v-38.528z" fill="url(#paint67_linear_102_353)"/><path d="M682.5 507.227h-85.995a7.13 7.13 0 00-1.169 0 .517.517 0 01-.147 0l.7.7v-38.5l-.7.7h85.988c.392.031.785.031 1.176 0h.147l-.7-.7v38.5a.7.7 0 101.4 0v-38.5a.7.7 0 00-.7-.7h-83.762c-1.127 0-2.275-.07-3.402 0h-.147a.704.704 0 00-.7.7v38.5a.7.7 0 00.7.7h83.755c1.127 0 2.282.07 3.409 0h.147a.7.7 0 100-1.4z" fill="url(#paint68_linear_102_353)"/><path d="M441.252 490.364a1.967 1.967 0 100-3.935 1.967 1.967 0 000 3.935zm12.726 0a1.967 1.967 0 100-3.935 1.967 1.967 0 000 3.935zm12.733 0a1.967 1.967 0 100-3.935 1.967 1.967 0 000 3.935zm12.726 0a1.967 1.967 0 100-3.935 1.967 1.967 0 000 3.935zm12.733 0a1.967 1.967 0 100-3.935 1.967 1.967 0 000 3.935z" fill="#fff"/><path d="M434.553 451.57h239.022v17.836H434.553V451.57z" fill="url(#paint69_linear_102_353)"/><path d="M425.635 421.085h169.554v38.528H425.635v-38.528z" fill="url(#paint70_linear_102_353)"/><path d="M595.189 458.913H432.523c-2.177 0-4.438-.182-6.608 0h-.28l.7.7v-38.5l-.7.7h162.659c2.177 0 4.438.175 6.608 0h.287l-.7-.7v38.5a.696.696 0 00.7.7.704.704 0 00.7-.7v-38.5a.7.7 0 00-.7-.7H432.523c-2.205 0-4.41-.042-6.608 0h-.28a.7.7 0 00-.7.7v38.5a.696.696 0 00.7.7h162.659c2.205 0 4.41.042 6.608 0h.287a.704.704 0 00.7-.7.7.7 0 00-.7-.7z" fill="url(#paint71_linear_102_353)"/><path d="M595.189 421.085H682.5v38.528h-87.311v-38.528z" fill="url(#paint72_linear_102_353)"/><path d="M682.5 458.913h-85.995a6.52 6.52 0 00-1.169 0h-.147l.7.7v-38.5l-.7.7h85.988c.392.031.785.031 1.176 0h.147l-.7-.7v38.5a.7.7 0 101.4 0v-38.5a.7.7 0 00-.7-.7h-83.762c-1.127 0-2.275-.07-3.402 0h-.147a.704.704 0 00-.7.7v38.5a.7.7 0 00.7.7h83.755c1.127 0 2.282.07 3.409 0h.147a.7.7 0 100-1.4z" fill="url(#paint73_linear_102_353)"/><path d="M441.252 442.043a1.967 1.967 0 100-3.935 1.967 1.967 0 000 3.935zm12.726 0a1.967 1.967 0 100-3.935 1.967 1.967 0 000 3.935zm12.733 0a1.967 1.967 0 100-3.935 1.967 1.967 0 000 3.935zm12.726 0a1.967 1.967 0 100-3.935 1.967 1.967 0 000 3.935zm12.733 0a1.967 1.967 0 100-3.935 1.967 1.967 0 000 3.935z" fill="#fff"/><path d="M434.553 403.256h239.022v17.836H434.553v-17.836z" fill="url(#paint74_linear_102_353)"/><path d="M425.635 372.764h169.554v38.528H425.635v-38.528z" fill="#fff"/><path d="M595.189 410.592H432.523c-2.177 0-4.438-.175-6.608 0h-.28l.7.7v-38.528l-.7.7h162.659c2.177 0 4.438.175 6.608 0h.287l-.7-.7v38.535a.696.696 0 00.7.7.704.704 0 00.7-.7v-38.535a.7.7 0 00-.7-.7H432.523c-2.205 0-4.41-.042-6.608 0h-.28a.7.7 0 00-.7.7v38.535a.696.696 0 00.7.7h162.659c2.205 0 4.41.042 6.608 0h.287a.703.703 0 000-1.407z" fill="url(#paint75_linear_102_353)"/><path d="M595.189 372.764H682.5v38.528h-87.311v-38.528z" fill="url(#paint76_linear_102_353)"/><path d="M682.5 410.592h-85.995a6.52 6.52 0 00-1.169 0 .902.902 0 01-.147 0l.7.7v-38.528l-.7.7h85.988c.391.035.785.035 1.176 0h.147l-.7-.7v38.535a.7.7 0 101.4 0v-38.535a.7.7 0 00-.7-.7h-83.762c-1.127 0-2.275-.07-3.402 0h-.147a.704.704 0 00-.7.7v38.535a.7.7 0 00.7.7h83.755c1.127 0 2.282.07 3.409 0h.147a.704.704 0 100-1.407z" fill="url(#paint77_linear_102_353)"/><path d="M441.252 393.722a1.967 1.967 0 100-3.935 1.967 1.967 0 000 3.935zm12.726 0a1.967 1.967 0 100-3.935 1.967 1.967 0 000 3.935zm12.733 0a1.967 1.967 0 100-3.935 1.967 1.967 0 000 3.935zm12.726 0a1.967 1.967 0 100-3.935 1.967 1.967 0 000 3.935zm12.733 0a1.967 1.967 0 100-3.935 1.967 1.967 0 000 3.935z" fill="#fff"/><path d="M434.553 354.935h239.022v17.836H434.553v-17.836z" fill="url(#paint78_linear_102_353)"/><path d="M425.635 324.45h169.554v38.528H425.635V324.45z" fill="url(#paint79_linear_102_353)"/><path d="M595.189 362.271H432.523c-2.177 0-4.438-.175-6.608 0h-.28l.7.7v-38.5l-.7.7h162.659c2.177 0 4.438.182 6.608 0h.287l-.7-.7v38.5a.696.696 0 00.7.7.704.704 0 00.7-.7v-38.5a.7.7 0 00-.7-.7H432.523c-2.205 0-4.41-.042-6.608 0h-.28a.7.7 0 00-.7.7v38.5a.696.696 0 00.7.7h162.659c2.205 0 4.41.049 6.608 0h.287a.704.704 0 00.7-.7.7.7 0 00-.7-.7z" fill="url(#paint80_linear_102_353)"/><path d="M595.189 324.45H682.5v38.528h-87.311V324.45z" fill="url(#paint81_linear_102_353)"/><path d="M682.5 362.271h-85.995a7.359 7.359 0 00-1.169 0h-.147l.7.7v-38.5l-.7.7h85.988c.391.035.785.035 1.176 0h.147l-.7-.7v38.5a.7.7 0 101.4 0v-38.5a.7.7 0 00-.7-.7h-83.762c-1.127 0-2.275-.07-3.402 0h-.147a.704.704 0 00-.7.7v38.5a.7.7 0 00.7.7h83.755c1.127 0 2.282.077 3.409 0h.147a.7.7 0 100-1.4z" fill="url(#paint82_linear_102_353)"/><path d="M441.252 345.408a1.967 1.967 0 100-3.935 1.967 1.967 0 000 3.935zm12.726 0a1.967 1.967 0 100-3.935 1.967 1.967 0 000 3.935zm12.733 0a1.967 1.967 0 100-3.935 1.967 1.967 0 000 3.935zm12.726 0a1.967 1.967 0 100-3.935 1.967 1.967 0 000 3.935zm12.733 0a1.967 1.967 0 100-3.935 1.967 1.967 0 000 3.935z" fill="#fff"/><path d="M434.553 306.614h239.022v17.836H434.553v-17.836z" fill="url(#paint83_linear_102_353)"/><path d="M425.635 276.129h169.554v38.528H425.635v-38.528z" fill="#fff"/><path d="M595.189 313.95H432.523c-2.177 0-4.438-.175-6.608 0h-.28l.7.7v-38.5l-.7.7h162.659c2.177 0 4.438.175 6.608 0 .095-.007.191-.007.287 0l-.7-.7v38.5a.696.696 0 00.7.7.704.704 0 00.7-.7v-38.5a.7.7 0 00-.7-.7H432.523c-2.205 0-4.41-.042-6.608 0h-.28a.7.7 0 00-.7.7v38.5a.696.696 0 00.7.7h162.659c2.205 0 4.41.042 6.608 0h.287a.704.704 0 00.7-.7.7.7 0 00-.7-.7z" fill="url(#paint84_linear_102_353)"/><path d="M595.189 276.129H682.5v38.528h-87.311v-38.528z" fill="url(#paint85_linear_102_353)"/><path d="M682.5 313.95h-85.995a7.359 7.359 0 00-1.169 0h-.147l.7.7v-38.5l-.7.7h85.988c.392.032.785.032 1.176 0a.517.517 0 01.147 0l-.7-.7v38.5a.7.7 0 101.4 0v-38.5a.7.7 0 00-.7-.7h-83.762c-1.127 0-2.275-.07-3.402 0a.902.902 0 01-.147 0 .704.704 0 00-.7.7v38.5a.7.7 0 00.7.7h83.755c1.127 0 2.282.07 3.409 0h.147a.7.7 0 100-1.4z" fill="url(#paint86_linear_102_353)"/><path d="M441.252 297.087a1.967 1.967 0 100-3.935 1.967 1.967 0 000 3.935zm12.726 0a1.967 1.967 0 100-3.935 1.967 1.967 0 000 3.935zm12.733 0a1.967 1.967 0 100-3.935 1.967 1.967 0 000 3.935zm12.726 0a1.967 1.967 0 100-3.935 1.967 1.967 0 000 3.935zm12.733 0a1.967 1.967 0 100-3.935 1.967 1.967 0 000 3.935z" fill="#fff"/><path d="M434.553 258.293h239.022v17.836H434.553v-17.836z" fill="url(#paint87_linear_102_353)"/><path d="M425.635 227.808h169.554v38.528H425.635v-38.528z" fill="url(#paint88_linear_102_353)"/><path d="M595.189 265.629H432.523c-2.177 0-4.438-.175-6.608 0h-.28l.7.7v-38.5l-.7.7h162.659c2.177 0 4.438.175 6.608 0h.287l-.7-.7v38.5a.696.696 0 00.7.7.704.704 0 00.7-.7v-38.5a.7.7 0 00-.7-.7H432.523c-2.205 0-4.41-.042-6.608 0h-.28a.7.7 0 00-.7.7v38.5a.696.696 0 00.7.7h162.659c2.205 0 4.41.042 6.608 0h.287a.704.704 0 00.7-.7.7.7 0 00-.7-.7z" fill="url(#paint89_linear_102_353)"/><path d="M595.189 227.808H682.5v38.528h-87.311v-38.528z" fill="url(#paint90_linear_102_353)"/><path d="M682.5 265.629h-85.995a7.359 7.359 0 00-1.169 0 .517.517 0 01-.147 0l.7.7v-38.5l-.7.7h85.988c.392.032.785.032 1.176 0h.147l-.7-.7v38.5a.7.7 0 101.4 0v-38.5a.7.7 0 00-.7-.7h-83.762c-1.127 0-2.275-.07-3.402 0h-.147a.704.704 0 00-.7.7v38.5a.7.7 0 00.7.7h83.755c1.127 0 2.282.07 3.409 0h.147a.7.7 0 100-1.4z" fill="url(#paint91_linear_102_353)"/><path d="M441.252 248.766a1.967 1.967 0 100-3.935 1.967 1.967 0 000 3.935zm12.726 0a1.967 1.967 0 100-3.935 1.967 1.967 0 000 3.935zm12.733 0a1.967 1.967 0 100-3.935 1.967 1.967 0 000 3.935zm12.726 0a1.967 1.967 0 100-3.935 1.967 1.967 0 000 3.935zm12.733 0a1.967 1.967 0 100-3.935 1.967 1.967 0 000 3.935z" fill="#fff"/><path d="M547.491 157.5h-6.013v53.795h6.013a26.891 26.891 0 0018.386-8.206 26.892 26.892 0 00-18.386-45.547v-.042zm0 53.2v-52.71a26.882 26.882 0 0115.505 43.391 26.882 26.882 0 01-15.505 9.319z" fill="url(#paint92_linear_102_353)" stroke="url(#paint93_linear_102_353)" stroke-width="1.34" stroke-miterlimit="10"/><path d="M542.157 211.309c14.869 0 26.922-12.044 26.922-26.901s-12.053-26.901-26.922-26.901c-14.868 0-26.922 12.044-26.922 26.901s12.054 26.901 26.922 26.901z" fill="url(#paint94_linear_102_353)"/><path d="M542.157 211.309c14.869 0 26.922-12.044 26.922-26.901s-12.053-26.901-26.922-26.901c-14.868 0-26.922 12.044-26.922 26.901s12.054 26.901 26.922 26.901z" stroke="url(#paint95_linear_102_353)" stroke-width="1.34" stroke-miterlimit="10"/><path d="M542.157 206.15c12.019 0 21.763-9.734 21.763-21.742 0-12.008-9.744-21.742-21.763-21.742-12.02 0-21.763 9.734-21.763 21.742 0 12.008 9.743 21.742 21.763 21.742z" fill="#fff"/><path d="M542.157 206.15c12.019 0 21.763-9.734 21.763-21.742 0-12.008-9.744-21.742-21.763-21.742-12.02 0-21.763 9.734-21.763 21.742 0 12.008 9.743 21.742 21.763 21.742z" stroke="url(#paint96_linear_102_353)" stroke-width="1.34" stroke-miterlimit="10"/><path d="M423.129 230.706l.406-5.985-53.711-3.675-.35 5.061-.063.924a26.914 26.914 0 0044.218 21.459 26.911 26.911 0 009.451-17.791l.049.007zm-53.144-3.633l52.626 3.598a26.913 26.913 0 01-27.785 19.727 26.913 26.913 0 01-24.841-23.325z" fill="url(#paint97_linear_102_353)" stroke="url(#paint98_linear_102_353)" stroke-width="1.34" stroke-miterlimit="10"/><path d="M396.662 250.46c14.869 0 26.922-12.044 26.922-26.901s-12.053-26.901-26.922-26.901c-14.868 0-26.922 12.044-26.922 26.901s12.054 26.901 26.922 26.901z" fill="url(#paint99_linear_102_353)"/><path d="M396.662 250.46c14.869 0 26.922-12.044 26.922-26.901s-12.053-26.901-26.922-26.901c-14.868 0-26.922 12.044-26.922 26.901s12.054 26.901 26.922 26.901z" stroke="url(#paint100_linear_102_353)" stroke-width="1.34" stroke-miterlimit="10"/><path d="M396.662 245.301c12.02 0 21.763-9.734 21.763-21.742 0-12.008-9.743-21.742-21.763-21.742-12.019 0-21.763 9.734-21.763 21.742 0 12.008 9.744 21.742 21.763 21.742z" fill="#fff"/><path d="M396.662 245.301c12.02 0 21.763-9.734 21.763-21.742 0-12.008-9.743-21.742-21.763-21.742-12.019 0-21.763 9.734-21.763 21.742 0 12.008 9.744 21.742 21.763 21.742z" stroke="url(#paint101_linear_102_353)" stroke-width="1.34" stroke-miterlimit="10"/><path d="M490.826 91.07l-5.348-2.744-24.605 47.852 4.515 2.317.826.427a26.895 26.895 0 0037.221-32.105 26.893 26.893 0 00-12.644-15.705l.035-.042zm-24.339 47.348l24.101-46.9a26.886 26.886 0 01-6.037 45.705 26.882 26.882 0 01-18.064 1.195z" fill="url(#paint102_linear_102_353)" stroke="url(#paint103_linear_102_353)" stroke-width="1.34" stroke-miterlimit="10"/><path d="M473.795 139.44c14.869 0 26.922-12.044 26.922-26.901s-12.053-26.901-26.922-26.901-26.922 12.044-26.922 26.901 12.053 26.901 26.922 26.901z" fill="url(#paint104_linear_102_353)"/><path d="M473.795 139.44c14.869 0 26.922-12.044 26.922-26.901s-12.053-26.901-26.922-26.901-26.922 12.044-26.922 26.901 12.053 26.901 26.922 26.901z" stroke="url(#paint105_linear_102_353)" stroke-width="1.34" stroke-miterlimit="10"/><path d="M473.795 134.281c12.02 0 21.763-9.734 21.763-21.742 0-12.008-9.743-21.742-21.763-21.742-12.019 0-21.763 9.734-21.763 21.742 0 12.008 9.744 21.742 21.763 21.742z" fill="#fff"/><path d="M473.795 134.281c12.02 0 21.763-9.734 21.763-21.742 0-12.008-9.743-21.742-21.763-21.742-12.019 0-21.763 9.734-21.763 21.742 0 12.008 9.744 21.742 21.763 21.742z" stroke="url(#paint106_linear_102_353)" stroke-width="1.34" stroke-miterlimit="10"/><path d="M323.694 157.241h6.006v-53.774h-6.006a26.891 26.891 0 00-25.923 26.877 26.89 26.89 0 0025.923 26.876v.021zm0-53.2v52.71a26.882 26.882 0 01-15.505-43.391 26.882 26.882 0 0115.505-9.319z" fill="url(#paint107_linear_102_353)" stroke="url(#paint108_linear_102_353)" stroke-width="1.34" stroke-miterlimit="10"/><path d="M329.021 157.269c14.868 0 26.922-12.044 26.922-26.901s-12.054-26.901-26.922-26.901c-14.869 0-26.922 12.044-26.922 26.901s12.053 26.901 26.922 26.901z" fill="url(#paint109_linear_102_353)"/><path d="M329.021 157.269c14.868 0 26.922-12.044 26.922-26.901s-12.054-26.901-26.922-26.901c-14.869 0-26.922 12.044-26.922 26.901s12.053 26.901 26.922 26.901z" stroke="url(#paint110_linear_102_353)" stroke-width="1.34" stroke-miterlimit="10"/><path d="M329.021 152.11c12.019 0 21.763-9.734 21.763-21.742 0-12.008-9.744-21.742-21.763-21.742-12.02 0-21.763 9.734-21.763 21.742 0 12.008 9.743 21.742 21.763 21.742z" fill="#fff"/><path d="M329.021 152.11c12.019 0 21.763-9.734 21.763-21.742 0-12.008-9.744-21.742-21.763-21.742-12.02 0-21.763 9.734-21.763 21.742 0 12.008 9.743 21.742 21.763 21.742z" stroke="url(#paint111_linear_102_353)" stroke-width="1.34" stroke-miterlimit="10"/><path d="M527.191 131.67c11.9-4.27 25.2-5.943 37.191-1.057a34.036 34.036 0 0113.363 9.653c1.848 2.233 3.759 4.977 4.13 7.91.287 2.275-.77 5.495-3.437 5.754a3.262 3.262 0 01-2.8-1.134c-.896-1.162-.266-2.681.476-3.752a11.28 11.28 0 015.796-4.144 13.45 13.45 0 0113.692 3.234 16.548 16.548 0 014.361 14.343 13.997 13.997 0 01-3.794 7.588c-.7.658-2.457 1.904-3.164.623a2.172 2.172 0 01.413-2.338c.973-1.036 2.702-.763 3.885-.336a10.617 10.617 0 013.5 2.191 15.984 15.984 0 014.27 6.468c2.135 5.894 1.071 12.215-1.05 17.948a59.507 59.507 0 01-1.925 4.571c-.427.917.931 1.722 1.4.798 3.143-6.566 5.6-13.965 3.997-21.301a19.29 19.29 0 00-3.99-8.302c-1.932-2.303-4.9-4.522-8.008-4.585-2.716-.056-5.18 2.282-4.368 5.117a2.956 2.956 0 002.758 2.163c1.68.049 3.143-1.113 4.2-2.31 4.298-4.858 5.033-12.187 2.639-18.081-2.268-5.6-7.154-9.737-13.3-10.234a15.406 15.406 0 00-8.4 1.701c-2.478 1.316-5.208 3.752-5.6 6.671-.392 2.919 2.226 5.082 5.005 4.9 2.968-.21 4.865-3.003 5.187-5.761.399-3.451-1.561-6.783-3.542-9.45a32.257 32.257 0 00-6.755-6.664c-11.795-8.708-27.3-8.939-40.908-5.019a80.728 80.728 0 00-5.516 1.827c-.644.238-.371 1.267.287 1.036l.007-.028z" fill="url(#paint112_linear_102_353)"/><path d="M355.243 231.245a37.098 37.098 0 0014 40.964 36.888 36.888 0 004.606 2.8c1.589.812 3.374 1.778 5.201 1.792 3.5 0 4.403-3.696 3.556-6.468-.413-1.358-1.302-3.045-2.842-3.332a2.318 2.318 0 00-2.381 1.16 2.298 2.298 0 00-.279.891 7.266 7.266 0 00.763 4.2 31.303 31.303 0 002.373 4.55 32.433 32.433 0 0018.347 13.818.73.73 0 00.768-.251.729.729 0 00-.376-1.149 31.622 31.622 0 01-14.91-9.8 30.383 30.383 0 01-4.823-7.756c-.455-1.064-1.029-2.401-.623-3.577.609-1.771 2.17.511 2.471 1.33a4.899 4.899 0 01.063 3.71c-.826 1.68-2.8 1.309-4.249.749a32.67 32.67 0 01-8.12-4.739 36.177 36.177 0 01-11.41-15.043 36.566 36.566 0 01-1.106-23.583.53.53 0 00-.047-.395.522.522 0 00-.954.115l-.028.014z" fill="url(#paint113_linear_102_353)"/><path d="M465.549 205.8l4.088 11.053c.252.7 1.4.392 1.113-.308l-4.2-11.018c-.238-.623-1.239-.357-1.001.273z" fill="url(#paint114_linear_102_353)"/><path d="M481.313 199.36c.54 5.051.699 10.136.476 15.211 0 .7 1.05.7 1.071 0 .195-5.077.008-10.162-.56-15.211-.07-.609-1.036-.623-.973 0h-.014z" fill="url(#paint115_linear_102_353)"/><path d="M501.781 200.277c-.812 2.457-1.309 5.068-1.946 7.574-.637 2.506-1.316 5.047-1.904 7.588a.567.567 0 001.092.301c.7-2.52 1.253-5.061 1.869-7.595.616-2.534 1.4-5.054 1.834-7.609a.49.49 0 00-.945-.259z" fill="url(#paint116_linear_102_353)"/><path d="M512.169 217.98c1.099-1.547 2.205-3.08 3.262-4.648a.55.55 0 00.06-.427.563.563 0 00-1.033-.14c-1.106 1.533-2.156 3.108-3.227 4.669a.548.548 0 00.381.868.542.542 0 00.424-.138.54.54 0 00.133-.184z" fill="url(#paint117_linear_102_353)"/><defs><linearGradient id="paint0_linear_102_353" x1="277.544" y1="207.601" x2="277.544" y2="226.574" gradientUnits="userSpaceOnUse"><stop stop-color="#144794"/><stop offset="1" stop-color="#06162E"/></linearGradient><linearGradient id="paint1_linear_102_353" x1="242.009" y1="160.036" x2="242.009" y2="244.679" gradientUnits="userSpaceOnUse"><stop stop-color="#144794"/><stop offset="1" stop-color="#06162E"/></linearGradient><linearGradient id="paint2_linear_102_353" x1="241.526" y1="171.473" x2="241.526" y2="185.637" gradientUnits="userSpaceOnUse"><stop stop-color="#144794"/><stop offset="1" stop-color="#06162E"/></linearGradient><linearGradient id="paint3_linear_102_353" x1="190.723" y1="155.003" x2="190.723" y2="276.457" gradientUnits="userSpaceOnUse"><stop stop-color="#144794"/><stop offset="1" stop-color="#06162E"/></linearGradient><linearGradient id="paint4_linear_102_353" x1="232.832" y1="171.83" x2="232.832" y2="230.909" gradientUnits="userSpaceOnUse"><stop stop-color="#144794"/><stop offset="1" stop-color="#06162E"/></linearGradient><linearGradient id="paint5_linear_102_353" x1="232.963" y1="171.037" x2="232.963" y2="231.625" gradientUnits="userSpaceOnUse"><stop stop-color="#144794"/><stop offset="1" stop-color="#06162E"/></linearGradient><linearGradient id="paint6_linear_102_353" x1="223.351" y1="167.93" x2="223.351" y2="186.446" gradientUnits="userSpaceOnUse"><stop stop-color="#144794"/><stop offset="1" stop-color="#06162E"/></linearGradient><linearGradient id="paint7_linear_102_353" x1="223.304" y1="167.114" x2="223.304" y2="187.187" gradientUnits="userSpaceOnUse"><stop stop-color="#144794"/><stop offset="1" stop-color="#06162E"/></linearGradient><linearGradient id="paint8_linear_102_353" x1="223.054" y1="108.102" x2="223.054" y2="183.402" gradientUnits="userSpaceOnUse"><stop stop-color="#144794"/><stop offset="1" stop-color="#06162E"/></linearGradient><linearGradient id="paint9_linear_102_353" x1="244.334" y1="139.946" x2="244.334" y2="142.611" gradientUnits="userSpaceOnUse"><stop stop-color="#144794"/><stop offset="1" stop-color="#06162E"/></linearGradient><linearGradient id="paint10_linear_102_353" x1="245.351" y1="135.821" x2="245.351" y2="138.988" gradientUnits="userSpaceOnUse"><stop stop-color="#144794"/><stop offset="1" stop-color="#06162E"/></linearGradient><linearGradient id="paint11_linear_102_353" x1="224.499" y1="135.105" x2="224.499" y2="138.467" gradientUnits="userSpaceOnUse"><stop stop-color="#144794"/><stop offset="1" stop-color="#06162E"/></linearGradient><linearGradient id="paint12_linear_102_353" x1="238.581" y1="123.679" x2="238.581" y2="180.185" gradientUnits="userSpaceOnUse"><stop stop-color="#144794"/><stop offset="1" stop-color="#06162E"/></linearGradient><linearGradient id="paint13_linear_102_353" x1="238.551" y1="122.91" x2="238.551" y2="181.171" gradientUnits="userSpaceOnUse"><stop stop-color="#144794"/><stop offset="1" stop-color="#06162E"/></linearGradient><linearGradient id="paint14_linear_102_353" x1="231.526" y1="104.97" x2="231.526" y2="145.502" gradientUnits="userSpaceOnUse"><stop stop-color="#144794"/><stop offset="1" stop-color="#06162E"/></linearGradient><linearGradient id="paint15_linear_102_353" x1="231.541" y1="104.077" x2="231.541" y2="146.216" gradientUnits="userSpaceOnUse"><stop stop-color="#144794"/><stop offset="1" stop-color="#06162E"/></linearGradient><linearGradient id="paint16_linear_102_353" x1="230.977" y1="98.803" x2="230.977" y2="136.864" gradientUnits="userSpaceOnUse"><stop stop-color="#144794"/><stop offset="1" stop-color="#06162E"/></linearGradient><linearGradient id="paint17_linear_102_353" x1="223.802" y1="127.049" x2="223.802" y2="150.508" gradientUnits="userSpaceOnUse"><stop stop-color="#144794"/><stop offset="1" stop-color="#06162E"/></linearGradient><linearGradient id="paint18_linear_102_353" x1="229.823" y1="149.402" x2="229.823" y2="179.838" gradientUnits="userSpaceOnUse"><stop stop-color="#144794"/><stop offset="1" stop-color="#06162E"/></linearGradient><linearGradient id="paint19_linear_102_353" x1="215.366" y1="113.937" x2="215.366" y2="118.931" gradientUnits="userSpaceOnUse"><stop stop-color="#144794"/><stop offset="1" stop-color="#06162E"/></linearGradient><linearGradient id="paint20_linear_102_353" x1="219.512" y1="115.299" x2="219.512" y2="120.388" gradientUnits="userSpaceOnUse"><stop stop-color="#144794"/><stop offset="1" stop-color="#06162E"/></linearGradient><linearGradient id="paint21_linear_102_353" x1="223.601" y1="117.042" x2="223.601" y2="121.369" gradientUnits="userSpaceOnUse"><stop stop-color="#144794"/><stop offset="1" stop-color="#06162E"/></linearGradient><linearGradient id="paint22_linear_102_353" x1="237.846" y1="101.969" x2="237.846" y2="120.755" gradientUnits="userSpaceOnUse"><stop stop-color="#144794"/><stop offset="1" stop-color="#06162E"/></linearGradient><linearGradient id="paint23_linear_102_353" x1="250.656" y1="120.841" x2="250.656" y2="121.926" gradientUnits="userSpaceOnUse"><stop stop-color="#144794"/><stop offset="1" stop-color="#06162E"/></linearGradient><linearGradient id="paint24_linear_102_353" x1="203.213" y1="153.853" x2="203.213" y2="186.274" gradientUnits="userSpaceOnUse"><stop stop-color="#144794"/><stop offset="1" stop-color="#06162E"/></linearGradient><linearGradient id="paint25_linear_102_353" x1="203.119" y1="153.176" x2="203.119" y2="187.009" gradientUnits="userSpaceOnUse"><stop stop-color="#144794"/><stop offset="1" stop-color="#06162E"/></linearGradient><linearGradient id="paint26_linear_102_353" x1="188.81" y1="222.711" x2="188.81" y2="300.384" gradientUnits="userSpaceOnUse"><stop stop-color="#144794"/><stop offset="1" stop-color="#06162E"/></linearGradient><linearGradient id="paint27_linear_102_353" x1="188.787" y1="222.016" x2="188.787" y2="301.226" gradientUnits="userSpaceOnUse"><stop stop-color="#144794"/><stop offset="1" stop-color="#06162E"/></linearGradient><linearGradient id="paint28_linear_102_353" x1="253.704" y1="276.15" x2="253.704" y2="613.78" gradientUnits="userSpaceOnUse"><stop stop-color="#144794"/><stop offset="1" stop-color="#06162E"/></linearGradient><linearGradient id="paint29_linear_102_353" x1="253.704" y1="275.533" x2="253.704" y2="614.555" gradientUnits="userSpaceOnUse"><stop stop-color="#144794"/><stop offset="1" stop-color="#06162E"/></linearGradient><linearGradient id="paint30_linear_102_353" x1="107.127" y1="262.738" x2="107.127" y2="614.362" gradientUnits="userSpaceOnUse"><stop stop-color="#144794"/><stop offset="1" stop-color="#06162E"/></linearGradient><linearGradient id="paint31_linear_102_353" x1="107.125" y1="262.269" x2="107.125" y2="615.085" gradientUnits="userSpaceOnUse"><stop stop-color="#144794"/><stop offset="1" stop-color="#06162E"/></linearGradient><linearGradient id="paint32_linear_102_353" x1="260.8" y1="140.395" x2="260.8" y2="343.249" gradientUnits="userSpaceOnUse"><stop stop-color="#144794"/><stop offset="1" stop-color="#06162E"/></linearGradient><linearGradient id="paint33_linear_102_353" x1="415.022" y1="87.332" x2="415.022" y2="220.361" gradientUnits="userSpaceOnUse"><stop stop-color="#144794"/><stop offset="1" stop-color="#06162E"/></linearGradient><linearGradient id="paint34_linear_102_353" x1="414.869" y1="86.448" x2="414.869" y2="221.083" gradientUnits="userSpaceOnUse"><stop stop-color="#144794"/><stop offset="1" stop-color="#06162E"/></linearGradient><linearGradient id="paint35_linear_102_353" x1="179.646" y1="153.565" x2="179.646" y2="240.184" gradientUnits="userSpaceOnUse"><stop stop-color="#144794"/><stop offset="1" stop-color="#06162E"/></linearGradient><linearGradient id="paint36_linear_102_353" x1="179.699" y1="152.682" x2="179.699" y2="240.589" gradientUnits="userSpaceOnUse"><stop stop-color="#144794"/><stop offset="1" stop-color="#06162E"/></linearGradient><linearGradient id="paint37_linear_102_353" x1="200.366" y1="345.899" x2="200.366" y2="384.089" gradientUnits="userSpaceOnUse"><stop stop-color="#144794"/><stop offset="1" stop-color="#06162E"/></linearGradient><linearGradient id="paint38_linear_102_353" x1="142.959" y1="228.846" x2="142.959" y2="293.942" gradientUnits="userSpaceOnUse"><stop stop-color="#144794"/><stop offset="1" stop-color="#06162E"/></linearGradient><linearGradient id="paint39_linear_102_353" x1="158.438" y1="307.048" x2="158.438" y2="308.063" gradientUnits="userSpaceOnUse"><stop stop-color="#144794"/><stop offset="1" stop-color="#06162E"/></linearGradient><linearGradient id="paint40_linear_102_353" x1="153.544" y1="310.274" x2="153.544" y2="314.797" gradientUnits="userSpaceOnUse"><stop stop-color="#144794"/><stop offset="1" stop-color="#06162E"/></linearGradient><linearGradient id="paint41_linear_102_353" x1="146.967" y1="313.089" x2="146.967" y2="316.778" gradientUnits="userSpaceOnUse"><stop stop-color="#144794"/><stop offset="1" stop-color="#06162E"/></linearGradient><linearGradient id="paint42_linear_102_353" x1="113.917" y1="187.891" x2="113.917" y2="308.822" gradientUnits="userSpaceOnUse"><stop stop-color="#144794"/><stop offset="1" stop-color="#06162E"/></linearGradient><linearGradient id="paint43_linear_102_353" x1="241.635" y1="289.127" x2="241.635" y2="305.47" gradientUnits="userSpaceOnUse"><stop stop-color="#144794"/><stop offset="1" stop-color="#06162E"/></linearGradient><linearGradient id="paint44_linear_102_353" x1="49.106" y1="561.622" x2="49.106" y2="585.772" gradientUnits="userSpaceOnUse"><stop stop-color="#144794"/><stop offset="1" stop-color="#06162E"/></linearGradient><linearGradient id="paint45_linear_102_353" x1="288.645" y1="575.614" x2="288.645" y2="589" gradientUnits="userSpaceOnUse"><stop stop-color="#144794"/><stop offset="1" stop-color="#06162E"/></linearGradient><linearGradient id="paint46_linear_102_353" x1="136.776" y1="156.261" x2="136.776" y2="234.255" gradientUnits="userSpaceOnUse"><stop stop-color="#144794"/><stop offset="1" stop-color="#06162E"/></linearGradient><linearGradient id="paint47_linear_102_353" x1="146.918" y1="306.95" x2="146.918" y2="317.363" gradientUnits="userSpaceOnUse"><stop stop-color="#144794"/><stop offset="1" stop-color="#06162E"/></linearGradient><linearGradient id="paint48_linear_102_353" x1="152.048" y1="303.892" x2="152.048" y2="314.464" gradientUnits="userSpaceOnUse"><stop stop-color="#144794"/><stop offset="1" stop-color="#06162E"/></linearGradient><linearGradient id="paint49_linear_102_353" x1="158.102" y1="300.679" x2="158.102" y2="311.675" gradientUnits="userSpaceOnUse"><stop stop-color="#144794"/><stop offset="1" stop-color="#06162E"/></linearGradient><linearGradient id="paint50_linear_102_353" x1="158.013" y1="286.447" x2="158.013" y2="299.788" gradientUnits="userSpaceOnUse"><stop stop-color="#144794"/><stop offset="1" stop-color="#06162E"/></linearGradient><linearGradient id="paint51_linear_102_353" x1="321.989" y1="194.934" x2="321.989" y2="230.918" gradientUnits="userSpaceOnUse"><stop stop-color="#144794"/><stop offset="1" stop-color="#06162E"/></linearGradient><linearGradient id="paint52_linear_102_353" x1="313.798" y1="177.682" x2="313.798" y2="260.706" gradientUnits="userSpaceOnUse"><stop stop-color="#144794"/><stop offset="1" stop-color="#06162E"/></linearGradient><linearGradient id="paint53_linear_102_353" x1="344.905" y1="181.254" x2="344.905" y2="187.653" gradientUnits="userSpaceOnUse"><stop stop-color="#144794"/><stop offset="1" stop-color="#06162E"/></linearGradient><linearGradient id="paint54_linear_102_353" x1="340.325" y1="184.968" x2="340.325" y2="191.978" gradientUnits="userSpaceOnUse"><stop stop-color="#144794"/><stop offset="1" stop-color="#06162E"/></linearGradient><linearGradient id="paint55_linear_102_353" x1="335.23" y1="189.166" x2="335.23" y2="194.931" gradientUnits="userSpaceOnUse"><stop stop-color="#144794"/><stop offset="1" stop-color="#06162E"/></linearGradient><linearGradient id="paint56_linear_102_353" x1="554.064" y1="596.533" x2="554.064" y2="614.369" gradientUnits="userSpaceOnUse"><stop stop-color="#144794"/><stop offset="1" stop-color="#06162E"/></linearGradient><linearGradient id="paint57_linear_102_353" x1="510.412" y1="565.35" x2="510.412" y2="605.288" gradientUnits="userSpaceOnUse"><stop stop-color="#144794"/><stop offset="1" stop-color="#06162E"/></linearGradient><linearGradient id="paint58_linear_102_353" x1="638.845" y1="566.048" x2="638.845" y2="604.576" gradientUnits="userSpaceOnUse"><stop stop-color="#144794"/><stop offset="1" stop-color="#06162E"/></linearGradient><linearGradient id="paint59_linear_102_353" x1="638.845" y1="565.338" x2="638.845" y2="605.3" gradientUnits="userSpaceOnUse"><stop stop-color="#144794"/><stop offset="1" stop-color="#06162E"/></linearGradient><linearGradient id="paint60_linear_102_353" x1="554.064" y1="548.212" x2="554.064" y2="566.048" gradientUnits="userSpaceOnUse"><stop stop-color="#144794"/><stop offset="1" stop-color="#06162E"/></linearGradient><linearGradient id="paint61_linear_102_353" x1="510.412" y1="517.727" x2="510.412" y2="556.255" gradientUnits="userSpaceOnUse"><stop stop-color="#144794"/><stop offset="1" stop-color="#06162E"/></linearGradient><linearGradient id="paint62_linear_102_353" x1="510.412" y1="517.029" x2="510.412" y2="556.967" gradientUnits="userSpaceOnUse"><stop stop-color="#144794"/><stop offset="1" stop-color="#06162E"/></linearGradient><linearGradient id="paint63_linear_102_353" x1="638.845" y1="517.727" x2="638.845" y2="556.255" gradientUnits="userSpaceOnUse"><stop stop-color="#144794"/><stop offset="1" stop-color="#06162E"/></linearGradient><linearGradient id="paint64_linear_102_353" x1="638.845" y1="517.017" x2="638.845" y2="556.979" gradientUnits="userSpaceOnUse"><stop stop-color="#144794"/><stop offset="1" stop-color="#06162E"/></linearGradient><linearGradient id="paint65_linear_102_353" x1="554.064" y1="499.891" x2="554.064" y2="517.727" gradientUnits="userSpaceOnUse"><stop stop-color="#144794"/><stop offset="1" stop-color="#06162E"/></linearGradient><linearGradient id="paint66_linear_102_353" x1="510.412" y1="468.708" x2="510.412" y2="508.646" gradientUnits="userSpaceOnUse"><stop stop-color="#144794"/><stop offset="1" stop-color="#06162E"/></linearGradient><linearGradient id="paint67_linear_102_353" x1="638.845" y1="469.406" x2="638.845" y2="507.934" gradientUnits="userSpaceOnUse"><stop stop-color="#144794"/><stop offset="1" stop-color="#06162E"/></linearGradient><linearGradient id="paint68_linear_102_353" x1="638.845" y1="468.696" x2="638.845" y2="508.658" gradientUnits="userSpaceOnUse"><stop stop-color="#144794"/><stop offset="1" stop-color="#06162E"/></linearGradient><linearGradient id="paint69_linear_102_353" x1="554.064" y1="451.57" x2="554.064" y2="469.406" gradientUnits="userSpaceOnUse"><stop stop-color="#144794"/><stop offset="1" stop-color="#06162E"/></linearGradient><linearGradient id="paint70_linear_102_353" x1="510.412" y1="421.085" x2="510.412" y2="459.613" gradientUnits="userSpaceOnUse"><stop stop-color="#144794"/><stop offset="1" stop-color="#06162E"/></linearGradient><linearGradient id="paint71_linear_102_353" x1="510.412" y1="420.394" x2="510.412" y2="460.332" gradientUnits="userSpaceOnUse"><stop stop-color="#144794"/><stop offset="1" stop-color="#06162E"/></linearGradient><linearGradient id="paint72_linear_102_353" x1="638.845" y1="421.085" x2="638.845" y2="459.613" gradientUnits="userSpaceOnUse"><stop stop-color="#144794"/><stop offset="1" stop-color="#06162E"/></linearGradient><linearGradient id="paint73_linear_102_353" x1="638.845" y1="420.382" x2="638.845" y2="460.344" gradientUnits="userSpaceOnUse"><stop stop-color="#144794"/><stop offset="1" stop-color="#06162E"/></linearGradient><linearGradient id="paint74_linear_102_353" x1="554.064" y1="403.256" x2="554.064" y2="421.092" gradientUnits="userSpaceOnUse"><stop stop-color="#144794"/><stop offset="1" stop-color="#06162E"/></linearGradient><linearGradient id="paint75_linear_102_353" x1="510.413" y1="372.045" x2="510.413" y2="412.018" gradientUnits="userSpaceOnUse"><stop stop-color="#144794"/><stop offset="1" stop-color="#06162E"/></linearGradient><linearGradient id="paint76_linear_102_353" x1="638.845" y1="372.764" x2="638.845" y2="411.292" gradientUnits="userSpaceOnUse"><stop stop-color="#144794"/><stop offset="1" stop-color="#06162E"/></linearGradient><linearGradient id="paint77_linear_102_353" x1="638.847" y1="372.033" x2="638.847" y2="412.03" gradientUnits="userSpaceOnUse"><stop stop-color="#144794"/><stop offset="1" stop-color="#06162E"/></linearGradient><linearGradient id="paint78_linear_102_353" x1="554.064" y1="354.935" x2="554.064" y2="372.771" gradientUnits="userSpaceOnUse"><stop stop-color="#144794"/><stop offset="1" stop-color="#06162E"/></linearGradient><linearGradient id="paint79_linear_102_353" x1="510.412" y1="324.45" x2="510.412" y2="362.978" gradientUnits="userSpaceOnUse"><stop stop-color="#144794"/><stop offset="1" stop-color="#06162E"/></linearGradient><linearGradient id="paint80_linear_102_353" x1="510.412" y1="323.752" x2="510.412" y2="363.693" gradientUnits="userSpaceOnUse"><stop stop-color="#144794"/><stop offset="1" stop-color="#06162E"/></linearGradient><linearGradient id="paint81_linear_102_353" x1="638.845" y1="324.45" x2="638.845" y2="362.978" gradientUnits="userSpaceOnUse"><stop stop-color="#144794"/><stop offset="1" stop-color="#06162E"/></linearGradient><linearGradient id="paint82_linear_102_353" x1="638.845" y1="323.74" x2="638.845" y2="363.705" gradientUnits="userSpaceOnUse"><stop stop-color="#144794"/><stop offset="1" stop-color="#06162E"/></linearGradient><linearGradient id="paint83_linear_102_353" x1="554.064" y1="306.614" x2="554.064" y2="324.45" gradientUnits="userSpaceOnUse"><stop stop-color="#144794"/><stop offset="1" stop-color="#06162E"/></linearGradient><linearGradient id="paint84_linear_102_353" x1="510.412" y1="275.431" x2="510.412" y2="315.369" gradientUnits="userSpaceOnUse"><stop stop-color="#144794"/><stop offset="1" stop-color="#06162E"/></linearGradient><linearGradient id="paint85_linear_102_353" x1="638.845" y1="276.129" x2="638.845" y2="314.657" gradientUnits="userSpaceOnUse"><stop stop-color="#144794"/><stop offset="1" stop-color="#06162E"/></linearGradient><linearGradient id="paint86_linear_102_353" x1="638.845" y1="275.419" x2="638.845" y2="315.381" gradientUnits="userSpaceOnUse"><stop stop-color="#144794"/><stop offset="1" stop-color="#06162E"/></linearGradient><linearGradient id="paint87_linear_102_353" x1="554.064" y1="258.293" x2="554.064" y2="276.129" gradientUnits="userSpaceOnUse"><stop stop-color="#144794"/><stop offset="1" stop-color="#06162E"/></linearGradient><linearGradient id="paint88_linear_102_353" x1="510.412" y1="227.808" x2="510.412" y2="266.336" gradientUnits="userSpaceOnUse"><stop stop-color="#144794"/><stop offset="1" stop-color="#06162E"/></linearGradient><linearGradient id="paint89_linear_102_353" x1="510.412" y1="227.11" x2="510.412" y2="267.048" gradientUnits="userSpaceOnUse"><stop stop-color="#144794"/><stop offset="1" stop-color="#06162E"/></linearGradient><linearGradient id="paint90_linear_102_353" x1="638.845" y1="227.808" x2="638.845" y2="266.336" gradientUnits="userSpaceOnUse"><stop stop-color="#144794"/><stop offset="1" stop-color="#06162E"/></linearGradient><linearGradient id="paint91_linear_102_353" x1="638.845" y1="227.098" x2="638.845" y2="267.06" gradientUnits="userSpaceOnUse"><stop stop-color="#144794"/><stop offset="1" stop-color="#06162E"/></linearGradient><linearGradient id="paint92_linear_102_353" x1="557.446" y1="157.5" x2="557.446" y2="211.295" gradientUnits="userSpaceOnUse"><stop stop-color="#144794"/><stop offset="1" stop-color="#06162E"/></linearGradient><linearGradient id="paint93_linear_102_353" x1="557.446" y1="157.5" x2="557.446" y2="211.295" gradientUnits="userSpaceOnUse"><stop stop-color="#144794"/><stop offset="1" stop-color="#06162E"/></linearGradient><linearGradient id="paint94_linear_102_353" x1="542.157" y1="157.507" x2="542.157" y2="211.309" gradientUnits="userSpaceOnUse"><stop stop-color="#144794"/><stop offset="1" stop-color="#06162E"/></linearGradient><linearGradient id="paint95_linear_102_353" x1="542.157" y1="157.507" x2="542.157" y2="211.309" gradientUnits="userSpaceOnUse"><stop stop-color="#144794"/><stop offset="1" stop-color="#06162E"/></linearGradient><linearGradient id="paint96_linear_102_353" x1="542.157" y1="162.666" x2="542.157" y2="206.15" gradientUnits="userSpaceOnUse"><stop stop-color="#144794"/><stop offset="1" stop-color="#06162E"/></linearGradient><linearGradient id="paint97_linear_102_353" x1="396.466" y1="221.046" x2="396.466" y2="254.801" gradientUnits="userSpaceOnUse"><stop stop-color="#144794"/><stop offset="1" stop-color="#06162E"/></linearGradient><linearGradient id="paint98_linear_102_353" x1="396.466" y1="221.046" x2="396.466" y2="254.801" gradientUnits="userSpaceOnUse"><stop stop-color="#144794"/><stop offset="1" stop-color="#06162E"/></linearGradient><linearGradient id="paint99_linear_102_353" x1="396.662" y1="196.658" x2="396.662" y2="250.46" gradientUnits="userSpaceOnUse"><stop stop-color="#144794"/><stop offset="1" stop-color="#06162E"/></linearGradient><linearGradient id="paint100_linear_102_353" x1="396.662" y1="196.658" x2="396.662" y2="250.46" gradientUnits="userSpaceOnUse"><stop stop-color="#144794"/><stop offset="1" stop-color="#06162E"/></linearGradient><linearGradient id="paint101_linear_102_353" x1="396.662" y1="201.817" x2="396.662" y2="245.301" gradientUnits="userSpaceOnUse"><stop stop-color="#144794"/><stop offset="1" stop-color="#06162E"/></linearGradient><linearGradient id="paint102_linear_102_353" x1="482.729" y1="88.326" x2="482.729" y2="141.494" gradientUnits="userSpaceOnUse"><stop stop-color="#144794"/><stop offset="1" stop-color="#06162E"/></linearGradient><linearGradient id="paint103_linear_102_353" x1="482.729" y1="88.326" x2="482.729" y2="141.494" gradientUnits="userSpaceOnUse"><stop stop-color="#144794"/><stop offset="1" stop-color="#06162E"/></linearGradient><linearGradient id="paint104_linear_102_353" x1="473.795" y1="85.638" x2="473.795" y2="139.44" gradientUnits="userSpaceOnUse"><stop stop-color="#144794"/><stop offset="1" stop-color="#06162E"/></linearGradient><linearGradient id="paint105_linear_102_353" x1="473.795" y1="85.638" x2="473.795" y2="139.44" gradientUnits="userSpaceOnUse"><stop stop-color="#144794"/><stop offset="1" stop-color="#06162E"/></linearGradient><linearGradient id="paint106_linear_102_353" x1="473.795" y1="90.797" x2="473.795" y2="134.281" gradientUnits="userSpaceOnUse"><stop stop-color="#144794"/><stop offset="1" stop-color="#06162E"/></linearGradient><linearGradient id="paint107_linear_102_353" x1="313.735" y1="103.467" x2="313.735" y2="157.241" gradientUnits="userSpaceOnUse"><stop stop-color="#144794"/><stop offset="1" stop-color="#06162E"/></linearGradient><linearGradient id="paint108_linear_102_353" x1="313.735" y1="103.467" x2="313.735" y2="157.241" gradientUnits="userSpaceOnUse"><stop stop-color="#144794"/><stop offset="1" stop-color="#06162E"/></linearGradient><linearGradient id="paint109_linear_102_353" x1="329.021" y1="103.467" x2="329.021" y2="157.269" gradientUnits="userSpaceOnUse"><stop stop-color="#144794"/><stop offset="1" stop-color="#06162E"/></linearGradient><linearGradient id="paint110_linear_102_353" x1="329.021" y1="103.467" x2="329.021" y2="157.269" gradientUnits="userSpaceOnUse"><stop stop-color="#144794"/><stop offset="1" stop-color="#06162E"/></linearGradient><linearGradient id="paint111_linear_102_353" x1="329.021" y1="108.626" x2="329.021" y2="152.11" gradientUnits="userSpaceOnUse"><stop stop-color="#144794"/><stop offset="1" stop-color="#06162E"/></linearGradient><linearGradient id="paint112_linear_102_353" x1="567.265" y1="126.399" x2="567.265" y2="200.399" gradientUnits="userSpaceOnUse"><stop stop-color="#144794"/><stop offset="1" stop-color="#06162E"/></linearGradient><linearGradient id="paint113_linear_102_353" x1="376.583" y1="230.851" x2="376.583" y2="291.647" gradientUnits="userSpaceOnUse"><stop stop-color="#144794"/><stop offset="1" stop-color="#06162E"/></linearGradient><linearGradient id="paint114_linear_102_353" x1="468.154" y1="205.172" x2="468.154" y2="217.249" gradientUnits="userSpaceOnUse"><stop stop-color="#144794"/><stop offset="1" stop-color="#06162E"/></linearGradient><linearGradient id="paint115_linear_102_353" x1="482.124" y1="198.898" x2="482.124" y2="215.096" gradientUnits="userSpaceOnUse"><stop stop-color="#144794"/><stop offset="1" stop-color="#06162E"/></linearGradient><linearGradient id="paint116_linear_102_353" x1="500.329" y1="199.925" x2="500.329" y2="216.131" gradientUnits="userSpaceOnUse"><stop stop-color="#144794"/><stop offset="1" stop-color="#06162E"/></linearGradient><linearGradient id="paint117_linear_102_353" x1="513.317" y1="212.487" x2="513.317" y2="218.305" gradientUnits="userSpaceOnUse"><stop stop-color="#144794"/><stop offset="1" stop-color="#06162E"/></linearGradient></defs></svg>