<svg xmlns="http://www.w3.org/2000/svg" width="350" height="200" preserveAspectRatio="none"><g mask="url(&quot;#SvgjsMask1627&quot;)" fill="none"><path fill="url(&quot;#SvgjsRadialGradient1628&quot;)" d="M0 0h350v200H0z"/><path d="M350 0H201.7L350 38.85z" fill="rgba(255, 255, 255, .1)"/><path d="M201.7 0L350 38.85v6.01L123.54 0z" fill="rgba(255, 255, 255, .075)"/><path d="M123.54 0L350 44.86v58.31L78.23 0z" fill="rgba(255, 255, 255, .05)"/><path d="M78.23 0L350 103.17v6.47L70.43 0z" fill="rgba(255, 255, 255, .025)"/><path d="M0 200h93.31L0 174.8z" fill="rgba(0, 0, 0, .1)"/><path d="M0 174.8L93.31 200h74.1L0 101.79z" fill="rgba(0, 0, 0, .075)"/><path d="M0 101.79L167.41 200h93.33L0 96.4z" fill="rgba(0, 0, 0, .05)"/><path d="M0 96.4L260.74 200h39.7L0 82.42z" fill="rgba(0, 0, 0, .025)"/></g><defs><radialGradient cx="100%" cy="50%" r="364.01" gradientUnits="userSpaceOnUse" id="SvgjsRadialGradient1628"><stop stop-color="#0e2a47" offset="0"/><stop stop-color="rgba(0, 0, 0, 1)" offset="1"/></radialGradient><mask id="SvgjsMask1627"><path fill="#fff" d="M0 0h350v200H0z"/></mask></defs></svg>