<svg width="700" height="700" fill="none" xmlns="http://www.w3.org/2000/svg"><path d="M375.2 493.794c15.209 0 27.538-12.329 27.538-27.538s-12.329-27.538-27.538-27.538-27.538 12.329-27.538 27.538 12.329 27.538 27.538 27.538z" fill="url(#paint0_linear_85_2)"/><path d="M385.224 449.918a6.236 6.236 0 01-1.022 3.738 7.498 7.498 0 01-2.996 2.646 5.417 5.417 0 01-4.046.336 5.601 5.601 0 01-3.08-2.366 8.169 8.169 0 003.304 1.4c.56.105 1.134.105 1.694 0a4.966 4.966 0 001.596-.518c.266-.126.518-.266.77-.406s.504-.322.728-.504a8.59 8.59 0 001.274-1.204 9.532 9.532 0 001.778-3.122z" fill="url(#paint1_linear_85_2)"/><path d="M375.312 451.5a4.01 4.01 0 01.574-2.632 5.083 5.083 0 012.072-1.89 3.824 3.824 0 012.884-.21 3.679 3.679 0 012.058 1.764 6.276 6.276 0 00-2.282-.854 3.836 3.836 0 00-2.128.378 6.581 6.581 0 00-3.178 3.444z" fill="url(#paint2_linear_85_2)"/><path d="M375.2 479.192a3.78 3.78 0 01.07 2.632 4.7 4.7 0 01-1.596 2.226 3.596 3.596 0 01-2.716.728 3.66 3.66 0 01-2.31-1.26c.758.251 1.555.36 2.352.322a3.583 3.583 0 001.946-.742 5.492 5.492 0 001.4-1.652 6.794 6.794 0 00.854-2.254z" fill="url(#paint3_linear_85_2)"/><path d="M369.487 482.328a2.4 2.4 0 01-.182-1.848 3.08 3.08 0 011.106-1.61 2.52 2.52 0 011.974-.504 2.382 2.382 0 011.554 1.022 5.369 5.369 0 00-1.61-.07c-.435.056-.847.23-1.19.504a4.749 4.749 0 00-1.652 2.506z" fill="url(#paint4_linear_85_2)"/><path d="M365.273 454.426a2.449 2.449 0 01.784 1.764 2.707 2.707 0 01-.784 1.946 2.364 2.364 0 01-2.016.686 2.801 2.801 0 01-1.736-.826 9.186 9.186 0 001.722-.112c.444-.07.854-.276 1.176-.588.331-.336.572-.75.7-1.204a5.139 5.139 0 00.154-1.666z" fill="url(#paint5_linear_85_2)"/><path d="M361.857 457.1a1.583 1.583 0 01-.686-1.218 1.883 1.883 0 01.546-1.4 1.687 1.687 0 011.498-.476 1.766 1.766 0 011.19.714c-.392.047-.78.122-1.162.224a1.413 1.413 0 00-.672.392c-.202.198-.36.437-.462.7-.132.342-.216.7-.252 1.064z" fill="url(#paint6_linear_85_2)"/><path d="M384.411 483.448a2.44 2.44 0 01-1.526 1.19 2.643 2.643 0 01-2.086-.238 2.403 2.403 0 01-1.176-1.778 2.923 2.923 0 01.392-1.89c.116.564.294 1.113.532 1.638.166.417.467.767.854.994.401.245.86.38 1.33.392a5.02 5.02 0 001.68-.308z" fill="url(#paint7_linear_85_2)"/><path d="M380.982 480.802a1.562 1.562 0 011.008-.966 1.883 1.883 0 011.54.168 1.727 1.727 0 01.84 1.4 1.792 1.792 0 01-.406 1.33 11.465 11.465 0 00-.504-1.078 1.49 1.49 0 00-.546-.56 2.452 2.452 0 00-.784-.28 4.126 4.126 0 00-1.148-.014z" fill="url(#paint8_linear_85_2)"/><path d="M393.848 464.072a2.547 2.547 0 01-.588 1.848 2.8 2.8 0 01-1.876.938 2.446 2.446 0 01-1.974-.826 2.907 2.907 0 01-.742-1.778c.429.398.898.749 1.4 1.05.378.247.823.37 1.274.35a2.794 2.794 0 001.316-.434 5.167 5.167 0 001.19-1.148z" fill="url(#paint9_linear_85_2)"/><path d="M389.521 463.806a1.54 1.54 0 01.294-1.4 1.86 1.86 0 011.4-.714 1.697 1.697 0 011.4.644 1.765 1.765 0 01.406 1.316 7.078 7.078 0 00-1.022-.602 1.403 1.403 0 00-.756-.154 2.07 2.07 0 00-.812.21c-.331.194-.637.43-.91.7z" fill="url(#paint10_linear_85_2)"/><path d="M357.364 470.316a2.47 2.47 0 01-.588 1.834 2.686 2.686 0 01-1.876.938 2.404 2.404 0 01-1.974-.826 2.924 2.924 0 01-.742-1.764c.432.394.9.745 1.4 1.05.378.244.824.362 1.274.336a2.802 2.802 0 001.316-.42 5.208 5.208 0 001.19-1.148z" fill="url(#paint11_linear_85_2)"/><path d="M353.038 470.036a1.562 1.562 0 01.294-1.4 1.893 1.893 0 011.4-.714 1.703 1.703 0 011.4.63 1.779 1.779 0 01.406 1.316 8.425 8.425 0 00-1.022-.588 1.4 1.4 0 00-.756-.168 2.19 2.19 0 00-.798.21 4.19 4.19 0 00-.924.714z" fill="url(#paint12_linear_85_2)"/><g opacity=".4"><path d="M67.788 363.888a81.62 81.62 0 005.978 31.01c4.046 9.702 10.444 18.298 18.732 23.702a40.86 40.86 0 006.384 3.458 37.319 37.319 0 006.776 2.072c4.52.932 9.175.999 13.72.196 9.016-1.554 17.332-6.02 24.696-11.9.448-.378.952-.756 1.4-1.106l1.036-.994c.672-.7 1.4-1.4 1.988-2.142a38.836 38.836 0 003.654-4.886 72.873 72.873 0 006.09-11.746 203.48 203.48 0 008.918-27.762c4.998-19.6 8.974-40.362 13.706-61.446a609.067 609.067 0 013.766-15.904c1.288-5.334 2.716-10.682 4.2-16.072a226.336 226.336 0 0111.592-32.788c1.288-2.8 2.702-5.6 4.382-8.498.826-1.4 1.764-2.898 2.8-4.326 1.036-1.428 2.044-2.8 3.15-4.046a69.376 69.376 0 0114.574-12.796c10.276-6.902 20.832-11.2 30.968-15.568s20.132-8.4 29.582-13.23a139.2 139.2 0 0026.222-17.094 91.31 91.31 0 0019.698-23.086c5.152-8.666 8.904-18.116 9.982-27.314a45.04 45.04 0 00-.182-13.202 30.624 30.624 0 00-4.2-11.004 25.564 25.564 0 00-16.912-11.466 35.002 35.002 0 00-10.71-.42 47.52 47.52 0 00-11.2 2.8c-.938.35-1.862.742-2.8 1.134l-3.304 1.4c-2.184.98-4.354 2.002-6.468 3.094-4.2 2.17-8.4 4.508-12.474 7.126-8.162 5.166-16.184 11.424-25.116 18.2a241.172 241.172 0 01-29.568 19.474A190.649 190.649 0 01185.15 142.8c-1.4.476-2.884.854-4.326 1.274l-3.878 1.106c-2.142.63-4.312 1.316-6.468 2.058a144.27 144.27 0 00-12.698 5.152c-16.562 7.728-31.038 18.564-41.342 32.648a106.831 106.831 0 00-13.118 23.282 109.507 109.507 0 00-4.606 13.3 138.224 138.224 0 00-3.276 14.252 166.704 166.704 0 00-1.904 14.994c-.21 2.394-.364 5.516-.56 8.4-.196 2.884-.49 5.754-.826 8.61a243.281 243.281 0 01-6.37 33.474c-2.8 10.878-6.272 21.406-9.8 31.752-1.778 5.18-3.556 10.318-5.138 15.4a58.476 58.476 0 00-3.052 15.386zm-4.2 0c.015-2.863.305-5.718.868-8.526.49-2.8 1.134-5.446 1.764-8.106 1.26-5.334 2.618-10.598 3.738-15.89s2.114-10.57 2.8-15.876c.686-5.306 1.134-10.626 1.4-15.932a157.598 157.598 0 00-2.016-31.43c-.392-2.576-.896-5.124-1.4-7.658-.504-2.534-1.106-4.886-1.694-7.896a160.167 160.167 0 01-2.618-17.556 129.136 129.136 0 011.694-36.708 113 113 0 0113.608-35.854 125.415 125.415 0 0124.878-29.68 141.72 141.72 0 0131.738-21 147.555 147.555 0 0117.416-7.196c2.968-1.05 5.992-1.96 9.072-2.8l7.476-2.002a168.124 168.124 0 0026.754-9.8 213.586 213.586 0 0025.858-14.63c8.89-5.6 18.508-12.138 29.176-17.808a172.225 172.225 0 0116.478-7.77c2.8-1.162 5.6-2.212 8.54-3.22l4.312-1.4c1.638-.49 3.29-.966 4.956-1.4a74.587 74.587 0 0120.916-2.254 62.86 62.86 0 0121.322 4.452 55.497 55.497 0 0118.522 12.236 51.8 51.8 0 0111.872 18.382 55.817 55.817 0 013.542 20.426 66.845 66.845 0 01-3.024 19.138 103.677 103.677 0 01-16.87 31.612 128.04 128.04 0 01-11.466 13.104 147.459 147.459 0 01-12.95 11.34c-18.046 14-38.542 23.296-57.064 34.118-9.24 5.348-18.046 11.2-24.724 17.948a46.179 46.179 0 00-7.896 10.64 41.74 41.74 0 00-1.302 2.8 64.88 64.88 0 00-1.078 2.8 79.533 79.533 0 00-1.89 6.524c-1.134 4.606-2.016 9.576-2.8 14.644-.784 5.068-1.484 10.262-2.198 15.498l-2.072 15.876c-.7 5.334-1.4 10.71-2.24 16.114-3.304 21.56-7.504 43.554-15.4 65.45a152.652 152.652 0 01-15.82 32.382c-1.778 2.604-3.626 5.18-5.684 7.7a72.532 72.532 0 01-6.692 7.294 66.034 66.034 0 01-7.924 6.538 48.902 48.902 0 01-4.452 2.8l-2.352 1.26c-.756.392-1.4.672-2.142 1.008a87.135 87.135 0 01-17.752 6.02 66.32 66.32 0 01-18.97 1.4 54.774 54.774 0 01-18.312-4.564 50.534 50.534 0 01-8.092-4.522 54.792 54.792 0 01-7-5.684 70.293 70.293 0 01-17.654-29.4A113.679 113.679 0 0163.588 364v-.112z" fill="url(#paint13_linear_85_2)"/><path d="M244.048 410.718a141.66 141.66 0 0012.81-35c2.926-12.138 4.788-24.528 6.608-37.058.966-6.258 1.834-12.6 2.982-18.942a171.348 171.348 0 014.34-19.334 85.797 85.797 0 018.26-19.6 54.145 54.145 0 0116.52-17.584c1.806-1.19 3.752-2.184 5.6-3.248 1.848-1.064 4.004-1.736 6.048-2.534 2.044-.798 4.2-1.26 6.244-1.792 2.044-.532 4.2-.77 6.286-1.12a83.558 83.558 0 0124.206.322 97.399 97.399 0 0122.848 6.58 135.277 135.277 0 0119.726 10.542 282.255 282.255 0 0132.396 25.018l14.336 12.6c2.338 2.058 4.704 4.018 7 5.992l3.486 2.926 3.486 2.8a172.52 172.52 0 0014.112 10.178 97.105 97.105 0 0014.504 7.812 98.922 98.922 0 0016.576 5.124c5.908 1.4 12.068 2.436 18.382 3.36 12.6 1.862 25.76 3.038 39.074 4.578l10.01 1.246c3.374.49 6.72.994 10.108 1.61a136.503 136.503 0 0120.272 5.012 68.25 68.25 0 0119.32 9.87 48.913 48.913 0 0114.168 16.8 55.029 55.029 0 013.892 9.968l1.26 5.082c.35 1.68.574 3.304.868 4.97a110.901 110.901 0 011.134 20.118 104.874 104.874 0 01-2.968 20.076c-.448 1.638-.784 3.318-1.316 4.928l-1.568 4.858c-1.204 3.178-2.422 6.37-3.864 9.45a138.137 138.137 0 01-22.526 34.09 174.715 174.715 0 01-14.392 14.588c-5.012 4.662-10.36 8.904-15.792 13.034-2.8 1.988-5.488 4.074-8.33 5.95l-4.2 2.884-4.298 2.8a281.934 281.934 0 01-17.696 10.22c-3.01 1.582-6.048 3.108-9.086 4.648-3.038 1.54-6.146 2.912-9.24 4.298-3.094 1.386-6.202 2.8-9.352 4.046-3.15 1.246-6.272 2.576-9.464 3.738l-18.2 6.804c-2.968 1.106-5.88 2.296-8.806 3.444l-4.396 1.736-4.354 1.806a613.316 613.316 0 00-67.368 32.788c-10.934 6.174-21.77 12.6-33.53 19.096-5.866 3.29-12.082 6.482-18.886 9.52a125.355 125.355 0 01-22.4 7.644 98.45 98.45 0 01-25.2 2.534 113.894 113.894 0 01-23.898-3.29c-3.808-.826-7.35-1.932-10.948-2.982-1.778-.56-3.486-1.176-5.222-1.75-1.736-.574-3.444-1.162-5.236-1.904l-5.292-2.128-2.632-1.092-2.618-1.274a103.206 103.206 0 01-10.318-5.516c-1.68-1.036-3.36-2.044-5.026-3.122l-4.844-3.57-2.38-1.806c-.798-.616-1.526-1.33-2.296-2.002l-4.48-4.088c-1.4-1.4-2.8-3.024-4.116-4.522l-2.016-2.296c-.644-.784-1.218-1.624-1.834-2.45-1.19-1.652-2.394-3.29-3.542-4.956-1.148-1.666-2.03-3.5-3.01-5.264a77.605 77.605 0 01-7.77-22.036l-.574-2.8c-.154-.938-.252-1.862-.364-2.8-.224-1.848-.462-3.696-.616-5.6a108.17 108.17 0 01-.07-10.85 122.833 122.833 0 012.716-20.692 178.339 178.339 0 015.488-19.348 313.893 313.893 0 0115.218-35.938c1.4-2.87 2.8-5.782 4.312-8.61 1.512-2.828 2.8-5.712 4.382-8.526 1.582-2.814 2.996-5.6 4.508-8.4l4.522-8.4 18.326-33.264zm3.724 1.904c-5.992 11.088-11.564 22.4-16.52 33.95l-1.848 4.326-1.736 4.368c-1.19 2.898-2.24 5.852-3.304 8.792-2.17 5.866-4.046 11.83-5.782 17.808A203.337 203.337 0 00211.47 518a150.465 150.465 0 00-.798 17.822c.125 5.694.711 11.369 1.75 16.968.378 2.8 1.232 5.334 1.848 7.938l1.274 3.738c.224.616.406 1.232.63 1.834l.798 1.764a52.746 52.746 0 007.49 12.6c.77.924 1.54 1.82 2.254 2.8l2.52 2.52c.42.42.812.868 1.246 1.26l1.4 1.134c.938.742 1.806 1.54 2.8 2.268l3.01 2.072c.504.35.966.728 1.498 1.036l1.638.938 3.234 1.89 3.486 1.666a109.124 109.124 0 0014.938 5.782c1.26.448 2.674.826 4.074 1.204s2.8.798 4.2 1.134c2.73.602 5.474 1.33 8.106 1.736a75.191 75.191 0 0015.064 1.4 58.587 58.587 0 0013.692-1.834c9.058-2.31 19.166-7.238 30.128-13.104 5.474-2.898 11.06-5.978 16.8-9.1s11.606-6.16 17.5-9.212a570.366 570.366 0 0174.074-31.402l4.676-1.652 4.774-1.568c3.178-1.036 6.356-2.114 9.548-3.094l18.69-5.698c5.95-1.834 11.844-3.78 17.71-5.782l8.722-3.15c2.884-1.106 5.768-2.198 8.638-3.332 5.67-2.352 11.396-4.662 16.912-7.294l4.2-1.932 4.102-2.03c2.8-1.316 5.39-2.8 8.092-4.2a186.273 186.273 0 0029.904-20.188 126.71 126.71 0 0012.754-12.362 92.562 92.562 0 0010.514-14 79.086 79.086 0 0011.466-32.634 80.753 80.753 0 00-.084-17.542c-.21-1.4-.35-2.94-.602-4.368l-.868-4.2a43.916 43.916 0 00-2.912-7.756 33.142 33.142 0 00-10.472-12.362 49.005 49.005 0 00-15.68-7.182 104.374 104.374 0 00-18.2-3.08c-6.244-.518-12.6-.7-19.04-.644-12.852.07-25.956.868-39.466 1.148-6.776.098-13.664 0-20.748-.42a129.186 129.186 0 01-21.826-3.108c-15.274-3.738-28.434-10.584-40.348-18.2-23.66-15.316-42.294-33.6-61.222-47.054-9.422-6.706-18.746-12.054-28.35-14.994a60.061 60.061 0 00-14.868-2.576 29.403 29.403 0 00-24.612 9.8 65.69 65.69 0 00-9.702 13.664 158.374 158.374 0 00-7.658 16.338 323.673 323.673 0 00-6.342 17.612c-4.004 11.928-7.518 24.122-11.536 36.176a223.666 223.666 0 01-14.49 35.434h-.028z" fill="url(#paint14_linear_85_2)"/><path d="M633.808 125.832a90.777 90.777 0 01-6.034 10.906c-1.036 1.68-2.128 3.262-3.22 4.858-1.092 1.596-2.24 3.094-3.388 4.564-2.268 2.996-4.648 5.754-7 8.512-9.604 10.85-20.062 20.16-30.31 29.4l-3.626 3.29-1.596 1.4-1.554 1.638c-1.05 1.05-1.974 2.254-2.954 3.402-.98 1.148-1.848 2.464-2.8 3.752-.952 1.288-1.764 2.604-2.576 4.004-.812 1.4-1.638 2.8-2.408 4.2-1.498 2.8-3.024 5.838-4.354 8.89-5.6 12.236-9.8 25.382-16.254 38.556a73.326 73.326 0 01-13.258 19.04 54.276 54.276 0 01-9.8 7.784 58.64 58.64 0 01-5.6 3.024c-.966.448-1.932.924-2.912 1.316l-2.968 1.106a72.417 72.417 0 01-12.124 3.052c-2.072.378-4.312.49-6.51.686-2.198.196-4.34 0-6.538 0-2.198 0-4.2-.378-6.426-.616a31.403 31.403 0 01-3.122-.532l-3.108-.63-1.554-.336-1.498-.434-2.996-.896a51.077 51.077 0 01-5.824-2.058 94.933 94.933 0 01-20.902-11.592 115.155 115.155 0 01-17.122-15.596A112.719 112.719 0 01410.2 238a217.595 217.595 0 01-2.716-4.97c-.882-1.652-1.624-3.43-2.422-5.138a77.29 77.29 0 01-2.198-5.208c-.672-1.764-1.4-3.486-1.96-5.306a139.221 139.221 0 01-5.488-21.77 137.734 137.734 0 01-2.016-21.98 114.107 114.107 0 011.624-21.49 72.656 72.656 0 016.608-20.16 47.605 47.605 0 0114-16.352 80.38 80.38 0 0119.376-10.206 214.294 214.294 0 0142.49-10.612c7.154-1.092 14.266-1.82 21.308-2.268.683-.03 1.362-.12 2.03-.266l1.638-.294c1.12-.336 2.184-.434 3.29-.826l1.624-.462c.546-.196 1.092-.42 1.638-.574 1.092-.294 2.24-.868 3.346-1.218 5.051-2.059 9.97-4.43 14.728-7.098l8.302-4.662 4.438-2.506 4.76-2.506c3.164-1.736 6.706-3.402 10.346-5.054 3.953-1.726 8.012-3.2 12.152-4.41a69.443 69.443 0 0114.322-2.604 58.31 58.31 0 0115.834.952l1.988.378 1.932.518c1.274.364 2.576.714 3.85 1.12 2.444.86 4.834 1.87 7.154 3.024l3.374 1.75 3.094 1.918c2 1.297 3.93 2.7 5.782 4.2.49.364.868.644 1.4 1.106.532.462 1.4 1.232 2.114 1.876a32.996 32.996 0 013.99 4.298c.294.378.616.77.91 1.176l.854 1.302c.546.882 1.064 1.75 1.582 2.646a40.73 40.73 0 012.366 5.6c.28.952.532 1.89.77 2.8.126.476.238.966.322 1.4l.224 1.4c.126.896.224 1.806.322 2.716.098.91.07 1.694.098 2.548.028.854 0 1.694 0 2.506l-.196 2.296c-.084.742-.14 1.554-.266 2.254l-.406 2.156a62.972 62.972 0 01-4.704 13.832z" fill="url(#paint15_linear_85_2)"/><path d="M172.032 496.09c.689 4.003.975 8.064.854 12.124a85.334 85.334 0 01-3.78 21.812 140.56 140.56 0 01-7.266 20.174 89.648 89.648 0 01-11.2 18.396 84.49 84.49 0 01-16.128 15.582 53.203 53.203 0 01-22.75 9.058 51.285 51.285 0 01-13.105.266 41.735 41.735 0 01-12.207-3.29 42.595 42.595 0 01-9.576-5.936 84.04 84.04 0 01-7.406-7 29.106 29.106 0 01-3.234-4.2 33.192 33.192 0 01-2.282-4.9 54.463 54.463 0 01-2.436-10.766 91.9 91.9 0 01-.252-22.96 51.874 51.874 0 017-20.734A52.503 52.503 0 0182.46 498.4a90.68 90.68 0 0118.9-9.8c6.636-2.632 13.062-5.11 19.166-7.994 6.104-2.884 12.012-6.09 19.446-8.4a33.341 33.341 0 016.09-1.316 24.42 24.42 0 017.252.112 18.895 18.895 0 018.708 4.2 23.116 23.116 0 011.764 1.722c.518.588 1.036 1.19 1.526 1.82a29.437 29.437 0 012.31 3.668 34.802 34.802 0 011.68 3.612c.42 1.12.896 2.352 1.19 3.43l.49 1.694.406 1.638c.266 1.19.448 2.226.644 3.304z" fill="url(#paint16_linear_85_2)"/></g><g opacity=".4"><path d="M567.49 261.072c32.914-25.564 66.024-20.594 66.024-20.594s.154 33.488-29.89 62.37c-25.354 24.374-49.42 22.988-57.722 13.412-8.302-9.576-6.188-33.628 21.588-55.188z" fill="url(#paint17_linear_85_2)"/><path d="M563.836 277.606c20.86-16.212 41.846-13.048 41.846-13.048s.098 21.21-18.942 39.536c-16.072 15.4-31.346 14.574-36.596 8.498-5.25-6.076-3.92-21.322 13.692-34.986z" fill="url(#paint18_linear_85_2)"/></g><path d="M578.942 286.356l-2.492-1.988a1.662 1.662 0 01-.615-1.107 1.643 1.643 0 011.459-1.825 1.657 1.657 0 011.214.356L581 283.78a1.64 1.64 0 01.252 2.31 1.641 1.641 0 01-1.739.561 1.645 1.645 0 01-.571-.295z" fill="url(#paint19_linear_85_2)"/><path d="M550.844 311.99l-1.736-2.674a1.65 1.65 0 011.075-2.526 1.644 1.644 0 011.244.257c.18.123.334.281.453.463l1.736 2.674a1.652 1.652 0 01-1.729 2.515 1.65 1.65 0 01-1.043-.709z" fill="url(#paint20_linear_85_2)"/><path d="M567.251 281.274h-1.722a1.64 1.64 0 01-1.152-.523 1.643 1.643 0 01-.444-1.185 1.645 1.645 0 01.523-1.152 1.649 1.649 0 011.185-.444h1.708a1.654 1.654 0 011.151.514 1.64 1.64 0 01.445 1.18 1.662 1.662 0 01-.514 1.156 1.64 1.64 0 01-1.18.454z" fill="url(#paint21_linear_85_2)"/><path d="M583.099 301.98v-1.708a1.627 1.627 0 011.059-1.491 1.667 1.667 0 011.791.409 1.653 1.653 0 01.454 1.18v1.722a1.648 1.648 0 01-.515 1.151 1.632 1.632 0 01-1.179.445 1.642 1.642 0 01-1.161-.518 1.652 1.652 0 01-.449-1.19z" fill="url(#paint22_linear_85_2)"/><path d="M546.601 302.484l-.196-1.694a1.67 1.67 0 011.4-1.834 1.668 1.668 0 011.834 1.47l.182 1.694a1.636 1.636 0 01-1.4 1.82 1.635 1.635 0 01-1.82-1.456z" fill="url(#paint23_linear_85_2)"/><path d="M574.391 317.408l-1.596.63a1.653 1.653 0 11-1.204-3.08l1.596-.616a1.652 1.652 0 012.123 2.192 1.648 1.648 0 01-.919.874z" fill="url(#paint24_linear_85_2)"/><path d="M568.653 317.565c10.458-1.167 17.99-10.592 16.822-21.05-1.168-10.458-10.592-17.99-21.05-16.822-10.459 1.167-17.99 10.592-16.823 21.05 1.168 10.458 10.592 17.99 21.051 16.822z" fill="url(#paint25_linear_85_2)"/><path d="M558.375 288.204a4.2 4.2 0 00.994 2.492 5.163 5.163 0 002.254 1.596 3.766 3.766 0 002.8-.084 3.906 3.906 0 001.932-1.862 5.665 5.665 0 01-2.156 1.26 3.33 3.33 0 01-1.162.126 3.634 3.634 0 01-1.148-.224l-.56-.224c-.182-.098-.364-.182-.532-.294a6.007 6.007 0 01-.966-.728 6.322 6.322 0 01-1.456-2.058z" fill="url(#paint26_linear_85_2)"/><path d="M565.305 288.54a2.796 2.796 0 00-.602-1.778 3.443 3.443 0 00-1.568-1.134 2.56 2.56 0 00-3.276 1.4 4.203 4.203 0 011.512-.756 2.548 2.548 0 011.484.084 4.506 4.506 0 012.45 2.184z" fill="url(#paint27_linear_85_2)"/><path d="M573.187 300.818a2.574 2.574 0 00.154 1.82 3.052 3.052 0 001.26 1.4 2.431 2.431 0 001.918.294 2.536 2.536 0 001.498-1.05 4.762 4.762 0 01-1.596.42 2.52 2.52 0 01-1.4-.378 3.736 3.736 0 01-1.134-1.008 4.505 4.505 0 01-.7-1.498z" fill="url(#paint28_linear_85_2)"/><path d="M577.346 302.526a1.604 1.604 0 000-1.274 2.095 2.095 0 00-.882-1.022 1.771 1.771 0 00-1.4-.196 1.64 1.64 0 00-.994.826 3.718 3.718 0 011.106-.182c.303.016.596.107.854.266.6.37 1.062.926 1.316 1.582z" fill="url(#paint29_linear_85_2)"/><path d="M579.501 295.848a1.71 1.71 0 00-.406 1.274 1.848 1.848 0 00.686 1.274 1.673 1.673 0 001.4.322 1.96 1.96 0 001.12-.7 6.997 6.997 0 01-1.176 0 1.401 1.401 0 01-.868-.322 1.866 1.866 0 01-.56-.77 3.412 3.412 0 01-.196-1.078z" fill="url(#paint30_linear_85_2)"/><path d="M582.049 297.416a1.017 1.017 0 00.378-.882 1.262 1.262 0 00-.49-.952 1.163 1.163 0 00-1.064-.224 1.194 1.194 0 00-.756.588c.272.005.543.029.812.07.179.027.347.1.49.21.154.124.282.276.378.448.116.235.201.485.252.742z" fill="url(#paint31_linear_85_2)"/><path d="M552.916 293.146a1.733 1.733 0 00.546 1.232 1.859 1.859 0 001.4.49 1.65 1.65 0 001.288-.714c.261-.372.39-.821.364-1.274-.255.3-.536.576-.84.826a1.616 1.616 0 01-.854.336 1.893 1.893 0 01-.938-.196 3.707 3.707 0 01-.966-.7z" fill="url(#paint32_linear_85_2)"/><path d="M555.87 292.6a1.09 1.09 0 00-.308-.91 1.3 1.3 0 00-.994-.392 1.222 1.222 0 00-1.12 1.484c.252-.196.448-.364.644-.49a1.3 1.3 0 01.518-.168 1.41 1.41 0 01.574.098c.245.094.476.221.686.378z" fill="url(#paint33_linear_85_2)"/><path d="M564.983 304.822a4.2 4.2 0 11-4.253-7.245 4.2 4.2 0 014.253 7.245z" fill="url(#paint34_linear_85_2)"/><path d="M560.657 299.432a3.828 3.828 0 00-1.862 2.912 4.204 4.204 0 014.707-5.283 4.202 4.202 0 012.825 6.487 3.821 3.821 0 00-5.6-4.116h-.07z" fill="url(#paint35_linear_85_2)"/><path d="M557.199 302.54a5.504 5.504 0 001.274 3.024 6.48 6.48 0 002.8 1.918 4.644 4.644 0 003.416 0 4.99 4.99 0 002.31-2.282 6.452 6.452 0 01-2.632 1.624 4.521 4.521 0 01-.728.168 3.288 3.288 0 01-.742 0 4.328 4.328 0 01-1.4-.28l-.7-.28c-.224-.126-.448-.224-.658-.364a7.155 7.155 0 01-1.218-.924 7.975 7.975 0 01-1.722-2.604z" fill="url(#paint36_linear_85_2)"/><path d="M552.734 304.64a1.573 1.573 0 11-1.05-2.968 1.597 1.597 0 012.002.966 1.566 1.566 0 01-.952 2.002z" fill="url(#paint37_linear_85_2)"/><path d="M551.599 302.4a1.408 1.408 0 00-.882.938 1.555 1.555 0 011.036-1.624 1.597 1.597 0 012.002.966 1.568 1.568 0 01-.378 1.638 1.405 1.405 0 000-1.036 1.406 1.406 0 00-1.235-.953 1.408 1.408 0 00-.543.071z" fill="url(#paint38_linear_85_2)"/><path d="M550.018 303.254c-.063.418.011.845.21 1.218.212.382.521.701.896.924.386.235.848.31 1.288.21.417-.097.785-.34 1.036-.686a2.79 2.79 0 01-1.092.364 1.733 1.733 0 01-1.022-.252 2.809 2.809 0 01-1.316-1.778z" fill="url(#paint39_linear_85_2)"/><path d="M564.606 313.6a2.244 2.244 0 01-2.273-1.018 2.234 2.234 0 01.072-2.489 2.247 2.247 0 012.329-.884 2.24 2.24 0 011.706 1.815 2.23 2.23 0 01-1.017 2.269 2.22 2.22 0 01-.817.307z" fill="url(#paint40_linear_85_2)"/><path d="M563.486 310.086a2.019 2.019 0 00-1.47 1.092 2.22 2.22 0 012.13-2.083 2.226 2.226 0 012.294 1.901 2.255 2.255 0 01-.924 2.212c.264-.416.374-.912.308-1.4a2.046 2.046 0 00-.807-1.353 2.014 2.014 0 00-1.531-.369z" fill="url(#paint41_linear_85_2)"/><path d="M561.161 310.954a2.938 2.938 0 00.07 1.736 3.32 3.32 0 00.994 1.47 2.557 2.557 0 001.694.616 2.664 2.664 0 001.624-.644 3.451 3.451 0 01-1.61.322 2.48 2.48 0 01-1.4-.602 3.793 3.793 0 01-.98-1.274 3.99 3.99 0 01-.392-1.624z" fill="url(#paint42_linear_85_2)"/><path d="M572.11 291.004a3.792 3.792 0 005.945.573 3.796 3.796 0 00.672-4.258 3.792 3.792 0 00-5.833-1.285 3.568 3.568 0 00-.784 4.97z" fill="url(#paint43_linear_85_2)"/><path d="M577.317 287.728a2.923 2.923 0 01.476 2.8 3.455 3.455 0 00.126-4.312 3.581 3.581 0 00-5.026-.168 3.834 3.834 0 00-1.199 1.628 3.835 3.835 0 00-.201 2.012 3.671 3.671 0 011.274-2.1 3.236 3.236 0 014.55.14z" fill="url(#paint44_linear_85_2)"/><path d="M570.597 288.61a3.678 3.678 0 00-.182 2.8c.162.471.425.9.77 1.26a3.482 3.482 0 002.646 1.19c.474.01.947-.056 1.4-.196a5.88 5.88 0 002.38-1.4c-.811.337-1.656.585-2.52.742a4.426 4.426 0 01-2.394-.238c-.359-.173-.69-.4-.98-.672a3.011 3.011 0 01-.728-.952 4.827 4.827 0 01-.392-2.534z" fill="url(#paint45_linear_85_2)"/><path d="M541.449 475.818l7.714 1.414 1.722 8.134 1.722-8.134 7.714-1.428-7.686-1.876-1.75-7.672-1.764 7.672-7.672 1.89z" fill="url(#paint46_linear_85_2)"/><path d="M223.244 431.914l7.714 1.428 1.722 8.134 1.722-8.134 7.714-1.428-7.672-1.876-1.764-7.672-1.75 7.672-7.686 1.876z" fill="url(#paint47_linear_85_2)"/><path d="M462.672 345.016l7.714 1.428 1.722 8.12 1.722-8.12 7.714-1.428-7.672-1.89-1.764-7.672-1.75 7.672-7.686 1.89z" fill="url(#paint48_linear_85_2)"/><path d="M614.754 427.952l4.312.798.966 4.55.966-4.55 4.298-.798-4.284-1.05-.98-4.284-.98 4.284-4.298 1.05z" fill="url(#paint49_linear_85_2)"/><path d="M287.658 600.852l4.298.798.966 4.55.966-4.55 4.312-.798-4.298-1.05-.98-4.284-.98 4.284-4.284 1.05z" fill="url(#paint50_linear_85_2)"/><path d="M604.211 223.426l4.312.798.966 4.536.952-4.536 4.312-.812-4.284-1.036-.98-4.298-.994 4.298-4.284 1.05z" fill="url(#paint51_linear_85_2)"/><path d="M95.746 321.16l4.312.798.966 4.536.952-4.536 4.312-.798-4.284-1.05-.98-4.298-.98 4.298-4.298 1.05z" fill="url(#paint52_linear_85_2)"/><path d="M118.873 552.426l4.312.798.966 4.536.952-4.536 4.312-.798-4.284-1.05-.98-4.298-.994 4.298-4.284 1.05z" fill="url(#paint53_linear_85_2)"/><path d="M587.58 338.52l4.312.798.952 4.536.966-4.536 4.312-.798-4.284-1.05-.994-4.298-.98 4.298-4.284 1.05z" fill="url(#paint54_linear_85_2)"/><path d="M405.762 485.366l4.312.798.966 4.55.966-4.55 4.312-.798-4.298-1.05-.98-4.284-.98 4.284-4.298 1.05z" fill="url(#paint55_linear_85_2)"/><path d="M248.906 120.498l4.312.798.966 4.536.966-4.536 4.298-.798-4.284-1.05-.98-4.298-.98 4.298-4.298 1.05z" fill="url(#paint56_linear_85_2)"/><path d="M417.648 468.86l4.312.798.966 4.55.966-4.55 4.312-.798-4.298-1.05-.98-4.298-.98 4.298-4.298 1.05z" fill="url(#paint57_linear_85_2)"/><path d="M277.452 610.68a1.26 1.26 0 010 2.506 1.257 1.257 0 01-.804-.411 1.254 1.254 0 010-1.685c.208-.231.494-.378.804-.41z" fill="url(#paint58_linear_85_2)"/><path d="M500.346 376.334a1.26 1.26 0 010 2.506 1.263 1.263 0 01-1.127-1.253 1.263 1.263 0 011.127-1.253z" fill="url(#paint59_linear_85_2)"/><path d="M393.736 481.6a1.242 1.242 0 011.246 1.246 1.246 1.246 0 11-1.246-1.246z" fill="url(#paint60_linear_85_2)"/><path d="M208.418 601.314a1.246 1.246 0 110 2.492 1.246 1.246 0 010-2.492z" fill="url(#paint61_linear_85_2)"/><path d="M559.805 392.714a1.246 1.246 0 110 2.492 1.246 1.246 0 010-2.492z" fill="url(#paint62_linear_85_2)"/><path d="M308.755 588.21a.885.885 0 01.882.882.885.885 0 01-.882.882.885.885 0 01-.882-.882.885.885 0 01.882-.882z" fill="url(#paint63_linear_85_2)"/><path d="M132.243 129.248a.895.895 0 010 1.778.898.898 0 01-.56-1.482.898.898 0 01.56-.296z" fill="url(#paint64_linear_85_2)"/><path d="M473.2 413.35a.883.883 0 01.882.882.881.881 0 11-.882-.882z" fill="url(#paint65_linear_85_2)"/><path d="M430.445 489.832a.883.883 0 11-.001 1.765.883.883 0 01.001-1.765z" fill="url(#paint66_linear_85_2)"/><path d="M360.513 474.922a.896.896 0 010 1.778.895.895 0 010-1.778z" fill="url(#paint67_linear_85_2)"/><path d="M443.183 397.292a2.394 2.394 0 110 4.788 2.394 2.394 0 010-4.788z" fill="url(#paint68_linear_85_2)"/><path d="M320.586 155.358l7.714 1.428 1.722 8.12 1.722-8.12 7.714-1.428-7.686-1.876-1.75-7.686-1.764 7.686-7.672 1.876z" fill="url(#paint69_linear_85_2)"/><path d="M349.973 84.98l4.312.798.966 4.536.966-4.536 4.298-.798-4.284-1.05-.98-4.298-.98 4.298-4.298 1.05z" fill="url(#paint70_linear_85_2)"/><path d="M88.676 201.6a1.245 1.245 0 01.88 2.127 1.249 1.249 0 01-1.761 0 1.248 1.248 0 01.88-2.127z" fill="url(#paint71_linear_85_2)"/><path d="M108.303 532.98a1.26 1.26 0 010 2.506 1.263 1.263 0 01-1.127-1.253 1.263 1.263 0 011.127-1.253z" fill="url(#paint72_linear_85_2)"/><path d="M138.459 306.348a1.256 1.256 0 011.128 1.253c0 .311-.115.611-.324.842a1.257 1.257 0 01-.804.411 1.262 1.262 0 01-.804-2.096 1.26 1.26 0 01.804-.41z" fill="url(#paint73_linear_85_2)"/><path d="M187.894 473.41a.896.896 0 010 1.778.902.902 0 01-.785-.889.898.898 0 01.785-.889z" fill="url(#paint74_linear_85_2)"/><path d="M374.345 586.712a.885.885 0 01.882.882.885.885 0 01-.882.882.885.885 0 01-.882-.882.885.885 0 01.882-.882z" fill="url(#paint75_linear_85_2)"/><path d="M505.61 182.322a.896.896 0 010 1.778.9.9 0 01-.56-1.482.896.896 0 01.56-.296z" fill="url(#paint76_linear_85_2)"/><path d="M345.941 128.198a.881.881 0 110 1.762.881.881 0 010-1.762z" fill="url(#paint77_linear_85_2)"/><path d="M292.921 442.008a2.394 2.394 0 110 4.788 2.394 2.394 0 010-4.788z" fill="url(#paint78_linear_85_2)"/><path d="M608.426 261.03a2.409 2.409 0 010 4.802 2.403 2.403 0 01-1.583-.765 2.404 2.404 0 010-3.273 2.407 2.407 0 011.583-.764z" fill="url(#paint79_linear_85_2)"/><path d="M118.257 471.016a2.394 2.394 0 110 4.788 2.394 2.394 0 010-4.788z" fill="url(#paint80_linear_85_2)"/><path d="M319.465 378.84l4.312.798.966 4.536.966-4.536 4.312-.798-4.298-1.05-.98-4.298-.98 4.298-4.298 1.05z" fill="url(#paint81_linear_85_2)"/><path d="M411.039 596.218l4.312.798.966 4.536.952-4.536 4.312-.812-4.284-1.036-.98-4.298-.994 4.298-4.284 1.05z" fill="url(#paint82_linear_85_2)"/><path d="M430.135 540.232a1.26 1.26 0 010 2.506 1.263 1.263 0 01-1.127-1.253 1.263 1.263 0 011.127-1.253z" fill="url(#paint83_linear_85_2)"/><path d="M478.799 506.996a1.26 1.26 0 010 2.506 1.263 1.263 0 01-1.127-1.253 1.263 1.263 0 011.127-1.253z" fill="url(#paint84_linear_85_2)"/><path d="M324.744 564.382l4.312.798.966 4.55.966-4.55 4.312-.798-4.298-1.05-.98-4.298-.98 4.298-4.298 1.05z" fill="url(#paint85_linear_85_2)"/><path d="M502.18 161.952a1.256 1.256 0 011.127 1.253 1.258 1.258 0 01-1.127 1.253 1.26 1.26 0 010-2.506z" fill="url(#paint86_linear_85_2)"/><path d="M532.237 511a.883.883 0 01.624 1.506.883.883 0 01-1.247-1.248.883.883 0 01.623-.258z" fill="url(#paint87_linear_85_2)"/><path d="M156.127 360.668l4.312.798.952 4.536.966-4.536 4.312-.798-4.284-1.05-.994-4.298-.98 4.298-4.284 1.05z" fill="url(#paint88_linear_85_2)"/><path d="M106.287 429.422a1.246 1.246 0 110 2.492 1.246 1.246 0 010-2.492z" fill="url(#paint89_linear_85_2)"/><path d="M278.6 337.4a1.246 1.246 0 110 2.492 1.246 1.246 0 010-2.492z" fill="url(#paint90_linear_85_2)"/><path d="M132.243 211.162a.89.89 0 01.784.889.897.897 0 01-.784.889.9.9 0 01-.784-.889.898.898 0 01.784-.889z" fill="url(#paint91_linear_85_2)"/><path d="M120.917 203a2.394 2.394 0 110 4.788 2.394 2.394 0 010-4.788z" fill="url(#paint92_linear_85_2)"/><path d="M610.736 97.286a2.395 2.395 0 110 4.789 2.395 2.395 0 010-4.79z" fill="url(#paint93_linear_85_2)"/><path d="M550.644 580.257c18.327-17.295 19.164-46.171 1.869-64.498-17.294-18.327-46.171-19.164-64.497-1.869-18.327 17.294-19.164 46.171-1.87 64.498 17.295 18.326 46.171 19.163 64.498 1.869z" fill="url(#paint94_linear_85_2)"/><path d="M476.868 563.85a53.66 53.66 0 0113.482-9.996c8.694-4.704 32.858-11.018 43.75-17.668 15.316-9.338 16.604-18.2 16.156-22.652a45.903 45.903 0 00-14.868-9.128c-.77 4.69-3.892 19.376-29.638 30.8-13.3 5.922-26.6 3.752-31.192 3.024a45.47 45.47 0 002.31 25.62z" fill="url(#paint95_linear_85_2)"/><path d="M497.436 587.146a45.707 45.707 0 0056.546-10.346 36.45 36.45 0 00-8.4-2.59c-12.474-1.988-25.466 4.956-30.156 8.106a26.796 26.796 0 01-17.99 4.83z" fill="url(#paint96_linear_85_2)"/><path d="M480.117 570.458l.658 1.064.616.938c.476.714.952 1.4 1.4 2.086.448.686.938 1.204 1.4 1.778l.546.644.63.714c.21.238.42.476.644.7l.784.812.784.784.7.658c.518.476 1.05.938 1.582 1.4 2.898.63 6.664 0 12.026-2.688 8.008-3.906 16.282-12.418 31.78-19.446a57.028 57.028 0 0130.534-4.424 45.491 45.491 0 00-3.388-27.398c-2.912.126-12.166 2.212-30.8 20.272a118.98 118.98 0 01-18.97 15.4c-16.31 10.29-26.376 8.4-30.646 6.706h-.28z" fill="url(#paint97_linear_85_2)"/><path d="M521.487 520.8c.98 1.778 3.864 2.072 6.454.658 2.59-1.414 3.878-4.018 2.912-5.796-.966-1.778-3.864-2.058-6.454-.644-2.59 1.414-3.878 3.934-2.912 5.782z" fill="url(#paint98_linear_85_2)"/><path d="M534.646 522.802c.546.994 2.254 1.12 3.808.266 1.554-.854 2.352-2.352 1.806-3.346-.546-.994-2.254-1.134-3.808-.28-1.554.854-2.352 2.352-1.806 3.36z" fill="url(#paint99_linear_85_2)"/><path d="M504.491 581.812c.84 1.526 3.346 1.75 5.6.504 2.254-1.246 3.416-3.472 2.59-4.998-.826-1.526-3.346-1.736-5.6-.504-2.254 1.232-3.416 3.486-2.59 4.998z" fill="url(#paint100_linear_85_2)"/><path d="M513.003 582.624a2.276 2.276 0 002 1.756 2.282 2.282 0 10-.866-4.276 2.003 2.003 0 00-1.134 2.52z" fill="url(#paint101_linear_85_2)"/><path d="M513.968 578.284a1.261 1.261 0 001.708.21c.686-.378 1.022-1.078.756-1.554a1.272 1.272 0 00-1.722-.21c-.672.378-1.008 1.078-.742 1.554z" fill="url(#paint102_linear_85_2)"/><path d="M542.318 575.582c.742 1.4 2.8 1.652 4.62.658 1.82-.994 2.674-2.898 1.932-4.2s-2.8-1.652-4.62-.658c-1.82.994-2.674 2.842-1.932 4.2z" fill="url(#paint103_linear_85_2)"/><path d="M540.652 569.492a1.805 1.805 0 10.812-2.268 1.71 1.71 0 00-.812 2.268z" fill="url(#paint104_linear_85_2)"/><path d="M482.846 574.546a394.258 394.258 0 0082.11-27.076c20.44-9.604 33.054-18.802 31.346-23.996-1.708-5.194-17.038-5.264-38.64-1.106.588.91 1.134 1.834 1.666 2.8.196.364.378.728.574 1.078 11.494-1.47 19.11-.798 20.146 2.366 1.036 3.164-4.872 8.4-15.302 14.112a252.753 252.753 0 01-41.146 17.164 253.208 253.208 0 01-43.4 10.57c-11.746 1.554-19.6.896-20.608-2.31-1.008-3.206 4.69-8.19 14.756-13.804a42.894 42.894 0 01-.504-4.62C453.432 559.3 440.636 568.82 442.4 574c1.764 5.18 17.738 5.124 40.446.546z" fill="url(#paint105_linear_85_2)"/><path d="M485.423 577.668a403.357 403.357 0 0040.362-10.864 404.878 404.878 0 0038.892-14.686c28.392-12.6 46.522-25.438 44.156-32.802-2.366-7.364-24.192-7.21-54.096-.98.434.546.868 1.106 1.288 1.68 25.116-4.816 43.12-4.55 45.15 1.764 2.03 6.314-12.698 17.276-36.316 28.168a365.884 365.884 0 01-39.606 15.26 363.984 363.984 0 01-41.258 10.808c-25.41 4.928-43.666 4.69-45.71-1.68-2.044-6.37 12.32-16.982 35.392-27.72 0-.714 0-1.4.084-2.142-27.804 12.39-45.472 25.06-43.134 32.34 2.338 7.28 24.542 7.21 54.796.854z" fill="url(#paint106_linear_85_2)"/><path d="M330.341 332.576c14.072-4.804 21.584-20.105 16.78-34.176-4.804-14.071-20.105-21.584-34.176-16.78-14.071 4.804-21.584 20.105-16.78 34.176 4.804 14.072 20.105 21.584 34.176 16.78z" fill="#EBEBEB"/><path d="M347.425 314.902a31.656 31.656 0 00-8.4-5.236c-5.334-2.352-19.852-4.928-26.6-8.33-9.45-4.76-10.626-9.898-10.57-12.6a26.873 26.873 0 018.302-6.076c.672 2.716 3.206 11.2 18.9 16.8 8.106 2.8 15.862.952 18.494.308a26.782 26.782 0 01-.126 15.134zm-10.991 14.686a26.939 26.939 0 01-33.754-3.388 21.104 21.104 0 014.83-1.918c7.238-1.764 15.204 1.694 18.116 3.332a15.822 15.822 0 0010.808 1.974zm9.367-10.64l-.336.644c-.098.21-.21.392-.322.588-.242.448-.494.882-.756 1.302-.238.378-.49.742-.742 1.106l-.294.406-.35.406-.35.448c-.13.168-.27.336-.42.504-.149.168-.289.336-.42.504l-.392.42c-.28.308-.56.602-.854.896-1.666.518-3.92.294-7.196-1.008-4.9-1.918-10.164-6.538-19.6-9.926a33.671 33.671 0 00-18.116-1.162 26.796 26.796 0 01.7-16.268c1.708-.07 7.252.714 19.04 10.458a71.005 71.005 0 0011.886 8.134c10.094 5.278 15.918 3.71 18.354 2.492h.168v.056z" fill="#DBDBDB"/><path d="M320.237 329.07c.476-1.092 2.156-1.4 3.752-.714 1.596.686 2.492 2.142 2.016 3.234s-2.156 1.4-3.752.728c-1.596-.672-2.492-2.142-2.016-3.248z" fill="url(#paint107_linear_85_2)"/><path d="M327.852 327.152c.266-.616 1.26-.77 2.226-.35.966.42 1.512 1.246 1.246 1.862-.266.616-1.274.784-2.226.364-.952-.42-1.498-1.246-1.246-1.876z" fill="url(#paint108_linear_85_2)"/><path d="M306.978 294.084c.406-.924 1.862-1.204 3.262-.588s2.198 1.862 1.778 2.8c-.42.938-1.862 1.204-3.262.588s-2.156-1.862-1.778-2.8z" fill="url(#paint109_linear_85_2)"/><path d="M311.934 293.16a1.162 1.162 0 011.582-.378 1.178 1.178 0 01.798 1.4 1.397 1.397 0 01-1.539.284 1.403 1.403 0 01-.841-1.32v.014z" fill="url(#paint110_linear_85_2)"/><path d="M312.732 295.652a.74.74 0 01.994-.21c.42.182.644.574.518.868a.726.726 0 01-.994.224.738.738 0 01-.518-.882z" fill="url(#paint111_linear_85_2)"/><path d="M329.533 295.722a2.292 2.292 0 011.812-1.975 2.297 2.297 0 01.991 4.484 2.302 2.302 0 01-1.403-.115 1.984 1.984 0 01-1.186-.913 1.982 1.982 0 01-.214-1.481z" fill="url(#paint112_linear_85_2)"/><path d="M328.889 299.39a1.067 1.067 0 011.379-.497 1.068 1.068 0 01.567 1.351 1.063 1.063 0 01-1.946-.854z" fill="url(#paint113_linear_85_2)"/><path d="M142.657 144.871c13.803-5.526 20.513-21.196 14.986-35-5.526-13.803-21.196-20.513-34.999-14.986-13.804 5.526-20.513 21.196-14.987 35 5.527 13.803 21.197 20.513 35 14.986z" fill="url(#paint114_linear_85_2)"/><path opacity=".1" d="M142.657 144.871c13.803-5.526 20.513-21.196 14.986-35-5.526-13.803-21.196-20.513-34.999-14.986-13.804 5.526-20.513 21.196-14.987 35 5.527 13.803 21.197 20.513 35 14.986z" fill="#fff"/><path d="M158.423 127.708a31.832 31.832 0 00-8.4-5.236c-5.348-2.352-19.824-4.872-26.586-8.316-9.45-4.774-10.626-9.912-10.57-12.6a26.754 26.754 0 018.316-6.076c.672 2.716 3.192 11.2 18.886 16.8 8.106 2.8 15.862.938 18.494.294a26.782 26.782 0 01-.14 15.134zm-11.003 14.686a26.962 26.962 0 01-33.754-3.402 21.417 21.417 0 014.83-1.918c7.238-1.764 15.218 1.708 18.2 3.332a15.782 15.782 0 0010.724 1.988zm9.38-10.64a7.268 7.268 0 01-.336.658c-.098.196-.196.392-.308.588-.252.434-.504.868-.77 1.288-.266.42-.476.756-.742 1.12l-.294.392a5.23 5.23 0 01-.336.448l-.336.448-.42.518-.434.49-.378.434c-.28.308-.574.602-.868.882-1.68.504-3.92.28-7.21-1.008-4.886-1.918-10.164-6.538-19.6-9.94a33.768 33.768 0 00-18.102-1.162 26.794 26.794 0 01.686-16.31c1.722-.07 7.252.714 19.054 10.458a69.053 69.053 0 0011.886 8.134c10.108 5.348 15.918 3.808 18.354 2.548h.154v.014z" opacity=".1" fill="#fff"/><path d="M131.223 141.89c.476-1.106 2.156-1.4 3.752-.728 1.596.672 2.506 2.142 2.03 3.234s-2.17 1.4-3.752.728c-1.582-.672-2.506-2.142-2.03-3.234zm7.629-1.89c.266-.616 1.26-.784 2.212-.364.952.42 1.512 1.26 1.246 1.876-.266.616-1.26.77-2.226.364s-1.484-1.288-1.232-1.876zm-20.887-33.096c.406-.938 1.862-1.204 3.262-.602s2.198 1.862 1.792 2.8c-.406.938-1.876 1.204-3.276.588s-2.142-1.89-1.778-2.786zm4.956-.938a1.179 1.179 0 011.582-.378 1.031 1.031 0 01.751.512 1.023 1.023 0 01-1.115 1.498 1.035 1.035 0 01-.42-.204 1.192 1.192 0 01-.798-1.428zm.798 2.506a.74.74 0 01.994-.224c.42.196.658.574.532.882a.756.756 0 01-.994.21c-.42-.14-.658-.574-.532-.868zm16.813.056a2.286 2.286 0 011.813-1.942 2.28 2.28 0 012.722 2.453 2.286 2.286 0 01-1.744 2.005c-.463.11-.95.072-1.391-.108a1.987 1.987 0 01-1.4-2.408zm-.657 3.668a1.068 1.068 0 011.379-.497 1.062 1.062 0 01.567 1.351 1.063 1.063 0 01-1.946-.854z" opacity=".1" fill="#fff"/><path d="M327.097 171.976c-.994-1.19-58.59-27.902-110.754 11.9-47.95 36.596-64.596 105.378-58.226 107.03 7.798 2.016 29.162-30.8 70.168-48.846 14.546-6.398 37.688 0 37.688 0l61.124-70.084z" fill="url(#paint115_linear_85_2)"/><path opacity=".1" d="M266 242.046a91.068 91.068 0 00-21-2.8 92028.011 92028.011 0 0136.89-77.112c25.802.238 44.702 9.184 45.276 9.8L266 242.046z" fill="#000"/><path d="M421.975 283.878c1.008 1.176 17.948 62.37-29.862 107.31-43.946 41.328-114.52 46.494-115.108 39.942-.714-8.022 35.168-23.73 59.668-61.236 8.68-13.3 6.174-37.184 6.174-37.184l79.128-48.832z" fill="url(#paint116_linear_85_2)"/><path opacity=".1" d="M424.2 330.47l-82.124 23.898a91.171 91.171 0 00.714-21.658l79.128-48.832c.63.672 6.482 20.958 2.282 46.592z" fill="#000"/><path d="M287.883 358.68l-56.252-66.346s29.4-78.666 99.064-131.502c34.818-26.362 75.6-46.088 112.238-59.136 50.47-18.088 92.694-23.296 99.232-15.624 6.538 7.672-5.6 48.524-31.612 95.382-18.886 33.894-45.038 70.966-76.734 101.01-63.532 60.144-145.936 76.216-145.936 76.216z" fill="url(#paint117_linear_85_2)"/><path d="M424.537 254.058a50.16 50.16 0 01-76.312-13.89 50.16 50.16 0 1193.84-20.234 50.176 50.176 0 01-17.528 34.124z" fill="#fff"/><path d="M427.28 249.396a50.157 50.157 0 01-55.374 6.349 50.156 50.156 0 01-27.057-48.729 50.165 50.165 0 0134.666-43.645 50.164 50.164 0 0153.589 15.325 50.179 50.179 0 01-5.824 70.7z" fill="url(#paint118_linear_85_2)"/><path d="M417.354 237.65a34.793 34.793 0 01-52.936-9.591 34.78 34.78 0 01-4.273-19.747 34.787 34.787 0 0161.213-19.662 34.79 34.79 0 01-4.004 49z" fill="#fff"/><path d="M417.368 237.65a34.772 34.772 0 01-11.13 6.37l-28-2.282a34.571 34.571 0 01-9.94-8.092 34.108 34.108 0 01-5.054-7.91l60.34 4.914a34.3 34.3 0 01-6.216 7zm7.002-44.898l-55.692-4.536a33.972 33.972 0 013.64-3.598 34.773 34.773 0 0149 4.004 33.832 33.832 0 013.052 4.13zm3.024 30.688l-66.64-5.446a27.85 27.85 0 01-.49-3.094l68.096 5.6a39.91 39.91 0 01-.966 2.94z" fill="#EBEBEB"/><path d="M510.554 181.454l-67.62-79.8c50.47-18.046 92.694-23.254 99.232-15.582 6.538 7.672-5.544 48.524-31.612 95.382z" fill="url(#paint119_linear_85_2)"/><path d="M462.813 108.43a2.928 2.928 0 01-4.815-2.465 2.928 2.928 0 015.151-1.651 2.929 2.929 0 01-.336 4.116zm12.026 14.196a2.924 2.924 0 01-4.846-2.467 2.925 2.925 0 015.147-1.62 2.927 2.927 0 01-.301 4.087zm12.025 14.182a2.931 2.931 0 01-3.213.32 2.925 2.925 0 01-1.551-2.832 2.931 2.931 0 011.998-2.535 2.926 2.926 0 013.116.847 2.916 2.916 0 01-.35 4.2zm12.041 14.196a2.926 2.926 0 11-3.714-4.525 2.926 2.926 0 013.714 4.525zm12.096 14.196a2.925 2.925 0 11-3.783-4.464A2.925 2.925 0 01511 165.2z" fill="#fff"/><path d="M247.801 290.78a2.924 2.924 0 01-4.081-.379 2.928 2.928 0 01.301-4.087 2.924 2.924 0 014.846 2.467 2.93 2.93 0 01-1.066 1.999zm12.096 14.196a2.926 2.926 0 11-3.714-4.524 2.926 2.926 0 013.714 4.524zm12.026 14.224a2.93 2.93 0 01-4.449-.81 2.928 2.928 0 011.659-4.207 2.926 2.926 0 012.79 5.017zm12.025 14.154a2.93 2.93 0 01-3.212.331 2.928 2.928 0 01-.948-4.397 2.928 2.928 0 014.496-.134 2.932 2.932 0 01.725 2.171 2.935 2.935 0 01-1.061 2.029zm12.027 14.182a2.931 2.931 0 01-3.212.32 2.927 2.927 0 113.562-4.52 2.898 2.898 0 01.724 2.175 2.903 2.903 0 01-1.074 2.025z" fill="#A6A6A6"/><path opacity=".2" d="M539.001 84.098c-38.948 2.8-106.4 26.376-177.366 82.04-52.444 41.118-90.706 113.078-108.542 151.508l-21.462-25.312s29.4-78.666 99.064-131.502c34.818-26.362 75.6-46.088 112.238-59.136 45.234-16.226 83.832-22.106 96.068-17.598z" fill="#fff"/><path d="M262.754 369.488l-45.738-53.956 17.794-19.446 50.036 59.024-22.092 14.378z" fill="url(#paint120_linear_85_2)"/><path opacity=".1" d="M284.844 355.11l-10.766 7-46.074-58.59 6.804-7.42 50.036 59.01z" fill="#000"/><path d="M509.838 188.664l-20.902-1.4-9.828 19.908.896-22.176-19.012-8.792 21.112.21 9.604-18.718-.504 21.028 18.634 9.94zm-5.138-77.21l-11.69-.77-5.488 11.13.504-12.404-10.626-4.914 11.802.112 5.362-10.458-.28 11.76 10.416 5.544zm-94.527 237.328l-11.676-.784-5.488 11.13.49-12.39-10.626-4.914 11.802.112 5.376-10.458-.294 11.76 10.416 5.544zm-207.928-103.25l-11.69-.784-5.488 11.13.504-12.39-10.626-4.914 11.802.112 5.362-10.458-.28 11.746 10.416 5.558z" fill="#FCFCFC"/><path opacity=".6" d="M252.701 357.448c-21.21 14.294-39.928 32.536-53.592 54.334a146.189 146.189 0 00-22.946 73.15 134.026 134.026 0 004.774 39.032 139.674 139.674 0 0016.184 36.68 160.342 160.342 0 0026.054 31.556 202.793 202.793 0 0033.208 25.2 204.337 204.337 0 01-36.4-21.434 166.684 166.684 0 01-30.8-29.652 150.265 150.265 0 01-32.508-80.696c-2.632-29.834 3.668-60.452 16.716-87.766 13.048-27.314 32.55-51.576 55.594-71.4l23.716 30.996z" fill="url(#paint121_linear_85_2)"/><path d="M216.428 389.97l-8.344 1.54-1.862 8.792-1.862-8.792-8.344-1.554 8.316-2.03 1.89-8.302 1.904 8.302 8.302 2.044zm-30.704 164.682l-4.662.868-1.036 4.914-1.05-4.914-4.662-.868 4.648-1.134 1.064-4.634 1.064 4.634 4.634 1.134zm-2.505-42.658l-4.662.854-1.036 4.928-1.036-4.928-4.676-.854 4.648-1.134 1.064-4.648 1.064 4.648 4.634 1.134zm27.048-149.45l-4.662.868-1.05 4.914-1.036-4.914-4.662-.868 4.648-1.134 1.05-4.634 1.064 4.634 4.648 1.134zm-13.51 202.748a1.403 1.403 0 000 2.702 1.403 1.403 0 00.746-2.201 1.406 1.406 0 00-.746-.501zm38.584-209.328a1.396 1.396 0 00-1.032 1.351 1.403 1.403 0 001.032 1.351 1.403 1.403 0 00.746-2.201 1.395 1.395 0 00-.746-.501zm-72.773 120.554a1.403 1.403 0 00-1.033 1.351 1.398 1.398 0 001.033 1.351 1.398 1.398 0 001.033-1.351 1.398 1.398 0 00-1.033-1.351zm31.78 81.732a.97.97 0 00-.85.959.97.97 0 00.85.959.97.97 0 00.85-.959.97.97 0 00-.85-.959zm-32.269-128.968a.952.952 0 100 1.904.952.952 0 000-1.904zm9.731 97.804a2.607 2.607 0 00-2.414 2.597 2.604 2.604 0 002.414 2.597 2.602 2.602 0 001.716-4.37 2.602 2.602 0 00-1.716-.824zm2.505-106.596a2.59 2.59 0 100 5.182 2.59 2.59 0 000-5.182z" fill="#fff"/><defs><linearGradient id="paint0_linear_85_2" x1="375.2" y1="438.718" x2="375.2" y2="493.794" gradientUnits="userSpaceOnUse"><stop stop-color="#93B3E3"/><stop offset="1" stop-color="#536279"/></linearGradient><linearGradient id="paint1_linear_85_2" x1="379.656" y1="449.918" x2="379.656" y2="456.882" gradientUnits="userSpaceOnUse"><stop stop-color="#144794"/><stop offset="1" stop-color="#06162E"/></linearGradient><linearGradient id="paint2_linear_85_2" x1="379.09" y1="446.58" x2="379.09" y2="451.5" gradientUnits="userSpaceOnUse"><stop stop-color="#144794"/><stop offset="1" stop-color="#06162E"/></linearGradient><linearGradient id="paint3_linear_85_2" x1="372.061" y1="479.192" x2="372.061" y2="484.813" gradientUnits="userSpaceOnUse"><stop stop-color="#144794"/><stop offset="1" stop-color="#06162E"/></linearGradient><linearGradient id="paint4_linear_85_2" x1="371.569" y1="478.332" x2="371.569" y2="482.328" gradientUnits="userSpaceOnUse"><stop stop-color="#144794"/><stop offset="1" stop-color="#06162E"/></linearGradient><linearGradient id="paint5_linear_85_2" x1="363.79" y1="454.426" x2="363.79" y2="458.845" gradientUnits="userSpaceOnUse"><stop stop-color="#144794"/><stop offset="1" stop-color="#06162E"/></linearGradient><linearGradient id="paint6_linear_85_2" x1="362.788" y1="453.979" x2="362.788" y2="457.1" gradientUnits="userSpaceOnUse"><stop stop-color="#144794"/><stop offset="1" stop-color="#06162E"/></linearGradient><linearGradient id="paint7_linear_85_2" x1="382.004" y1="480.732" x2="382.004" y2="484.752" gradientUnits="userSpaceOnUse"><stop stop-color="#144794"/><stop offset="1" stop-color="#06162E"/></linearGradient><linearGradient id="paint8_linear_85_2" x1="382.681" y1="479.743" x2="382.681" y2="482.734" gradientUnits="userSpaceOnUse"><stop stop-color="#144794"/><stop offset="1" stop-color="#06162E"/></linearGradient><linearGradient id="paint9_linear_85_2" x1="391.262" y1="464.072" x2="391.262" y2="466.862" gradientUnits="userSpaceOnUse"><stop stop-color="#144794"/><stop offset="1" stop-color="#06162E"/></linearGradient><linearGradient id="paint10_linear_85_2" x1="391.247" y1="461.691" x2="391.247" y2="463.806" gradientUnits="userSpaceOnUse"><stop stop-color="#144794"/><stop offset="1" stop-color="#06162E"/></linearGradient><linearGradient id="paint11_linear_85_2" x1="354.779" y1="470.316" x2="354.779" y2="473.093" gradientUnits="userSpaceOnUse"><stop stop-color="#144794"/><stop offset="1" stop-color="#06162E"/></linearGradient><linearGradient id="paint12_linear_85_2" x1="354.764" y1="467.92" x2="354.764" y2="470.036" gradientUnits="userSpaceOnUse"><stop stop-color="#144794"/><stop offset="1" stop-color="#06162E"/></linearGradient><linearGradient id="paint13_linear_85_2" x1="214.077" y1="41.453" x2="214.077" y2="441.164" gradientUnits="userSpaceOnUse"><stop stop-color="#144794"/><stop offset="1" stop-color="#06162E"/></linearGradient><linearGradient id="paint14_linear_85_2" x1="407.725" y1="253.778" x2="407.725" y2="652.035" gradientUnits="userSpaceOnUse"><stop stop-color="#144794"/><stop offset="1" stop-color="#06162E"/></linearGradient><linearGradient id="paint15_linear_85_2" x1="516.386" y1="59.89" x2="516.386" y2="289.299" gradientUnits="userSpaceOnUse"><stop stop-color="#144794"/><stop offset="1" stop-color="#06162E"/></linearGradient><linearGradient id="paint16_linear_85_2" x1="116.788" y1="470.672" x2="116.788" y2="593.8" gradientUnits="userSpaceOnUse"><stop stop-color="#144794"/><stop offset="1" stop-color="#06162E"/></linearGradient><linearGradient id="paint17_linear_85_2" x1="587.572" y1="240.088" x2="587.572" y2="322.698" gradientUnits="userSpaceOnUse"><stop stop-color="#144794"/><stop offset="1" stop-color="#06162E"/></linearGradient><linearGradient id="paint18_linear_85_2" x1="576.563" y1="264.309" x2="576.563" y2="316.662" gradientUnits="userSpaceOnUse"><stop stop-color="#144794"/><stop offset="1" stop-color="#06162E"/></linearGradient><linearGradient id="paint19_linear_85_2" x1="578.72" y1="281.427" x2="578.72" y2="286.715" gradientUnits="userSpaceOnUse"><stop stop-color="#144794"/><stop offset="1" stop-color="#06162E"/></linearGradient><linearGradient id="paint20_linear_85_2" x1="551.36" y1="306.76" x2="551.36" y2="312.734" gradientUnits="userSpaceOnUse"><stop stop-color="#144794"/><stop offset="1" stop-color="#06162E"/></linearGradient><linearGradient id="paint21_linear_85_2" x1="566.439" y1="277.969" x2="566.439" y2="281.275" gradientUnits="userSpaceOnUse"><stop stop-color="#144794"/><stop offset="1" stop-color="#06162E"/></linearGradient><linearGradient id="paint22_linear_85_2" x1="584.75" y1="298.675" x2="584.75" y2="303.689" gradientUnits="userSpaceOnUse"><stop stop-color="#144794"/><stop offset="1" stop-color="#06162E"/></linearGradient><linearGradient id="paint23_linear_85_2" x1="548.114" y1="298.946" x2="548.114" y2="303.951" gradientUnits="userSpaceOnUse"><stop stop-color="#144794"/><stop offset="1" stop-color="#06162E"/></linearGradient><linearGradient id="paint24_linear_85_2" x1="572.993" y1="314.226" x2="572.993" y2="318.152" gradientUnits="userSpaceOnUse"><stop stop-color="#144794"/><stop offset="1" stop-color="#06162E"/></linearGradient><linearGradient id="paint25_linear_85_2" x1="564.425" y1="279.693" x2="568.653" y2="317.565" gradientUnits="userSpaceOnUse"><stop stop-color="#93B3E3"/><stop offset="1" stop-color="#536279"/></linearGradient><linearGradient id="paint26_linear_85_2" x1="562.365" y1="288.204" x2="562.365" y2="292.522" gradientUnits="userSpaceOnUse"><stop stop-color="#144794"/><stop offset="1" stop-color="#06162E"/></linearGradient><linearGradient id="paint27_linear_85_2" x1="562.583" y1="285.459" x2="562.583" y2="288.54" gradientUnits="userSpaceOnUse"><stop stop-color="#144794"/><stop offset="1" stop-color="#06162E"/></linearGradient><linearGradient id="paint28_linear_85_2" x1="575.552" y1="300.818" x2="575.552" y2="304.412" gradientUnits="userSpaceOnUse"><stop stop-color="#144794"/><stop offset="1" stop-color="#06162E"/></linearGradient><linearGradient id="paint29_linear_85_2" x1="575.774" y1="299.969" x2="575.774" y2="302.526" gradientUnits="userSpaceOnUse"><stop stop-color="#144794"/><stop offset="1" stop-color="#06162E"/></linearGradient><linearGradient id="paint30_linear_85_2" x1="580.695" y1="295.848" x2="580.695" y2="298.758" gradientUnits="userSpaceOnUse"><stop stop-color="#144794"/><stop offset="1" stop-color="#06162E"/></linearGradient><linearGradient id="paint31_linear_85_2" x1="581.274" y1="295.313" x2="581.274" y2="297.416" gradientUnits="userSpaceOnUse"><stop stop-color="#144794"/><stop offset="1" stop-color="#06162E"/></linearGradient><linearGradient id="paint32_linear_85_2" x1="554.717" y1="292.88" x2="554.717" y2="294.873" gradientUnits="userSpaceOnUse"><stop stop-color="#144794"/><stop offset="1" stop-color="#06162E"/></linearGradient><linearGradient id="paint33_linear_85_2" x1="554.649" y1="291.297" x2="554.649" y2="292.782" gradientUnits="userSpaceOnUse"><stop stop-color="#144794"/><stop offset="1" stop-color="#06162E"/></linearGradient><linearGradient id="paint34_linear_85_2" x1="562.856" y1="297" x2="562.856" y2="305.4" gradientUnits="userSpaceOnUse"><stop stop-color="#144794"/><stop offset="1" stop-color="#06162E"/></linearGradient><linearGradient id="paint35_linear_85_2" x1="562.839" y1="297.009" x2="562.839" y2="303.548" gradientUnits="userSpaceOnUse"><stop stop-color="#144794"/><stop offset="1" stop-color="#06162E"/></linearGradient><linearGradient id="paint36_linear_85_2" x1="562.099" y1="302.54" x2="562.099" y2="307.807" gradientUnits="userSpaceOnUse"><stop stop-color="#144794"/><stop offset="1" stop-color="#06162E"/></linearGradient><linearGradient id="paint37_linear_85_2" x1="552.206" y1="301.591" x2="552.206" y2="304.73" gradientUnits="userSpaceOnUse"><stop stop-color="#144794"/><stop offset="1" stop-color="#06162E"/></linearGradient><linearGradient id="paint38_linear_85_2" x1="552.277" y1="301.633" x2="552.277" y2="304.318" gradientUnits="userSpaceOnUse"><stop stop-color="#144794"/><stop offset="1" stop-color="#06162E"/></linearGradient><linearGradient id="paint39_linear_85_2" x1="551.722" y1="303.254" x2="551.722" y2="305.649" gradientUnits="userSpaceOnUse"><stop stop-color="#144794"/><stop offset="1" stop-color="#06162E"/></linearGradient><linearGradient id="paint40_linear_85_2" x1="564.231" y1="309.152" x2="564.231" y2="313.632" gradientUnits="userSpaceOnUse"><stop stop-color="#144794"/><stop offset="1" stop-color="#06162E"/></linearGradient><linearGradient id="paint41_linear_85_2" x1="564.243" y1="309.093" x2="564.243" y2="313.208" gradientUnits="userSpaceOnUse"><stop stop-color="#144794"/><stop offset="1" stop-color="#06162E"/></linearGradient><linearGradient id="paint42_linear_85_2" x1="563.303" y1="310.954" x2="563.303" y2="314.776" gradientUnits="userSpaceOnUse"><stop stop-color="#144794"/><stop offset="1" stop-color="#06162E"/></linearGradient><linearGradient id="paint43_linear_85_2" x1="575.267" y1="285.167" x2="575.267" y2="292.755" gradientUnits="userSpaceOnUse"><stop stop-color="#144794"/><stop offset="1" stop-color="#06162E"/></linearGradient><linearGradient id="paint44_linear_85_2" x1="575.026" y1="285.101" x2="575.026" y2="290.528" gradientUnits="userSpaceOnUse"><stop stop-color="#144794"/><stop offset="1" stop-color="#06162E"/></linearGradient><linearGradient id="paint45_linear_85_2" x1="573.916" y1="288.61" x2="573.916" y2="293.861" gradientUnits="userSpaceOnUse"><stop stop-color="#144794"/><stop offset="1" stop-color="#06162E"/></linearGradient><linearGradient id="paint46_linear_85_2" x1="550.885" y1="466.256" x2="550.885" y2="485.366" gradientUnits="userSpaceOnUse"><stop stop-color="#144794"/><stop offset="1" stop-color="#06162E"/></linearGradient><linearGradient id="paint47_linear_85_2" x1="232.68" y1="422.366" x2="232.68" y2="441.476" gradientUnits="userSpaceOnUse"><stop stop-color="#144794"/><stop offset="1" stop-color="#06162E"/></linearGradient><linearGradient id="paint48_linear_85_2" x1="472.108" y1="335.454" x2="472.108" y2="354.564" gradientUnits="userSpaceOnUse"><stop stop-color="#144794"/><stop offset="1" stop-color="#06162E"/></linearGradient><linearGradient id="paint49_linear_85_2" x1="620.025" y1="422.618" x2="620.025" y2="433.3" gradientUnits="userSpaceOnUse"><stop stop-color="#144794"/><stop offset="1" stop-color="#06162E"/></linearGradient><linearGradient id="paint50_linear_85_2" x1="292.929" y1="595.518" x2="292.929" y2="606.2" gradientUnits="userSpaceOnUse"><stop stop-color="#144794"/><stop offset="1" stop-color="#06162E"/></linearGradient><linearGradient id="paint51_linear_85_2" x1="609.482" y1="218.078" x2="609.482" y2="228.76" gradientUnits="userSpaceOnUse"><stop stop-color="#144794"/><stop offset="1" stop-color="#06162E"/></linearGradient><linearGradient id="paint52_linear_85_2" x1="101.017" y1="315.812" x2="101.017" y2="326.494" gradientUnits="userSpaceOnUse"><stop stop-color="#144794"/><stop offset="1" stop-color="#06162E"/></linearGradient><linearGradient id="paint53_linear_85_2" x1="124.144" y1="547.078" x2="124.144" y2="557.76" gradientUnits="userSpaceOnUse"><stop stop-color="#144794"/><stop offset="1" stop-color="#06162E"/></linearGradient><linearGradient id="paint54_linear_85_2" x1="592.851" y1="333.172" x2="592.851" y2="343.854" gradientUnits="userSpaceOnUse"><stop stop-color="#144794"/><stop offset="1" stop-color="#06162E"/></linearGradient><linearGradient id="paint55_linear_85_2" x1="411.04" y1="480.032" x2="411.04" y2="490.714" gradientUnits="userSpaceOnUse"><stop stop-color="#144794"/><stop offset="1" stop-color="#06162E"/></linearGradient><linearGradient id="paint56_linear_85_2" x1="254.177" y1="115.15" x2="254.177" y2="125.832" gradientUnits="userSpaceOnUse"><stop stop-color="#144794"/><stop offset="1" stop-color="#06162E"/></linearGradient><linearGradient id="paint57_linear_85_2" x1="422.926" y1="463.512" x2="422.926" y2="474.208" gradientUnits="userSpaceOnUse"><stop stop-color="#144794"/><stop offset="1" stop-color="#06162E"/></linearGradient><linearGradient id="paint58_linear_85_2" x1="277.452" y1="610.68" x2="277.452" y2="613.186" gradientUnits="userSpaceOnUse"><stop stop-color="#144794"/><stop offset="1" stop-color="#06162E"/></linearGradient><linearGradient id="paint59_linear_85_2" x1="500.346" y1="376.334" x2="500.346" y2="378.84" gradientUnits="userSpaceOnUse"><stop stop-color="#144794"/><stop offset="1" stop-color="#06162E"/></linearGradient><linearGradient id="paint60_linear_85_2" x1="393.736" y1="481.6" x2="393.736" y2="484.092" gradientUnits="userSpaceOnUse"><stop stop-color="#144794"/><stop offset="1" stop-color="#06162E"/></linearGradient><linearGradient id="paint61_linear_85_2" x1="208.418" y1="601.314" x2="208.418" y2="603.806" gradientUnits="userSpaceOnUse"><stop stop-color="#144794"/><stop offset="1" stop-color="#06162E"/></linearGradient><linearGradient id="paint62_linear_85_2" x1="559.805" y1="392.714" x2="559.805" y2="395.206" gradientUnits="userSpaceOnUse"><stop stop-color="#144794"/><stop offset="1" stop-color="#06162E"/></linearGradient><linearGradient id="paint63_linear_85_2" x1="308.755" y1="588.21" x2="308.755" y2="589.974" gradientUnits="userSpaceOnUse"><stop stop-color="#144794"/><stop offset="1" stop-color="#06162E"/></linearGradient><linearGradient id="paint64_linear_85_2" x1="132.243" y1="129.248" x2="132.243" y2="131.026" gradientUnits="userSpaceOnUse"><stop stop-color="#144794"/><stop offset="1" stop-color="#06162E"/></linearGradient><linearGradient id="paint65_linear_85_2" x1="473.2" y1="413.35" x2="473.2" y2="415.114" gradientUnits="userSpaceOnUse"><stop stop-color="#144794"/><stop offset="1" stop-color="#06162E"/></linearGradient><linearGradient id="paint66_linear_85_2" x1="430.445" y1="489.832" x2="430.445" y2="491.596" gradientUnits="userSpaceOnUse"><stop stop-color="#144794"/><stop offset="1" stop-color="#06162E"/></linearGradient><linearGradient id="paint67_linear_85_2" x1="360.513" y1="474.922" x2="360.513" y2="476.7" gradientUnits="userSpaceOnUse"><stop stop-color="#144794"/><stop offset="1" stop-color="#06162E"/></linearGradient><linearGradient id="paint68_linear_85_2" x1="443.183" y1="397.292" x2="443.183" y2="402.08" gradientUnits="userSpaceOnUse"><stop stop-color="#144794"/><stop offset="1" stop-color="#06162E"/></linearGradient><linearGradient id="paint69_linear_85_2" x1="330.022" y1="145.796" x2="330.022" y2="164.906" gradientUnits="userSpaceOnUse"><stop stop-color="#144794"/><stop offset="1" stop-color="#06162E"/></linearGradient><linearGradient id="paint70_linear_85_2" x1="355.244" y1="79.632" x2="355.244" y2="90.314" gradientUnits="userSpaceOnUse"><stop stop-color="#144794"/><stop offset="1" stop-color="#06162E"/></linearGradient><linearGradient id="paint71_linear_85_2" x1="88.676" y1="201.6" x2="88.676" y2="204.092" gradientUnits="userSpaceOnUse"><stop stop-color="#144794"/><stop offset="1" stop-color="#06162E"/></linearGradient><linearGradient id="paint72_linear_85_2" x1="108.303" y1="532.98" x2="108.303" y2="535.486" gradientUnits="userSpaceOnUse"><stop stop-color="#144794"/><stop offset="1" stop-color="#06162E"/></linearGradient><linearGradient id="paint73_linear_85_2" x1="138.459" y1="306.348" x2="138.459" y2="308.854" gradientUnits="userSpaceOnUse"><stop stop-color="#144794"/><stop offset="1" stop-color="#06162E"/></linearGradient><linearGradient id="paint74_linear_85_2" x1="187.894" y1="473.41" x2="187.894" y2="475.188" gradientUnits="userSpaceOnUse"><stop stop-color="#144794"/><stop offset="1" stop-color="#06162E"/></linearGradient><linearGradient id="paint75_linear_85_2" x1="374.345" y1="586.712" x2="374.345" y2="588.476" gradientUnits="userSpaceOnUse"><stop stop-color="#144794"/><stop offset="1" stop-color="#06162E"/></linearGradient><linearGradient id="paint76_linear_85_2" x1="505.61" y1="182.322" x2="505.61" y2="184.1" gradientUnits="userSpaceOnUse"><stop stop-color="#144794"/><stop offset="1" stop-color="#06162E"/></linearGradient><linearGradient id="paint77_linear_85_2" x1="345.941" y1="128.198" x2="345.941" y2="129.962" gradientUnits="userSpaceOnUse"><stop stop-color="#144794"/><stop offset="1" stop-color="#06162E"/></linearGradient><linearGradient id="paint78_linear_85_2" x1="292.921" y1="442.008" x2="292.921" y2="446.796" gradientUnits="userSpaceOnUse"><stop stop-color="#144794"/><stop offset="1" stop-color="#06162E"/></linearGradient><linearGradient id="paint79_linear_85_2" x1="608.426" y1="261.03" x2="608.426" y2="265.832" gradientUnits="userSpaceOnUse"><stop stop-color="#144794"/><stop offset="1" stop-color="#06162E"/></linearGradient><linearGradient id="paint80_linear_85_2" x1="118.257" y1="471.016" x2="118.257" y2="475.804" gradientUnits="userSpaceOnUse"><stop stop-color="#144794"/><stop offset="1" stop-color="#06162E"/></linearGradient><linearGradient id="paint81_linear_85_2" x1="324.743" y1="373.492" x2="324.743" y2="384.174" gradientUnits="userSpaceOnUse"><stop stop-color="#144794"/><stop offset="1" stop-color="#06162E"/></linearGradient><linearGradient id="paint82_linear_85_2" x1="416.31" y1="590.87" x2="416.31" y2="601.552" gradientUnits="userSpaceOnUse"><stop stop-color="#144794"/><stop offset="1" stop-color="#06162E"/></linearGradient><linearGradient id="paint83_linear_85_2" x1="430.135" y1="540.232" x2="430.135" y2="542.738" gradientUnits="userSpaceOnUse"><stop stop-color="#144794"/><stop offset="1" stop-color="#06162E"/></linearGradient><linearGradient id="paint84_linear_85_2" x1="478.799" y1="506.996" x2="478.799" y2="509.502" gradientUnits="userSpaceOnUse"><stop stop-color="#144794"/><stop offset="1" stop-color="#06162E"/></linearGradient><linearGradient id="paint85_linear_85_2" x1="330.022" y1="559.034" x2="330.022" y2="569.73" gradientUnits="userSpaceOnUse"><stop stop-color="#144794"/><stop offset="1" stop-color="#06162E"/></linearGradient><linearGradient id="paint86_linear_85_2" x1="502.18" y1="161.952" x2="502.18" y2="164.458" gradientUnits="userSpaceOnUse"><stop stop-color="#144794"/><stop offset="1" stop-color="#06162E"/></linearGradient><linearGradient id="paint87_linear_85_2" x1="532.237" y1="511" x2="532.237" y2="512.764" gradientUnits="userSpaceOnUse"><stop stop-color="#144794"/><stop offset="1" stop-color="#06162E"/></linearGradient><linearGradient id="paint88_linear_85_2" x1="161.398" y1="355.32" x2="161.398" y2="366.002" gradientUnits="userSpaceOnUse"><stop stop-color="#144794"/><stop offset="1" stop-color="#06162E"/></linearGradient><linearGradient id="paint89_linear_85_2" x1="106.287" y1="429.422" x2="106.287" y2="431.914" gradientUnits="userSpaceOnUse"><stop stop-color="#144794"/><stop offset="1" stop-color="#06162E"/></linearGradient><linearGradient id="paint90_linear_85_2" x1="278.6" y1="337.4" x2="278.6" y2="339.892" gradientUnits="userSpaceOnUse"><stop stop-color="#144794"/><stop offset="1" stop-color="#06162E"/></linearGradient><linearGradient id="paint91_linear_85_2" x1="132.243" y1="211.162" x2="132.243" y2="212.94" gradientUnits="userSpaceOnUse"><stop stop-color="#144794"/><stop offset="1" stop-color="#06162E"/></linearGradient><linearGradient id="paint92_linear_85_2" x1="120.917" y1="203" x2="120.917" y2="207.788" gradientUnits="userSpaceOnUse"><stop stop-color="#144794"/><stop offset="1" stop-color="#06162E"/></linearGradient><linearGradient id="paint93_linear_85_2" x1="610.736" y1="97.286" x2="610.736" y2="102.074" gradientUnits="userSpaceOnUse"><stop stop-color="#144794"/><stop offset="1" stop-color="#06162E"/></linearGradient><linearGradient id="paint94_linear_85_2" x1="488.016" y1="513.89" x2="550.644" y2="580.257" gradientUnits="userSpaceOnUse"><stop stop-color="#144794" stop-opacity=".267"/><stop offset="1" stop-color="#06162E"/></linearGradient><linearGradient id="paint95_linear_85_2" x1="512.003" y1="504.406" x2="512.003" y2="563.85" gradientUnits="userSpaceOnUse"><stop stop-color="#144794"/><stop offset="1" stop-color="#06162E"/></linearGradient><linearGradient id="paint96_linear_85_2" x1="525.709" y1="573.858" x2="525.709" y2="592.721" gradientUnits="userSpaceOnUse"><stop stop-color="#144794"/><stop offset="1" stop-color="#06162E"/></linearGradient><linearGradient id="paint97_linear_85_2" x1="522.548" y1="528.08" x2="522.548" y2="582.261" gradientUnits="userSpaceOnUse"><stop stop-color="#144794"/><stop offset="1" stop-color="#06162E"/></linearGradient><linearGradient id="paint98_linear_85_2" x1="526.17" y1="514.118" x2="526.17" y2="522.353" gradientUnits="userSpaceOnUse"><stop stop-color="#144794"/><stop offset="1" stop-color="#06162E"/></linearGradient><linearGradient id="paint99_linear_85_2" x1="537.453" y1="518.88" x2="537.453" y2="523.636" gradientUnits="userSpaceOnUse"><stop stop-color="#144794"/><stop offset="1" stop-color="#06162E"/></linearGradient><linearGradient id="paint100_linear_85_2" x1="508.586" y1="576.015" x2="508.586" y2="583.122" gradientUnits="userSpaceOnUse"><stop stop-color="#144794"/><stop offset="1" stop-color="#06162E"/></linearGradient><linearGradient id="paint101_linear_85_2" x1="515.198" y1="579.827" x2="515.198" y2="584.391" gradientUnits="userSpaceOnUse"><stop stop-color="#144794"/><stop offset="1" stop-color="#06162E"/></linearGradient><linearGradient id="paint102_linear_85_2" x1="515.2" y1="576.487" x2="515.2" y2="578.735" gradientUnits="userSpaceOnUse"><stop stop-color="#144794"/><stop offset="1" stop-color="#06162E"/></linearGradient><linearGradient id="paint103_linear_85_2" x1="545.594" y1="570.809" x2="545.594" y2="576.841" gradientUnits="userSpaceOnUse"><stop stop-color="#144794"/><stop offset="1" stop-color="#06162E"/></linearGradient><linearGradient id="paint104_linear_85_2" x1="542.311" y1="567.006" x2="542.311" y2="570.618" gradientUnits="userSpaceOnUse"><stop stop-color="#144794"/><stop offset="1" stop-color="#06162E"/></linearGradient><linearGradient id="paint105_linear_85_2" x1="519.347" y1="519.4" x2="519.347" y2="577.934" gradientUnits="userSpaceOnUse"><stop stop-color="#144794"/><stop offset="1" stop-color="#06162E"/></linearGradient><linearGradient id="paint106_linear_85_2" x1="519.73" y1="513.724" x2="519.73" y2="582.359" gradientUnits="userSpaceOnUse"><stop stop-color="#144794"/><stop offset="1" stop-color="#06162E"/></linearGradient><linearGradient id="paint107_linear_85_2" x1="323.121" y1="327.992" x2="323.121" y2="332.672" gradientUnits="userSpaceOnUse"><stop stop-color="#144794"/><stop offset="1" stop-color="#06162E"/></linearGradient><linearGradient id="paint108_linear_85_2" x1="329.591" y1="326.566" x2="329.591" y2="329.26" gradientUnits="userSpaceOnUse"><stop stop-color="#144794"/><stop offset="1" stop-color="#06162E"/></linearGradient><linearGradient id="paint109_linear_85_2" x1="309.505" y1="293.167" x2="309.505" y2="297.216" gradientUnits="userSpaceOnUse"><stop stop-color="#144794"/><stop offset="1" stop-color="#06162E"/></linearGradient><linearGradient id="paint110_linear_85_2" x1="313.14" y1="292.616" x2="313.14" y2="294.583" gradientUnits="userSpaceOnUse"><stop stop-color="#144794"/><stop offset="1" stop-color="#06162E"/></linearGradient><linearGradient id="paint111_linear_85_2" x1="313.496" y1="295.334" x2="313.496" y2="296.643" gradientUnits="userSpaceOnUse"><stop stop-color="#144794"/><stop offset="1" stop-color="#06162E"/></linearGradient><linearGradient id="paint112_linear_85_2" x1="331.792" y1="293.699" x2="331.792" y2="298.291" gradientUnits="userSpaceOnUse"><stop stop-color="#144794"/><stop offset="1" stop-color="#06162E"/></linearGradient><linearGradient id="paint113_linear_85_2" x1="329.862" y1="298.804" x2="329.862" y2="300.831" gradientUnits="userSpaceOnUse"><stop stop-color="#144794"/><stop offset="1" stop-color="#06162E"/></linearGradient><linearGradient id="paint114_linear_85_2" x1="122.644" y1="94.885" x2="142.657" y2="144.871" gradientUnits="userSpaceOnUse"><stop stop-color="#144794"/><stop offset="1" stop-color="#06162E"/></linearGradient><linearGradient id="paint115_linear_85_2" x1="241.957" y1="162.105" x2="241.957" y2="290.995" gradientUnits="userSpaceOnUse"><stop stop-color="#144794"/><stop offset="1" stop-color="#06162E"/></linearGradient><linearGradient id="paint116_linear_85_2" x1="351.347" y1="283.878" x2="351.347" y2="433.495" gradientUnits="userSpaceOnUse"><stop stop-color="#144794"/><stop offset="1" stop-color="#06162E"/></linearGradient><linearGradient id="paint117_linear_85_2" x1="387.77" y1="82.644" x2="387.77" y2="358.68" gradientUnits="userSpaceOnUse"><stop stop-color="#144794"/><stop offset="1" stop-color="#06162E"/></linearGradient><linearGradient id="paint118_linear_85_2" x1="394.839" y1="160.972" x2="394.839" y2="261.296" gradientUnits="userSpaceOnUse"><stop stop-color="#144794"/><stop offset="1" stop-color="#06162E"/></linearGradient><linearGradient id="paint119_linear_85_2" x1="493.423" y1="82.644" x2="493.423" y2="181.454" gradientUnits="userSpaceOnUse"><stop stop-color="#144794"/><stop offset="1" stop-color="#06162E"/></linearGradient><linearGradient id="paint120_linear_85_2" x1="250.931" y1="296.086" x2="250.931" y2="369.488" gradientUnits="userSpaceOnUse"><stop stop-color="#144794"/><stop offset="1" stop-color="#06162E"/></linearGradient><linearGradient id="paint121_linear_85_2" x1="206.234" y1="326.452" x2="206.234" y2="617.4" gradientUnits="userSpaceOnUse"><stop stop-color="#144794"/><stop offset="1" stop-color="#06162E"/></linearGradient></defs></svg>