<svg width="501" height="501" fill="none" xmlns="http://www.w3.org/2000/svg"><path d="M487.927 292.307c-9.875 2-29.075.975-34.775.225-.175-2 .125-21.175-.125-25.5 0-.225-.375-.35-.375-.35a423.463 423.463 0 00-42.5-.85c0-16.8 0-33.8-.375-50.775a.398.398 0 00-.15-.325.393.393 0 00-.35-.075c-26.025-.9-45-.525-45.15-.25-.275 1.8-.725 18.65-.575 22.5a85.797 85.797 0 00-27.15-20 20.724 20.724 0 01-6.7-3.625 4.532 4.532 0 01-1.45-4.1c2.175-8.3 15.15-12.5 18.95-15.375a21.352 21.352 0 009.1-13.675 11.878 11.878 0 00-2.15-7.5c-1.625-2.5.95-2.975 2.725-4.525a11.6 11.6 0 00-4.75 1.1 6.17 6.17 0 00.275-6.1 4.994 4.994 0 01-1.5 4.4 8.304 8.304 0 00-1.725-5.65c-6.425-8.375-20-10.175-29.825-10.725.25-20 0-72.15 0-77.95 22.5 1 45 2.1 67.7 3-1.6 35.225-2 70.675-.975 106.075a.376.376 0 00.525.325c11.35.425 39.525 1.4 42.275 1.475 1.15 15.525 1.475 31.325 1.25 47.1a.45.45 0 00.45.425c11.312.726 22.657.776 33.975.15.375 0 .4-.625 0-.625-5.725 0-28.075 0-33.525-.375a437.992 437.992 0 00-1.3-47.125c-10.275-1.65-39.725-1.625-42.9-1.7-.7-35.275-.525-70.75 1.1-106.15a.452.452 0 00-.425-.45c-.25 0-68.475-2.85-68.725-2.725a.374.374 0 00-.3.4v78.175c-5.25.65-3.25 5.275-4.575 7.85-.575 1.075-1.05.625-1.975 1.25-2.5 1.625-2.275 12.5-2.175 15.375-2.5 6.475-4.45 15.825.25 20.975.825.9 2.275 1.65 2.725 2.825a2.828 2.828 0 01-.525 2.3 10.004 10.004 0 01-10 5.175c-15.7-1.25-22.275 1.175-25.7 2.15a142.5 142.5 0 00-28.9 17.5 3.519 3.519 0 00-.625 3.575c-2.5 1.025-5 2.5-7.35 3.675-1.475-4.75-8.175-27.675-8.55-28.675a12.145 12.145 0 003.775-3.725c2.5 0 3.05.15 3.225-.225 1.925-4.275 3.175-8.85 5.25-13.075 2.3 0 25.925-1.2 35.4-2.025 0 0 13.35 2.5 14.025 2.725a3.457 3.457 0 001.123 2.806 3.454 3.454 0 002.902.844c2.8-.325 4.45-2.85 5.575-5.15a18.72 18.72 0 002.125-8.45c0-5.75-3.05-7.7-5.4-7.5a2.719 2.719 0 00-1.725.519c-.5.363-.861.885-1.025 1.481-1.7-.3-12.325-2.35-12.5-2.5-5.9-6.2-21.2-19.65-21.2-19.7-.4-14.175.125-52.05.275-56.375a.475.475 0 00-.45-.45c-28.725.55-35.8-.925-35.775.375.325 7.225.275 28.925.15 28.85-18.525-12.275-48.175-40.325-47.675-40-.3-.975-1.725-4.875-2.15-5.85 0-.15-14.075-4.45-17.05-5a7.5 7.5 0 00-3.875 1.025 32.877 32.877 0 00-9.3 9.525c-22.15 29.7-30.475 63.875-25.875 94.375a48.91 48.91 0 003.1 12.5 8.53 8.53 0 006.65 4.675c2.5.55 14.625 1.875 17.5 1.175a56.431 56.431 0 005-3.35c7.5.15 28.375-.95 31.375-1.1-.725 14-.625 49.85-.475 53.725-11.775-.25-41.725-.25-45-.35 0-6.75.55-14.125.25-20.975-.4-.625-1.15-.65-1.8-.7-5.625-.325-29.35-1.075-34.725-.6-1.075 0 .225-.325 0 28.8H61.402a.452.452 0 00-.45.45c0 18.825-.35 37.825 0 56.8h-36a.325.325 0 100 .65c24.4.3 48.925.55 73.425.45.475 0 .625 1.725.5-31.675 15 0 30 .375 45.175 0 0 11.25-.325 22.5-.175 33.75a20.004 20.004 0 00-14.15-1.05c-10.9 2.875-8.775 11.05-9.075 12.275-.55 1.7-2.15 1.25-3.975 1.725a12.055 12.055 0 00-8.525 8.775c-5-.225-8.15 0-10.575 4.325a13.345 13.345 0 00-10.704-4.527 13.348 13.348 0 00-10.196 5.577c-4.4-1.45-8.3 2.5-10.2 6.475-3.2 6.825 2.125 10.6 2.5 11.6l-14-.175c-.35 0-.35.525 0 .55 4.775 0 49.8 1.725 157.5.175-11.9 26.05-13.45 70-14.15 98.5a28.62 28.62 0 004.325 1.5c0 1.925.15 3.925.15 6.45-2.225 1.275-9.2 5.425-9.575 5.9-.375.475-.675 2.25.45 2.5a151.15 151.15 0 0016.375-.45 34.606 34.606 0 011.75-13.55 69.143 69.143 0 009.3-.475c15.875-35.5 18-53.75 23.425-65.95 5.375-4.025 18.65-18.3 24.875-24a161.117 161.117 0 00.4-28.45c0-.425.525-.8.925 0 .8 1.675 1.725 7.75.85 24.2-.35 6.8-2.725 20.55 3.2 38.775a108.16 108.16 0 0024.225 38.25l20.675 20.85a30.367 30.367 0 004.125-1.05c.125.15 3.925 5 4.125 5a7.146 7.146 0 01-4.425 6.475c-.75.3-.375 2.5.2 2.5 2.665.15 5.335.15 8 0a71.208 71.208 0 005.8-7.5c0-.4-5-6.975-5.9-10.4a24.83 24.83 0 002.825-2.225 681.445 681.445 0 01-24.45-65.15c4.575-7.975 12.75-23.425 13.9-32.075 54.7 2.5 100.975 5.675 154.35.325.4 0 .4-.65 0-.625l-6.325.55a27.825 27.825 0 00-16.925-16.525c-6.175-2.025-7.3.325-9.15-2.2a20.004 20.004 0 00-23.025-8.05c.9-9.825-6.175-19.025-17.2-17.775a17.327 17.327 0 00-8.425-20.525 16.68 16.68 0 00-4.025-16.725 9.282 9.282 0 00-4.482-3.221 9.282 9.282 0 00-5.518-.104 63.452 63.452 0 00-9.5-13.05 33.042 33.042 0 002.275-3.35 81.268 81.268 0 00-11.9-18.725s.75-20.7.8-22.5c11.5-.25 40.925.675 44.125.625 0 13.2.125 47.1.25 50.85a.482.482 0 00.232.378.467.467 0 00.443.022c20.75-.65 37.675.6 42.375.675 0 4.35-.775 23.825 0 25.725 0 .225 9 2.075 26.975 1.175 1.95-.2 10.375-.425 8.7-1.85zm-278.5 171.5a33.601 33.601 0 00-5.95-.15c0-.25-.225-5-.3-5.95 2.576.394 5.172.653 7.775.775-.3.8-1.475 5.225-1.525 5.325zm121.45-6.6l2.675 5c-.8.45-3.4 2.125-5 3.075 0-.25-3.975-5-4.075-5a53.429 53.429 0 006.4-3.075zm-28.125-249a13.926 13.926 0 002.5-.3 10.004 10.004 0 007.275-4c5.95-8.575-6.375-4-3.625-20.3a60.967 60.967 0 017.325-18.85 22.748 22.748 0 0015.975 8.625c2.05 0 .175 4.8 1.025 8.925.625 2.925 3.85.775 5.725 2.5a4.205 4.205 0 011.05 4.399 4.204 4.204 0 01-3.55 2.801 81.066 81.066 0 00-3.3 9.225 14.179 14.179 0 00-5.925 8.9 7.708 7.708 0 004.125 5.575 22.17 22.17 0 01-13.875 7.075 16.347 16.347 0 01-8.625-.85c-5.15-2.275-7.025-8.225-6.1-13.725zm-72.75-3.25c.2 1.275 7.325 24.85 8.825 29.8 1.075.875 5.8-3.025 8.325-3.75a51.101 51.101 0 0011.55 26.3c-12.5 10.35-21.625 11.675-23.15 11.725a9.494 9.494 0 01-7.9-3.625 29.196 29.196 0 01-6.55-15.65c-2.25-14.325-1.55-29.325-1.325-43.95a1.872 1.872 0 002.05-.525c1.3 2.2 2.95 1.8 3.85.325 1.9 2.75 4.55-1.2 5.175-4.375 0 0 2.1.175 3.125.2-.975 1.925-4.05 3.05-3.975 3.525zm-7.1-7.925c0-.35.75-.775 1.05-.8a1.302 1.302 0 011.25 1.15c0 .4.6.6.775.225a1.983 1.983 0 011.448-1.05 1.977 1.977 0 011.702.55c2.925 2.5-.975 9.625-2.5 8.475-.3-.225-.8-.375-.6-2.125 0-.425-.65-.35-.8 0 0 1.975-.775 2.5-1.375 2.5s-1-.525-1.275-.925a3.988 3.988 0 010-1.875c0-.5-.7-.725-.8-.2a6.552 6.552 0 01-.65 1.825.823.823 0 01-1.425-.25 15 15 0 01.25-7.3 1.375 1.375 0 011.175-.95c.375 0 .9.625.9.7.075.65.9.65.875.05zm14.375 3.375c-1.8 0-3.975 0-6.325.175.525-4.575-3.425-5.875-5.2-4.1a2 2 0 00-3.375-.25 1.758 1.758 0 00-2.5-.175c-.975.8-1.05 2.5-1.2 4.1h-8.25c-.5-1.45-3.15-8.075-3.625-9.75l35.35-2.175c-.725 1.9-3.85 10.1-4.875 12.175zm65.875-18.05c-.925 3.525-2.8 9.375-7.5 9.225a2.5 2.5 0 01-2.05-2.5c.456.07.919.07 1.375 0a12.957 12.957 0 005-13.225c0-.475-.475-1.975-.8-2.025l-2.5-.4c2.825-3.575 8.5.125 6.475 8.925zm-75.6-87.225c.275 0 23.175.3 34.475.25-.8 18.3-.975 36.85-.2 55.325-10.975-9.1-22.775-17.875-34.35-26.6.025-.225.275-23.975.075-28.975zm-101 96.7c-2.5-2.625-3.2-6.575-3.85-10-5.325-27.5.525-56.45 14.1-80.825 2.15-3.9 12.1-20.525 19.6-26.25 3.05-2.35 6.925.725 8.65 3.925 3 5.575 3.45 30.175 2.9 38.2a22.874 22.874 0 00-13.9-.65c-23.525 6.75-21.525 42.65 5 42.8-1.8 5-9.3 23.275-22.5 33.075a7.654 7.654 0 01-10-.275zm21.05 3.55c-.475-.15-10.45-.425-14.25-.8a20.667 20.667 0 008.85-6.05c15.65-15.3 22.725-40.325 25.725-61.975a147.974 147.974 0 00-.825-44.475 15.28 15.28 0 00-3.95-7.7c1.775.575 12.7 3.95 13.325 4 7.875 20.175 8.4 43.1 3.55 64.3-1 3.975-2.3 7.925-3.575 11.825-5.325 17.1-13.475 31.65-28.85 40.875zm6.275-3.325c29.25-22.95 35-78.2 25.725-107.275 31.2 32.65 72.5 54.4 103.55 86.875.2.2 13.25 2.65 15.875 3.075a12.95 12.95 0 01-4.4 13.575c-1.1-.45-15.7-3.05-15.9-3.075-8.25.075-121.075 6.625-124.85 6.825zm-55.525 85.125a.426.426 0 00-.375.625c0 10.125-.35 20.775 0 31.15-9.2-.225-33.525-.3-36.075-.3.3-14.475 0-52.3 0-56.375h41.325a.429.429 0 00.366-.189.426.426 0 00.034-.411c.275-9.125 0-18.75-.2-28.175 9.075-.35 31.85.825 34.175.975 1.725 0 .675-1.275.725 21.125 0 .2.425.45.525.45 15 1.05 30.275 0 45.55.175 1.725.575-.175-4.575.85-54.575l20.8-1.175c.6 1.65 3.275 8.5 3.725 10.4a.57.57 0 00.5.4h8.575a7.195 7.195 0 00.675 4.35c-2.325 35.925.7 45 .95 45.9a13.051 13.051 0 00-14.7 5 10.78 10.78 0 00-11.969-.497 10.779 10.779 0 00-5.031 10.872c0 1.075-1 1.3-1.925 1.35-10.4-.45-17 7.5-15.6 15.3a8.402 8.402 0 00-2.35 10.425c-3.475 1.5-7.5 3.9-7.5 8.15a4.802 4.802 0 004.05 5.25c1.175.15 2.5 0 3.5.825a5.446 5.446 0 005.15 3.05 5.479 5.479 0 01-1.65 4.25s-2.675-.625-3.85-1.075a4.996 4.996 0 00-3.5 0 6.873 6.873 0 01-7.675-1.9c-1.475-2.5-4.125-6.725-7.5-4-.406.355-.723.8-.925 1.3 0 4.525-2.625 3.1-3.9 2.5.325-11.55.25-23.075.275-34.625-.35-.675 1.925-.625-47.025-.525zm114.8 79.175c-3.575 0-99.075 1.125-143.325.675-.8-2.5-4.4-4.725-3.05-9.625 1.35-4.9 5.525-9.225 10.15-7.5a.448.448 0 00.55-.225 12.5 12.5 0 0119.25-1.275c.525.45.7 1.125 1.4.2 1.675-4.025 6.425-4.6 10.575-4.175a.501.501 0 00.45-.35 10.45 10.45 0 014-6.45 16.908 16.908 0 017.275-2.5 3.75 3.75 0 001.1-2.9 9.751 9.751 0 016.975-9.75c9.475-2.95 17.5 1.875 18.775 1.675 1.275-.2 1.8-1.225 1.925-2.5 0-.75-.125-2.725 2.5-3 2.625-.275 3.45 3.025 4.625 4.55a7.5 7.5 0 007.5 2.5c1.725-.275 2.275-.9 4.15-.175 1.372.434 2.79.711 4.225.825a6.172 6.172 0 002.3-5.575.373.373 0 00-.307-.357.367.367 0 00-.168.007 3.926 3.926 0 01-3.65-1.15c-.775-.85-1.1-1.925-2.3-2.325-1.2-.4-2.5-.15-3.575-.5a4.992 4.992 0 01-2.607-3.579 4.996 4.996 0 011.257-4.246 14.724 14.724 0 016.325-4.225.373.373 0 00.15-.5 7.497 7.497 0 012.1-10 .38.38 0 00.152-.172.38.38 0 00.023-.228c-1.6-7.35 5-14.15 12.5-14.55 3.5.2 5.775-.325 5-4.3a10.553 10.553 0 015.15-8.325c3.6-2.275 8.15-.8 11.55.85a12.654 12.654 0 0114.375-5c.15 0 2.825 15.9 13.3 17.725 1.4.25 9.375.425 24.475-10.7-1.375 4.3-7.65 27.275-8.775 33.875-.3 1.875 1.225 2.825 2.5 3.675-6.2 9.575-28.425 37.325-38.825 59.6zm181.275-77.75a15.94 15.94 0 011.75 14 .477.477 0 00.225.575c12.65 6.8 8.2 20 8.2 20a13.167 13.167 0 00-5.4 2.725c-.25.25 0 .625.4.4a13.25 13.25 0 0112.725-2 15.704 15.704 0 019.6 17.125c15.6-3.8 22.5 6.725 23.025 7.5 1.6 2.3 2.175 2 5 2.1 9.35.425 17.5 8.125 21.375 16.55-48.85 3.675-97.975.75-146.925-1.4a156.694 156.694 0 006.25-41.05 21.699 21.699 0 002.8-.675 13.963 13.963 0 001.4-3.75c2.5-12.825 6.6-25.875 7.5-39.25a66.911 66.911 0 0010.475 7.9c.3.15 1.25-.625 1.55-.825a62.475 62.475 0 017.5 5.275c4.35 4.55 2.5 9.175 3.65 26.55 1.125 18.5 2.8 22.975 2.275 24.475-.775 1.975-8.15 3.475-2.275 5 .675 0 2.8-.6 2.5.775-.775 1.275-2.5 3.75.3 4.4.407.044.816-.063 1.15-.3a1.753 1.753 0 001.65 1.6 2.175 2.175 0 002.125-1.4 1.548 1.548 0 001.2 1c2.825-.2 2.675-4.175 3.4-6.6.675-4.7.8-10 3.425-14.65 6.525-17.5 10.875-35 2.5-51.35a10.002 10.002 0 0110.525 5.3h.125zm-15.425 48.675c-1.3 2.85-2.5 14.25-2.8 15-.3.75-.725 3.525-2.2 2.15-.2-.438-.27-.924-.2-1.4 0-.475-.65-.45-.725 0 0 .9-.525 2.175-1.625 2.275-1.85 0-1.125-2.325-1.175-2.5a.403.403 0 00-.388-.301.404.404 0 00-.387.301c0 .175-.175 1.9-1.525 1.15-.575-.35-.5-.925-.225-1.425s1.025-1.225 1.15-2.025a1.574 1.574 0 00-.925-1.65 6.227 6.227 0 00-2.5 0c-.375 0-1.125 0-1.25-.5s1.275-.75 1.65-.875c4.3-1.525 2.75-5 2.175-9.675-1.175-9.375-1.65-19.075-2.025-28.8v-8.5c-.525-6.725-4.775-9.475-10.675-12.5 0 0 12.3-8.875 18.125-18.025 13.325 16.125 20.375 31.275 5.4 67.3h.125zm-13.55-86.875a82.03 82.03 0 019.8 15.3c-3.9 7.5-15.525 17.85-22.025 22.5-2.75-1.4-11.125-6.125-18.475-19.5-.15-.275-.575 0-.425.25a71.214 71.214 0 007.5 11.55c-.875 11.55-4.4 23.2-6.675 34.775a58.504 58.504 0 01-2.15 8.225c-7.5 1.825-60.525-5.225-80.975-18.175-1.325-.8-1.625-1.175-1.325-2.825 2.5-13.5 10.7-43.7 20-62.175.15-.325-.325-.6-.475-.275a199.182 199.182 0 00-10.95 26.25c-4.8-6.525-10.325-16.625-11.075-27.05-.35-1.65 1.125-2.5 2.25-3.225 1.125-.725 24.15-19.6 45.325-18.35 1.725 0 6.15.45 6.675.45a13.095 13.095 0 004.7 13.6c5.45 3.75 17.5 2.925 25-5.75a89.373 89.373 0 0133.175 24.425h.125z" fill="url(#paint0_linear_1205_3838)"/><path d="M316.953 187.133a.337.337 0 00.15-.083.324.324 0 000-.467c-.475-.425-1.675-.4-1.675-1.275a69.072 69.072 0 015.5-6.375c.225-.25-.125-.65-.375-.4-5.3 5.325-6.35 6.1-5.8 7.5a2.174 2.174 0 002.2 1.1zm-1.45-9.15a19.739 19.739 0 001.45-1.825c.25-.35-.35-.8-.65-.35a12.935 12.935 0 00-1.2 1.9.312.312 0 00.045.128.314.314 0 00.093.099.34.34 0 00.126.052.346.346 0 00.136-.004zm9.575 5.225c.35 0 3.125-1.925 2.5-2.5a.424.424 0 00-.6 0c-.35.6-2.2 1.625-2.175 2.5a.279.279 0 00.275 0zm-4.275 12.1c.95.7 2.675-.4 3.475-1.75.453-.889.821-1.818 1.1-2.775a.333.333 0 00-.104-.358.321.321 0 00-.247-.069.33.33 0 00-.274.252 4 4 0 01-3.375 2.35c-1.35.425-1.5 1.725-.575 2.35zm-123.425-81.25a.236.236 0 10-.25.4c14.3 10.65 17.5 12.075 25.8 18.925.275.225.675-.15.4-.425a227.077 227.077 0 00-25.95-18.9zm45.075 33.8c.35.15.725-.25.425-.55-.3-.3-7.5-5.15-9-6.15-.35-.25-.675.3-.325.55 1.45 1.05 8.075 5.775 8.9 6.15zM87.828 62.283l-5 1.325c8.075 11.65 22.025 22.95 32.075 34.575 1.725.325-14.25-26.15-20.425-38.75l4.175-.275a.525.525 0 00.375-.9 180.396 180.396 0 00-31.775-32.5c-.3-.625-1.225 0-.925.525 6.175 12.525 15.375 23.85 21.5 36zm9.825-4.125l-4 .225a.55.55 0 00-.475.825c5 10.4 18.05 33.1 18.875 34.425-7.175-7.5-25.275-27.125-27.5-29.425l4.125-1.075a.55.55 0 00.325-.775c-5-10-19.825-32.85-20.925-35 11.7 8.325 27.575 28.35 29.575 30.8zm-5.425 68.05a.599.599 0 00.575-.975 63.579 63.579 0 00-11.65-11.675c8.15-1.2 16.45-1.15 24.6-2.5.55 0 .45-.875 0-1.025l-50.675-16.45a.504.504 0 10-.4.925 52.275 52.275 0 0112.975 11.15c-17.45-1.65-53.5-3.025-53.8-3.025-.7-.25-1 .85-.3 1.1 19.9 7.25 72.95 20.975 78.675 22.475zm-76-22.8c17.5.55 33.2 2.35 52.5 3.3.475 0 .575-.525.325-.825a51.479 51.479 0 00-10.8-10.175l45 14.625c-7.9 1.075-15.925 1.05-23.8 2.35-.5 0-.525.8-.15 1.025a49.43 49.43 0 0111.35 10.925c-24.775-6.5-50-12.5-74.425-21.225zm87.5 53.325c-10.425 5.175-37.85 16.85-40.925 18.025a.546.546 0 00-.382.601.55.55 0 00.532.474h12.1c-10.85 10-18.575 17.5-31.4 25-.35.2 1.025.875 1.4.7a470.923 470.923 0 0053.1-30.025c.8-2.125-7.5-.5-8.95-.95l15-12.975c.65-.425.025-1.1-.475-.85zm-16.225 13.975a.521.521 0 00-.118.577.532.532 0 00.493.323h8.325a445.388 445.388 0 01-47 26.65 148.698 148.698 0 0027.5-22.5.526.526 0 00-.35-.875h-10.6c10-3.925 33-14.425 34.75-15.275l-13 11.1z" fill="url(#paint1_linear_1205_3838)"/><defs><linearGradient id="paint0_linear_1205_3838" x1="256.386" y1="72.578" x2="256.386" y2="474.67" gradientUnits="userSpaceOnUse"><stop stop-color="#144794"/><stop offset="1" stop-color="#06162E"/></linearGradient><linearGradient id="paint1_linear_1205_3838" x1="170.412" y1="25.496" x2="170.412" y2="201.561" gradientUnits="userSpaceOnUse"><stop stop-color="#144794"/><stop offset="1" stop-color="#06162E"/></linearGradient></defs></svg>