<svg xmlns="http://www.w3.org/2000/svg" width="2000" height="2000" preserveAspectRatio="none"><g mask="url(&quot;#SvgjsMask1118&quot;)" fill="none"><path fill="url(&quot;#SvgjsLinearGradient1119&quot;)" d="M0 0h2000v2000H0z"/><path d="M2000 0h-274.8L2000 372.98z" fill="rgba(255, 255, 255, .1)"/><path d="M1725.2 0L2000 372.98v509.33L927.55 0z" fill="rgba(255, 255, 255, .075)"/><path d="M927.55 0L2000 882.31v401.59L818.32 0z" fill="rgba(255, 255, 255, .05)"/><path d="M818.32 0L2000 1283.9v13.19L682.85 0z" fill="rgba(255, 255, 255, .025)"/><path d="M0 2000h301.28L0 1670.88z" fill="rgba(0, 0, 0, .1)"/><path d="M0 1670.88L301.28 2000H460.3L0 1600.78z" fill="rgba(0, 0, 0, .075)"/><path d="M0 1600.78L460.3 2000h368.34L0 921.49z" fill="rgba(0, 0, 0, .05)"/><path d="M0 921.49L828.64 2000h518.61L0 293.66z" fill="rgba(0, 0, 0, .025)"/></g><defs><linearGradient x1="0%" y1="100%" x2="100%" y2="0%" gradientUnits="userSpaceOnUse" id="SvgjsLinearGradient1119"><stop stop-color="#0e2a47" offset="0"/><stop stop-color="rgba(0, 0, 0, 1)" offset="1"/></linearGradient><mask id="SvgjsMask1118"><path fill="#fff" d="M0 0h2000v2000H0z"/></mask></defs></svg>