<svg width="251" height="251" fill="none" xmlns="http://www.w3.org/2000/svg"><path d="M33.967 72.286c-.976-.281-19.941-4.875-20.31-4.965a10.662 10.662 0 00-3.044-.354c-4.298.279-5.5 5.559-.277 8.579 2.535 1.465 5.285 2.576 7.887 3.89a11.539 11.539 0 015.52 4.625.592.592 0 001.077-.461c-1.02-5.094-12.45-7.394-15.453-10.625-1.317-1.418-1.46-4.01.831-4.459 1.598-.313 1.58-.096 21.585 4.797 1.625.398 4.072.77 4.967 2.414 1.527 2.803-3.438 6.063-2.107 9.731a.438.438 0 00.845-.23c-.75-3.092 4.11-5.894 2.83-9.624-.655-1.91-2.57-2.803-4.35-3.318z" fill="url(#paint0_linear_1205_3856)"/><path d="M106.273 225.078c-.963-4.31-6.537-4.644-12.945-6.55a11.501 11.501 0 01-6.167-3.566c-.461-.432-1.08.231-.891.722 1.839 4.776 13.618 5.035 17.143 7.61 1.492 1.09 2.232 3.558.168 4.49-1.781.804-4.125.339-6 .23-2.625-.152-13.053-.73-15.625-.875-1.799-.102-4.375.061-5.781-1.307-2.414-2.36 2.165-6.66.139-10.125-.278-.477-1.041-.172-.799.368 1.341 2.988-3.101 6.662-.922 10.148 1.105 1.769 3.336 2.197 5.272 2.336.773.056 16.201.896 16.974.939 2.168.119 4.615.545 6.734-.108a3.653 3.653 0 002.7-4.312z" fill="url(#paint1_linear_1205_3856)"/><path d="M168.892 63.108a7.843 7.843 0 00-3.737-9.025 7.957 7.957 0 00-6.75-.215c-4.295 1.875-5.473 7.364-4 10.947 2.502 6.06 12.604 5.73 14.487-1.707zm-8.902-1.625a1.403 1.403 0 01.863-1.716 1.397 1.397 0 011.762.763 1.387 1.387 0 01-.32 1.58 1.41 1.41 0 01-1.048.378 1.395 1.395 0 01-.992-.506 1.398 1.398 0 01-.265-.504v.005z" fill="url(#paint2_linear_1205_3856)"/><path d="M222.657 63.693c-.075-1.322.125-3.698-1.291-4.397a3.75 3.75 0 00-1.369-.261c-12.438-.125-44.201.477-49.675.477a9.789 9.789 0 01.108 3.244c9.04-.139 18.065-.339 27.105-.523.055 2.894.701 10.198.75 10.7.047.462 0 1.142.446 1.43a12.39 12.39 0 003.444.375c2.884.072 18.56.064 20.094-.983.5-.344.438-1.138.461-1.677a84.056 84.056 0 00-.073-8.385z" fill="url(#paint3_linear_1205_3856)"/><path d="M10.982 172.775c18.665-3.79 21.694-5.598 54.732-9.548.815-.097.862-1.386 0-1.322-15.026 1.105-38.693 5.01-54.993 9.901a.504.504 0 00-.354.615.502.502 0 00.615.354z" fill="url(#paint4_linear_1205_3856)"/><path d="M95.802 160.337c15.538-.691 28.775-1.521 51.72-1.521 13.422 0 13.105.271 14.529-.078a.51.51 0 00.258-.785.515.515 0 00-.258-.184 11.754 11.754 0 00-3.045-.261c-26.2-.375-44.219.516-63.22 1.845-.629.044-.645 1.014.016.984z" fill="url(#paint5_linear_1205_3856)"/><path d="M178.549 158.552c7.612.771 25.047.822 58.407 6.474 2.323.459 4.668.792 7.026 1 .493.03.554-.69.108-.83-8.75-2.75-51.978-7.75-65.541-7.642a.502.502 0 00-.331.84.497.497 0 00.331.158z" fill="url(#paint6_linear_1205_3856)"/><path d="M162.957 82.265c-.992-.375-1.33.547-5.397 2.014-1.926.695-3.901 1.213-5.875 1.799-.476.141-.416.95.125.907a28.103 28.103 0 009.133-2.598c.77-.35 2.054-.694 2.291-1.614a.424.424 0 00-.277-.508z" fill="url(#paint7_linear_1205_3856)"/><path d="M163.743 84.07a42.671 42.671 0 01-8.887 3.965c-.782.238-2.205.297-2.613 1.093a.568.568 0 00.199.75c.449.339.815.28 3.075-.415a28.49 28.49 0 008.887-4.535c.492-.386-.143-1.158-.661-.859z" fill="url(#paint8_linear_1205_3856)"/><path d="M163.128 87.444c-6.618 3.064-7.291 2.339-8.375 3.105a.575.575 0 00.292 1.061 5.518 5.518 0 002.199-.476 27.536 27.536 0 006.375-2.845.489.489 0 00-.491-.845z" fill="url(#paint9_linear_1205_3856)"/><path d="M149.582 97.776a.718.718 0 000-1c-.154-.138-.292-.277-.446-.414 1.375-.702 2.8-.404 6.704-1.375a32.588 32.588 0 007.641-2.814.44.44 0 00-.035-.767.44.44 0 00-.304-.032 52.575 52.575 0 01-12.469 3.105c-.93.075-1.83.37-2.625.861-1.261-1.169-4.766-4.474-5.305-4.951 2.044-.709 2.913-2.57 4.567-4.305 2.681-2.809 5.602-1.398 8.072-3.29.705-.54.061-1.75-.722-1.23a11.003 11.003 0 01-4.229 1.261c-5.07 1.009-5.108 5.143-8.518 6.875a3.006 3.006 0 00-2.75-.338 44.716 44.716 0 00-11.823 4.72c1.132-6.228 2.295-18.544-.277-24.092.815-.306.214-4.575.125-5.612-.945-10.73-3.966-25.239-11.315-33.085a12.771 12.771 0 00-8.333-4.444c-.507-.063-.617.774-.125.892 7.302 1.75 11.507 9.67 14.052 16.728a8.212 8.212 0 00-2.014 2.167c-1.75 2-1.543 5.062-1.691 6.98a29.4 29.4 0 00-5.166.077 129.55 129.55 0 00-18.465 2.584c-6.365 1.362-17.159 4.31-22.57 7.917-4.764 3.176-6.024 7.544-5.243 10.25-2.72.461-4.197 2.721-5.98 4.659a18.536 18.536 0 00-4.336 3.674 178.86 178.86 0 00-21.216 27.412 100.462 100.462 0 002.367-21.585c0-1.154-.298-1.563-1.598-1.645-2.214-.141-4.444-.269-6.658-.4-1.375-.081-4.917-.964-6.088-.339-2.47 1.319-4.5 8.395-5.49 10.916a72.24 72.24 0 00-5.14 23.964c-.175 7.463 1.063 16.064 7.396 20 5.982 3.72 13.929 1.644 19.895-2.075 7.455-4.646 23.185-23.266 25.675-23.153 4.26.191 5.757 65.302 8.595 93.375.237 2.353.865 3.182 3.844 3.46 10.85 1.011 10.826 1.205 11.36.568a1.76 1.76 0 00.308-.938 566.377 566.377 0 003.859-108c-.094-1.615.125-3.429.185-5.197a3.788 3.788 0 012.49-2.476c1.384 1.154 3.352 1.047 5.136.8 1.433-.2 2.859-.45 4.274-.75a7.33 7.33 0 003.736-1.323.387.387 0 00.091-.153c.318 5.47 1.393 11.926 4.75 16.282 8.409 10.892 26.573-3.427 35.809-13.743zm-23.554-29.5a8.682 8.682 0 00-3.613-2.75 10.81 10.81 0 01-4.105-2.783 8.145 8.145 0 01-1.583-3.428 7.616 7.616 0 001.106-1.6c1.403.266 2.747.781 3.967 1.523a8.83 8.83 0 001.2.8c1.625.676 1.388-1.716 1.75-2.66.602 3.145 1.107 9.008 1.278 10.895v.004zM65.76 89.475c-1.807-1.235-3.125-2.809-7.457-3.413-.523-.072-.568-.863 0-.86a11.433 11.433 0 018.134 3.582c.309.41-.276.966-.677.691zm4.412-10.224a16.06 16.06 0 00-7.363-1.03c2.816-3.097 4.802-2.959 9.286-1.137a8.59 8.59 0 00-1.923 2.167zm1.23.415a8.074 8.074 0 012.153-1.936 77.598 77.598 0 0113.007 7.317 8.251 8.251 0 00-2.198 1.5 50.01 50.01 0 00-12.962-6.88zM85.527 98.56c-.69-.435-1.324-.95-1.891-1.536a16.024 16.024 0 00-6.98-3.03.375.375 0 01.107-.737c4.01-.034 8.846 3.393 9.333 4.888.115.338-.288.539-.564.415h-.005zm7.671-2.151c-.647-4.103-4.25-6.766-7.717-9.118.2-.153.396-.312.599-.446a17.381 17.381 0 001.769-.861c3.167 2.404 6.823 5.396 7.087 9.286a5.387 5.387 0 00-1.733 1.139h-.005zm34.537 16.265c-8.354 3.364-14.779.875-16.913-13.206-.819-5.412-.469-10.875-.506-16.313a.432.432 0 00-.861 0 69.828 69.828 0 00-.432 11.824.348.348 0 00-.25-.216c-1.356-.337-1.537.25-7.057 1.215-1.7.435-3.476.483-5.196.139a.763.763 0 00.046-.262c.045-5.875-6.153-10.176-11.375-13.591a75.24 75.24 0 00-8.979-5.027c-2.704-1.28-5.842-2.937-8.917-2.875-.42-8 7.788-11.04 15.5-13.592 17.483-5.785 31.59-5.609 34.84-6.042a10.626 10.626 0 01-1.077 3.228.514.514 0 00-1.015.078 8.278 8.278 0 003.322 7.21c2.36 1.785 5.143 1.75 6.811 5.351 1.28 2.765 1.29 6.103 1.352 9.087.265 12.582-2.807 19.298-3.136 22.415-.06.57.769.722 1.03.277a24.384 24.384 0 002.045-6.672.61.61 0 00.554-.078 44.614 44.614 0 0111.161-4.659c1.046-.275 1.86-.537 2.75.231.074.064 6.54 6.054 6.611 6.12-5.702 6.288-12.347 12.153-20.308 15.358z" fill="url(#paint10_linear_1205_3856)"/><path d="M192.814 211.945a33.028 33.028 0 00-13.728 8.825 175.465 175.465 0 018.855-23.815c.293-.645-.382-1.642-1.107-1.108a47.054 47.054 0 00-16.7 22.683 101.712 101.712 0 01-1.521-14.207.814.814 0 00-1.507-.415 34.67 34.67 0 00-4.125 16.943 59.653 59.653 0 00-18.957-17.296.762.762 0 00-.979.201.768.768 0 00.057.999 63.004 63.004 0 0113.882 22.585c.214.585 1.135.353.954-.262a56.364 56.364 0 00-10.071-19.172 60.254 60.254 0 0115.406 16.344c.4.625 1.625.445 1.538-.415a33.399 33.399 0 012.336-16.283 107.3 107.3 0 002.014 14.575.815.815 0 00.784.584.82.82 0 00.784-.584 45.123 45.123 0 0114.422-22.922 170.918 170.918 0 00-8.657 24.767.831.831 0 00.075.554.821.821 0 001.417.071 31.413 31.413 0 0112.776-10.117c-2.951 4.028-6.19 8.642-5.196 13.668.125.615 1.042.445 1.061-.138.176-5.797 3.986-10.274 7.117-14.852a.85.85 0 00-.079-.902.85.85 0 00-.851-.311z" fill="url(#paint11_linear_1205_3856)"/><path d="M236.463 54.607c-6.525-36.369-32.639-33.125-70.646-32.21-16.928.408-33.84 1.07-50.737 1.984-3.842.213-7.855.232-11.515 1.522a18.543 18.543 0 00-7.733 5.375c-6.01 6.891-7.21 16.331-7.533 25.337-.013.324.534.416.584.078 1.17-7.984 1.95-21.674 11.885-27.966a21.32 21.32 0 0110.346-2.768c16.39-1.041 32.825-1.576 49.229-2.014 43.832-1.172 66.219-3.654 73.814 26.49 4.625 18.348 2.031 44.008 1.906 51.15-.125 0-90.766 1.348-90.894 1.354a.442.442 0 00-.289.736.44.44 0 00.289.139c5.02.295 9.17.2 17.48.2-.045 22.044 1.349 37.686 1.508 99.841a.602.602 0 00.471.594.605.605 0 00.681-.332c.283-.415.448-.898.478-1.399 0-.15-.607-77.734-2.015-98.735 1.215 0 2.43-.015 3.625-.015-.032 14.897.625 29.811.907 44.709 1 53.791-.096 52.483 1.306 54.148.346.399.547.903.569 1.43.056 1.784.323-4.288.308-7.978-.034-8.192-.704-73.11-2.014-92.34l5.411-.047c-.045 22.203 1.375 38.57 1.508 99.782a.497.497 0 00.639.476.501.501 0 00.252-.169c0-.016.015-.016.015-.031a3.308 3.308 0 00.707-2.06c0-.14-.625-77.214-2.013-98.028.935-.011 56.857-.822 60.176-1.168 1.527-.16 1.782-.177 1.829-.538 1.476-11.442 2.188-32.368-.534-47.547z" fill="url(#paint12_linear_1205_3856)"/><defs><linearGradient id="paint0_linear_1205_3856" x1="22.708" y1="66.963" x2="22.708" y2="85.755" gradientUnits="userSpaceOnUse"><stop stop-color="#144794"/><stop offset="1" stop-color="#06162E"/></linearGradient><linearGradient id="paint1_linear_1205_3856" x1="90.167" y1="214.822" x2="90.167" y2="229.745" gradientUnits="userSpaceOnUse"><stop stop-color="#144794"/><stop offset="1" stop-color="#06162E"/></linearGradient><linearGradient id="paint2_linear_1205_3856" x1="161.499" y1="53.221" x2="161.499" y2="69.052" gradientUnits="userSpaceOnUse"><stop stop-color="#144794"/><stop offset="1" stop-color="#06162E"/></linearGradient><linearGradient id="paint3_linear_1205_3856" x1="196.562" y1="59.018" x2="196.562" y2="74.764" gradientUnits="userSpaceOnUse"><stop stop-color="#144794"/><stop offset="1" stop-color="#06162E"/></linearGradient><linearGradient id="paint4_linear_1205_3856" x1="38.346" y1="161.902" x2="38.346" y2="172.792" gradientUnits="userSpaceOnUse"><stop stop-color="#144794"/><stop offset="1" stop-color="#06162E"/></linearGradient><linearGradient id="paint5_linear_1205_3856" x1="128.859" y1="157.422" x2="128.859" y2="160.338" gradientUnits="userSpaceOnUse"><stop stop-color="#144794"/><stop offset="1" stop-color="#06162E"/></linearGradient><linearGradient id="paint6_linear_1205_3856" x1="211.237" y1="157.553" x2="211.237" y2="166.027" gradientUnits="userSpaceOnUse"><stop stop-color="#144794"/><stop offset="1" stop-color="#06162E"/></linearGradient><linearGradient id="paint7_linear_1205_3856" x1="157.305" y1="82.182" x2="157.305" y2="86.987" gradientUnits="userSpaceOnUse"><stop stop-color="#144794"/><stop offset="1" stop-color="#06162E"/></linearGradient><linearGradient id="paint8_linear_1205_3856" x1="158.378" y1="84.002" x2="158.378" y2="90.079" gradientUnits="userSpaceOnUse"><stop stop-color="#144794"/><stop offset="1" stop-color="#06162E"/></linearGradient><linearGradient id="paint9_linear_1205_3856" x1="159.171" y1="87.381" x2="159.171" y2="91.61" gradientUnits="userSpaceOnUse"><stop stop-color="#144794"/><stop offset="1" stop-color="#06162E"/></linearGradient><linearGradient id="paint10_linear_1205_3856" x1="87.927" y1="26.846" x2="87.927" y2="213.642" gradientUnits="userSpaceOnUse"><stop stop-color="#144794"/><stop offset="1" stop-color="#06162E"/></linearGradient><linearGradient id="paint11_linear_1205_3856" x1="168.363" y1="195.695" x2="168.363" y2="228.536" gradientUnits="userSpaceOnUse"><stop stop-color="#144794"/><stop offset="1" stop-color="#06162E"/></linearGradient><linearGradient id="paint12_linear_1205_3856" x1="163.302" y1="21.9" x2="163.302" y2="204.576" gradientUnits="userSpaceOnUse"><stop stop-color="#144794"/><stop offset="1" stop-color="#06162E"/></linearGradient></defs></svg>