<svg width="250" height="251" fill="none" xmlns="http://www.w3.org/2000/svg"><path d="M164.587 112.857c-.202-9.824.125-19.649-.02-29.473-.309-21.392-.613-42.786-.913-64.182-.055-4.008-.462-8.684-3.825-10.86-2.039-1.32-4.634-1.314-7.062-1.25-15.538.407-31.035-.268-46.555.604-6 .336-10.738 2.222-10.958 8.863-.445 13.419.262 100.305.625 107.587.125 2.615-.72 13.375 1.648 15.912 1.454 1.556 17.284.57 18.26.23 1.685-.586 6.53-11.239 11.368-16.05-4.409.234-21.324 1.5-22.25-.66-.926-2.16-1.135-94.951-1.625-101.646 17.404.305 34.809.157 52.215-.443.779 33.825-.575 61.477.052 83.302.125 4.471 1.467 12.671-1.131 16.581-1.42 2.137-4.25 2-6.79 1.979-2.015-.013-10.91.68-11.339.58 1.25.291 1.649 1.857 1.625 3.133-.062 4.222-2.057 8.134-3.78 11.988-.982 2.199.528 2.045 2.243 2.035 1.715-.01 14.402-.221 19.009-.7 3.806-.395 6.778.155 8.11-3.785 2.356-6.966 1.243-16.446 1.093-23.745z" fill="url(#paint0_linear_1205_3870)"/><path d="M129.507 72.425a2.818 2.818 0 00-3.75.788c-2.661 3.229-1.735 8.476-1.151 12.203.076.484.857.362.847-.115a33.453 33.453 0 01.425-7.876c.229-1.025.5-2.677 1.393-3.357 3.468-2.636 3.185 11.625 1.771 10.709-.173-.113-.114-6.875-.103-8.348a.79.79 0 00-.687-.763.794.794 0 00-.866.552 21.931 21.931 0 00-.228 7.427c.133 1.263.304 3.15 1.956 3.21 1.875.066 2.229-2.062 2.43-3.477.301-2.129.285-4.29-.046-6.414-.234-1.537-.56-3.586-1.991-4.538z" fill="url(#paint1_linear_1205_3870)"/><path d="M134.958 90.1c2.35-3.642 2.181-11.34 1.536-15.583-.662-4.364-3.761-10.204-9.069-9.375-8.861 1.375-10.61 18.519-4.75 25.152a.454.454 0 00.543.07.445.445 0 00.207-.506c-.57-2.042-1.543-3.875-1.978-5.981-1.27-6.136.02-15.45 5.825-16.951 5.22-1.35 7.421 5.8 7.742 9.573a26.928 26.928 0 01-1.524 12.984c-.365.879.993 1.353 1.468.616z" fill="url(#paint2_linear_1205_3870)"/><path d="M118.75 91.054c.221.464.875.125.781-.328-1.905-9.473-.526-9.875-.857-13.815-.044-.528-.849-.898-1.118-.304a15.352 15.352 0 00-.681 7.336 20.274 20.274 0 001.875 7.111z" fill="url(#paint3_linear_1205_3870)"/><path d="M120.685 65.29a14.402 14.402 0 00-2.8 6.962c-.068.528.66.775.824.227a17.407 17.407 0 015.5-8.396 18.261 18.261 0 002.583-2.055c.276-.328.125-.983-.383-.923-2.284.267-4.387 2.447-5.724 4.185z" fill="url(#paint4_linear_1205_3870)"/><path d="M130.723 61.605a.326.326 0 00-.272.242.332.332 0 00.115.345c7.196 3.375 5.875 9.718 7.25 13.914.138.418.835.5.933 0 1.024-5.163-1.545-14.36-8.026-14.5z" fill="url(#paint5_linear_1205_3870)"/><path d="M137.695 90.74c2.182-2.793 2.101-6.907 1.319-10.188-.15-.625-1.024-.33-.94.26.477 3.376-.637 6.15-1.349 9.363-.113.512.59 1.05.97.564z" fill="url(#paint6_linear_1205_3870)"/><path d="M122.418 58.971a.564.564 0 00.288-.872.565.565 0 00-.288-.204c-2.106-.58-11.275-.43-13.625-.425a.864.864 0 00-.857.858c-.034 4.04.145 8.078.535 12.1a.357.357 0 00.354.32.358.358 0 00.354-.32c.368-3.75.465-7.476.472-11.233 2.062-.001 10.643.284 12.767-.224z" fill="url(#paint7_linear_1205_3870)"/><path d="M149.398 68.851a89.09 89.09 0 00-.088-10.425.875.875 0 00-.862-.86 110.12 110.12 0 00-12.158.782.406.406 0 00-.409.408.407.407 0 00.409.41c3.782.25 7.542.224 11.327.138-.001 3.244.22 6.484.66 9.699.114.676 1.066.44 1.121-.152z" fill="url(#paint8_linear_1205_3870)"/><path d="M136.375 100.542c3.727.33 7.473.209 11.213.165a.862.862 0 00.858-.857 48.559 48.559 0 00-.684-9.847c-.099-.456-.884-.49-.959 0a46.744 46.744 0 00-.102 9c-3.446.036-6.896.052-10.323.43a.557.557 0 00-.53.553.554.554 0 00.527.556z" fill="url(#paint9_linear_1205_3870)"/><path d="M110.099 97.982c-.375-3.16-.555-6.337-.808-9.508a.48.48 0 00-.477-.443.48.48 0 00-.476.443 56.523 56.523 0 00.185 10.365.873.873 0 00.84.838 6.448 6.448 0 003.75-.453.61.61 0 00.284-.6.612.612 0 00-.429-.507 8.592 8.592 0 00-2.869-.135z" fill="url(#paint10_linear_1205_3870)"/><path d="M130.493 189.384c-7.552-1.382-16.526-.709-23.431 3.074 5.421-8.5 10.324-17.375 15.125-26.228 4.942-9.107 10.015-18.312 13.706-28 1.523-4 3.991-9.333 2.125-13.583-1.569-3.583-5.721-4.153-8.927-2.452-3.107 1.65-5.362 4.885-7.375 7.695a204.96 204.96 0 00-11.793 19.493c-1.399-4.451-7.134-6.843-10.554-3.608-1.695-4.388-6.763-7.168-10.906-4.587a9.921 9.921 0 00-3.082-5.768c-2.183-1.756-5.202-1.591-7.708-.696-4.642 1.66-11.43 7.443-14.886 10.884a71.003 71.003 0 00-18.368 31.324c-1.597 5.853-2.463 12.416-.712 18.316a51.958 51.958 0 00-4.288 6.266 99.252 99.252 0 00-5-2.134c-7.093 9.707-14.038 19.525-20.585 29.609-3.031 4.668-6.441 9.936.152 13.409 6.2 3.265 62.893 2.67 65.347-.699a4.957 4.957 0 00.692-4.45c-.67-2.094-6.49-9.534-8.04-11.311a25.826 25.826 0 003.298-5.25c.172-.433-.405-.818-.769-.59-1.728 1.081-3.696 4.616-3.696 4.616s-18.692-17.145-30.346-22.702a52.667 52.667 0 003.867-4.9c.225.551.471 1.095.75 1.625a.588.588 0 00.727.234.586.586 0 00.342-.683c-3.825-11.215-.375-23.318 4.809-33.539a69.622 69.622 0 0120.683-24.532c2.593-1.917 5.54-4.118 8.852-4.439 3.957-.384 6.322 3.344 6.411 7a.878.878 0 001.032.833.875.875 0 00.442-.223c3.256-3.09 8.76-1.344 9.775 4.446a.87.87 0 00.723.607.882.882 0 00.853-.403 4.285 4.285 0 015.326-1.778c3.074 1.25 3.412 4.608 3.875 5.013a92.439 92.439 0 00-4.138 9.211c-.195.511.637.858.883.375 3.607-7.084 17.172-33.209 24.045-37.054 2.147-1.201 5.107-1.32 6.5 1.052 1.292 2.2.625 4.867-.042 7.156-4.875 16.735-21.964 44.697-31.633 61.307-.178.307-.375 1.987 1.774.894 6.731-3.431 22.511-5.657 29.42-1.137 1.649 1.078 3.264 3.8.739 4.286-4.026.777-18.25 4.52-24.859 6.86-6.456 2.287-12.116 5.699-18.032 9.072-6.494 3.704-14.8 6.932-21.846 2.698a.865.865 0 00-1.18.306.863.863 0 00.306 1.181c6.32 3.789 13.973 2.175 20.226-.897 3.608-1.773 6.851-4.208 10.46-5.973 17.517-8.558 28.41-8.991 34.599-11.238 2.516-.914 4.435-3.175 2.681-5.782-1.754-2.606-5.448-3.673-8.349-4.206z" fill="url(#paint11_linear_1205_3870)"/><path d="M168.736 64.93c2.052 8 .75 15.757 4.667 23.316 2.516 4.86 6.441 8.903 7.773 14.348a23.27 23.27 0 01-2.233 15.905.601.601 0 00.216.826.601.601 0 00.826-.216c.513-.711.969-1.46 1.365-2.242.875 1.088 5.829 5.767 7.256 7.153.412.399.993-.201.625-.625-1.307-1.52-5.936-7.1-7.182-8.078a22.006 22.006 0 001.186-11.085c-.875-5.875-4.419-10.222-7.384-15.154-6.232-10.375-1.956-24.553-9.328-32.351-.625-.658-1.794.209-1.27.989a22.89 22.89 0 013.483 7.213z" fill="url(#paint12_linear_1205_3870)"/><path d="M165.462 151.501c.767.5 1.723-.695.99-1.285a55.592 55.592 0 00-5.864-4.09 9.63 9.63 0 004.191-2.46c.418-.515.044-1.41-.696-1.19-1.875.556-3.509 1.857-5.415 2.466a23.82 23.82 0 01-18.316-1.9c-.329-.175-.775.3-.435.567a19.872 19.872 0 0012.333 4.063 45.22 45.22 0 006.893-1.071s4.081 3.456 6.319 4.9z" fill="url(#paint13_linear_1205_3870)"/><path d="M236.18 156.443c-5.395-9.735-13.36-18.569-21.375-26.205-1.213-1.156-12.53-12.834-13.108-12.334a216.864 216.864 0 00-40 45.907c-2.669 4.111-2.413 5.862.382 9.366a247.65 247.65 0 0026.353 28.206c6.718 6.154 16.763 16.449 26.603 15.468 6.355-.634 11.978-4.812 15.577-10.085 3.567-5.228 5.572-11.524 7.015-17.71 2.387-10.229 3.847-23.06-1.447-32.613zm-52.931 18.325c-1.705.351-7.5.023-8.307-5.102a6.186 6.186 0 013.7-6.313c2.468-1.156 4.945-.446 7.125 1.284 1.941 1.556 4.686 8.641-2.518 10.131z" fill="url(#paint14_linear_1205_3870)"/><defs><linearGradient id="paint0_linear_1205_3870" x1="130.046" y1="7.07" x2="130.046" y2="141.093" gradientUnits="userSpaceOnUse"><stop stop-color="#144794"/><stop offset="1" stop-color="#06162E"/></linearGradient><linearGradient id="paint1_linear_1205_3870" x1="127.861" y1="72.023" x2="127.861" y2="86.856" gradientUnits="userSpaceOnUse"><stop stop-color="#144794"/><stop offset="1" stop-color="#06162E"/></linearGradient><linearGradient id="paint2_linear_1205_3870" x1="128.086" y1="65.063" x2="128.086" y2="90.462" gradientUnits="userSpaceOnUse"><stop stop-color="#144794"/><stop offset="1" stop-color="#06162E"/></linearGradient><linearGradient id="paint3_linear_1205_3870" x1="118.122" y1="76.303" x2="118.122" y2="91.276" gradientUnits="userSpaceOnUse"><stop stop-color="#144794"/><stop offset="1" stop-color="#06162E"/></linearGradient><linearGradient id="paint4_linear_1205_3870" x1="122.404" y1="61.102" x2="122.404" y2="72.788" gradientUnits="userSpaceOnUse"><stop stop-color="#144794"/><stop offset="1" stop-color="#06162E"/></linearGradient><linearGradient id="paint5_linear_1205_3870" x1="134.703" y1="61.605" x2="134.703" y2="76.451" gradientUnits="userSpaceOnUse"><stop stop-color="#144794"/><stop offset="1" stop-color="#06162E"/></linearGradient><linearGradient id="paint6_linear_1205_3870" x1="138.115" y1="80.203" x2="138.115" y2="90.929" gradientUnits="userSpaceOnUse"><stop stop-color="#144794"/><stop offset="1" stop-color="#06162E"/></linearGradient><linearGradient id="paint7_linear_1205_3870" x1="115.374" y1="57.449" x2="115.374" y2="70.748" gradientUnits="userSpaceOnUse"><stop stop-color="#144794"/><stop offset="1" stop-color="#06162E"/></linearGradient><linearGradient id="paint8_linear_1205_3870" x1="142.695" y1="57.566" x2="142.695" y2="69.414" gradientUnits="userSpaceOnUse"><stop stop-color="#144794"/><stop offset="1" stop-color="#06162E"/></linearGradient><linearGradient id="paint9_linear_1205_3870" x1="142.16" y1="89.648" x2="142.16" y2="100.766" gradientUnits="userSpaceOnUse"><stop stop-color="#144794"/><stop offset="1" stop-color="#06162E"/></linearGradient><linearGradient id="paint10_linear_1205_3870" x1="110.793" y1="88.031" x2="110.793" y2="99.778" gradientUnits="userSpaceOnUse"><stop stop-color="#144794"/><stop offset="1" stop-color="#06162E"/></linearGradient><linearGradient id="paint11_linear_1205_3870" x1="74.861" y1="121.275" x2="74.861" y2="244.56" gradientUnits="userSpaceOnUse"><stop stop-color="#144794"/><stop offset="1" stop-color="#06162E"/></linearGradient><linearGradient id="paint12_linear_1205_3870" x1="177.235" y1="56.494" x2="177.235" y2="124.151" gradientUnits="userSpaceOnUse"><stop stop-color="#144794"/><stop offset="1" stop-color="#06162E"/></linearGradient><linearGradient id="paint13_linear_1205_3870" x1="153.255" y1="142.441" x2="153.255" y2="151.62" gradientUnits="userSpaceOnUse"><stop stop-color="#144794"/><stop offset="1" stop-color="#06162E"/></linearGradient><linearGradient id="paint14_linear_1205_3870" x1="199.808" y1="117.889" x2="199.808" y2="216.916" gradientUnits="userSpaceOnUse"><stop stop-color="#144794"/><stop offset="1" stop-color="#06162E"/></linearGradient></defs></svg>