<svg width="1000" height="1000" fill="none" xmlns="http://www.w3.org/2000/svg"><path d="M292.1 367c12.19 2.59 16.32 16.58 19.11 27a136.067 136.067 0 013.67 19.53c.74 6.43.84 12.88 1.18 19.33.37 7.05 1.18 14.13 3.94 20.69a1.13 1.13 0 01-.51 1.26 2.941 2.941 0 01-3.67-.22c-1.07-1-1-2.61.63-3 1.63-.39 3.28 1.15 4.51 2a150.145 150.145 0 015.21 3.8c6.16 4.69 12 9.83 18 14.71 3.8 3.07 7.7 6 11.74 8.74 1.21.82.06 2.8-1.15 2a233.72 233.72 0 01-19-14.77c-2.92-2.46-5.85-4.92-8.85-7.27a137.924 137.924 0 00-5.13-3.88c-.9-.65-1.8-1.29-2.72-1.92-.4-.28-.79-.58-1.21-.83-.42-.25-.87-.27-.7-.51v-1.13a.734.734 0 001.24.33l-.51 1.26c-4.75-11.33-3.73-23.87-4.68-35.85a135.304 135.304 0 00-2.87-19.09 96.147 96.147 0 00-5.4-17.9c-2.57-5.8-6.78-11.28-13.14-13.08a.644.644 0 01-.148-1.179.645.645 0 01.488-.061l-.03.04z" fill="url(#paint0_linear_82_2)"/><path d="M236.12 569.49A301.14 301.14 0 01205.43 630c-10.42 15.83-25 32.06-43.94 32.25-13.39.14-25.37-7.92-35.84-16.26a343.602 343.602 0 01-73.73-81.15c-5.26-8.1-11.45-17.27-21-18.49a10.58 10.58 0 01-3.93-.87c-4-2.3-1.21-8.42 2-11.68a141.015 141.015 0 0113.89-12.31c2.17-1.68 4.51-3.35 7.23-3.71 6.49-.88 11.27 5.56 15.31 10.71 21.07 26.89 58.48 34.56 84.82 56.31 4-29 18.15-55.43 32-81.19L209 530.12c3.26 3.24 11.23 7.78 8.67 11.6-4.2 6.27-1.06 11.34.55 16.82s4.21 12.47 10.07 12.3" fill="url(#paint1_linear_82_2)"/><path d="M236.78 569.68a292.212 292.212 0 01-22.68 48.11c-7.83 13.36-16.49 27.2-29 36.7a41.446 41.446 0 01-19.24 8.51c-7.81 1.08-15.53-.74-22.58-4.1-7.5-3.58-14.14-8.7-20.57-13.9-6.43-5.2-12.88-10.84-19-16.6A343.675 343.675 0 0169.46 591a340.313 340.313 0 01-14.83-20.22c-4.17-6.16-7.88-12.94-13.38-18.06a20.06 20.06 0 00-8.87-5.07c-3.09-.74-7.08-.36-8.2-4.12-.85-2.87.7-6.11 2.33-8.39 2.34-3.27 5.67-6 8.66-8.64a73.585 73.585 0 0110.06-8 10.853 10.853 0 019.95-1.11c3.24 1.33 5.77 3.92 8 6.55 2.23 2.63 4.39 5.6 6.82 8.22 9.69 10.49 22.1 17.85 34.6 24.46 12.82 6.79 26.06 12.9 38.07 21.09 2.88 2 5.67 4 8.36 6.27l-1.84.49c3.21-22.73 12.55-44 23-64.21 3-5.78 6.06-11.52 9.14-17.25a1.11 1.11 0 01.817-.53c.167-.021.337-.004.497.049.159.054.305.143.426.261l15.86 15.69c4.58 4.54 9 9.4 14 13.46 2.63 2.11 8 5.85 6 9.89a21.776 21.776 0 00-1.81 3.7 10.467 10.467 0 00-.22 4.56c.43 2.67 1.56 5.18 2.35 7.76 1.35 4.43 3.27 11.91 9.11 11.85a1.102 1.102 0 01.709 1.835 1.102 1.102 0 01-.709.355c-5.13 0-8-4.45-9.65-8.71-1-2.47-1.66-5.06-2.53-7.57-.87-2.51-1.8-5.33-1.62-8.12.077-1.377.392-2.73.93-4 .382-.825.813-1.626 1.29-2.4.226-.329.344-.721.34-1.12-.07-1.94-2.41-3.7-3.74-4.84-1.81-1.56-3.75-3-5.45-4.64-2.71-2.67-5.4-5.35-8.1-8l-18.32-18.13 1.74-.23c-10.77 20-21.65 40.26-27.9 62.23a138.287 138.287 0 00-4 18.69c-.13.91-1.29.95-1.85.49-10.84-8.92-23.41-15.39-35.84-21.76-12.43-6.37-24.71-12.6-35.56-21.23a86.682 86.682 0 01-14.3-14.48c-2.14-2.74-4.38-5.65-7.3-7.6a8.83 8.83 0 00-9.82-.36c-3.62 2.09-6.87 5.09-10 7.85a115.386 115.386 0 00-4.77 4.41 27.377 27.377 0 00-3.76 4.08c-1.33 1.94-3.53 6.1-.89 7.93 1.48 1 3.64.79 5.35 1.16a18.45 18.45 0 014.51 1.64c6 3.06 10.24 8.85 13.91 14.33 4.45 6.65 8.85 13.31 13.61 19.74a342.593 342.593 0 0032 37.24 344.053 344.053 0 0017.76 16.68 232.072 232.072 0 0019 15.29c6.51 4.58 13.67 8.61 21.57 10.13a34.06 34.06 0 0021.03-2.87c13.25-6.36 22.58-18.84 30.36-30.88a300.115 300.115 0 0024.26-45.7c1.66-3.92 3.29-7.85 4.81-11.83.31-.81 1.62-.47 1.32.37h.03z" fill="url(#paint2_linear_82_2)"/><path d="M257.24 490.25c6.65.71 13.48 1.06 20-.4 5.7 10.29 14.57 18.71 23.38 26.65 31.7 28.57 66.44 56.55 83.28 95.76 6.24 14.51 9.74 30 13.21 45.42 7.37 32.74 9.22 77.36 16.59 110.1 3.07 13.6 10.85 19.2 21.07 27a4.169 4.169 0 01-1.88 7.45 29.764 29.764 0 01-4.2.19l-21.48-.28c-6.75-.08-19.15.1-25.72.21a6.198 6.198 0 01-6.27-5.24c-1.14-7.8 1.41-19.66.68-25.69-2-16.71-11.32-31.5-19.54-46.19A436.494 436.494 0 01317 630.1c-.74-2.65-1.49-5.37-3.14-7.56-1.82-2.42-4.54-4-7.18-5.42l-50.36-28c-2.8-1.56-5.68-3.18-7.58-5.75-1.9-2.57-2.62-5.78-3.3-8.9-2.21-10.26-4.21-21.87 2.4-30.34a15.515 15.515 0 002.81-5.31c.74-2.73.66-3.31-.63-5.91-.87-1.75-11-9.08-11.9-10.81-1.29-2.47 5.62-.55 2.54-7.43-4-8.88-13.13-10.35-22.1-28.71a9.251 9.251 0 01-.73-4.07 198.506 198.506 0 0039.41 8.36z" fill="url(#paint3_linear_82_2)"/><path d="M424.46 371.58a135.784 135.784 0 014.09-33.11l-34.18-27.88 30-52 41.29 15.67a135.31 135.31 0 0157.34-33.1l7-43.56h60l7.07 43.56a135.44 135.44 0 0157.29 33.1l41.28-15.67 30 52-34.17 27.88a136.007 136.007 0 010 66.21l34.17 27.89-30 52-41.28-15.68A135.431 135.431 0 01597.14 502l-7.07 43.57h-60L523 502a135.304 135.304 0 01-57.29-33.1l-41.29 15.68-30-52 34.18-27.89a135.707 135.707 0 01-4.14-33.11z" fill="url(#paint4_linear_82_2)"/><path d="M422.59 371.58a140.518 140.518 0 014.15-33.58l.48 1.82-29.94-24.43-4.23-3.45a1.884 1.884 0 01-.3-2.27l10.14-17.55 16.16-28 3.72-6.45a1.898 1.898 0 012.12-.86l36.17 13.74 5.12 1.94-1.83.48a138.764 138.764 0 0158.12-33.58l-1.31 1.3 6.19-38.17.87-5.39a1.885 1.885 0 011.81-1.38h60a1.898 1.898 0 011.81 1.38l6.19 38.17.87 5.39-1.31-1.3a138.66 138.66 0 0158.12 33.58l-1.82-.48 36.21-13.77 5.11-1.94a1.883 1.883 0 012.12.86l10.13 17.56 16.17 28 3.72 6.44a1.903 1.903 0 01-.29 2.27l-29.95 24.43-4.23 3.45.48-1.82a139.439 139.439 0 010 67.21l-.48-1.82 29.95 24.43 4.23 3.45a1.887 1.887 0 01.29 2.27l-10.14 17.56-16.16 28-3.72 6.44a1.895 1.895 0 01-2.12.86L659 472.64l-5.11-1.94 1.82-.48a138.776 138.776 0 01-58.12 33.58l1.31-1.31-6.19 38.17-.87 5.4a1.888 1.888 0 01-1.81 1.37h-60a1.897 1.897 0 01-1.81-1.37L522 507.88l-.88-5.39 1.31 1.31a138.764 138.764 0 01-58.12-33.58l1.83.48L430 484.43l-5.11 1.94a1.886 1.886 0 01-2.12-.86L412.64 468l-16.17-28-3.72-6.45a1.888 1.888 0 01.3-2.27L423 406.81l4.23-3.45-.48 1.82a140.435 140.435 0 01-4.15-33.6 1.87 1.87 0 113.74 0 136.857 136.857 0 004 32.61 1.847 1.847 0 01-.48 1.82l-30 24.43-4.23 3.45.29-2.27 10.14 17.56 16.16 28 3.78 6.44-2.12-.86L460.07 469l5.11-1.94a1.837 1.837 0 011.82.48 134.798 134.798 0 0056.46 32.62 1.837 1.837 0 011.31 1.31l6.23 38.2.87 5.39-1.8-1.37h60l-1.8 1.37 6.19-38.17.87-5.39a1.823 1.823 0 011.31-1.31 134.798 134.798 0 0056.46-32.62 1.835 1.835 0 011.82-.48l36.18 13.73 5.11 1.94-2.11.86 10.13-17.55 16.17-28 3.72-6.45.29 2.27-30-24.43-4.23-3.45a1.844 1.844 0 01-.48-1.82 135.255 135.255 0 000-65.22 1.844 1.844 0 01.48-1.82l29.95-24.43 4.23-3.46-.29 2.27L714 294l-16.16-28-3.72-6.45 2.11.86L660 274.13l-5.11 1.94a1.875 1.875 0 01-1.82-.48A134.731 134.731 0 00596.64 243a1.81 1.81 0 01-.832-.472 1.803 1.803 0 01-.478-.828l-6.19-38.17-.87-5.4 1.8 1.38h-60l1.8-1.38-6.18 38.17-.88 5.4a1.821 1.821 0 01-1.31 1.3 134.713 134.713 0 00-56.5 32.59 1.857 1.857 0 01-1.82.48L429 262.33l-5.11-1.94 2.12-.86-10.14 17.56-16.16 28-3.73 6.45-.29-2.27 29.95 24.43 4.23 3.45a1.85 1.85 0 01.48 1.82 136.754 136.754 0 00-4 32.61c-.03 2.42-3.77 2.42-3.76 0z" fill="url(#paint5_linear_82_2)"/><path d="M560.05 421.19c-27.399 0-49.61-22.211-49.61-49.61s22.211-49.61 49.61-49.61 49.61 22.211 49.61 49.61-22.211 49.61-49.61 49.61z" fill="#fff"/><path d="M512.32 371.58a47.54 47.54 0 10.56-7.45 49.019 49.019 0 00-.56 7.45 1.88 1.88 0 01-3.75 0 51.563 51.563 0 0149.466-51.579 51.56 51.56 0 11-48.816 59.679 55.063 55.063 0 01-.65-8.1 1.884 1.884 0 011.875-1.743 1.88 1.88 0 011.875 1.743z" fill="url(#paint6_linear_82_2)"/><path d="M789.33 338a93.156 93.156 0 0118-14l-3-30 39.57-10.68 12.37 27.53a92.524 92.524 0 0143.68 11.69l24.46-17.64 29 29-17.64 24.46a92.559 92.559 0 0111.69 43.68L975 414.43l-10.62 39.63-30-3a92.995 92.995 0 01-32 32l3 30-39.63 10.62-12.38-27.52a92.536 92.536 0 01-43.68-11.69l-24.46 17.64-29-29 17.63-24.46a92.485 92.485 0 01-11.68-43.68l-27.53-12.37 10.62-39.63 30 3A92.874 92.874 0 01789.33 338z" fill="url(#paint7_linear_82_2)"/><path d="M788 336.63a96.673 96.673 0 0118.35-14.31l-.93 1.61-2.66-26.24-.38-3.75a1.885 1.885 0 011.38-1.8l34.77-9.32 4.86-1.3a1.87 1.87 0 012.11.86l10.86 24.12 1.53 3.4-1.62-.92a95.498 95.498 0 0144.62 11.94H899l21.41-15.43 3.06-2.21a1.89 1.89 0 012.27.29L951.2 329l3.55 3.56a1.888 1.888 0 01.29 2.27l-15.43 21.4-2.21 3.06v-1.89a95.547 95.547 0 0112 44.62l-.93-1.61 24.07 10.87 3.4 1.53a1.892 1.892 0 01.86 2.12l-9.31 34.77-1.3 4.86a1.89 1.89 0 01-1.81 1.37l-26.24-2.66-3.75-.38L936 452a95.995 95.995 0 01-32.67 32.67l.94-1.67 2.66 26.25.38 3.75a1.89 1.89 0 01-1.37 1.81l-34.78 9.32-4.86 1.3a1.911 1.911 0 01-2.11-.86l-10.85-24.12-1.53-3.41 1.62.93A95.62 95.62 0 01808.81 486h1.89l-21.41 15.43-3.06 2.2a1.862 1.862 0 01-2.26-.29l-25.46-25.46-3.56-3.55a1.887 1.887 0 01-.29-2.27l15.43-21.41 2.21-3.05v1.89a95.466 95.466 0 01-11.94-44.63l.92 1.62-24.12-10.84-3.4-1.54a1.87 1.87 0 01-.86-2.11l9.32-34.78 1.3-4.85a1.88 1.88 0 011.8-1.38l26.24 2.67 3.75.38-1.62.92A97.154 97.154 0 01788 336.63c1.7-1.71 4.35.94 2.65 2.65a91.99 91.99 0 00-13.73 17.59 1.877 1.877 0 01-1.62.93l-26.24-2.66-3.75-.38 1.81-1.38-9.32 34.78-1.3 4.86-.86-2.12 24.12 10.85 3.4 1.53a1.842 1.842 0 01.93 1.61 91.503 91.503 0 0011.43 42.74 1.86 1.86 0 010 1.89l-15.43 21.4-2.21 3.06-.29-2.27 25.46 25.46 3.55 3.55-2.26-.29L805.75 485l3.06-2.21a1.879 1.879 0 011.89 0 91.498 91.498 0 0042.73 11.44 1.844 1.844 0 011.62.92l10.84 24.12 1.53 3.41-2.11-.86 34.78-9.32 4.85-1.3-1.37 1.8-2.66-26.24-.38-3.75a1.82 1.82 0 01.92-1.61 91.993 91.993 0 0031.33-31.33 1.816 1.816 0 011.61-.92l26.24 2.66 3.75.38-1.8 1.37 9.31-34.78 1.31-4.85.86 2.07-24.12-10.8-3.41-1.53a1.862 1.862 0 01-.93-1.62 91.347 91.347 0 00-11.43-42.73 1.869 1.869 0 01-.258-.945c0-.332.09-.659.258-.945L949.61 336l2.2-3 .29 2.27-25.46-25.46-3.55-3.56 2.27.29L903.95 322l-3.06 2.2a1.848 1.848 0 01-1.89 0 91.487 91.487 0 00-42.73-11.43 1.834 1.834 0 01-1.61-.93l-10.85-24.12-1.53-3.4 2.11.86-34.77 9.32-4.86 1.3 1.37-1.81 2.67 26.25.38 3.74a1.865 1.865 0 01-.93 1.62 92.447 92.447 0 00-17.59 13.73c-1.71 1.67-4.36-1-2.66-2.7z" fill="url(#paint8_linear_82_2)"/><path d="M854.85 437.37c-18.722 0-33.9-15.178-33.9-33.9 0-18.723 15.178-33.9 33.9-33.9 18.722 0 33.9 15.177 33.9 33.9 0 18.722-15.178 33.9-33.9 33.9z" fill="#fff"/><path d="M832.21 380.83a31.892 31.892 0 0020.891 54.308 31.89 31.89 0 10-20.891-54.308c-1.72 1.69-4.37-.95-2.65-2.65a35.762 35.762 0 0149.568-.947 35.759 35.759 0 01-20.827 61.835 35.764 35.764 0 01-38.894-30.744 35.76 35.76 0 016.533-25.914 39.413 39.413 0 013.62-4.23c1.7-1.71 4.34.93 2.65 2.65zM700.8 523c5.34-.003 10.66.652 15.84 1.95L730 508.57l24.86 14.36-7.49 19.74a64.838 64.838 0 0115.83 27.39l20.8 3.38v28.71l-20.83 3.38a64.838 64.838 0 01-15.83 27.39l7.49 19.75L730 667l-13.33-16.34a65.27 65.27 0 01-31.67 0L671.64 667l-24.87-14.35 7.5-19.75a64.838 64.838 0 01-15.83-27.39l-20.83-3.38v-28.69l20.83-3.38a64.838 64.838 0 0115.83-27.39l-7.5-19.74 24.87-14.36L685 524.91a65.022 65.022 0 0115.8-1.91z" fill="#fff"/><path d="M700.8 521.09a69.076 69.076 0 0116.33 2l-1.82.48 13.34-16.34a1.871 1.871 0 012.26-.3l21.8 12.59 3.07 1.77a1.877 1.877 0 01.86 2.11l-7.5 19.75-.48-1.83A67.565 67.565 0 01765 569.57l-1.31-1.31 20.84 3.38a1.867 1.867 0 011.37 1.8v28.71a1.895 1.895 0 01-1.4 1.85l-20.84 3.37L765 606a67.592 67.592 0 01-16.31 28.22l.48-1.82 7.5 19.74a1.873 1.873 0 01-.86 2.11L734 666.86l-3.08 1.78a1.89 1.89 0 01-2.26-.29L715.31 652l1.82.48a67.99 67.99 0 01-32.65 0l1.82-.48-13.3 16.35a1.885 1.885 0 01-2.26.29l-21.8-12.58-3.07-1.78a1.884 1.884 0 01-.86-2.11l7.5-19.74.48 1.82A67.611 67.611 0 01636.64 606l1.3 1.3-20.83-3.3a1.882 1.882 0 01-1.37-1.81v-28.75a1.875 1.875 0 011.37-1.8l20.83-3.38-1.3 1.31a67.578 67.578 0 0116.31-28.23l-.48 1.83-7.5-19.75a1.885 1.885 0 01.86-2.11l21.79-12.58 3.08-1.73a1.88 1.88 0 012.26.3l13.34 16.29-1.82-.48a69.103 69.103 0 0116.32-2 1.871 1.871 0 010 3.74 64.458 64.458 0 00-15.33 1.89 1.854 1.854 0 01-1.82-.48l-13.33-16.35 2.26.3-21.79 12.58-3.07 1.77.86-2.11 7.5 19.74a1.845 1.845 0 01-.49 1.82 63.697 63.697 0 00-15.34 26.57 1.852 1.852 0 01-1.31 1.31l-20.83 3.37 1.37-1.8v28.71l-1.37-1.8 20.83 3.37a1.883 1.883 0 011.31 1.31 63.685 63.685 0 0015.34 26.57 1.84 1.84 0 01.49 1.82l-7.5 19.74-.86-2.11 21.79 12.58 3.07 1.78-2.26.29 13.33-16.34a1.867 1.867 0 011.82-.49 63.896 63.896 0 0030.67 0 1.859 1.859 0 011.82.49l13.33 16.32-2.27-.29 21.8-12.59 3.07-1.77-.86 2.11-7.5-19.74a1.864 1.864 0 01.48-1.82 63.591 63.591 0 0015.35-26.6c.087-.313.253-.598.483-.827.229-.23.514-.396.827-.483l20.83-3.37-1.37 1.8v-28.68l1.37 1.8-20.83-3.37a1.849 1.849 0 01-1.31-1.31A63.59 63.59 0 00746 544a1.861 1.861 0 01-.48-1.82l7.48-19.75.86 2.11L732.1 512l-3.08-1.77 2.27-.3L718 526.24a1.839 1.839 0 01-.844.489c-.32.084-.657.081-.976-.009a64.432 64.432 0 00-15.34-1.89c-2.44-.01-2.45-3.75-.04-3.74z" fill="url(#paint9_linear_82_2)"/><path d="M700.8 611.52c-13.101 0-23.72-10.62-23.72-23.72s10.619-23.72 23.72-23.72c13.1 0 23.72 10.62 23.72 23.72s-10.62 23.72-23.72 23.72z" fill="url(#paint10_linear_82_2)"/><path d="M700.8 566a21.847 21.847 0 00-21.038 27.697 21.854 21.854 0 0019.469 15.945 21.845 21.845 0 0021.571-12.962 21.849 21.849 0 001.438-13.12A22.05 22.05 0 00700.8 566c-2.4 0-2.41-3.76 0-3.75a25.594 25.594 0 0124.112 16.953 25.59 25.59 0 01-7.831 28.416 25.597 25.597 0 01-39.651-9.357 25.601 25.601 0 01-1.73-15.362 25.913 25.913 0 0125.1-20.65c2.41-.06 2.42 3.68 0 3.75z" fill="url(#paint11_linear_82_2)"/><path d="M315.41 304.59a67.303 67.303 0 002.38 11.61 32.242 32.242 0 002.1 5.46c.86 1.66 2.19 3.19 1.78 5.19a6.106 6.106 0 01-3.7 4c-1 .41-1.84.38-1.84 1.6 0 1.22.1 2.68 0 4a31.305 31.305 0 01-1.23 7.05c-.64 2.12-1.43 4.44-3 6-4 3.91-10 1.84-14.91 2.41-1.38.17-1.37-2 0-2.16 4.12-.49 9.78 1.45 13.23-1.67 1.65-1.49 2.32-4 2.86-6.08a29.257 29.257 0 001-7c0-1.72-.61-4.15 1-5.37 1.61-1.22 3.84-1 4.5-3.16.3-1-.32-1.86-.8-2.68a19.83 19.83 0 01-1.14-2.2 38.105 38.105 0 01-1.8-5 46.068 46.068 0 01-2-12.17c0-1.08 1.52-1 1.64 0l-.07.17z" fill="url(#paint12_linear_82_2)"/><path d="M307.95 317.49l-.05.05.18-.69a.733.733 0 01-.19.72l-.06.07.12-.15a.993.993 0 00-.09.15l.08-.19a2.005 2.005 0 00-.06.24v-.22.16-.22a.939.939 0 000 .15l-.09-.2a.586.586 0 00.09.15l-.14-.18.13.13-.18-.14a.384.384 0 00.15.09l-.22-.09h.15-.24l-.79.45c.034-.08.074-.156.12-.23.088-.13.185-.253.29-.37l.18-.14a.72.72 0 01.34-.11.487.487 0 01.24 0 .65.65 0 01.33.11c.13.081.239.19.32.32a.65.65 0 01.11.33c.03.118.03.242 0 .36l-.05.12a3.062 3.062 0 01-.13.32c0 .07-.1.14-.15.21l-.15.18a.61.61 0 01-.29.19.472.472 0 01-.23.07.731.731 0 01-.36 0 1.916 1.916 0 01-.31-.13 1.57 1.57 0 01-.32-.26 1.88 1.88 0 01-.24-.34 1.748 1.748 0 01-.11-.29 1.783 1.783 0 010-.31 1.478 1.478 0 010-.42.98.98 0 01.15-.37c.135-.23.333-.418.57-.54l.17-.07a.61.61 0 01.3 0 .408.408 0 01.19.05.46.46 0 01.23.16l-.69-.18h.44l.16.07a.652.652 0 01.28.33.596.596 0 010 .35.704.704 0 01-.18.39v-.08z" fill="url(#paint13_linear_82_2)"/><path d="M310 311.14a.828.828 0 01-.59.78 1.927 1.927 0 01-1.14 0l-.57-.1a1.843 1.843 0 00-.33-.06h-.1a7.358 7.358 0 00-1.15 0 2.615 2.615 0 00-.28 0h-.08c-.27.05-.54.11-.82.14a1.11 1.11 0 01-1.11-1 1.13 1.13 0 01.81-1.23c.47-.118.956-.162 1.44-.13.464.013.926.067 1.38.16.442.09.871.231 1.28.42l.29.14c0 .06.36 0 .06 0h.1c.113.001.224.022.33.06l-.74.3a.65.65 0 011.19.5l.03.02z" fill="url(#paint14_linear_82_2)"/><path d="M309.09 333.64c-.22-.08-.451-.13-.681-.2a5.547 5.547 0 00-.709-.16h.23a1.93 1.93 0 00-.34 0 2.42 2.42 0 01-.54-.11.852.852 0 01-.62-.81c.009-.15.049-.297.12-.43a.81.81 0 01.5-.39c.155-.03.312-.05.47-.06.159.011.317.041.47.09.185.043.365.104.54.18.231.077.453.181.66.31.19.15.38.3.55.46a.68.68 0 01.1.81.778.778 0 01-.241.23.642.642 0 01-.509.07v.01z" fill="url(#paint15_linear_82_2)"/><path d="M290.27 317.33a5.179 5.179 0 00-4.71-3.2 4.8 4.8 0 00-4.47 3.22 6.35 6.35 0 001.1 6 5.819 5.819 0 002.289 1.79c.909.33 1.89.409 2.841.23a1 1 0 01.52 1.9c-1.94 1.06-4.461.08-6.051-1.17a9.002 9.002 0 01-3.219-6 7.423 7.423 0 012.089-6.12 6.81 6.81 0 016.051-1.76 6.397 6.397 0 014.79 4.52c.2.71-.91 1.23-1.23.52v.07z" fill="url(#paint16_linear_82_2)"/><path d="M285.09 318.19c.248.061.482.17.69.32a3.88 3.88 0 011.08 1.07c.152.217.277.452.37.7a.871.871 0 01-.08.65.831.831 0 01-.5.38.862.862 0 01-.65-.08l-.17-.13a.917.917 0 01-.21-.37l.08.2a3.856 3.856 0 00-.46-.81l.13.17a3.659 3.659 0 00-.59-.59l.16.12-.21-.15a2.506 2.506 0 01-.32-.26l-.11-.14a.499.499 0 01-.08-.27.598.598 0 01.08-.45.725.725 0 01.346-.296.721.721 0 01.454-.034l-.01-.03z" fill="url(#paint17_linear_82_2)"/><path d="M290.38 316.26c2.43-3.3 2-8.19 4.73-11.22.77-.85 1.74-1.49 2.45-2.39 1.54-2 1.49-4.69 1.38-7.19a45.812 45.812 0 0010.27 6.12 8.515 8.515 0 003.58.88 3.22 3.22 0 002.93-1.91c.104-.288.14-.595.106-.899a1.993 1.993 0 00-1.806-1.771 4.569 4.569 0 003 1.8c2.36.62 5.22 1 6.91-.75a4.295 4.295 0 00.53-4.84 6.24 6.24 0 00-4-3c.77.21 1.94.18 2-.63a1.3 1.3 0 00-.54-1c-3.13-2.89-7.68-3.62-11.94-3.68a51.122 51.122 0 00-8.65.61 9.297 9.297 0 01-2.4.19 39.358 39.358 0 00-24.4 6c-4.65 3-8.41 8-8.45 13.55a25.14 25.14 0 00.95 6 419.45 419.45 0 004.62 17.15c.33 1.12.77 2.37 1.83 2.85.787.27 1.643.27 2.43 0 3.16-.74 5.72-3.52 8.27-5.53-3-1.44-5-2.87-5.63-6.16a7.997 7.997 0 014-8.46c3-1.47 5.81-.69 7.07 2.4" fill="url(#paint18_linear_82_2)"/><path d="M289.81 315.93c1.93-3.08 1.8-6.92 3.57-10.06 1-1.72 2.8-2.68 3.78-4.35.98-1.67.91-4.06.82-6.06 0-.92 1-1.14 1.63-.67a47.91 47.91 0 008.24 5.17c1.47.72 3.24 1.71 4.94 1.59a2.612 2.612 0 001.77-.8c.46-.59.45-1.86-.54-1.94l.81-1.4c.73 1.14 2.48 1.36 3.71 1.59a5.996 5.996 0 004.14-.31 3.08 3.08 0 001.13-3.69 5.133 5.133 0 00-3.62-2.95 1.012 1.012 0 01-.71-1.24 1.01 1.01 0 011.24-.71c.2 0 .69.18.87 0-.38.3-.83-.34-1.07-.52a11.075 11.075 0 00-2-1.18 16.445 16.445 0 00-4.56-1.32 39.309 39.309 0 00-10.28 0 29.33 29.33 0 01-5.19.48 37.55 37.55 0 00-14.39 1.66c-5.92 1.84-12.08 5.06-15.21 10.65a13.364 13.364 0 00-1.43 9.17c.68 3.66 1.75 7.28 2.71 10.88.547 2.06 1.117 4.12 1.71 6.18.3 1.06.58 2.13.92 3.18.23.7.51 1.65 1.32 1.86 1.67.45 3.83-1 5.09-1.91 1.46-1 2.77-2.29 4.18-3.4l.22 1.67c-2.27-1.12-4.47-2.51-5.52-4.91a9.354 9.354 0 01.22-7.76c2.35-4.87 9.63-6.71 12.15-1 .54 1.25-1.29 2.33-1.84 1.08-2-4.63-7.47-2.16-8.79 1.69a7.114 7.114 0 00.39 5.66c1 1.7 2.77 2.61 4.46 3.42a1.06 1.06 0 01.21 1.66c-2.74 2.22-5.34 5.12-8.93 5.9-1.74.38-3.45.12-4.49-1.46s-1.38-3.75-1.89-5.55a305.43 305.43 0 01-3.67-13.83c-1-3.89-1.47-7.69.08-11.51 2.82-7 9.74-11.05 16.56-13.36a41.122 41.122 0 0111.48-2.12c1.93-.08 3.9.26 5.82.14 2.32-.16 4.61-.65 7-.75 4.22-.2 8.69 0 12.57 1.78 1.37.64 4 2 4 3.71s-1.93 2-3.26 1.73l.53-1.95a7.206 7.206 0 014.9 4 5.193 5.193 0 01-1.19 5.73c-1.56 1.39-3.75 1.47-5.71 1.17-1.96-.3-4.35-.87-5.5-2.69a.938.938 0 01-.005-.931.925.925 0 01.805-.469 3.003 3.003 0 012.66 3.55c-.44 2-2.67 3-4.58 2.84-2.48-.21-5-1.66-7.15-2.81a46.192 46.192 0 01-6.69-4.39l1.63-.68a14.38 14.38 0 01-.63 6.12c-.84 2.09-2.77 3-4 4.76-2.23 3.13-2 7.31-4.41 10.38-.46.59-1.42-.17-1-.79l-.01.07z" fill="url(#paint19_linear_82_2)"/><path d="M296.62 351.64c.15.29.47-.09.26.32a2.941 2.941 0 01-.31.41c-.2.26-.4.52-.59.79-.4.527-.79 1.057-1.17 1.59-.8 1.1-1.56 2.23-2.28 3.38-.72 1.15-1.38 2.26-2 3.41-.62 1.15-1.21 2.45-1.89 3.62-.54.94-2.24.31-1.81-.77a33.111 33.111 0 012.41-4.61c.86-1.45 1.77-2.88 2.74-4.26.97-1.38 2-2.73 3.07-4 .45-.53 1-1.28 1.73-1.31a1.001 1.001 0 011 1.29.665.665 0 01-.544.462.653.653 0 01-.646-.302l.03-.02z" fill="url(#paint20_linear_82_2)"/><path d="M276.2 330.39c-1.34 2.15-2.73 4.26-4.16 6.35l-2.16 3.13a24.061 24.061 0 01-2.28 3 .799.799 0 01-1.125.125.8.8 0 01-.125-1.125 24.413 24.413 0 012.16-3.13c.72-1 1.43-2 2.15-3l4.34-6.06c.52-.72 1.7-.07 1.21.71h-.01z" fill="url(#paint21_linear_82_2)"/><path d="M264.9 339.8c6.4 9.65 14 19.22 23.75 25.4.57-1 .83-1.93 1.41-3 1 .68 1.39 1.58 2.36 2.25 1.16.8 2.4 1.72 2.73 3.09a5.82 5.82 0 01-.3 2.94l-1.38 4.88c-.18.64-.43 1.36-1 1.61-1.11.46-2-1-2.4-2.11l-2-6.28-3.93 7.23c-.88 1.64-2.05 3.47-3.9 3.66-1.7.18-3.16-1.13-4.37-2.34-6.78-6.81-13.61-13.69-18.9-21.71-2.17-3.29-4.11-6.86-4.58-10.77a2.725 2.725 0 01.2-1.72 2.916 2.916 0 011.08-.95l5.92-3.72a11.821 11.821 0 014.1-1.88 6.115 6.115 0 015 2.1c0-.25.14.21 0 0 0 .25-.4.55-.49.73-.32.63-1.68 2.45-2 3.08" fill="url(#paint22_linear_82_2)"/><path d="M250 350.82c-16.18-1-31.52 6.75-43.6 17-13 11-23.08 24.87-34.25 37.62-5.36 6.13-11.49 11.82-15.65 18.9a36.437 36.437 0 00-4.11 24.37c1.36 8.44 5 16.29 9.44 23.53a174.453 174.453 0 0015.29 20.89c11.41 13.63 24.16 26.1 36.6 38.77l4.79 4.87c1 1-.56 2.59-1.57 1.57-12.92-13-26.19-25.85-38.27-39.7a205.478 205.478 0 01-16.31-21.09c-4.77-7.16-9-14.86-11.25-23.22s-2.49-17.31.51-25.4c2.89-7.8 8.58-14 14.13-20 11.86-12.85 22.08-27.32 35-39.14 11.87-10.85 26.81-19.76 43.25-20.48 2-.086 4.004-.046 6 .12.92.08.94 1.52 0 1.47v-.08z" fill="url(#paint23_linear_82_2)"/><path d="M251.33 376.42c.11 11.23-9.77 19.23-17.25 26.2a5282.992 5282.992 0 01-29.89 27.65l-7.32 6.71c-1.15 1.06-2.32 2-1.6 3.66.72 1.66 1.58 3 2.36 4.45 3.1 5.807 6.223 11.6 9.37 17.38a834.193 834.193 0 009.77 17.44c3.12 5.42 6.21 10.91 9.8 16a52.06 52.06 0 006.48 7.73c2.24 2.16 4.79 4 6.7 6.47 2.87 3.72 3.89 10.36-1 13a1.212 1.212 0 01-1.566-.479 1.213 1.213 0 01.346-1.601 5.2 5.2 0 002.1-5.26c-.32-2.52-2-4.52-3.78-6.21-2-1.93-4.2-3.65-6.11-5.68a60.566 60.566 0 01-5.49-6.87c-3.49-5-6.5-10.37-9.55-15.66a813.185 813.185 0 01-9.52-17c-3.107-5.706-6.19-11.43-9.25-17.17l-2.18-4.09c-.7-1.32-1.48-2.75-1.19-4.3a5.542 5.542 0 011.63-2.74c1.22-1.23 2.57-2.36 3.85-3.53 9.78-8.94 19.593-17.84 29.44-26.7 5-4.51 10.28-8.82 14.88-13.75 4-4.35 7.54-9.54 7.62-15.68a.673.673 0 011.144-.474.67.67 0 01.196.474l.01.03z" fill="url(#paint24_linear_82_2)"/><path d="M238.34 521.54c5.83 3.57 12.31 7.83 14.31 14.79a.998.998 0 01-1.374.927 1.005 1.005 0 01-.486-.417c-2.19-6.33-7.88-10.45-13.09-14.21-.65-.46-.07-1.52.64-1.09z" fill="url(#paint25_linear_82_2)"/><path d="M243.78 540.81a54.068 54.068 0 00-.11 10.65 64.685 64.685 0 002.18 10.59.999.999 0 01-.733.932.999.999 0 01-1.107-.422 40.372 40.372 0 01-2.11-10.9 46.885 46.885 0 01.46-11c.13-.8 1.5-.62 1.42.19v-.04z" fill="url(#paint26_linear_82_2)"/><path d="M235.37 563.29a16.28 16.28 0 01-2.65-9.27c0-1 1.68-1 1.64 0a15.835 15.835 0 002.19 8.58c.45.76-.7 1.42-1.18.69z" fill="url(#paint27_linear_82_2)"/><path d="M225.78 560.69a45.324 45.324 0 01-.71-9.23c0-1.09 1.75-1.09 1.7 0a48.508 48.508 0 00.36 8.86.731.731 0 01-.49.86.7.7 0 01-.86-.49z" fill="url(#paint28_linear_82_2)"/><path d="M218.89 558.63a28.793 28.793 0 01-2-13c.18-2.28.73-4.51.87-6.78a11.8 11.8 0 00-.31-3.74 15.434 15.434 0 01-.76-3c-.12-2 1.24-3.46 2.48-4.83a27.37 27.37 0 014.309-3.8 25.455 25.455 0 0110.821-4.58c1.35-.18 2 1.8.58 2.11A28.006 28.006 0 00225 525a24.723 24.723 0 00-4.271 3.63 10.79 10.79 0 00-1.799 2.25c-.53 1-.081 2.13.229 3.16 1.23 4 .001 7.9-.449 11.91a27.476 27.476 0 001.47 12.36c.31.85-1.001 1.18-1.331.37l.041-.05z" fill="url(#paint29_linear_82_2)"/><path d="M317.049 507.166l16.698 27.228a3.51 3.51 0 01-1.157 4.827l-3.64 2.232a3.51 3.51 0 01-4.827-1.157l-16.698-27.228a3.51 3.51 0 011.157-4.827l3.64-2.232a3.51 3.51 0 014.827 1.157z" fill="url(#paint30_linear_82_2)"/><path d="M326.065 536.267l-14.167-23.102-17.331 10.628 14.168 23.102 17.33-10.628z" fill="url(#paint31_linear_82_2)"/><path d="M555.73 375l4.07 6.63a3.082 3.082 0 01-.43 3.77l-15.91 16.11a3.064 3.064 0 01-2.11.91l-9.57.26a3.06 3.06 0 01-2.7-1.47l-4.73-7.7a3.055 3.055 0 01-.08-3.07l4.57-8.44a2.996 2.996 0 011.76-1.47l21.58-6.87a3.066 3.066 0 013.55 1.34z" fill="url(#paint32_linear_82_2)"/><path d="M192 573.59L219 557a16.715 16.715 0 009.33 9.54 13.995 13.995 0 0014.71-2.94 4.618 4.618 0 001.09-1.54 5.63 5.63 0 00.14-2.58c-.527-5.413-1.06-10.823-1.6-16.23l.16-.87 40.75-25a18.32 18.32 0 0120.331.762 18.325 18.325 0 014.859 5.238l6.69 10.91a18.322 18.322 0 01-6 25.2l-91.65 56.2a18.322 18.322 0 01-25.19-6l-6.7-10.92a18.321 18.321 0 016.08-25.18z" fill="url(#paint33_linear_82_2)"/><path d="M302.28 549.79l-9.1 5.58-21.86 13.41L244.86 585l-23 14.09-7.54 4.62c-1.18.72-2.34 1.56-3.57 2.19l-.16.09c-1 .64-2-1-.94-1.61l9.1-5.58 21.86-13.41 26.49-16.22 23-14.09 7.54-4.62c1.17-.72 2.34-1.56 3.57-2.19l.16-.1c1-.63 2 1 .94 1.62h-.03z" fill="url(#paint34_linear_82_2)"/><path d="M296.341 539.679l-9.1 5.581-21.85 13.399-26.46 16.231-22.93 14.11-7.54 4.619c-1.17.73-2.34 1.571-3.57 2.201l-.16.089c-1 .63-2-1-.94-1.61l9.1-5.58 21.86-13.409 26.46-16.22 23-14.09 7.54-4.62c1.18-.72 2.34-1.56 3.57-2.19l.16-.1c1-.63 2 1 .94 1.62l-.08-.031z" fill="url(#paint35_linear_82_2)"/><path d="M226.35 568.85l-24.159 14.81-3.43 2.11c-1 .63-2-1-1-1.62l24.24-14.81 3.44-2.11c1-.63 2 1 .94 1.62h-.031z" fill="url(#paint36_linear_82_2)"/><path d="M290.411 529.56l-15.27 9.37-24.14 14.79-5.62 3.44a.935.935 0 01-1.275-.335.93.93 0 01.335-1.275l15.27-9.37 24.12-14.79 5.63-3.39c1-.63 2 1 .95 1.61v-.05z" fill="url(#paint37_linear_82_2)"/><path d="M301.63 385.26a72.061 72.061 0 01-3 35.05c-3.92 11.22-11.31 21.72-11.43 34a24.418 24.418 0 001.35 8.34c.9 2.58 2.17 5.14 2.2 7.93a7.675 7.675 0 01-.72 3.34c-.55 1.19-1.69 2.25-1.83 3.6-.14 1.35.53 2.66.54 4a7.065 7.065 0 01-.76 3.13c-2.2 4.4-7.77 6.05-12.22 6.81a65.647 65.647 0 01-18 .12 196.594 196.594 0 01-40.92-8.7c-1.49-.49-.86-2.85.65-2.37a204.413 204.413 0 0035.06 7.93 95.86 95.86 0 0017.83 1.1c4.75-.26 10.81-.95 14.31-4.57a5.382 5.382 0 001.45-2.49c.3-1.3-.19-2.54-.36-3.82a5.582 5.582 0 01.5-3.29c.59-1.22 1.56-2.22 1.88-3.56.59-2.59-.76-5.35-1.61-7.73a26.947 26.947 0 01-1.58-7.79c-.56-11.54 5.59-21.77 10.06-32a70.878 70.878 0 005.33-38.67c-.13-.86 1.17-1.24 1.32-.37l-.05.01z" fill="url(#paint38_linear_82_2)"/><path d="M199 434.62c-.27 1.85-.45 3.71-.58 5.58-.06.93-.12 1.86-.15 2.79 0 .939-.05 1.877-.15 2.81a.839.839 0 01-.94.61.869.869 0 01-.75-.84c-.054-.93-.027-1.864.08-2.79.07-1 .16-1.94.29-2.9.246-1.88.58-3.747 1-5.6.17-.81 1.34-.45 1.22.34H199z" fill="url(#paint39_linear_82_2)"/><path d="M317.61 626.47l-4.16-3.14a.703.703 0 01-.327-.476.704.704 0 01.135-.562.704.704 0 01.508-.276.704.704 0 01.544.194l4.09 3.24a.647.647 0 01-.356 1.055.652.652 0 01-.434-.055v.02zm94 144.19l-6.14.23a30.919 30.919 0 00-5.36.35 3.996 3.996 0 00-3.29 2.78 33.998 33.998 0 01-1.17 4.09c-1.31 2.8-4.3 3.12-7.06 3.09-1.84 0-3.67 0-5.51.16-1 .08-2 .2-3 .35-.985.228-1.989.368-3 .42-.76 0-1.19-1.16-.42-1.52a18 18 0 015.51-1.06 49.843 49.843 0 015.61-.31c1.57 0 3.48.25 4.9-.57 1.42-.82 1.64-2.52 2-4 .75-2.93 2.37-4.76 5.45-5.21a36.19 36.19 0 015.1-.16h6.39a.66.66 0 110 1.32l-.01.04zM65.32 529.47c-6.65 2.08-11.43 7.43-15.66 12.68-.597.61-1.13 1.28-1.59 2-.47.95.15 1.62.39 2.55a6.109 6.109 0 01-1 4.58c-.57 1-1.63 3-3 2.8a1.3 1.3 0 01-.51-2.38c.9-.68 2 .79 1.19 1.55l-.12.11.29-.7-.21-.43-.77-.1c.55-.13 1.24-1.55 1.52-2 .47-.697.736-1.511.77-2.35 0-1.35-1-2.39-.54-3.79a11.989 11.989 0 012.42-3.23c.92-1.09 1.85-2.16 2.81-3.21 3.78-4.1 8.16-7.79 13.61-9.37a.671.671 0 01.36 1.29h.04zM149 583.19c-.51 5.36-1.48 10.72-2.25 16-.14 1-1.68.58-1.52-.42.81-5.26 1.44-10.59 2.51-15.8.14-.71 1.33-.56 1.26.17v.05zm-5.589 2.44a22.817 22.817 0 00-1.47 6.42.766.766 0 01-.226.524.766.766 0 01-.524.226.75.75 0 01-.75-.75 24.413 24.413 0 011.68-6.78.661.661 0 01.312-.419.67.67 0 01.978.779z" fill="#fff"/><path d="M321.42 536.89c-3.85-6.06-7.43-12.29-10.8-18.62-.42-.79.79-1.49 1.19-.7 3.3 6.38 6.91 12.59 10.76 18.65.46.72-.69 1.39-1.15.67z" fill="url(#paint40_linear_82_2)"/><path d="M345.34 506.69a10.654 10.654 0 01-10.44.9 9.618 9.618 0 01-2.16-1.33c-1-.81-1.74-1.74-3.12-1.87a32.75 32.75 0 01-6.73-1.05c-4.38-1.36-8.34-3.74-12.23-6.12-3.89-2.38-8-4.91-11.86-7.63a66.996 66.996 0 01-11.7-10.28c-1-1.08.63-2.67 1.58-1.58 5.89 6.69 13.35 11.59 20.87 16.24a82.338 82.338 0 0011.5 6.4 25.323 25.323 0 006.44 1.77c2 .25 3.72.14 5.34 1.54 1.62 1.4 3.22 2.67 5.54 3a9.521 9.521 0 006.29-1.17c.76-.45 1.37.67.68 1.16v.02z" fill="url(#paint41_linear_82_2)"/><path d="M348.81 508.91c4.57 1 9.06 2.16 13.7 2.86 4.26.64 9 1.46 13.32.56 4.32-.9 6.53-4.09 8.6-7.6 1.193-2 2.343-4.05 3.45-6.15 1-2 2.11-4 1.34-6.23-1.58-4.69-5.23-8.43-8.39-12.07a.937.937 0 010-1.33.94.94 0 011.33 0 31.391 31.391 0 014.78 5.31 40.232 40.232 0 013.82 6 7.777 7.777 0 01.52 6.45 46.464 46.464 0 01-3.47 6.72c-2.11 3.75-4.33 8.1-8.38 10.08-4.21 2.07-9.19 1.39-13.67.8a70.73 70.73 0 01-17.29-4.17.64.64 0 01-.149-1.178.642.642 0 01.489-.062v.01z" fill="url(#paint42_linear_82_2)"/><path d="M375.31 483.49a14.076 14.076 0 015 5.81.838.838 0 01.136.668.85.85 0 01-1.596.192 13.586 13.586 0 00-.85-1.61 16.331 16.331 0 00-1-1.41 18.843 18.843 0 00-2.53-2.6c-.57-.5.17-1.46.82-1.05h.02z" fill="url(#paint43_linear_82_2)"/><path d="M374.92 495.15a8.407 8.407 0 00-4.77-5.4c-.77-.34-.22-1.68.58-1.37a9.401 9.401 0 013.519 2.546 9.398 9.398 0 012.001 3.854.692.692 0 01-.48.85.69.69 0 01-.85-.48z" fill="url(#paint44_linear_82_2)"/><path d="M369.86 500.35a11.41 11.41 0 00-4.19-6.2.908.908 0 01-.31-1.21.888.888 0 011.21-.32 11.8 11.8 0 013 3.3 12.017 12.017 0 011.58 4.07.702.702 0 01-.48.85.688.688 0 01-.85-.49h.04z" fill="url(#paint45_linear_82_2)"/><path d="M383.31 481.78l145.42-89.18 3.09 5-144.49 88.6a29.358 29.358 0 00-4.02-4.42z" fill="url(#paint46_linear_82_2)"/><path d="M355 499.16c2.61.55 4.66 1.55 5 3.28.039.191.059.385.06.58l-39.45 24.19-3.09-5L355 499.16z" fill="url(#paint47_linear_82_2)"/><path d="M369.13 484.84c.83-.11.89-1.26.53-1.8a4.227 4.227 0 00-2.43-1.38 18.091 18.091 0 00-6.66-.71 5.548 5.548 0 00-4.57 2.89 9.88 9.88 0 00-.78 2.67 7.528 7.528 0 00-.24 2.79 1.07 1.07 0 01-1.94.81c-.85-1.18-.36-2.91-.12-4.23a10.37 10.37 0 011.42-3.89c1.7-2.54 4.69-3.4 7.61-3.23 1.648.111 3.282.379 4.88.8a8.194 8.194 0 013.58 1.7 3.133 3.133 0 011 3.18 2.241 2.241 0 01-2.26 1.7.65.65 0 010-1.3h-.02z" fill="url(#paint48_linear_82_2)"/><path d="M286.27 387.69v-.05l-.08.19a.601.601 0 000-.12v.21-.14.21a.855.855 0 000-.16l.08.19a1.197 1.197 0 00-.08-.15l.12.17a.866.866 0 00-.16-.16l.17.13a1.105 1.105 0 00-.23-.14l.199.09a.86.86 0 00-.229-.06h.229-.209.24-.151l.211-.09-.221.13.181-.14a1.005 1.005 0 00-.171.18l.141-.19c-.082.107-.15.225-.2.35l.09-.23a2.021 2.021 0 00-.12.43v-.25c-.021.17-.021.341 0 .51v-.26c.017.14.051.278.1.41l-.1-.23.12.21-.15-.2a.762.762 0 00.13.13l-.201-.15a.98.98 0 00.171.1l-.241-.1a.82.82 0 00.211.06h-.26.28-.26l.25-.07-.24.1c.078-.034.152-.077.22-.13l-.201.16c.059-.048.112-.102.161-.16l-.161.21c.06-.081.11-.168.151-.26l-.1.24c.04-.1.07-.204.09-.31v.27a1.34 1.34 0 000-.4v.27a2.258 2.258 0 00-.11-.42l.099.25v-.09a1.185 1.185 0 01-.109-.81 1.058 1.058 0 011.289-.73 1.002 1.002 0 01.621.48c.106.212.183.438.23.67.034.236.034.475 0 .71a3.397 3.397 0 01-.07.45 3.462 3.462 0 01-.17.43c-.031.067-.068.13-.111.19a2.368 2.368 0 01-.289.35 2.06 2.06 0 01-1.34.55 1.788 1.788 0 01-1.34-.51 2.203 2.203 0 01-.56-1.46 2.56 2.56 0 01.15-1 2.39 2.39 0 01.27-.56c.157-.22.353-.41.58-.56a1.66 1.66 0 011.32-.22 1.76 1.76 0 011.089.81 1.376 1.376 0 010 1.45.876.876 0 01-.469.36.787.787 0 01-.6-.08.787.787 0 01-.28-1.07l.02.01z" fill="url(#paint49_linear_82_2)"/><path d="M282.46 405.13l-.07.18v-.12.21a.33.33 0 000-.14v.21a.523.523 0 00-.05-.16l.09.2a1.083 1.083 0 00-.09-.15l.13.16a1.353 1.353 0 00-.17-.16l.17.13a1.024 1.024 0 00-.23-.13l.2.08a.877.877 0 00-.23-.06h.24-.21.23-.15l.21-.09-.22.13.19-.14a1.53 1.53 0 00-.18.18l.14-.19a1.76 1.76 0 00-.2.35l.09-.23c-.051.14-.088.284-.11.43v-.25c-.02.17-.02.341 0 .51v-.26c.018.14.051.278.1.41l-.09-.23c.032.074.072.145.12.21l-.16-.2a.8.8 0 00.13.13l-.2-.15c.053.039.11.072.17.1l-.24-.1c.07.031.144.051.22.06h-.27a.66.66 0 00.28 0h-.26a.99.99 0 00.25-.07l-.24.1a.94.94 0 00.22-.12l-.2.15a.609.609 0 00.16-.16l-.15.21c.059-.081.11-.168.15-.26l-.11.25c.043-.102.074-.21.09-.32v.27a2.67 2.67 0 000-.4v.27a2.258 2.258 0 00-.11-.42l.1.25a.451.451 0 000-.09 1.118 1.118 0 01.072-1.173.993.993 0 011.108-.357.953.953 0 01.62.48c.104.209.182.431.23.66.035.239.035.481 0 .72a3.57 3.57 0 01-.07.45 3.127 3.127 0 01-.17.42 1.948 1.948 0 01-.4.54 2.076 2.076 0 01-1.34.56 1.828 1.828 0 01-1.34-.52 2.21 2.21 0 01-.56-1.45c-.016-.34.035-.68.15-1a2.86 2.86 0 01.27-.56c.157-.221.354-.41.58-.56a1.669 1.669 0 011.32-.22 1.767 1.767 0 011.09.82 1.368 1.368 0 010 1.44.882.882 0 01-.47.36.781.781 0 01-.6-.08.809.809 0 01-.28-1.07l.05-.04z" fill="url(#paint50_linear_82_2)"/><path d="M278.65 422.58v-.05l-.08.19v-.12.21c.01-.049.01-.1 0-.15v.22a1.206 1.206 0 000-.17l.08.2-.09-.15.13.17a.722.722 0 00-.17-.17l.17.13a.886.886 0 00-.23-.13l.21.08a2.358 2.358 0 00-.23-.06h.23-.21.23l-.15.05.22-.09a.768.768 0 00-.23.13l.19-.15a1.457 1.457 0 00-.18.18l.15-.18c-.089.101-.16.216-.21.34l.1-.22c-.06.137-.1.282-.12.43v-.26c-.02.17-.02.341 0 .51v-.25c.013.138.046.273.1.4l-.1-.23a.674.674 0 00.12.21l-.15-.2a.76.76 0 00.12.14l-.19-.16.16.1-.23-.1a.64.64 0 00.21.06h-.27c.096.01.193.01.29 0h-.27a.714.714 0 00.25-.07l-.24.1a.989.989 0 00.23-.12l-.21.15a.807.807 0 00.17-.15l-.16.2c.059-.077.109-.161.15-.25l-.1.24c.041-.102.068-.21.08-.32v.27a2.67 2.67 0 000-.4v.28a1.649 1.649 0 00-.11-.43l.11.25-.05-.09a1.113 1.113 0 01-.1-.8 1.08 1.08 0 01.48-.63 1.063 1.063 0 011.159.077c.106.083.195.186.261.303.106.212.183.438.23.67.035.236.035.475 0 .71a2.355 2.355 0 01-.07.45 2.277 2.277 0 01-.17.43.913.913 0 01-.11.18c-.082.129-.176.25-.28.36-.371.338-.85.532-1.35.55a1.78 1.78 0 01-1.33-.52 2.214 2.214 0 01-.57-1.45 2.641 2.641 0 01.15-1c.073-.193.167-.377.28-.55.154-.226.351-.419.58-.57a1.66 1.66 0 011.32-.22c.452.124.839.418 1.08.82a1.368 1.368 0 010 1.44.783.783 0 01-.922.346.775.775 0 01-.428-1.126l.07-.04z" fill="url(#paint51_linear_82_2)"/><path d="M274.849 440l-.08.19a.27.27 0 000-.12v.21-.14.21a.691.691 0 00-.05-.16l.08.19a.604.604 0 00-.09-.15l.13.17a1.353 1.353 0 00-.16-.17l.17.13-.23-.13.2.09a1.012 1.012 0 00-.23-.06h.23-.21.24-.16l.22-.09a1.061 1.061 0 00-.22.13l.18-.14a1.53 1.53 0 00-.18.18l.15-.19a2.466 2.466 0 00-.21.34l.1-.22c-.06.137-.1.282-.12.43v-.25a1.743 1.743 0 000 .51v-.26c.018.137.052.271.1.4l-.1-.23a.743.743 0 00.12.21l-.15-.19a.8.8 0 00.13.13l-.2-.16a.532.532 0 00.16.1l-.23-.1c.067.029.138.05.21.06h-.26c.093.01.187.01.28 0h-.27a.971.971 0 00.25-.06l-.24.1c.08-.037.157-.081.23-.13l-.2.16a1.21 1.21 0 00.16-.16l-.16.2c.059-.077.11-.161.15-.25l-.1.24a1.6 1.6 0 00.09-.32v.28c.02-.136.02-.274 0-.41v.28a1.433 1.433 0 00-.12-.42l.11.24a.339.339 0 010-.09.993.993 0 01-.125-.791 1.007 1.007 0 01.495-.629 1.004 1.004 0 01.8-.11c.265.072.491.244.63.48.103.213.177.438.22.67.035.236.035.475 0 .71a3.592 3.592 0 01-.08.45 2.277 2.277 0 01-.17.43 2.052 2.052 0 01-.39.54 2.12 2.12 0 01-1.35.55 1.83 1.83 0 01-.717-.119 1.833 1.833 0 01-.613-.391 2.201 2.201 0 01-.56-1.46c-.026-.34.026-.682.15-1 .144-.464.444-.863.85-1.13a1.707 1.707 0 011.32-.22c.455.124.845.417 1.09.82a1.406 1.406 0 010 1.45.81.81 0 01-.46.35.777.777 0 01-.6-.07.801.801 0 01-.28-1.07l.07-.04z" fill="url(#paint52_linear_82_2)"/><path d="M271 457.46l-.08.19a.602.602 0 000-.12v.21-.14.21a.713.713 0 000-.16l.08.19a.636.636 0 00-.09-.15l.13.17a.866.866 0 00-.16-.16l.17.13a1.105 1.105 0 00-.23-.14l.2.09a.917.917 0 00-.23-.06h.23-.21.24-.15l.21-.09-.22.13.18-.14a1.034 1.034 0 00-.17.18l.14-.19a1.539 1.539 0 00-.2.35l.09-.23a2.146 2.146 0 00-.12.43v-.25c-.02.17-.02.341 0 .51v-.26c.018.14.051.278.1.41l-.1-.24.12.22-.15-.2a.762.762 0 00.13.13l-.2-.15c.053.039.11.073.17.1l-.24-.1c.069.025.139.045.21.06h-.26c.093.01.187.01.28 0h-.26l.25-.07-.24.1a.958.958 0 00.22-.13l-.2.16.16-.16-.16.21c.059-.08.11-.168.15-.26l-.1.24c.04-.1.071-.203.09-.31v.27a1.34 1.34 0 000-.4v.27a2.183 2.183 0 00-.11-.42l.1.25v-.09a1.202 1.202 0 01-.11-.81 1.1 1.1 0 01.48-.62c.245-.14.536-.179.81-.11a1.013 1.013 0 01.62.48c.102.214.179.439.23.67.03.236.03.475 0 .71a3.24 3.24 0 01-.07.45 3.125 3.125 0 01-.17.43 1.19 1.19 0 01-.11.19 2.44 2.44 0 01-.29.35 2.116 2.116 0 01-1.35.55 1.787 1.787 0 01-1.33-.51 2.208 2.208 0 01-.56-1.46 2.74 2.74 0 01.42-1.59c.157-.22.354-.41.58-.56a1.705 1.705 0 011.32-.23c.456.121.847.415 1.09.82a1.406 1.406 0 010 1.45.878.878 0 01-.47.36.825.825 0 01-.6-.08.792.792 0 01-.28-1.07l.02-.01z" fill="url(#paint53_linear_82_2)"/><path d="M267.23 474.9l-.08.18a.601.601 0 000-.12v.21a.33.33 0 000-.14v.21a.523.523 0 00-.05-.16l.09.2a1.083 1.083 0 00-.09-.15l.13.16a1.353 1.353 0 00-.17-.16l.17.13a.794.794 0 00-.23-.13l.2.08a.877.877 0 00-.23-.06h.23-.2.23-.15l.21-.09-.22.13.19-.14a.769.769 0 00-.18.18l.14-.19c-.082.107-.15.225-.2.35l.09-.23c-.051.14-.088.284-.11.43v-.25c-.02.17-.02.341 0 .51v-.26c.018.14.051.278.1.41l-.09-.23c.032.074.072.145.12.21l-.16-.2a.762.762 0 00.13.13l-.2-.15c.053.039.11.072.17.1l-.24-.1a.842.842 0 00.21.06h-.26a.66.66 0 00.28 0h-.26l.25-.07-.24.1a.73.73 0 00.22-.13l-.2.16c.058-.048.111-.102.16-.16l-.15.21c.059-.081.109-.168.15-.26l-.11.25c.043-.102.074-.21.09-.32v.27a1.34 1.34 0 000-.4v.27a2.258 2.258 0 00-.11-.42l.1.25a.451.451 0 000-.09 1.14 1.14 0 01-.1-.81 1 1 0 011.28-.72.947.947 0 01.62.48c.104.209.182.431.23.66.034.236.034.475 0 .71a3.755 3.755 0 01-.07.46 3.651 3.651 0 01-.17.42 1.948 1.948 0 01-.4.54c-.366.34-.841.539-1.34.56a1.859 1.859 0 01-1.34-.52 2.21 2.21 0 01-.56-1.45c-.016-.34.035-.68.15-1a2.39 2.39 0 01.27-.56c.157-.221.354-.41.58-.56a1.669 1.669 0 011.32-.22 1.79 1.79 0 011.09.81 1.385 1.385 0 010 1.45.882.882 0 01-.47.36.781.781 0 01-.6-.08.806.806 0 01-.28-1.07l.06-.04z" fill="url(#paint54_linear_82_2)"/><defs><linearGradient id="paint0_linear_82_2" x1="323.87" y1="366.937" x2="323.87" y2="483.027" gradientUnits="userSpaceOnUse"><stop stop-color="#144794"/><stop offset="1" stop-color="#06162E"/></linearGradient><linearGradient id="paint1_linear_82_2" x1="130.566" y1="503.61" x2="130.566" y2="662.252" gradientUnits="userSpaceOnUse"><stop stop-color="#144794"/><stop offset="1" stop-color="#06162E"/></linearGradient><linearGradient id="paint2_linear_82_2" x1="130.366" y1="502.471" x2="130.366" y2="663.311" gradientUnits="userSpaceOnUse"><stop stop-color="#144794"/><stop offset="1" stop-color="#06162E"/></linearGradient><linearGradient id="paint3_linear_82_2" x1="327.124" y1="481.89" x2="327.124" y2="802.43" gradientUnits="userSpaceOnUse"><stop stop-color="#144794"/><stop offset="1" stop-color="#06162E"/></linearGradient><linearGradient id="paint4_linear_82_2" x1="560.005" y1="197.6" x2="560.005" y2="545.57" gradientUnits="userSpaceOnUse"><stop stop-color="#144794"/><stop offset="1" stop-color="#06162E"/></linearGradient><linearGradient id="paint5_linear_82_2" x1="560.052" y1="195.75" x2="560.052" y2="547.43" gradientUnits="userSpaceOnUse"><stop stop-color="#144794"/><stop offset="1" stop-color="#06162E"/></linearGradient><linearGradient id="paint6_linear_82_2" x1="560.13" y1="319.958" x2="560.13" y2="423.079" gradientUnits="userSpaceOnUse"><stop stop-color="#144794"/><stop offset="1" stop-color="#06162E"/></linearGradient><linearGradient id="paint7_linear_82_2" x1="854.825" y1="283.32" x2="854.825" y2="523.68" gradientUnits="userSpaceOnUse"><stop stop-color="#144794"/><stop offset="1" stop-color="#06162E"/></linearGradient><linearGradient id="paint8_linear_82_2" x1="854.85" y1="281.453" x2="854.85" y2="525.49" gradientUnits="userSpaceOnUse"><stop stop-color="#144794"/><stop offset="1" stop-color="#06162E"/></linearGradient><linearGradient id="paint9_linear_82_2" x1="700.82" y1="506.68" x2="700.82" y2="668.889" gradientUnits="userSpaceOnUse"><stop stop-color="#144794"/><stop offset="1" stop-color="#06162E"/></linearGradient><linearGradient id="paint10_linear_82_2" x1="700.8" y1="564.08" x2="700.8" y2="611.52" gradientUnits="userSpaceOnUse"><stop stop-color="#144794"/><stop offset="1" stop-color="#06162E"/></linearGradient><linearGradient id="paint11_linear_82_2" x1="700.817" y1="562.249" x2="700.817" y2="613.45" gradientUnits="userSpaceOnUse"><stop stop-color="#144794"/><stop offset="1" stop-color="#06162E"/></linearGradient><linearGradient id="paint12_linear_82_2" x1="308.852" y1="303.64" x2="308.852" y2="351.961" gradientUnits="userSpaceOnUse"><stop stop-color="#144794"/><stop offset="1" stop-color="#06162E"/></linearGradient><linearGradient id="paint13_linear_82_2" x1="307.504" y1="316.381" x2="307.504" y2="319.153" gradientUnits="userSpaceOnUse"><stop stop-color="#144794"/><stop offset="1" stop-color="#06162E"/></linearGradient><linearGradient id="paint14_linear_82_2" x1="306.91" y1="309.53" x2="306.91" y2="312.006" gradientUnits="userSpaceOnUse"><stop stop-color="#144794"/><stop offset="1" stop-color="#06162E"/></linearGradient><linearGradient id="paint15_linear_82_2" x1="308.18" y1="331.48" x2="308.18" y2="333.654" gradientUnits="userSpaceOnUse"><stop stop-color="#144794"/><stop offset="1" stop-color="#06162E"/></linearGradient><linearGradient id="paint16_linear_82_2" x1="285.019" y1="312.087" x2="285.019" y2="327.721" gradientUnits="userSpaceOnUse"><stop stop-color="#144794"/><stop offset="1" stop-color="#06162E"/></linearGradient><linearGradient id="paint17_linear_82_2" x1="285.733" y1="318.19" x2="285.733" y2="321.341" gradientUnits="userSpaceOnUse"><stop stop-color="#144794"/><stop offset="1" stop-color="#06162E"/></linearGradient><linearGradient id="paint18_linear_82_2" x1="295.527" y1="285.774" x2="295.527" y2="332.333" gradientUnits="userSpaceOnUse"><stop stop-color="#144794"/><stop offset="1" stop-color="#06162E"/></linearGradient><linearGradient id="paint19_linear_82_2" x1="295.488" y1="284.737" x2="295.488" y2="333.395" gradientUnits="userSpaceOnUse"><stop stop-color="#144794"/><stop offset="1" stop-color="#06162E"/></linearGradient><linearGradient id="paint20_linear_82_2" x1="292.292" y1="350.209" x2="292.292" y2="365.618" gradientUnits="userSpaceOnUse"><stop stop-color="#144794"/><stop offset="1" stop-color="#06162E"/></linearGradient><linearGradient id="paint21_linear_82_2" x1="271.25" y1="329.368" x2="271.25" y2="343.17" gradientUnits="userSpaceOnUse"><stop stop-color="#144794"/><stop offset="1" stop-color="#06162E"/></linearGradient><linearGradient id="paint22_linear_82_2" x1="273.776" y1="336.368" x2="273.776" y2="379.487" gradientUnits="userSpaceOnUse"><stop stop-color="#144794"/><stop offset="1" stop-color="#06162E"/></linearGradient><linearGradient id="paint23_linear_82_2" x1="200.046" y1="349.266" x2="200.046" y2="538.668" gradientUnits="userSpaceOnUse"><stop stop-color="#144794"/><stop offset="1" stop-color="#06162E"/></linearGradient><linearGradient id="paint24_linear_82_2" x1="221.915" y1="375.72" x2="221.915" y2="523.229" gradientUnits="userSpaceOnUse"><stop stop-color="#144794"/><stop offset="1" stop-color="#06162E"/></linearGradient><linearGradient id="paint25_linear_82_2" x1="245.034" y1="521.439" x2="245.034" y2="537.33" gradientUnits="userSpaceOnUse"><stop stop-color="#144794"/><stop offset="1" stop-color="#06162E"/></linearGradient><linearGradient id="paint26_linear_82_2" x1="243.807" y1="540.144" x2="243.807" y2="563.018" gradientUnits="userSpaceOnUse"><stop stop-color="#144794"/><stop offset="1" stop-color="#06162E"/></linearGradient><linearGradient id="paint27_linear_82_2" x1="234.684" y1="553.27" x2="234.684" y2="563.607" gradientUnits="userSpaceOnUse"><stop stop-color="#144794"/><stop offset="1" stop-color="#06162E"/></linearGradient><linearGradient id="paint28_linear_82_2" x1="226.102" y1="550.643" x2="226.102" y2="561.205" gradientUnits="userSpaceOnUse"><stop stop-color="#144794"/><stop offset="1" stop-color="#06162E"/></linearGradient><linearGradient id="paint29_linear_82_2" x1="226.18" y1="518.889" x2="226.18" y2="559.145" gradientUnits="userSpaceOnUse"><stop stop-color="#144794"/><stop offset="1" stop-color="#06162E"/></linearGradient><linearGradient id="paint30_linear_82_2" x1="325.398" y1="520.78" x2="315.774" y2="526.682" gradientUnits="userSpaceOnUse"><stop stop-color="#144794"/><stop offset="1" stop-color="#06162E"/></linearGradient><linearGradient id="paint31_linear_82_2" x1="318.982" y1="524.716" x2="301.651" y2="535.344" gradientUnits="userSpaceOnUse"><stop stop-color="#144794"/><stop offset="1" stop-color="#06162E"/></linearGradient><linearGradient id="paint32_linear_82_2" x1="542.075" y1="373.518" x2="542.075" y2="402.681" gradientUnits="userSpaceOnUse"><stop stop-color="#144794"/><stop offset="1" stop-color="#06162E"/></linearGradient><linearGradient id="paint33_linear_82_2" x1="250.705" y1="514.665" x2="250.705" y2="618.402" gradientUnits="userSpaceOnUse"><stop stop-color="#144794"/><stop offset="1" stop-color="#06162E"/></linearGradient><linearGradient id="paint34_linear_82_2" x1="255.98" y1="548.027" x2="255.98" y2="606.135" gradientUnits="userSpaceOnUse"><stop stop-color="#144794"/><stop offset="1" stop-color="#06162E"/></linearGradient><linearGradient id="paint35_linear_82_2" x1="250.106" y1="537.947" x2="250.106" y2="596.052" gradientUnits="userSpaceOnUse"><stop stop-color="#144794"/><stop offset="1" stop-color="#06162E"/></linearGradient><linearGradient id="paint36_linear_82_2" x1="212.09" y1="567.087" x2="212.09" y2="585.912" gradientUnits="userSpaceOnUse"><stop stop-color="#144794"/><stop offset="1" stop-color="#06162E"/></linearGradient><linearGradient id="paint37_linear_82_2" x1="267.418" y1="527.857" x2="267.418" y2="557.287" gradientUnits="userSpaceOnUse"><stop stop-color="#144794"/><stop offset="1" stop-color="#06162E"/></linearGradient><linearGradient id="paint38_linear_82_2" x1="259.277" y1="384.757" x2="259.277" y2="492.141" gradientUnits="userSpaceOnUse"><stop stop-color="#144794"/><stop offset="1" stop-color="#06162E"/></linearGradient><linearGradient id="paint39_linear_82_2" x1="197.716" y1="433.822" x2="197.716" y2="446.42" gradientUnits="userSpaceOnUse"><stop stop-color="#144794"/><stop offset="1" stop-color="#06162E"/></linearGradient><linearGradient id="paint40_linear_82_2" x1="316.605" y1="517.223" x2="316.605" y2="537.199" gradientUnits="userSpaceOnUse"><stop stop-color="#144794"/><stop offset="1" stop-color="#06162E"/></linearGradient><linearGradient id="paint41_linear_82_2" x1="316.214" y1="477.364" x2="316.214" y2="508.552" gradientUnits="userSpaceOnUse"><stop stop-color="#144794"/><stop offset="1" stop-color="#06162E"/></linearGradient><linearGradient id="paint42_linear_82_2" x1="369.873" y1="478.675" x2="369.873" y2="514.908" gradientUnits="userSpaceOnUse"><stop stop-color="#144794"/><stop offset="1" stop-color="#06162E"/></linearGradient><linearGradient id="paint43_linear_82_2" x1="377.366" y1="483.391" x2="377.366" y2="490.639" gradientUnits="userSpaceOnUse"><stop stop-color="#144794"/><stop offset="1" stop-color="#06162E"/></linearGradient><linearGradient id="paint44_linear_82_2" x1="373.028" y1="488.334" x2="373.028" y2="495.655" gradientUnits="userSpaceOnUse"><stop stop-color="#144794"/><stop offset="1" stop-color="#06162E"/></linearGradient><linearGradient id="paint45_linear_82_2" x1="368.209" y1="492.502" x2="368.209" y2="500.865" gradientUnits="userSpaceOnUse"><stop stop-color="#144794"/><stop offset="1" stop-color="#06162E"/></linearGradient><linearGradient id="paint46_linear_82_2" x1="457.565" y1="392.6" x2="457.565" y2="486.2" gradientUnits="userSpaceOnUse"><stop stop-color="#144794"/><stop offset="1" stop-color="#06162E"/></linearGradient><linearGradient id="paint47_linear_82_2" x1="338.79" y1="499.16" x2="338.79" y2="527.21" gradientUnits="userSpaceOnUse"><stop stop-color="#144794"/><stop offset="1" stop-color="#06162E"/></linearGradient><linearGradient id="paint48_linear_82_2" x1="362.036" y1="478.739" x2="362.036" y2="490.59" gradientUnits="userSpaceOnUse"><stop stop-color="#144794"/><stop offset="1" stop-color="#06162E"/></linearGradient><linearGradient id="paint49_linear_82_2" x1="286.141" y1="386.159" x2="286.141" y2="390.522" gradientUnits="userSpaceOnUse"><stop stop-color="#144794"/><stop offset="1" stop-color="#06162E"/></linearGradient><linearGradient id="paint50_linear_82_2" x1="282.301" y1="403.649" x2="282.301" y2="408.011" gradientUnits="userSpaceOnUse"><stop stop-color="#144794"/><stop offset="1" stop-color="#06162E"/></linearGradient><linearGradient id="paint51_linear_82_2" x1="278.471" y1="421.089" x2="278.471" y2="425.452" gradientUnits="userSpaceOnUse"><stop stop-color="#144794"/><stop offset="1" stop-color="#06162E"/></linearGradient><linearGradient id="paint52_linear_82_2" x1="274.659" y1="438.512" x2="274.659" y2="442.881" gradientUnits="userSpaceOnUse"><stop stop-color="#144794"/><stop offset="1" stop-color="#06162E"/></linearGradient><linearGradient id="paint53_linear_82_2" x1="270.87" y1="455.945" x2="270.87" y2="460.342" gradientUnits="userSpaceOnUse"><stop stop-color="#144794"/><stop offset="1" stop-color="#06162E"/></linearGradient><linearGradient id="paint54_linear_82_2" x1="267.061" y1="473.419" x2="267.061" y2="477.781" gradientUnits="userSpaceOnUse"><stop stop-color="#144794"/><stop offset="1" stop-color="#06162E"/></linearGradient></defs></svg>