<svg width="700" height="470" fill="none" xmlns="http://www.w3.org/2000/svg"><path fill-rule="evenodd" clip-rule="evenodd" d="M532.857 113.056l.794 306.146-39.206 5.302 17.589-315.199" fill="url(#paint0_linear_90_216)"/><path fill-rule="evenodd" clip-rule="evenodd" d="M528.918 191.215c2.624 3.376 9.743 32.272 9.743 32.272l-14.232-11.416-8.832 15.467-3.948-14.292-14.6 13.591 11.554-38.11s17.69-.888 20.315 2.488z" fill="url(#paint1_linear_90_216)"/><path fill-rule="evenodd" clip-rule="evenodd" d="M527.069 283.828l13.626 39.923-17.965-10.527-9.06 15.429-3.947-14.292-13.893 6.627 9.455-35.935 21.784-1.225z" fill="url(#paint2_linear_90_216)"/><mask id="a" style="mask-type:luminance" maskUnits="userSpaceOnUse" x="519" y="0" width="41" height="107"><path d="M519.814 0h39.248v106.852h-39.248V0z" fill="#fff"/></mask><g mask="url(#a)"><path fill-rule="evenodd" clip-rule="evenodd" d="M519.814 106.292c8.739 1.8 22.298-.6 26.38-9.265-2.179-.488-5.505.388-7.684-.1 11.91-7.565 15.986-12.39 20.27-25.982-7.782 8.915-6.422 5.614-10.815 8.327 8.251-8.893 11.118-17.157 11.097-28.733-2.102 3.264-2.34 5.59-9.259 10.64 4.313-11.753 5.796-9.89 7.075-26.269-1.854 1.863-5.126 6.94-6.98 8.802.777-3.405-.884-40.547-10.748-43.712 0 0 4.371 26.633-1.266 37.373-2.348-1.025-7.58-3.55-9.927-4.588 2.633 9.002 5.649 16.066 5.725 25.982-2.514-1.576-4.651-5.164-7.167-6.74 4.445 19.668-2.994 35.847-6.701 54.265z" fill="url(#paint3_linear_90_216)"/></g><path fill-rule="evenodd" clip-rule="evenodd" d="M520.554 106.292c6.47-6.152 12.257-18.643 7.476-26.945-1.642 1.513-2.829 4.739-4.47 6.252.598-14.104-1.032-20.206-9.732-31.484 2.86 11.478.934 8.477.648 13.629-2.576-11.84-7.722-18.935-17.232-25.52 1.475 3.589 3.251 5.114 3.439 13.679-7.177-10.265-4.802-10.415-17.508-20.83.464 2.588 2.766 8.176 3.23 10.765-2.355-2.595-33.773-22.454-42.014-16.18 0 0 24.351 11.641 29.949 22.419-2.192 1.325-7.248 4.189-9.44 5.514 8.886 2.988 16.409 4.551 24.584 10.153-2.726 1.163-6.898.862-9.623 2.025 18.681 7.602 27.703 22.957 40.693 36.523z" fill="url(#paint4_linear_90_216)"/><path fill-rule="evenodd" clip-rule="evenodd" d="M522.679 107.492c-3.534-8.19-13.263-17.93-22.71-16.304.853 2.063 3.474 4.288 4.326 6.352-13.027-5.427-19.319-6.002-32.909-1.726 11.759 1.275 8.279 2.038 13.019 4.089-12.008-1.668-20.429.731-29.906 7.364 3.879-.138 5.923-1.275 14.027 1.501-12.102 3.188-11.427.912-25.582 9.252 2.584.45 8.627.212 11.21.675-3.244 1.325-32.728 23.96-29.67 33.859 0 0 19.324-18.842 31.363-20.38.496 2.513 1.432 8.24 1.928 10.765 5.863-7.314 9.928-13.841 18.005-19.58.155 2.963-1.568 6.777-1.413 9.74 13.575-14.917 31.098-18.092 48.312-25.607z" fill="url(#paint5_linear_90_216)"/><path fill-rule="evenodd" clip-rule="evenodd" d="M520.602 101.578c-7.149 5.339-14.37 17.055-10.601 25.87 1.809-1.301 3.367-4.377 5.176-5.677-2.257 13.929-1.359 20.18 5.949 32.409-1.485-11.728.073-8.527.967-13.616 1.159 12.074 5.436 19.716 14.1 27.382-1.042-3.738-2.626-5.464-1.803-13.991 5.917 11.04 3.541 10.903 14.931 22.744-.156-2.614-1.783-8.44-1.939-11.066 2.03 2.85 30.9 26.281 39.814 21.018 0 0-22.81-14.429-27.098-25.782 2.334-1.062 7.692-3.3 10.026-4.376-8.472-4.001-15.759-6.452-23.216-12.979 2.845-.837 6.952-.037 9.797-.875-17.655-9.752-24.804-26.057-36.103-41.061z" fill="url(#paint6_linear_90_216)"/><path fill-rule="evenodd" clip-rule="evenodd" d="M524.167 103.766c-8.921-.038-21.742 4.989-24.035 14.291 2.232.038 5.321-1.462 7.552-1.425-10.184 9.765-13.23 15.304-14.75 29.471 5.873-10.266 5.189-6.765 8.962-10.291-6.335 10.323-7.52 19.021-5.215 30.346 1.418-3.601 1.19-5.939 6.978-12.253-1.912 12.378-3.732 10.84-1.758 27.145 1.452-2.188 3.657-7.815 5.108-10.003-.091 3.5 8.866 39.581 19.155 40.749 0 0-9.535-25.257-6.128-36.898 2.506.55 8.132 1.988 10.638 2.538-4.355-8.302-8.705-14.641-10.734-24.331 2.775 1.037 5.579 4.138 8.355 5.188-8.236-18.417-4.132-35.734-4.128-54.527z" fill="url(#paint7_linear_90_216)"/><path fill-rule="evenodd" clip-rule="evenodd" d="M521.641 103.491c1.339 8.828 8.276 20.718 17.825 21.544-.302-2.213-2.271-5.027-2.572-7.24 11.223 8.552 17.162 10.703 31.391 10.028-11.049-4.226-7.488-4.089-11.551-7.277 11.191 4.67 19.944 4.504 30.796.475-3.789-.85-6.055-.262-13.189-5.001 12.519-.025 11.286 2.013 27.093-2.464-2.383-1.087-8.286-2.4-10.671-3.5 3.467-.448 37.731-14.864 37.296-25.207 0 0-23.476 13.316-35.511 11.74.16-2.55.709-8.34.869-10.903-7.528 5.59-13.115 10.866-22.387 14.367.603-2.9 3.238-6.152 3.839-9.053-16.916 10.978-34.669 9.591-53.228 12.491z" fill="url(#paint8_linear_90_216)"/><path fill-rule="evenodd" clip-rule="evenodd" d="M95.205 126.86l-.793 306.133 39.206 5.302-17.59-315.199" fill="url(#paint9_linear_90_216)"/><path fill-rule="evenodd" clip-rule="evenodd" d="M99.145 205.019c-2.624 3.363-9.745 32.271-9.745 32.271l14.234-11.428 8.833 15.479 3.947-14.291 14.6 13.579-11.554-38.098s-17.69-.888-20.314 2.488z" fill="url(#paint10_linear_90_216)"/><path fill-rule="evenodd" clip-rule="evenodd" d="M100.994 297.619l-13.627 39.924 17.965-10.528 9.06 15.429 3.948-14.291 13.892 6.626-9.456-35.922-21.782-1.238z" fill="url(#paint11_linear_90_216)"/><path fill-rule="evenodd" clip-rule="evenodd" d="M108.249 120.083c-8.739 1.801-22.297-.588-26.38-9.265 2.18-.488 5.506.388 7.685-.088-11.91-7.577-15.987-12.403-20.27-25.982 7.781 8.903 6.421 5.602 10.815 8.315-8.25-8.885-11.12-17.156-11.097-28.733 2.102 3.264 2.34 5.602 9.259 10.64-4.314-11.74-5.797-9.89-7.076-26.256 1.855 1.85 5.127 6.94 6.98 8.79-.777-3.41.885-40.536 10.748-43.712 0 0-4.37 26.632 1.266 37.385 2.347-1.038 7.581-3.551 9.928-4.589-2.633 8.99-5.65 16.054-5.727 25.97 2.516-1.563 4.653-5.165 7.167-6.74-4.444 19.68 2.996 35.86 6.702 54.265z" fill="url(#paint12_linear_90_216)"/><path fill-rule="evenodd" clip-rule="evenodd" d="M107.509 120.083c-6.47-6.139-12.257-18.63-7.475-26.945 1.641 1.513 2.827 4.739 4.47 6.252-.599-14.091 1.031-20.193 9.731-31.484-2.86 11.478-.934 8.478-.648 13.641 2.575-11.85 7.716-18.935 17.233-25.531-1.476 3.588-3.251 5.114-3.44 13.678 7.177-10.253 4.801-10.415 17.508-20.818-.463 2.576-2.765 8.177-3.229 10.753 2.352-2.586 33.783-22.449 42.014-16.167 0 0-24.352 11.64-29.951 22.406 2.193 1.338 7.248 4.189 9.441 5.527-8.886 2.976-16.409 4.538-24.584 10.14 2.726 1.175 6.897.863 9.623 2.038-18.68 7.59-27.703 22.944-40.693 36.51z" fill="url(#paint13_linear_90_216)"/><path fill-rule="evenodd" clip-rule="evenodd" d="M105.385 121.296c3.535-8.202 13.263-17.942 22.71-16.317-.853 2.063-3.474 4.289-4.326 6.352 13.027-5.427 19.317-6.002 32.907-1.726-11.758 1.276-8.277 2.051-13.017 4.102 12.008-1.681 20.437.708 29.904 7.364-3.877-.15-5.922-1.288-14.026 1.488 12.103 3.201 11.428.913 25.582 9.252-2.583.451-8.626.226-11.211.676 3.239 1.317 32.72 23.964 29.672 33.859 0 0-19.325-18.843-31.363-20.381-.497 2.514-1.432 8.253-1.928 10.766-5.863-7.314-9.928-13.829-18.006-19.568-.154 2.951 1.569 6.764 1.414 9.728-13.575-14.917-31.098-18.093-48.312-25.595z" fill="url(#paint14_linear_90_216)"/><path fill-rule="evenodd" clip-rule="evenodd" d="M107.461 115.369c7.15 5.339 14.371 17.067 10.601 25.882-1.808-1.313-3.366-4.376-5.175-5.689 2.256 13.929 1.358 20.18-5.951 32.409 1.487-11.728-.072-8.527-.965-13.604-1.159 12.059-5.437 19.711-14.1 27.383 1.041-3.739 2.624-5.464 1.802-13.992-5.917 11.028-3.54 10.904-14.93 22.744.156-2.625 1.782-8.452 1.939-11.065-2.032 2.843-30.895 26.277-39.815 21.005 0 0 22.81-14.428 27.098-25.782-2.334-1.062-7.691-3.301-10.026-4.364 8.473-4.013 15.758-6.451 23.216-12.978-2.844-.838-6.951-.05-9.796-.888 17.655-9.74 24.803-26.057 36.102-41.061z" fill="url(#paint15_linear_90_216)"/><path fill-rule="evenodd" clip-rule="evenodd" d="M103.895 117.57c8.922-.038 21.743 4.976 24.036 14.279-2.232.05-5.322-1.463-7.554-1.426 10.186 9.778 13.23 15.305 14.752 29.471-5.873-10.265-5.189-6.764-8.962-10.29 6.338 10.344 7.517 19.014 5.215 30.358-1.418-3.614-1.192-5.939-6.978-12.266 1.911 12.378 3.732 10.84 1.758 27.157-1.452-2.188-3.658-7.814-5.109-10.002.092 3.485-8.869 39.575-19.156 40.736 0 0 9.535-25.244 6.13-36.898-2.506.55-8.133 1.988-10.638 2.539 4.355-8.303 8.705-14.63 10.733-24.332-2.775 1.038-5.578 4.151-8.354 5.189 8.235-18.405 4.13-35.735 4.127-54.515z" fill="url(#paint16_linear_90_216)"/><mask id="b" style="mask-type:luminance" maskUnits="userSpaceOnUse" x="0" y="98" width="107" height="44"><path d="M0 98.64h106.422v43.093H0V98.64z" fill="#fff"/></mask><g mask="url(#b)"><path fill-rule="evenodd" clip-rule="evenodd" d="M106.422 117.295c-1.339 8.815-8.276 20.706-17.825 21.531.302-2.201 2.27-5.026 2.572-7.24-11.223 8.553-17.162 10.716-31.392 10.028 11.05-4.213 7.488-4.088 11.552-7.264-11.19 4.66-19.95 4.497-30.796.462 3.788-.837 6.056-.262 13.188-5.001-12.518-.025-11.285 2.013-27.092-2.451 2.383-1.1 8.287-2.413 10.67-3.5-3.464-.454-37.731-14.875-37.295-25.22 0 0 23.475 13.316 35.511 11.753-.16-2.563-.71-8.34-.87-10.903 7.528 5.577 13.116 10.853 22.387 14.354-.602-2.901-3.237-6.151-3.839-9.052 16.917 10.978 34.67 9.602 53.229 12.503z" fill="url(#paint17_linear_90_216)"/></g><path fill-rule="evenodd" clip-rule="evenodd" d="M96.818 427.68c25.485-11.729 90.107-21.821 123.651-24.095 34.833-4.476 69.298-10.052 104.589-8.252 54.189 7.361 113.435 16.192 167.183 26.608" fill="#fff"/><path d="M255.169 398.225l1.759-.214c27.69-3.346 47.804-4.547 68.172-3.508a.826.826 0 01.07.006l3.881.529c30.953 4.226 59.525 8.391 86.132 12.608l3.315.528c26.444 4.222 50.939 8.5 73.901 12.95a.832.832 0 01-.316 1.633c-41.11-7.967-87.147-15.386-140.493-22.913l-3.734-.525a5315.064 5315.064 0 00-17.1-2.37l-3.867-.528-1.909-.259-.604-.03c-20.475-.998-40.803.284-69.043 3.749l-1.739.215-2.064.258-2.527.321-4.141.536-7.334.967-12.88 1.704-3.061.397-1.013.131-.024.003-.025.002c-3.671.248-7.657.586-11.875 1.002l-1.212.121-1.223.125-1.235.13c-1.241.131-2.499.269-3.772.412l-1.277.146-.642.074-1.292.151-1.301.156-1.308.159a613.4 613.4 0 00-2.641.329l-1.332.17-1.338.173c-1.117.146-2.241.296-3.371.449l-1.357.186-2.045.285-1.369.193c-1.142.163-2.287.329-3.435.499l-1.379.204-1.381.208-.691.105-1.383.212-1.383.215-1.385.218a803.01 803.01 0 00-3.459.557l-1.383.227-1.38.23-1.379.233-1.376.234-.687.119-1.372.238c-1.37.24-2.735.483-4.092.73-25.896 4.702-46.873 10.131-58.604 15.53a.832.832 0 01-.696-1.511c11.893-5.473 32.978-10.93 59.003-15.656 1.361-.247 2.729-.491 4.102-.731l1.376-.239c1.147-.198 2.298-.394 3.451-.587l1.384-.231 1.386-.228 1.387-.225 1.387-.222 1.388-.22c.694-.109 1.388-.218 2.081-.325l1.387-.212 1.385-.21 1.384-.207 1.381-.204 1.378-.2 1.376-.198 1.372-.194c2.512-.353 5.004-.69 7.464-1.009l1.338-.172.667-.085 1.328-.167 1.32-.163 1.313-.16.653-.078 1.3-.154 1.291-.149c1.286-.148 2.558-.29 3.813-.426l1.25-.134a420.454 420.454 0 0115.069-1.346l.505-.035 4.609-.598 18.518-2.449 4.207-.547 2.518-.322 2.251-.284 2.677-.332z" fill="url(#paint18_linear_90_216)"/><path fill-rule="evenodd" clip-rule="evenodd" d="M388.253 469.247c2.414 0 2.417-3.75 0-3.75-2.414 0-2.417 3.75 0 3.75z" fill="url(#paint19_linear_90_216)"/><path fill-rule="evenodd" clip-rule="evenodd" d="M331.396 445.557c2.413 0 2.417-3.751 0-3.751-2.414 0-2.418 3.751 0 3.751z" fill="url(#paint20_linear_90_216)"/><path fill-rule="evenodd" clip-rule="evenodd" d="M293.491 440.819c2.414 0 2.418-3.751 0-3.751-2.413 0-2.417 3.751 0 3.751z" fill="url(#paint21_linear_90_216)"/><path fill-rule="evenodd" clip-rule="evenodd" d="M277.38 450.295c2.414 0 2.418-3.751 0-3.751-2.414 0-2.418 3.751 0 3.751z" fill="url(#paint22_linear_90_216)"/><path fill-rule="evenodd" clip-rule="evenodd" d="M230.946 451.243c2.414 0 2.418-3.751 0-3.751-2.413 0-2.417 3.751 0 3.751z" fill="url(#paint23_linear_90_216)"/><path fill-rule="evenodd" clip-rule="evenodd" d="M309.601 421.866c2.413 0 2.417-3.751 0-3.751-2.414 0-2.418 3.751 0 3.751z" fill="url(#paint24_linear_90_216)"/><path fill-rule="evenodd" clip-rule="evenodd" d="M348.452 431.343c2.414 0 2.418-3.751 0-3.751-2.413 0-2.417 3.751 0 3.751z" fill="url(#paint25_linear_90_216)"/><path fill-rule="evenodd" clip-rule="evenodd" d="M54.906 427.829c9.466-4.171 28.885-11.22 54.089-9.632 24.346 1.533 76.32 28.163 85.208 33.342" fill="#fff"/><path d="M75.864 420.042a116.292 116.292 0 0133.183-2.675c10.952.69 28.039 6.348 48.682 15.372l.864.379.867.382.87.387.872.389.874.392.875.395.875.397.876.4.875.401.874.402.873.404.871.405.868.406.866.406.861.406.858.406.853.406.848.404.842.404.836.403.829.401 1.23.598.811.396.801.394 1.185.585.778.386.768.382.757.379.745.374.733.371.721.365.707.361.694.356.68.35.335.173.658.342.643.335.626.329.61.322.594.315.29.155.567.305.276.149.54.293.262.143.511.28.49.272.471.263.449.254.428.245.406.235a.831.831 0 11-.838 1.437l-.402-.233-.424-.243-.221-.125-.456-.256a49.93 49.93 0 00-.236-.132l-.487-.27-.251-.138-.517-.283-.536-.29-.554-.299-.572-.306-.59-.313-.607-.32-.623-.328-.639-.333-.655-.34-.669-.345-.684-.351-.697-.357-.711-.361-.724-.367-.735-.37-1.126-.564-.764-.381-.775-.384-.784-.388-.794-.39-.802-.393-.811-.396-.819-.397-.826-.4-1.251-.602-.841-.402-.848-.404-.852-.404-.427-.202-.859-.405-.861-.404-.865-.404-.868-.404-.869-.402-.871-.401-.872-.4-.873-.397-.436-.199-.872-.394-.871-.392-.869-.39-.868-.386-.433-.192-.864-.381-.861-.377c-20.469-8.949-37.422-14.562-48.119-15.236a114.624 114.624 0 00-32.71 2.637 114.175 114.175 0 00-20.992 6.926.832.832 0 01-.67-1.522 115.83 115.83 0 0121.293-7.026z" fill="url(#paint26_linear_90_216)"/><path fill-rule="evenodd" clip-rule="evenodd" d="M480.949 428.57c8.891-6.57 20.721-13.608 35.565-18.523 46.353-15.348 87.985 1.298 101.51 7.409" fill="#fff"/><path d="M516.253 409.257c20.912-6.924 42.278-7.933 63.464-4.373a155.762 155.762 0 0123.521 5.889 158.384 158.384 0 018.926 3.276l.671.272c1.561.636 3.08 1.285 4.574 1.948l.638.286.319.143a.832.832 0 01-.685 1.516 155.46 155.46 0 00-9.195-3.813l-.696-.261a160.83 160.83 0 00-5.078-1.789 154.072 154.072 0 00-23.271-5.827c-20.933-3.518-42.029-2.521-62.666 4.312-13.176 4.363-24.862 10.665-35.332 18.403a.832.832 0 01-.988-1.338c10.605-7.837 22.444-14.223 35.798-18.644z" fill="url(#paint27_linear_90_216)"/><path fill-rule="evenodd" clip-rule="evenodd" d="M345.385 266.611c1.292 4.925 4.458 12.723 9.746 14.154l8.161 19.73c2.689-1.518 14.092-6.769 18.164-7.876.71-.664-5.455-13.005-6.009-14.117-6.309-12.604-8.289-23.407-25.711-20.181" fill="#fff"/><path d="M349.584 257.503c6.668-1.234 11.475-.527 15.152 2.048 1.239.868 2.317 1.89 3.34 3.177l.149.191.149.194.074.098.147.2c.148.202.294.41.44.625l.146.216.073.11.146.224.073.113.145.23.073.116.146.237.145.241.073.123.146.249.146.253.074.129.147.261.073.132.148.269.148.273.149.279.149.285.151.289.151.296.152.3.154.307.154.312.155.318.157.324.188.394 1.676 3.588.903 1.916.589 1.234.235.486.139.285.63 1.27.399.809.207.423a264.359 264.359 0 011.938 4.046l.253.545.201.434.226.492.287.633.271.608.193.437.184.422.117.272.113.265.108.258.104.25.148.362.092.231.088.223.085.22.082.214.076.206.036.1.068.192.063.184.057.174.052.166.047.157c.022.076.041.149.059.218.067.26.107.48.118.673.02.359-.041.659-.318.917a.832.832 0 01-.349.195 17.53 17.53 0 00-.967.298l-.282.096-.297.104-.311.112-.16.058-.331.122-.342.129-.354.136-.365.141-.374.147-.384.153-.392.157-.602.245-.41.169-.416.172-.421.177-.425.179-.429.182-.432.185-.434.187-.654.284-.436.191-.653.288-.65.289-.644.29-.425.192-.42.192-.415.19-.41.189-.601.28-.583.274-.564.268-.541.261-.347.169-.498.245-.316.158-.303.153-.146.075-.28.144-.134.07-.257.136a6.868 6.868 0 00-.123.066l-.231.126c-.075.041-.146.08-.214.119a.832.832 0 01-1.16-.368l-.018-.038-8.01-19.366-.013-.004c-2.463-.817-4.586-2.885-6.383-5.897l-.074-.127c-1.481-2.517-2.673-5.589-3.463-8.597a.832.832 0 011.609-.422c.753 2.87 1.892 5.804 3.287 8.176 1.712 2.911 3.694 4.796 5.872 5.386a.83.83 0 01.533.443l.018.042 7.808 18.877.267-.139.254-.131.265-.134.275-.139.286-.142.446-.22.467-.226.484-.233.672-.319.522-.245.355-.165.36-.167.549-.252.558-.254.565-.256.763-.341.576-.256.579-.255.579-.252.578-.25.575-.246.38-.162.567-.239.373-.156.37-.154.547-.225.536-.218.523-.21.341-.135.334-.131.327-.127.319-.122.311-.118.301-.112.293-.108.143-.051.277-.099.135-.048.262-.09.127-.043.244-.082.118-.038.091-.029-.02-.072-.038-.131-.043-.141-.049-.151-.027-.079-.057-.166c-.009-.029-.02-.057-.03-.086l-.065-.18-.07-.19-.075-.198-.118-.303-.085-.214-.089-.222-.143-.346-.152-.363-.161-.378-.17-.394-.179-.41-.253-.568-.2-.443-.137-.303-.213-.467-.269-.583-.252-.54a244.663 244.663 0 00-1.704-3.567l-.325-.665-.401-.816-.726-1.465-.179-.365-.372-.772-.276-.58-.693-1.466-2.063-4.413-.153-.319-.151-.312-.15-.307-.149-.301-.221-.44-.146-.287-.145-.281-.144-.276-.143-.27-.142-.265-.141-.26-.141-.254-.07-.126-.14-.247-.07-.121-.139-.24-.069-.118-.139-.232-.138-.228-.138-.223-.069-.109-.137-.216-.138-.212-.138-.207a21.308 21.308 0 00-.414-.596l-.138-.19-.139-.187-.139-.182c-.093-.12-.186-.238-.28-.353l-.141-.171a16.666 16.666 0 00-.499-.57l-.145-.155a13.482 13.482 0 00-2.079-1.8c-3.273-2.292-7.634-2.934-13.895-1.775a.83.83 0 11-.303-1.635z" fill="url(#paint28_linear_90_216)"/><path fill-rule="evenodd" clip-rule="evenodd" d="M335.514 242.867l30.027-.763-12.684 10.628.543 13.766 8.13 2.488-20.812 1.413 9.43-3.251-.434-14.316-14.2-9.965z" fill="#fff"/><path d="M335.491 242.035l-.04.002c-.771.054-1.061 1.058-.416 1.51l13.859 9.726.403 13.288-8.851 3.052c-.919.317-.642 1.682.327 1.616l20.812-1.413.042-.004c.883-.099 1.014-1.355.145-1.621l-7.565-2.315-.504-12.769 12.371-10.366c.603-.505.231-1.488-.555-1.468l-30.028.762zm2.563 1.599l25.127-.638-10.859 9.098a.835.835 0 00-.297.671l.543 13.766.003.042a.83.83 0 00.585.72l3.818 1.169-10.07.684 3.514-1.212a.83.83 0 00.56-.811l-.434-14.316-.003-.047a.83.83 0 00-.35-.609l-12.137-8.517z" fill="url(#paint29_linear_90_216)"/><path fill-rule="evenodd" clip-rule="evenodd" d="M351.338 250.981l-8.367-5.726 15.466-.063-7.099 5.789z" fill="url(#paint30_linear_90_216)"/><path fill-rule="evenodd" clip-rule="evenodd" d="M493.111 244.33c2.538 2.188.18-1.788 6.799 7.989 10.196 15.055-14.649 24.832-24.644 17.818-16.201-11.391 2.039-39.436 17.845-25.807z" fill="url(#paint31_linear_90_216)"/><path fill-rule="evenodd" clip-rule="evenodd" d="M432.916 268.986l19.512 22.781 30.511-29.883-16.291-7.652-33.732 14.754z" fill="#fff"/><path d="M466.314 253.471l-33.731 14.754a.831.831 0 00-.299 1.302l19.512 22.782a.832.832 0 001.213.053l30.511-29.884a.83.83 0 00-.228-1.346l-16.291-7.652a.832.832 0 00-.687-.009zm.321 1.674l14.866 6.983-29.021 28.423-18.202-21.253 32.357-14.153z" fill="url(#paint32_linear_90_216)"/><path fill-rule="evenodd" clip-rule="evenodd" d="M483.996 265.36c8.406-5.114 12.078-10.265 9.804-18.818-3.499-14.152-26.351-4.314-34.773 1.675-8.526 14.737 11.382 25.123 24.969 17.143z" fill="#fff"/><path d="M478.097 239.011c-2.102.42-4.342 1.076-6.583 1.891l-.42.155a61.808 61.808 0 00-5.37 2.303l-.4.195c-.728.361-1.442.732-2.135 1.11l-.376.207a46.106 46.106 0 00-4.268 2.667.826.826 0 00-.237.262c-4.184 7.231-2.089 14.188 4.477 18.215 6.217 3.815 14.909 4.01 21.632.061 9.292-5.653 12.444-11.259 10.186-19.748-.895-3.622-3.052-5.995-6.252-7.122-2.77-.976-6.252-.995-10.254-.196zm14.896 7.731c2.045 7.692-.719 12.609-9.429 17.908-6.175 3.626-14.209 3.446-19.91-.051l-.173-.108c-5.629-3.548-7.376-9.381-3.844-15.665l.021-.037.147-.103a45.878 45.878 0 014.011-2.468l.366-.2.184-.099.372-.197.376-.196c.691-.358 1.4-.707 2.121-1.044l.394-.183c3.559-1.635 7.378-2.974 10.794-3.657 7.946-1.588 13.12.235 14.57 6.1z" fill="url(#paint33_linear_90_216)"/><path fill-rule="evenodd" clip-rule="evenodd" d="M468.367 272.625c4.213-.063 10.283-6.084 10.88-10.765.722-5.177-6.304-2.239-8.621-.889-3.589 2.089-4.143 6.39-5.345 9.828" fill="#fff"/><path fill-rule="evenodd" clip-rule="evenodd" d="M489.77 262.972c11.838 1.408 12.858-6.079 7.419-17.367-2.16-5.314.321-10.115-5.017-12.891-6.739-3.501-12.029 6.764-12.029 6.764s.616 6.639 2.443 10.728c1.281 2.876 4.112 5.376 4.487 8.377.112.901-.165 4.139 2.697 4.389z" fill="url(#paint34_linear_90_216)"/><path fill-rule="evenodd" clip-rule="evenodd" d="M481.926 262.547c5.725 4.739-4.672 9.853-5.906 2.501l5.906-2.501z" fill="#fff"/><path d="M481.285 262.017a.832.832 0 011.171-.111c1.551 1.284 2.219 2.766 1.954 4.215-.234 1.276-1.182 2.359-2.476 2.964-1.284.599-2.765.662-4.01.097-1.422-.645-2.393-2.022-2.725-3.997a.832.832 0 011.64-.275c.244 1.452.879 2.352 1.772 2.758.781.354 1.757.313 2.619-.09.837-.391 1.414-1.051 1.544-1.757.147-.805-.26-1.708-1.379-2.634a.831.831 0 01-.11-1.17z" fill="url(#paint35_linear_90_216)"/><path d="M475.272 244.886a.831.831 0 01.534 1.574l-.039.014-6.771 2.111.198 1.976a.832.832 0 01-.703.905l-.042.005a.832.832 0 01-.905-.703l-.005-.042-.265-2.65a.832.832 0 01.541-.864l.039-.013 7.418-2.313z" fill="url(#paint36_linear_90_216)"/><path fill-rule="evenodd" clip-rule="evenodd" d="M475.669 265.773c.3 2.863-7.207 3.301-9.874 3.126-23.336-2.596-17.717-23.049-2.498-25.42 3.056 9.512 1.301 14.915 12.24 19.493 0 0 .03 1.851.132 2.801z" fill="url(#paint37_linear_90_216)"/><path fill-rule="evenodd" clip-rule="evenodd" d="M350.783 336.142c-18.171.5-72.507-26.369-72.507-26.369l-41.065 22.981-24.852-18.418c5.108-6.201 47.668-33.709 59.399-35.822 28.511 1.441 60.736 16.442 89.474 16.567 0 0 51.331-31.771 64.115-30.471 5.474.563 23.234-.062 27.568 2.013 13.262 6.389 18.565 19.055-.066 32.822 0 0-83.896 36.197-102.066 36.697z" fill="#fff"/><path d="M394.337 275.332c-.92.475-1.852.962-2.794 1.458l-.946.501-.953.507-.959.514c-.482.258-.966.52-1.452.783a575.63 575.63 0 00-17.676 10.015l-1.333.787-1.233.732-1.187.709-.689.413-1.11.668-.851.514-1.496.911-.66.404-.368-.003c-6.175-.071-12.796-.822-20.26-2.215l-.555-.104-.375-.072c-.375-.072-.75-.144-1.126-.219l-.377-.074c-.376-.075-.754-.151-1.133-.229l-.723-.15-.863-.181-.697-.15-.882-.192-.894-.199-.909-.205-.553-.126-.937-.217-1.151-.271-.983-.234-1.006-.243-1.243-.304-1.283-.317-1.102-.276-1.832-.462-1.677-.428-5.847-1.513-4.419-1.144-2.278-.585-1.877-.477-1.36-.343-1.106-.276-1.397-.344-1.163-.283-1.273-.304-.924-.217-.906-.209-.745-.17-.887-.199-.935-.206-.829-.179c-.417-.09-.838-.18-1.265-.27l-.363-.076-.721-.149-.716-.146-.709-.141-.704-.138-.699-.135-.693-.13-.687-.127a160.861 160.861 0 00-3.692-.629l-.656-.102c-4.029-.617-7.799-1.018-11.418-1.201a.757.757 0 00-.19.012c-3.078.554-8.322 2.82-14.9 6.296l-.71.378a229.37 229.37 0 00-5.236 2.887l-.784.446-.395.226-.795.459c-.4.231-.803.465-1.208.702l-.815.477c-.545.321-1.096.647-1.651.978l-.836.499c-.419.252-.841.506-1.265.763l-.852.517-.858.524-.864.53c-.433.267-.868.536-1.305.808l-.395.245-.786.491-.782.491-.778.49-.387.245-.77.49-.383.244-.762.488-.379.244-.753.486-.374.242-.743.484-.368.24-.733.481-.363.239-.721.476-.712.473-.704.471-.349.233-.691.466-.342.231-.676.459-.667.455-.329.226-.651.449-.64.444-.628.438-.31.218-.611.43-.301.214-.593.422-.292.208-.573.413-.56.407c-.554.403-1.087.796-1.598 1.178l-.504.378-.488.37-.239.182-.465.359c-2.439 1.889-4.195 3.421-5.019 4.422a.83.83 0 00.147 1.196l24.852 18.418.038.027c.258.17.591.183.863.031l40.684-22.769 1.017.497 1.361.657 1.128.541 1.179.563.98.464 1.011.477 1.041.489.531.248a579.178 579.178 0 0020.405 9.08 409.64 409.64 0 0011.561 4.669l.901.345c.747.285 1.485.564 2.213.835l.87.323c12.686 4.681 22.422 7.237 28.307 7.075 6.374-.176 20.701-4.526 40.968-12.038l1.391-.517c1.4-.522 2.827-1.059 4.282-1.609l1.463-.556 1.481-.565 1.318-.505 1.328-.511.668-.258 1.343-.52 1.352-.525 1.362-.532.685-.267c9.85-3.857 19.999-7.977 29.919-12.107l2.247-.938 1.967-.823 2.52-1.06 2.974-1.257 2.789-1.186 2.315-.992a.81.81 0 00.164-.094c9.001-6.651 13.068-13.493 12.326-19.941-.667-5.787-5.216-10.841-12.393-14.299-.488-.234-1.107-.437-1.866-.615l-.201-.046-.207-.044-.214-.044-.22-.042-.227-.041a3.998 3.998 0 00-.116-.02l-.236-.04-.12-.019-.246-.038-.126-.019-.256-.036-.262-.035-.269-.035-.276-.033-.283-.032-.289-.032-.296-.03-.15-.015-.306-.029-.313-.028-.32-.028-.327-.026-.333-.026-.514-.036-.351-.024-.539-.033-.556-.032-.379-.021-.582-.029-.599-.027-.614-.026-.632-.025-.43-.016-.881-.029-.912-.027-1.761-.045-6.019-.119-1.663-.042-1.037-.032-.885-.035-.265-.013-.492-.027-.228-.014-.323-.022-.398-.033-.325-.031c-4.566-.464-13.665 2.864-26.264 9.104l-.855.425-.865.434c-1.016.511-2.053 1.04-3.11 1.586zm31.263-9.862l.307.026.215.016.281.019.237.015.312.017.541.026.521.021.832.028 1.257.035 2.128.047 5.552.112 1.219.033.869.026.424.014.623.023.608.023.787.034.383.018.562.028.547.029.531.031.516.033.336.022.491.036.475.037.46.038.299.027.292.027.285.028.278.029.272.03.264.03.259.032.251.032.245.033.238.034.116.017.228.035.222.036.108.019.211.037.205.038.1.019.194.04.188.04.182.042.175.042.084.021.165.044c.162.044.313.09.455.137l.138.047c.18.064.342.131.487.2 6.709 3.232 10.869 7.855 11.46 12.99l.019.173c.563 5.658-3.121 11.846-11.424 18.05l-.18.134-2.717 1.163-2.002.851-2.345.992-2.789 1.174-1.943.815-1.669.697a1534.526 1534.526 0 01-31.124 12.61l-.684.267-1.36.531-1.35.525-1.341.519-.667.257-1.326.51-1.316.505-1.468.559a348.8 348.8 0 01-.727.277l-1.441.546-1.424.536-.705.265-1.397.522-1.379.513-1.362.503-1.343.493-1.324.484c-17.976 6.541-30.754 10.32-36.467 10.477-5.044.139-13.296-1.883-23.984-5.639l-.817-.289a41.07 41.07 0 01-.411-.147l-.831-.298c-.556-.201-1.119-.407-1.688-.617l-.857-.318-.433-.161-.871-.328-.88-.334-.888-.341-.898-.347-.452-.175a413.323 413.323 0 01-10.151-4.122 580.516 580.516 0 01-19.519-8.668l-1.093-.511-1.045-.49-1.265-.596-.976-.463-1.177-.561-1.124-.539-1.104-.533-.945-.46-.707-.347-.044-.02a.832.832 0 00-.731.04l-40.595 22.719-23.678-17.548.044-.045c.715-.712 1.76-1.614 3.077-2.663l.384-.304.197-.155.405-.315.208-.161.426-.327.44-.333.225-.17.46-.344.234-.175.479-.354.491-.36.25-.183.509-.369.521-.375.532-.381.543-.386.554-.392.28-.197.57-.399.288-.201.584-.405.593-.41.603-.414.612-.418.309-.21.624-.423.316-.213.636-.428.644-.431.652-.433.658-.437.666-.439.672-.44.338-.221.681-.444.687-.445.692-.447.697-.448.702-.449.353-.224.709-.45.713-.45.716-.451.72-.45.723-.451.431-.267.84-.519a385.45 385.45 0 012.489-1.52l.819-.494.812-.487.806-.481.8-.474.793-.467.786-.46a272.474 272.474 0 013.82-2.189l.739-.415c.368-.205.733-.408 1.094-.607l.719-.394.709-.387c.469-.254.933-.503 1.39-.746l.68-.36c.676-.356 1.336-.699 1.981-1.027l.639-.324c4.964-2.501 8.925-4.136 11.387-4.618l.066-.013-.097-.004c5.105.258 10.528.958 16.585 2.099l.688.131.694.134.699.139.705.142.355.073.714.147.817.172.904.194.447.096.787.173.872.194.875.198.59.135.896.208 1.229.291 1.279.308 1.345.329 1.795.447 1.746.441 1.672.426 2.036.523 4.085 1.058 4.373 1.134 1.777.457 1.463.374 1.639.414 1.574.394 1.086.269 1.057.259 1.031.25 1.203.287 1.364.321.949.219.747.17.736.165.546.122.72.158.713.154.706.15.875.183.695.142.691.14.517.102.379.075.378.073.378.073.566.107c.497.094.991.185 1.481.273l.732.131.727.126.721.121c6.474 1.078 12.339 1.643 17.873 1.667a.836.836 0 00.441-.125l.554-.341.969-.591 1.033-.627.857-.518 1.116-.671 1.165-.697 1.459-.867.754-.446a576.646 576.646 0 0118.449-10.473l.966-.522a427.993 427.993 0 013.795-2.02l.931-.487c.309-.162.617-.322.924-.481l.459-.237c.737-.381 1.465-.754 2.183-1.117l.856-.433c13.049-6.567 22.584-10.185 26.982-9.835l.479.045z" fill="url(#paint38_linear_90_216)"/><path fill-rule="evenodd" clip-rule="evenodd" d="M485.998 274.163c9.586-6.252 17.897-13.654 26.674-21.081.767-.65 5.806-7.302 7.194-6.202 2.402 1.913-8.685 11.941-8.351 12.654.944 2.025 1.871 2.776 1.329 3.326-7.256 7.414-14.754 14.766-21.429 22.694" fill="#fff"/><path d="M517.965 246.491c.925-.608 1.738-.801 2.419-.261.772.615.831 1.523.398 2.648l-.053.133a7.58 7.58 0 01-.331.695c-.348.654-.832 1.387-1.452 2.211l-.172.227-.179.231-.185.236-.096.12-.195.243-.101.124-.205.25-.105.127-.238.284-.269.318-.279.325-.144.166-.405.464-.321.361-1.011 1.127-1.632 1.816-.236.268-.157.182-.142.168-.127.152-.077.094-.103.129-.102.134-.037.051.066.131a17 17 0 00.331.61l.134.232.356.603.106.183.043.074c.476.861.566 1.493-.026 2.094l-1.419 1.447-4.36 4.425-1.875 1.911-.883.905-1.016 1.043-.812.838-.935.969-.749.781-.865.907-.694.733-.805.856-.649.696-.507.547-.496.538-.365.4-.361.396-.591.654-.465.519-.459.515-.567.643-.448.512-.374.431c-.567.654-1.128 1.312-1.693 1.982a.832.832 0 01-1.272-1.071c.525-.624 1.048-1.237 1.575-1.846l.377-.435.342-.392.459-.523.463-.524.469-.526.475-.529.605-.668.493-.54.503-.547.513-.555.657-.705.541-.576.554-.588.858-.904.442-.463.914-.953.793-.821.822-.85 1.207-1.239 1.463-1.495 1.559-1.586 4.506-4.576.765-.78-.003-.007a4.7 4.7 0 00-.052-.107l-.044-.084-.036-.066-.22-.377-.3-.508a16.33 16.33 0 01-.716-1.362c-.167-.355-.1-.627.065-.946.066-.128.157-.268.274-.429l.078-.105.07-.091.076-.096.082-.101.087-.107.144-.172.159-.186.174-.201.304-.344 2.252-2.505.705-.792.258-.296.249-.288.241-.281.117-.138.228-.271.099-.119.192-.233.187-.228.18-.224.174-.219.168-.214.161-.21.156-.206.149-.201.142-.196.137-.192c.178-.252.338-.493.482-.721l.104-.169a10.7 10.7 0 00.275-.48c.26-.49.407-.888.438-1.167a.844.844 0 00.006-.126l-.001-.014-.021.007a2.397 2.397 0 00-.423.223l-.052.033a6.265 6.265 0 00-.436.318l-.135.108c-.091.075-.186.156-.283.241l-.148.132-.075.068-.155.143c-.078.073-.157.149-.239.228l-.164.161-.168.168-.086.087c-.255.259-.52.539-.797.84l-.203.222-.394.445-1.426 1.622-.406.457-.214.238-.173.188-.08.085-.043.042-.032.032-.013.011-6.973 5.931-.972.822-.947.797-.695.582-.682.569-.447.373-.662.548-.65.536-.64.524-.42.343-.623.506-.41.331-.406.327-.402.322-.596.475-.394.312-.39.307-.387.304-.575.448-.38.294-.565.434-.56.427-.555.419-.552.413-.366.271-.364.269-.363.266-.362.263-.542.391-.54.386-.36.254-.359.253-.359.251-.54.373-.359.247-.361.245-.361.244-.362.243-.544.362-.548.361-.183.119a.831.831 0 11-.909-1.393l.362-.237.361-.237.345-.229.344-.23.343-.231.513-.349.342-.234.342-.235.341-.237.341-.239.512-.361.342-.243.343-.245.343-.247.343-.25.518-.378.346-.255.522-.388.35-.261.528-.398.354-.269.356-.272.538-.414.362-.28.547-.426.554-.435.372-.294.565-.448.572-.458.58-.466.588-.476.397-.323.806-.66.824-.678.842-.698.862-.719.883-.74.905-.762 1.807-1.532 6.101-5.19.026-.025.055-.06.289-.322 1.844-2.101.315-.355.176-.195c.335-.366.653-.703.959-1.015.822-.836 1.538-1.467 2.162-1.878z" fill="url(#paint39_linear_90_216)"/><path fill-rule="evenodd" clip-rule="evenodd" d="M127.878 282.69l-11.636-21.968c16.994 2.009 37.046 35.47 100.052 51.388 50.91 11.791 108.647 38.486 162.037 12.417 39.333-17.407 75.38-30.795 98.803-48.676l12.924 9.277s-3.737 15.792-58.37 45.6c-54.632 29.796-89.365 52.152-131.58 50.289-42.217-1.863-172.23-98.327-172.23-98.327z" fill="#fff"/><path d="M115.507 261.111l11.635 21.968c.058.11.14.205.24.279l.807.596 1.425 1.047 1.935 1.413 1.9 1.381 1.444 1.047 1.782 1.286 1.216.876 1.866 1.34 1.593 1.139 1.956 1.396 1.666 1.184 1.356.962 2.071 1.465.35.247c16.342 11.532 33.323 23.065 50.069 33.829.47.303.94.605 1.409.905l1.405.899 1.401.893c.698.444 1.395.887 2.09 1.327l1.388.877 1.383.87 1.377.864c1.145.718 2.285 1.428 3.42 2.132l1.358.841c.678.419 1.354.836 2.028 1.25l1.345.824c.894.547 1.785 1.09 2.672 1.628 36.693 22.262 64.478 35.288 79.976 35.972 11.29.498 22.323-.707 33.729-3.581 13.448-3.387 27.358-9.022 44.749-17.801l.957-.485 1.075-.547 1.085-.555 1.094-.564 1.331-.689 1.351-.705 1.375-.721 1.639-.865 1.196-.634 1.219-.65 1.75-.937 1.803-.971 2.134-1.154 1.377-.748 2.275-1.24 2.676-1.465 2.995-1.649 12.659-6.984 6.542-3.602 4.109-2.258 2.489-1.363.407-.222c23.965-13.076 40.093-24.464 49.858-34.117l.161-.159.316-.316.156-.157.308-.312.301-.31.296-.307c.292-.306.576-.607.851-.905l.272-.296.266-.294.26-.291.255-.289.249-.285.122-.142.241-.282.118-.14.232-.277.226-.275.221-.273c.146-.18.288-.359.426-.537l.204-.264c.303-.394.588-.78.855-1.156l.175-.25.086-.124.167-.246.082-.121.16-.242c.131-.2.256-.398.377-.592.548-.887.95-1.656 1.228-2.308.062-.147.116-.283.162-.407l.051-.143.023-.067.037-.117.019-.063.014-.053a.83.83 0 00-.319-.888l-12.924-9.278a.831.831 0 00-.989.015c-9.697 7.403-21.777 14.283-38.366 22.129l-1.151.543a571.083 571.083 0 01-5.976 2.763l-1.033.469-1.625.735-1.637.735-1.454.649-1.7.755-1.531.676-1.354.596-2.358 1.031-2.252.98-3.231 1.399-3.848 1.658-17.269 7.415-4.327 1.868-3.198 1.39-1.928.845-2.294 1.01-2.103.93-.028.013c-19.121 9.337-39.72 12.391-63.18 10.373-6.606-.568-13.419-1.532-20.655-2.893l-.888-.168-.893-.173-.448-.087-.899-.179-.904-.182-.908-.187c-1.67-.345-3.363-.71-5.083-1.096l-.94-.212-.472-.107-1.357-.313-.541-.126c-.451-.105-.9-.211-1.35-.318l-1.005-.239-1.165-.282-1.172-.287-1.182-.293-1.194-.299-1.211-.308-1.23-.316-1-.259-1.272-.334-1.038-.274-1.325-.353-1.084-.291-.829-.223-1.698-.461-1.461-.4-1.813-.5-1.883-.522-2.968-.83-2.438-.685-7.319-2.064-3.547-.998-3.175-.889-2.239-.623-1.776-.492-1.658-.456-1.3-.355-1.234-.334-1.63-.437-1.106-.293-1.273-.333-1.026-.265-.603-.154-.991-.251-.977-.244-.778-.192-.786-.191-.588-.142-.89-.214-1.21-.286-.933-.219-.96-.223c-20.231-5.111-37.251-12.291-52.752-21.501-5.406-3.212-10.497-6.587-15.878-10.447l-.741-.533-.731-.529-.552-.402-.558-.408-.756-.556-.776-.572-1.003-.744-1.267-.945-6.06-4.543-.682-.505-.771-.569-.448-.328-.581-.423-.424-.307-.55-.396-.401-.286-.393-.279-.385-.27-.252-.176-.371-.258-.364-.251-.239-.163-.469-.317-.345-.23-.338-.223-.334-.218-.328-.212-.324-.206-.319-.201-.316-.196-.209-.128-.31-.188-.308-.183-.204-.12-.203-.118-.302-.175c-3.313-1.89-6.172-2.976-8.898-3.298a.831.831 0 00-.832 1.215zm2.266.726l.128.031c1.978.483 4.104 1.397 6.511 2.771l.295.169.297.174.3.178.201.121.202.123.307.188.31.193.314.199.319.204.323.21.329.215.447.298.343.23.349.237.356.244.363.252.247.172.376.264.515.364.396.283.543.39.56.406.725.531.603.443.781.578 2.723 2.037 3.316 2.488 1.109.829 1.055.784.813.602.986.724.579.424.573.417.758.549.568.409.189.135c5.417 3.886 10.547 7.287 15.998 10.525 15.635 9.291 32.803 16.533 53.21 21.688l1.007.235.978.229.954.226.937.224.926.224.307.075 1.066.262 1.158.29.979.248.799.205 1.022.265 1.057.278 1.097.291 1.146.307 1.448.392 1.807.494 1.664.458 2.091.581 2.958.825 3.3.926 5.909 1.665 3.769 1.064 2.178.612 2.086.583 1.344.374 2.58.713 1.85.507 1.784.485 1.44.388 1.402.374 1.368.362 1.071.281 1.315.342 1.034.266 1.273.323 1.255.316.994.247.74.182 1.227.298.978.235.975.232.786.185 1.086.253 1.09.251c.476.109.95.216 1.422.321l.941.21c1.095.242 2.179.476 3.254.702l.919.191c.916.19 1.826.373 2.728.551l.901.176c7.787 1.504 15.084 2.561 22.154 3.169l.711.06c23.211 1.901 43.704-1.149 62.758-10.313l.567-.275 4.193-1.85 2.423-1.061 2.87-1.248 3.229-1.395 7.296-3.136 11.536-4.952 4.187-1.806 2.858-1.238 2.869-1.251 2.479-1.087 1.968-.869 2.088-.928 2.036-.913 1.248-.562 1.245-.565.621-.282 1.195-.546 1.18-.542 1.167-.539c18.163-8.419 31.202-15.667 41.59-23.484l.189-.143 11.919 8.556-.041.099c-.244.573-.608 1.268-1.113 2.085a24.62 24.62 0 01-.359.565l-.153.231a7.944 7.944 0 01-.079.116l-.16.235-.082.119-.168.239-.086.121-.176.243c-.208.286-.428.577-.657.874l-.2.255-.102.129-.208.26-.106.131-.216.264-.222.267-.113.134-.23.271-.355.412-.244.277a8.26 8.26 0 01-.124.14l-.252.282-.129.142-.261.286-.267.289-.272.291-.279.295-.284.297-.29.299-.148.151-.299.304-.152.153-.308.308-.156.155c-9.547 9.436-25.328 20.607-48.773 33.449l-2.276 1.245-4.763 2.615-13.675 7.535-7.972 4.399-2.433 1.335-2.332 1.274-1.409.767-1.914 1.04-1.851 1-1.286.692-1.506.808-1.469.784-1.435.761-1.404.742-1.377.722-1.351.706-1.11.576-1.097.566-1.302.667-1.288.656-.427.217c-.702.355-1.397.705-2.088 1.05l-1.031.514-.512.254-1.019.502-1.011.495c-14.939 7.286-27.304 12.11-39.271 15.125-11.254 2.835-22.126 4.022-33.25 3.531-15.106-.666-42.753-13.627-79.186-35.732a804.137 804.137 0 01-2.668-1.625l-1.342-.823c-.224-.137-.449-.275-.673-.414l-1.351-.833-1.356-.839-1.362-.847c-.682-.425-1.366-.852-2.052-1.282l-1.375-.862-1.38-.869-1.386-.876-.694-.44-1.393-.885a270.88 270.88 0 01-.698-.445l-1.401-.894-.702-.449-1.407-.903c-16.36-10.517-32.948-21.77-48.944-33.038l-2.109-1.489-1.715-1.214-2.016-1.432-2.293-1.634-1.281-.916-1.571-1.126-1.839-1.323-1.494-1.077-1.457-1.054-2.469-1.795-1.781-1.3-2.225-1.636-10.75-20.297z" fill="url(#paint40_linear_90_216)"/><path fill-rule="evenodd" clip-rule="evenodd" d="M490.713 291.067c-2.816 3.539-17.183-13.553-14.528-17.779 6.707-10.691 23.392 3.651 21.619 12.066-.656 3.113-5.328 3.488-7.091 5.713z" fill="#fff"/><path d="M498.597 285.618l.021-.093c.929-4.409-2.675-10.402-7.971-14.053-5.83-4.02-11.823-3.954-15.166 1.374-1.501 2.389.957 7.561 5.277 12.774a38.8 38.8 0 002.769 3.017l.24.231c.917.875 1.814 1.623 2.644 2.193l.073.051.146.098.073.047.144.093c.12.075.239.147.356.215l.14.08.138.076c.069.037.138.072.206.107l.135.066.067.031.133.061c1.389.613 2.536.569 3.306-.356l.036-.045c.028-.036.057-.071.087-.105l.061-.069c.041-.045.084-.09.128-.134l.069-.065.035-.033.074-.065.037-.032.079-.064c.027-.021.054-.043.083-.064l.086-.065.045-.032.094-.065.048-.033.101-.066.106-.067.112-.068.058-.035.121-.07.126-.072.133-.074.14-.076.147-.078.154-.08.161-.084.257-.13.803-.4.209-.106.198-.102.096-.05.183-.098.175-.095.166-.094.159-.092c.078-.045.153-.091.226-.136l.142-.09c.14-.09.272-.181.399-.274l.125-.093.122-.096.12-.098c.811-.677 1.345-1.463 1.568-2.417zm-8.894-12.777c4.755 3.278 7.987 8.606 7.309 12.232l-.021.109c-.164.779-.62 1.353-1.583 1.98l-.135.086-.141.087-.073.044-.15.088a3.07 3.07 0 00-.078.044l-.161.09-.083.046-.172.092-.178.093-.186.096a4.293 4.293 0 01-.096.048l-.717.357-.29.147-.272.14-.171.09-.165.087-.157.086-.15.084-.145.083-.138.081-.132.08c-.064.04-.127.079-.188.119l-.118.078a9.5 9.5 0 00-.224.157l-.105.079a5.299 5.299 0 00-.472.407l-.086.086a5.243 5.243 0 00-.125.132l-.081.092-.079.093-.078.097c-.12.15-.351.204-.688.141l-.083-.017a1.81 1.81 0 01-.087-.021l-.091-.027-.047-.015-.097-.033-.05-.019-.103-.04a4.203 4.203 0 01-.107-.045l-.111-.051a.942.942 0 01-.056-.027l-.117-.057a6.873 6.873 0 01-.373-.204l-.132-.078a7.242 7.242 0 01-.136-.084l-.14-.088-.143-.095a5.522 5.522 0 01-.148-.1c-1.159-.797-2.492-2-3.83-3.439l-.23-.249a41.56 41.56 0 01-1.927-2.277l-.216-.277a41.365 41.365 0 01-.212-.277l-.208-.277a37.97 37.97 0 01-1.155-1.637l-.176-.268a28.965 28.965 0 01-1.232-2.063l-.13-.246c-1.192-2.277-1.667-4.123-1.147-4.951 2.747-4.379 7.672-4.434 12.813-.889z" fill="url(#paint41_linear_90_216)"/><path fill-rule="evenodd" clip-rule="evenodd" d="M138.838 291.855c-13.15 3.087-14.679-19.238-11.349-27.82 9.564-6.631 13.236 10.262 11.839 17.066-.152 3.652 3.058 9.916-.49 10.754z" fill="#fff"/><path d="M127.016 263.352a.823.823 0 00-.302.382c-1.822 4.697-2.114 12.647-.535 18.794 1.948 7.584 6.359 11.66 12.85 10.137 1.491-.352 2.221-1.458 2.308-3.079l.003-.058.004-.115.003-.116.001-.116v-.058l-.001-.117-.002-.059-.004-.119-.006-.121-.008-.124-.01-.125-.012-.129-.014-.131-.015-.136-.018-.139-.02-.143-.022-.148-.024-.154-.04-.239-.061-.341-.052-.273-.077-.389-.064-.312-.118-.563-.183-.861-.066-.319-.041-.203-.057-.289-.051-.273-.045-.257-.028-.163-.025-.158-.023-.151-.02-.147-.019-.141-.016-.137-.013-.132-.012-.128-.01-.125-.007-.121-.006-.118-.003-.116-.001-.057v-.112l.001-.11.002-.045-.014.071c.783-3.813.039-9.911-1.867-14.084-2.439-5.339-6.456-7.164-11.26-3.833zm9.747 4.524c1.762 3.857 2.462 9.596 1.751 13.058a.849.849 0 00-.017.133l-.004.129-.001.065-.002.13v.066l.002.131.005.134.006.135.008.138.011.14.013.144.015.147.018.15.019.156.035.241.025.167.028.173.031.179.051.281.056.296.061.313.068.331.074.35.185.87.089.436.061.311.038.199.052.289.033.186.03.18.027.174.026.169.033.244.02.156.017.15.008.073.014.143.011.138.009.133.006.129.004.123.002.06v.117l-.002.112c-.003.109-.01.212-.021.309l-.012.095c-.102.709-.425 1.052-.998 1.187-5.434 1.275-9.109-2.12-10.858-8.932l-.045-.175c-1.402-5.625-1.171-12.84.373-17.206l.056-.158.018-.011c3.722-2.45 6.561-1.09 8.571 3.312z" fill="url(#paint42_linear_90_216)"/><path d="M200.087 320.26a.831.831 0 011.13-.325c40.124 22.224 76.336 32.772 116.753 32.48a.831.831 0 01.012 1.663c-40.725.294-77.211-10.334-117.571-32.688a.83.83 0 01-.324-1.13z" fill="url(#paint43_linear_90_216)"/><path d="M401.408 341.161a.831.831 0 11.871 1.416c-19.52 12.009-38.053 19.234-58.122 22.976-17.491 3.262-35.843 3.98-62.049 2.954a.832.832 0 01.065-1.662c26.093 1.021 44.333.308 61.679-2.927 19.866-3.704 38.207-10.854 57.556-22.757z" fill="url(#paint44_linear_90_216)"/><path d="M471.433 289.994a.831.831 0 11.726 1.496l-.476.232-.475.233-.473.233-.471.235-.47.236-.47.237-.468.239-.468.24-.234.12-.467.243-.467.244-.466.245-.467.248-.701.375-.468.253-.469.255-.469.257-.471.259-.472.262-.474.265-.237.133-.476.268-.717.408-.481.276-.484.279-.486.281-.488.285-.492.288-.494.292-.498.295-.501.299-.758.454-.767.464-.776.472-.523.32-.793.487-.804.497-.542.337-.823.514-.836.525-.848.535-.862.546-.877.558-1.767 1.132-7.877 5.079-1.748 1.124-.703.449-.915.581-.602.381-.89.56-.585.367-.866.54-.57.354-.845.521-.556.341-.551.335-.273.167-.813.491-.269.161-.533.32-.529.314-.525.311-.52.306-.517.301-.512.298a28.91 28.91 0 00-.255.147l-.508.291-.504.287-.25.142-.499.282-.496.277-.494.274-.246.136-.489.269-.244.132-.486.264-.484.26-.482.256-.481.254-.478.25-.239.124-.477.246-.476.243-.237.12-.475.239-.236.118-.474.235-.473.232-.473.23-.236.114-.473.226-.472.224-.474.222-.236.11-.475.218-.475.217-.237.108-.477.213-.477.212-.24.106-.24.105c-9.885 4.317-19.896 7.086-30.951 8.325a.832.832 0 11-.185-1.652c10.884-1.221 20.734-3.945 30.471-8.197l.473-.208.472-.21.471-.211.235-.106.47-.214.468-.217.469-.218.467-.22.234-.111.468-.224.467-.226.468-.228.468-.231.234-.117.469-.235.47-.238.471-.24.472-.243.473-.247.475-.249.238-.126.478-.255.479-.257.482-.261.483-.264.243-.134.488-.27.49-.273.246-.138.495-.279.498-.283.753-.432.507-.293.51-.297.514-.301.519-.306.522-.31.527-.315.532-.319.537-.324.541-.328.547-.334.552-.338.557-.344.563-.348.856-.532.578-.362.585-.367.888-.561.904-.573 1.318-.842 9.886-6.371 1.198-.766.881-.56.579-.368.573-.362.568-.358 1.117-.701.824-.513.542-.337.538-.332.798-.49.526-.322.781-.475.771-.466.256-.153.507-.305.505-.3.501-.297.497-.293.495-.29.492-.287.489-.284.487-.28.484-.278.482-.274.481-.272.478-.269.477-.267.476-.263.474-.262.473-.259.472-.257.472-.254.471-.253.471-.25.47-.249.471-.247.471-.245.471-.243.708-.363.472-.24.474-.238.475-.238.476-.236.478-.235.48-.234.24-.117z" fill="url(#paint45_linear_90_216)"/><path fill-rule="evenodd" clip-rule="evenodd" d="M313.907 300.058c-110.383 1.473-78.822 11.576-129.694 96.952-10.759 6.263-29.174-12.047-24.915-3.065 2.742 5.357 26.87 30.106 34.374 30.485 3.932-2.014 58.927-78.885 62.19-84.562 0 0 61.913-2.738 69.876-4.538" fill="#fff"/><path d="M313.895 299.225a.833.833 0 01.023 1.664c-37.582.501-56.31 2.048-69.002 6.059-12.47 3.94-19.136 10.216-26.151 23.526l-.248.473-.249.479-.25.486-.378.745-.256.508-.194.389-.328.663-.267.545-.41.844-.423.881-.438.92-.377.8-.47 1.002-.574 1.234-.783 1.696-3.905 8.542-1.006 2.19-.635 1.373-.616 1.327-.608 1.302-.304.648-.274.584-.55 1.164a536.722 536.722 0 01-2.201 4.592l-.552 1.135a432.259 432.259 0 01-17.542 32.439.831.831 0 01-.296.293c-2.708 1.576-5.965 1.813-9.722.973-2.489-.557-5.056-1.536-8.072-2.973l-.455-.219-.376-.183-.517-.255-.549-.274-2.427-1.229-.376-.187-.347-.171-.242-.117-.3-.142-.277-.127-.13-.059-.185-.081-.174-.073-.11-.045-.157-.062-.148-.056-.094-.033-.091-.031-.044-.014a3.13 3.13 0 00-.162-.049l-.097-.025-.035-.009.005.023c.065.259.19.598.379 1.018l.079.172.035.075.037.071c.298.559.824 1.324 1.535 2.246l.207.267.218.276.227.284.117.144.241.296.25.302.128.154.263.313.135.159.276.323.14.164.288.332.146.169.299.341.307.346.313.352.32.357.327.362.333.366.34.37.345.374.352.378.356.381.545.578.184.194.372.39.188.195.378.394.383.395.193.199.389.397.392.4.197.2.398.4.4.402.606.602.407.402.205.201.41.402.413.401.414.399.415.399.417.398.209.198.454.429.481.45.477.445.475.437.471.432.468.425.464.418.461.411.457.405c.151.134.302.266.453.398l.449.39.445.384c.664.57 1.314 1.115 1.948 1.634l.421.343c4.597 3.724 8.313 6.033 10.444 6.323l.033.004.035-.028.069-.06.076-.068.081-.077.043-.042.092-.091.097-.099.103-.107.11-.116.116-.125.121-.134.128-.141.203-.229.216-.247.151-.175.158-.183.162-.192.256-.302.267-.321.281-.338.393-.479.415-.51.548-.68.463-.578.607-.765.509-.645.528-.674.688-.882.865-1.116.6-.779.619-.805.636-.832.996-1.308.829-1.094 1.028-1.361 1.242-1.652 1.474-1.97 1.143-1.532 1.371-1.844 1.411-1.904 1.657-2.244 1.704-2.314 1.526-2.079 2.233-3.053 1.829-2.507 1.864-2.561 1.592-2.193 1.514-2.089 1.64-2.268 1.226-1.698 1.625-2.255 2.009-2.794 1.585-2.209 1.56-2.178 1.53-2.141 1.497-2.098 1.458-2.048 1.416-1.993 1.368-1.93 1.317-1.862 1.566-2.222.6-.853.87-1.239 1.102-1.574.779-1.116.496-.713.934-1.347.852-1.236.583-.851.361-.529.338-.498.463-.686.279-.416.13-.196.241-.365.215-.33c.27-.416.47-.736.594-.952a.833.833 0 01.684-.417l3.885-.176 5.187-.245 2.751-.132 3.879-.191 3.094-.155 2.31-.118 3.061-.158 2.278-.12 2.26-.121 2.238-.122 2.216-.123 1.462-.082 2.106-.119 2.696-.157 2.607-.155 2.515-.154 2.421-.153 1.752-.113 1.417-.093 1.917-.13 1.58-.111 1.751-.126 1.564-.117 1.484-.115 1.012-.081 1.16-.096.92-.078 1.049-.094.665-.061.946-.091.74-.075.56-.058.402-.044.634-.072.359-.043.23-.028.332-.042.315-.041.298-.041.373-.054.259-.04.243-.04.226-.039.209-.039.191-.038.119-.025.056-.013a.831.831 0 01.367 1.622l-.122.027-.128.027-.137.027-.218.041-.155.027-.331.055-.268.042-.284.042-.301.042-.209.029-.328.043-.228.029-.476.058-.505.059-.398.044-.697.075-.59.061-.937.092-.829.077-1.051.095-.922.08-.966.08-1.007.082-1.264.099-1.549.118-1.423.104-1.543.11-1.875.129-1.954.131-1.443.094-1.782.114-2.773.172-2.565.155-1.649.098-2.366.137-2.79.158-1.419.079-2.871.158-2.907.156-1.465.078-1.473.077-2.963.153-2.982.152-2.995.149-1.501.074-5.896.284-7.042.326-.025.039-.167.265-.194.302-.107.164-.233.355-.258.389-.283.423-.307.456-.505.745-.365.535-.387.565-.408.595-.653.946-.941 1.357-1.017 1.461-1.09 1.558-1.158 1.65-.91 1.294-1.266 1.795-1.322 1.87-1.373 1.937-1.783 2.509-1.847 2.593-1.52 2.127-1.55 2.167-1.578 2.202-1.199 1.669-.806 1.12-1.623 2.255-1.637 2.269-1.233 1.706-1.237 1.709-1.237 1.707-2.316 3.186-2.077 2.85-2.253 3.083-1.323 1.805-1.514 2.059-1.896 2.572-1.836 2.482-.796 1.072-1.361 1.829-1.134 1.519-1.101 1.471-1.244 1.655-.86 1.139-1 1.319-.731.961-.735.963-.709.925-.683.888-.818 1.057-.626.804-.6.766-.574.729-.549.691-.394.493-.381.473-.366.451-.236.29-.23.279-.224.271-.323.388-.208.246-.201.238-.29.338-.186.214-.266.303-.17.19-.164.181-.079.087-.154.167-.148.157-.141.148-.135.138-.129.129-.123.119-.116.11c-.283.263-.508.437-.674.522a.82.82 0 01-.421.09c-3.236-.163-9.171-4.239-16.452-10.788l-.498-.45-.251-.228-.505-.462-.508-.469c-.425-.394-.855-.795-1.288-1.204l-.434-.412-.434-.413-.432-.415-.43-.416-.428-.416-.427-.418-.424-.417-.421-.418-.418-.417-.416-.417-.412-.416-.204-.208-.407-.414-.403-.413-.398-.411a38.974 38.974 0 00-.198-.205l-.391-.408-.387-.406-.382-.403-.377-.4-.371-.397-.365-.394-.181-.195-.356-.388-.35-.384-.343-.379-.337-.375-.329-.37-.322-.364-.315-.359-.307-.354-.298-.347-.291-.341-.282-.335-.138-.164-.268-.324-.131-.16-.255-.313c-1.168-1.444-2.026-2.639-2.464-3.462l-.045-.087-.011-.023a12.626 12.626 0 01-.081-.173l-.077-.169-.036-.082-.069-.16a9.365 9.365 0 01-.179-.453l-.05-.142c-.251-.744-.291-1.301-.091-1.757.212-.484.65-.743 1.174-.778.349-.023.74.049 1.21.2l.104.034.108.037.11.039.113.043.116.045.121.048.124.051.128.054.202.088.213.095.225.104.238.112.167.08.263.127.278.137.398.198 2.144 1.087.286.144.41.205.39.193.376.185.368.178.321.154.394.187c.327.153.648.3.964.442l.376.167c2.183.96 4.122 1.64 5.988 2.057 3.235.723 5.976.566 8.219-.618l.12-.066.231-.387c7.872-13.253 14.126-25.233 20.425-38.611l.577-1.228.79-1.693.598-1.291.83-1.799.999-2.179 3.367-7.367.798-1.733.667-1.435.553-1.181.454-.961.366-.769.356-.741.347-.716.338-.693.2-.405.328-.66.194-.388.384-.758.253-.495.377-.728.251-.477c13.299-25.234 26.936-29.543 96.601-30.474z" fill="url(#paint46_linear_90_216)"/><path fill-rule="evenodd" clip-rule="evenodd" d="M320.081 299.595c-.13-.063-.259-.125-.388-.2l.388.2z" fill="url(#paint47_linear_90_216)"/><path fill-rule="evenodd" clip-rule="evenodd" d="M335.972 293.193c0-.575-.129-.388.581-.388l-.581.388z" fill="url(#paint48_linear_90_216)"/><path fill-rule="evenodd" clip-rule="evenodd" d="M311.922 298.269l-1.629-14.854 50.869 10.203c-4.154 7.548 12.089 29.735 14.147 33.097-9.611 8.867-53.6 11.599-60.967 10.29l-6.35-37.085 3.93-1.651z" fill="url(#paint49_linear_90_216)"/><path fill-rule="evenodd" clip-rule="evenodd" d="M450.712 266.673c1.232-1.334 33.991-2.082 33.676-.988 0 0 31.048-38.585 33.035-42.286 1.987-3.688-2.72-15.392.111-20.581 2.831-5.176 2.725 2.401 3.625 5.202.9 2.8 2.711-15.379 2.711-15.379 13.002 10.554 12.201 19.533 10.536 37.36-19.613 65.639-51.921 66.754-107.752 72.169" fill="#fff"/><path d="M524.393 191.995c6.438 5.226 9.756 10.229 11.058 16.428.578 2.749.778 5.775.677 9.5l-.015.497-.016.444-.006.176-.023.533-.034.688-.032.573-.047.767-.056.811-.058.77-.083 1.039-.097 1.142-.172 1.944-.255 2.771a.792.792 0 01-.032.161c-8.882 29.727-20.594 47.266-37.436 57.337-7.597 4.544-16.335 7.666-27.158 9.922l-.524.109-.262.054-.526.106-.527.104-.528.103-.265.051-.532.101-.534.1-.537.099-.27.048-.542.097-.546.096-.549.094-.554.094-.558.092-.563.092-.284.045-.572.09-.577.09-.583.089-.59.088-.297.044-.6.087-.607.086-.615.086-.623.086-.631.085-.639.085-.648.085-.658.084-1.004.126-1.027.126-.698.084-1.067.126-1.093.127-1.119.126-1.147.127-1.176.128-1.206.129-1.237.13-1.7.176-1.76.178-1.36.135-1.871.184-10.668 1.028a.832.832 0 01-.16-1.655l10.189-.981 1.417-.139 1.379-.136 1.784-.179 1.723-.176 1.253-.13 1.222-.13 1.581-.17.771-.085 1.133-.126 1.106-.126 1.079-.126.705-.083.695-.084 1.022-.125.669-.084.659-.083.649-.084.641-.085.944-.127.62-.085.611-.085.604-.086.596-.087.59-.087.582-.088.29-.044.858-.134.565-.09.28-.045.557-.092.277-.046.55-.092.545-.094.542-.095.538-.096.268-.048.532-.098.531-.099.527-.1.525-.102.524-.103.261-.052.521-.105.52-.107.26-.054c10.654-2.221 19.221-5.282 26.644-9.721 16.277-9.734 27.693-26.683 36.432-55.509l.24-.798.238-2.577.153-1.721.101-1.176.078-.964.061-.793.047-.652.048-.706.026-.424.032-.575.032-.64.024-.55.007-.174c.01-.262.019-.524.027-.788l.012-.442.009-.434c.017-.935.012-1.821-.014-2.667l-.013-.388c-.079-1.989-.283-3.757-.629-5.406-1.134-5.396-3.897-9.821-9.23-14.433l-.06-.051-.097.899-.094.85-.096.847a438.7 438.7 0 01-.197 1.675l-.101.823-.102.81-.076.587-.073.555-.097.714-.049.346-.071.504-.072.486-.07.468-.071.449-.069.43-.046.276-.068.397-.062.346-.041.221-.041.212-.06.303-.06.285-.039.179-.039.171-.039.163-.039.154-.038.146-.02.07-.038.133a3.11 3.11 0 01-.038.125l-.038.117-.037.108c-.178.493-.347.78-.732.942a.927.927 0 01-1.075-.262 1.465 1.465 0 01-.282-.536l-.041-.132-.027-.09-.026-.091-.038-.14-.036-.146-.036-.154-.036-.162-.036-.173-.036-.185-.037-.197-.051-.287-.067-.401-.074-.453-.144-.911-.076-.456-.057-.332-.042-.231-.055-.284-.039-.197-.04-.183-.038-.169-.026-.106-.038-.148-.025-.092-.025-.086-.013-.042-.025-.079-.026-.074-.025-.07-.013-.033-.026-.062-.013-.03-.024-.052-.043.048-.058.068-.062.077a5.125 5.125 0 00-.154.211l-.08.121c-.124.188-.255.41-.395.666a6.189 6.189 0 00-.612 1.742l-.032.161c-.04.218-.074.446-.101.683l-.02.18-.008.091-.016.186-.013.19-.011.193c-.007.131-.011.264-.015.4l-.004.205-.001.21v.214l.003.219.005.223.008.227.009.231.012.236.007.12.015.243.017.247.02.252.021.257.024.262.025.266.028.272.03.276.031.281.034.287.036.291.038.297.05.381.126.909.333 2.323.119.857.077.582.064.51.033.289.029.273.03.311.03.352.02.277.018.281.013.231.011.247.007.241c.04 1.546-.133 2.705-.599 3.569l-.023.042-.051.09-.029.049-.064.105-.071.115-.08.125-.135.205-.1.149-.108.158-.177.255-.262.373-.218.305-.235.325-.34.466-.274.373-.393.529-.423.566-.451.6-.733.967-.659.864-.56.731-.739.959-.782 1.012-.994 1.282-1.604 2.058-1.537 1.963-1.765 2.246-1.621 2.056-1.704 2.156-1.634 2.064-1.65 2.078-1.675 2.107-1.695 2.129-1.71 2.144-2.151 2.694-3.427 4.28-3.046 3.795c-.338.42-.874.384-1.2.102l-.014-.012-.054-.011-.087-.016-.099-.016-.054-.007-.115-.016-.126-.015-.136-.015-.147-.014-.154-.014-.247-.02-.266-.019-.385-.023-.309-.016-.442-.02-.351-.013-.369-.013-.386-.011-.54-.013-.646-.013-.525-.007-.543-.006-.751-.006-.78-.003-.806.001-.83.003-.637.004-.866.008-.884.011-.899.014-.912.016-.924.019-.931.022-.956.025-.968.028-.959.03-.948.033-.469.018-.696.026-.687.029-.9.039-.443.021-.869.042-.845.044-.618.035-.799.047-.58.037-.562.038-.545.038-.483.037-.445.035-.429.035-.276.024-.528.049-.375.037-.24.025-.345.038-.219.025-.211.026-.3.038-.19.026-.181.026-.173.027-.164.026-.153.026-.143.027-.133.026-.122.026-.112.026-.096.024-.078.022a.686.686 0 01-.035.011l-.061.02-.026.01-.021.008-.011.008a.83.83 0 01-1.045-.013l-.033-.029a.83.83 0 01.07-1.28l.047-.034c.033-.022.068-.044.106-.065l.058-.031.031-.016.065-.03.069-.03.073-.029.077-.029.081-.028.085-.027.09-.027.094-.027.098-.025.103-.026.107-.025.112-.024.116-.024.12-.023.19-.035.2-.034.139-.022.217-.032.151-.021.236-.031.331-.041.173-.02.361-.039.381-.039.402-.038.532-.047.449-.037.839-.066.485-.035.555-.039.574-.038.59-.036.607-.036.413-.023.845-.046.65-.032.663-.032.674-.03.915-.039.697-.027.944-.035.716-.025 1.208-.038.976-.027.951-.024 1.168-.027 1.152-.021.908-.015.894-.011.876-.009.645-.005.633-.003.824-.002.602.001.587.002.571.004.734.008.702.011.632.013.562.014.531.017.254.009.482.021.228.011.328.017.207.013.295.02.185.014.262.022.083.007.185.019.174.019.162.02c.156.021.296.043.419.067l.042.009 4.043-5.041 1.594-1.992 2.152-2.693 2.139-2.681 1.694-2.128 1.674-2.106 1.239-1.561 2.043-2.579 1.362-1.723 1.567-1.986 1.491-1.896 1.64-2.092 1.104-1.413 1.248-1.604.976-1.258.737-.954.865-1.125.802-1.05.595-.783.554-.732.51-.681.355-.477.434-.588.297-.406.271-.375.167-.233.155-.219.143-.205.068-.098.126-.183.114-.17.102-.155.09-.14.078-.126c.049-.079.089-.148.12-.207.295-.547.427-1.425.403-2.657l-.005-.208a3.825 3.825 0 00-.004-.107l-.01-.219a32.487 32.487 0 00-.037-.599l-.018-.24-.026-.295-.031-.308-.036-.329-.028-.235-.039-.315-.045-.343-.095-.702-.21-1.472-.211-1.476-.081-.582-.073-.549-.039-.309-.038-.304-.035-.3-.033-.294-.032-.289-.029-.285-.027-.28-.024-.275-.023-.27-.011-.134-.019-.263-.017-.26-.015-.254-.012-.251-.01-.246a23.747 23.747 0 01-.017-.829l.001-.228.003-.223.006-.22.004-.109.009-.214.012-.211.007-.104.016-.205c.121-1.424.435-2.588.983-3.592.564-1.032 1.063-1.674 1.584-1.982.735-.434 1.481-.199 1.946.482l.044.067.022.034.042.07.041.071.039.074.039.076.037.079.036.082.035.085.034.088.017.045.033.094.016.048.032.1.031.103.016.054.03.111.03.115.03.121.03.125.03.132.029.137.03.143.044.226.03.159.061.338.063.367.099.609.08.508.035-.199.067-.396.068-.415.046-.288.069-.448.07-.467.07-.485.071-.503.048-.344.072-.532.096-.734c.102-.788.203-1.603.302-2.432l.098-.833.049-.419.095-.842.047-.422.108-.987.128-1.207.069-.67a.831.831 0 011.351-.563z" fill="url(#paint50_linear_90_216)"/><path d="M310.064 298.527l41.765 2.175a.833.833 0 01-.045 1.662l-.041-.001-41.765-2.176a.83.83 0 01.045-1.662l.041.002z" fill="#fff"/><path fill-rule="evenodd" clip-rule="evenodd" d="M228.415 314.911l2.678-5.051 20.326-5.689-35.251 7.314 12.247 3.426z" fill="url(#paint51_linear_90_216)"/><path d="M178.771 409.9a.83.83 0 011.164-.164l.188.139.188.137.126.09.128.09.13.09.2.136.138.092.215.14.149.096.234.148.248.155.265.163.282.172.516.311.652.389.246.148.351.213.334.204.315.197.202.127.289.184.185.121.178.117.173.116.168.114.162.113.158.112.077.055.152.11.147.11.144.11.14.109.138.11.135.11.133.112.131.112.13.114.128.115.128.118.127.119.127.122.127.125.063.063a.831.831 0 11-1.177 1.175l-.057-.057-.114-.112-.115-.11-.115-.108-.116-.106-.117-.105-.118-.104-.12-.102-.122-.102-.062-.05-.126-.102-.128-.1-.132-.101-.135-.102-.139-.102-.217-.154-.15-.105-.155-.106-.16-.108-.165-.109-.172-.112-.178-.115-.278-.177-.295-.183-.311-.192-.329-.2-1.224-.733-.423-.256-.198-.121-.19-.117-.27-.168-.254-.16-.241-.156-.23-.151-.22-.148-.144-.099-.141-.098-.139-.099-.069-.049-.134-.097a15.367 15.367 0 01-.267-.199.831.831 0 01-.164-1.164z" fill="url(#paint52_linear_90_216)"/><path d="M380.055 348.306a.833.833 0 01-.606 1.009l-.54.134-.52.127-.852.204-1.527.356-4.211.964-1.079.251-.761.18-.704.17-.57.141-.635.16-.441.114-.462.121-.184.049a78.4 78.4 0 00-.556.15c-.84.229-1.405.021-2.039-.533l-.183-.165c-.272-.245-.398-.322-.573-.345-.26-.036-.645.051-1.209.326l-.134.067a2.182 2.182 0 01-.069.036l-.091.049-.114.068-.214.133-.321.205-.032.02-.001.048a2.375 2.375 0 01-.278.936l-.028.053c-.271.512-.722 1.062-1.26 1.558-.534.494-1.12.904-1.656 1.143-.768.344-1.484.374-2.01-.152-.391-.395-.367-.891-.131-1.334.125-.235.318-.473.581-.737.149-.15.322-.309.518-.478l.151-.128.079-.065.163-.133a5.01 5.01 0 00.084-.068l.176-.137.182-.141.191-.144.197-.147.106-.077.218-.158.146-.105-.042-.007c-.799-.125-1.905.005-3.224.372l-.216.061c-.254.074-.515.157-.783.248l-.231.08c-.583.205-1.195.448-1.831.728l-.256.113-.129.059-.26.119-.249.118-.21.101-.21.103-.21.105-.208.105-.311.162-.207.109-.205.11-.305.166-.202.113-.2.113-.198.114-.197.114-.194.115-.193.115-.19.115-.187.116-.277.173-.271.173-.177.115-.173.115-.171.115-.167.114-.164.113-.239.168-.155.112-.151.11-.147.109-.143.109-.138.106-.134.106-.129.104-.125.102-.12.101-.058.05-.113.098-.107.096-.052.048-.099.093-.048.046-.091.09a4.343 4.343 0 00-.203.215l-.071.081a2.263 2.263 0 00-.26.366l-.017.033a.833.833 0 01-1.487-.746c.084-.167.202-.345.351-.535l.084-.104c.16-.193.351-.395.568-.605l.121-.116.126-.117.132-.118.136-.119.141-.12.073-.061.148-.122.153-.123.157-.123.161-.125.166-.125.169-.126.173-.126.088-.063.179-.127.183-.127.186-.128.189-.127.192-.128.196-.127.198-.127.201-.127.102-.064.205-.126.208-.127.21-.125.212-.125.214-.125.217-.123.218-.123.22-.122.221-.121.223-.12.225-.118.225-.117.227-.116.227-.115.115-.056.229-.112.229-.111.251-.119.25-.115.247-.113.246-.109.122-.053.243-.105.12-.051.24-.1.238-.096.236-.093.234-.09.231-.086c.115-.042.23-.084.343-.123l.226-.078c.075-.026.15-.05.224-.074l.221-.071c2.533-.794 4.597-.885 5.918-.052l.012.008.255-.164.2-.125.13-.08.143-.085.058-.033.046-.025c1.805-.974 2.849-.851 3.898.072l.209.189.064.055.055.045c.139.11.208.125.338.095l.052-.013.471-.128.186-.05.655-.172.742-.189.672-.167.818-.198.776-.184.845-.197 1.8-.414 2.816-.644 1.146-.266.857-.204.614-.149.679-.169a.833.833 0 011.009.605z" fill="url(#paint53_linear_90_216)"/><path d="M442.938 319.403a.831.831 0 01-.372 1.116l-.425.211-.437.212-.299.143-.305.145-.471.221-.323.15-.332.152-.341.155-.349.157-1.072.477-5.067 2.207-1.505.662-.554.249-.201.091-.399.182-.393.18-.387.18-.382.179-.376.178-.186.089-.368.177-.363.176-.358.176-.352.175c-.058.029-.117.058-.174.088l-.345.174-.171.087-.337.174-.332.174-.164.086-.325.174-.321.173-.158.086-.313.173c-.156.086-.309.173-.461.259l-.302.173-.298.173-.147.087-.291.173-.286.174-.283.174-.139.087-.276.174-.137.088-.27.175-.134.088-.264.176c-.481.323-.943.65-1.387.982l-.24.181-.237.182-.234.184-.231.184-.227.186-.112.093-.223.188-.219.189-.109.095-.215.191c-.356.32-.7.646-1.034.979a.832.832 0 01-1.175-1.176c.14-.141.282-.28.426-.418l.217-.206.11-.102.221-.203c.111-.101.224-.202.337-.302l.229-.199.231-.197c.31-.263.629-.521.956-.776l.247-.19.25-.19.254-.188.258-.187c.216-.156.435-.31.659-.464l.27-.184c.136-.092.274-.183.412-.274l.28-.183c.188-.121.379-.242.572-.362l.292-.18.148-.09.298-.18.303-.18.153-.089.309-.179.156-.09.316-.178.32-.179.326-.179.329-.178.167-.09.337-.178.342-.179.347-.179.352-.18.357-.18.18-.09.365-.18.37-.181.376-.182.38-.182.387-.183.391-.184.398-.184.403-.185.408-.187.415-.187.595-.266 1.783-.782 4.752-2.07.511-.226.354-.159.514-.232.492-.226.318-.147.463-.217.299-.142.293-.14.287-.139.281-.138.277-.138a.832.832 0 011.115.372z" fill="url(#paint54_linear_90_216)"/><path d="M431.473 311.1a.832.832 0 01-.461 1.082l-1.306.525a.83.83 0 11-.62-1.543l1.305-.525a.832.832 0 011.082.461z" fill="url(#paint55_linear_90_216)"/><path d="M257.012 355.253c.342-1.347 1.219-1.959 2.252-1.405.36.193.683.509 1.005.923l.065.087.07.097.073.103.156.23.129.196.069.11.012.022.002.004-.005-.004-.019-.026a.831.831 0 11-1.354.965l-.029-.045-.16-.257a6.133 6.133 0 00-.322-.461 3.414 3.414 0 00-.234-.273l-.045-.046-.002.006c-.019.06-.038.127-.056.203l-.014.058a.772.772 0 01-.042.134l-.019.043c-.057.121-.004.313.166.556l.049.067c.034.046.073.094.115.143l.067.075.072.077a5.7 5.7 0 00.078.079l.085.081a.853.853 0 00.044.041l.093.085c.096.085.201.173.314.263l.117.091.061.046.126.093.065.048.135.095.141.097.148.098.153.099c1.623 1.031 3.945 2.044 6.205 2.715 1.022.303 1.975.519 2.802.641l.076.011-.011-.048a4.628 4.628 0 01-.094-1.139l.004-.075c.104-1.649 1.244-2.647 2.912-1.98.14.055.261.148.352.267.828 1.081 1.234 1.993 1.187 2.791-.042.708-.423 1.236-1.033 1.559l-.042.022.083.038a8.34 8.34 0 002.166.624l.132.02.18.024.177.023.177.019c.118.013.237.023.359.033l.186.012.094.006.195.01.203.007.212.006.224.004.237.002h.295l.393-.002.431-.005 1.497-.026.309-.003.297-.001a.831.831 0 01.042 1.662l-.042.001-.434.002-.444.006-1.178.021-.425.006-.483.003-.267-.001-.253-.002-.24-.004-.228-.006-.147-.005-.213-.01-.206-.012-.135-.009-.132-.01-.131-.012-.131-.012-.13-.014-.195-.023-.132-.017-.199-.027c-1.575-.227-2.932-.721-4.179-1.589a2.34 2.34 0 01-.387-.349l-.029-.033-.049-.003c-1.137-.067-2.502-.335-3.994-.77l-.132-.039c-2.4-.713-4.863-1.786-6.624-2.906l-.156-.1-.152-.101a1.915 1.915 0 01-.074-.05l-.147-.1-.142-.101-.138-.101-.134-.1c-.044-.034-.088-.067-.13-.101l-.126-.101-.122-.101c-1.236-1.043-1.789-2.096-1.382-3.145l.024-.06.01-.04zm14.634 4.399l-.006-.002c-.287-.068-.381.066-.419.516l-.006.094c-.026.404.052.847.185 1.214l.012.034.025-.002a3 3 0 00.462-.074l.05-.014c.314-.087.39-.163.397-.282.01-.173-.066-.43-.241-.762l-.059-.107a4.96 4.96 0 00-.216-.351l-.086-.126c-.014-.022-.03-.044-.045-.065l-.053-.073z" fill="url(#paint56_linear_90_216)"/><path fill-rule="evenodd" clip-rule="evenodd" d="M357.827 275.463c-5.507-2.976.873-11.578-.265-15.391-1.033-3.451-7.12-2.163-6.009-8.078 5.343-.226 16.03 10.235 19.118 17.143" fill="#fff"/><path d="M351.517 251.163c1.455-.061 3.241.547 5.209 1.691l.228.134c.343.205.691.426 1.044.662l.236.159.237.164.119.084.239.171.24.175c.12.088.241.178.362.27l.243.185.243.19c.163.128.326.259.49.392l.247.202c.37.306.742.625 1.117.957l.25.223.125.114.251.228.125.116c.241.223.48.45.718.679l.283.276.282.278a47.65 47.65 0 014.664 5.386l.214.294c1.164 1.611 2.112 3.186 2.746 4.604a.831.831 0 11-1.518.679c-3.02-6.757-12.657-15.88-17.586-16.608l-.056-.007v.003c-.087.979.089 1.685.485 2.231l.034.046c.109.144.228.275.365.4l.077.068c.066.057.137.113.213.169l.094.067c.048.034.099.068.151.102l.109.069.115.07.123.072.129.074.068.038.142.077.15.08.158.082.663.337.236.122.145.076.136.073.128.071.061.035.117.067.111.067.054.032.104.066.1.066.097.066.048.034.095.069a1.4 1.4 0 01.046.035l.094.072.047.037c.681.544 1.151 1.189 1.394 2 .251.841.222 1.833-.025 3.079l-.045.219-.026.127-.047.21-.049.206-.064.256-.073.277-.086.311-.101.353-.282.961-.335 1.133-.101.35-.074.263-.065.237-.061.233-.059.227-.055.223-.053.219-.049.214-.045.21-.042.206-.039.201-.019.099-.033.195c-.423 2.539.044 3.998 1.692 4.889a.83.83 0 11-.791 1.463c-1.646-.89-2.503-2.282-2.675-4.09-.099-1.033.013-2.137.32-3.507l.058-.251.063-.258.032-.132.069-.267.073-.275.115-.416.099-.347.136-.468.24-.808.15-.515.11-.384.125-.448.068-.253.083-.318.057-.225.036-.144.049-.208.03-.133.041-.192.025-.122.023-.119.022-.115.019-.111.017-.108.015-.104.013-.101.012-.099.009-.095.008-.092.006-.09.003-.087.003-.085v-.083l-.002-.08-.003-.079-.002-.038-.006-.076-.007-.075-.005-.036-.01-.072-.012-.071-.013-.07-.008-.035-.016-.068-.017-.068-.019-.067c-.162-.542-.448-.919-1.05-1.332l-.107-.071c-.054-.036-.112-.072-.171-.109l-.123-.074-.13-.075-.137-.077-.145-.079-.152-.081-.16-.084-.168-.086-.332-.168-.191-.097-.268-.141-.169-.091-.16-.089c-.13-.073-.252-.145-.368-.216l-.135-.084c-.571-.366-.966-.723-1.335-1.209-.818-1.077-1.073-2.475-.729-4.306a.832.832 0 01.782-.678z" fill="url(#paint57_linear_90_216)"/><path fill-rule="evenodd" clip-rule="evenodd" d="M343.662 264.01c-7.314 6.389 5.528 6.589 5.528 6.589 1.26-4.621-1.866-3.033-4.764-4.15-.646-.538-.202-2.926-.764-2.439z" fill="#fff"/><path d="M343.117 263.382l-.157.139-.15.136-.145.135-.14.135c-.345.336-.645.665-.899.988l-.099.128c-1.033 1.367-1.236 2.605-.578 3.691.616 1.016 1.882 1.674 3.637 2.11l.213.052c.107.025.216.049.327.073.89.189 1.836.316 2.78.392.283.023.549.04.793.052l.258.012.22.006a.832.832 0 00.815-.613c.035-.129.067-.254.096-.377l.042-.182.038-.177.033-.172c.232-1.277.092-2.176-.478-2.812-.349-.389-.72-.601-1.305-.745l-.12-.028-.062-.014-.13-.025a1.325 1.325 0 00-.067-.013l-.139-.024-.072-.011-.15-.023a2.089 2.089 0 01-.078-.011l-.162-.021-.169-.021-.602-.07-.219-.027-.196-.026-.177-.025-.161-.025-.149-.026-.047-.009-.092-.019-.09-.019-.087-.02-.044-.011-.131-.034-.088-.025-.091-.027-.131-.041-.004-.015a3.008 3.008 0 01-.087-.534l-.008-.095-.037-.523-.013-.164-.009-.096-.009-.087-.01-.078-.006-.037-.012-.07-.013-.066-.016-.063-.008-.032-.019-.062c-.223-.692-.985-.984-1.596-.454zm.122 2.188l.003.024c.086.698.246 1.157.651 1.494.07.058.149.104.233.137.161.062.324.117.492.168l.113.033.108.03.106.029.105.026.105.025.106.023.108.022.168.031.118.02.123.02.199.029.219.029.328.04.528.061.207.026.186.026.114.017.106.018.098.018.091.018.083.019.077.019.071.02.064.021.059.021.053.022a.641.641 0 01.224.153l.014.016c.152.188.205.584.088 1.273l-.025.141-.02.1-.117-.007a20.558 20.558 0 01-2.953-.39l-.191-.042-.187-.044-.091-.022-.179-.046a10.54 10.54 0 01-.088-.024l-.172-.049c-1.125-.329-1.9-.76-2.193-1.243-.294-.487-.116-1.201.783-2.208l.085-.094z" fill="url(#paint58_linear_90_216)"/><path fill-rule="evenodd" clip-rule="evenodd" d="M344.901 259.446c-9.547 8.34 7.214 8.59 7.214 8.59 1.578-6.224-2.403-3.85-6.218-5.413-.844-.701-.264-3.827-.996-3.177z" fill="#fff"/><path d="M344.348 258.825l-.17.15-.171.154-.165.153-.161.152-.155.151-.151.151c-.396.4-.739.791-1.031 1.173l-.107.143c-1.218 1.66-1.44 3.141-.66 4.427.704 1.16 2.131 1.958 4.11 2.509l.226.061c.153.04.308.079.467.117l.24.055.245.053c1.149.244 2.373.406 3.596.505.374.03.724.052 1.045.068l.28.012.191.006.125.003a.833.833 0 00.818-.627c.028-.11.054-.218.079-.324l.048-.209.022-.103.042-.201c.356-1.793.218-2.988-.476-3.788-.408-.471-.85-.724-1.563-.89l-.125-.028-.13-.026-.137-.025-.07-.012-.146-.023-.152-.022-.159-.021-.252-.03-.269-.029-.587-.058-.27-.029-.249-.028-.231-.028-.143-.019-.138-.019-.194-.03-.122-.021-.119-.021-.114-.023-.111-.024-.108-.024-.054-.013-.105-.027-.053-.014-.104-.03-.105-.031-.105-.033-.107-.036-.108-.037-.103-.037-.003-.009a1.44 1.44 0 01-.052-.155 3.065 3.065 0 01-.079-.394l-.018-.138-.009-.073-.015-.157-.013-.149-.014-.189-.033-.49-.014-.176-.015-.153-.01-.091-.011-.083-.013-.078-.006-.036-.014-.071-.016-.067-.018-.066a1.57 1.57 0 00-.02-.064c-.241-.746-1.038-1.036-1.681-.464zm.201 2.083l.011.133.009.11.009.088.018.17c.102.887.293 1.459.768 1.853a.823.823 0 00.217.13c.122.05.246.097.371.142l.129.044.125.042.124.039.121.037.122.035.121.032.121.031.123.029.125.028.127.026.065.012.132.025.137.023.142.022.148.022.154.021.161.02.256.031.276.031.403.041.301.03.236.024.147.017.139.017.194.026.12.017.112.018.106.019.099.019.093.02.087.021.081.022.075.022.036.012.067.023c.141.053.248.114.333.186l.038.034.035.035.016.018.018.022c.235.293.317.868.175 1.829l-.024.156-.028.161-.032.168-.028.138-.28-.016a23.758 23.758 0 01-.586-.042 26.931 26.931 0 01-3.384-.474l-.112-.024-.22-.049a19.042 19.042 0 01-.426-.104l-.205-.055a12.188 12.188 0 01-.77-.234l-.179-.062c-1.147-.412-1.946-.921-2.299-1.503-.493-.813-.139-1.978 1.438-3.594l.112-.114z" fill="url(#paint59_linear_90_216)"/><path fill-rule="evenodd" clip-rule="evenodd" d="M344.455 255.132c-9.546 8.34 7.215 8.603 7.215 8.603 1.58-6.219-2.404-3.865-6.217-5.426-.845-.701-.264-3.814-.998-3.177z" fill="#fff"/><path d="M343.911 254.505l-.002.001-.175.155-.17.154-.083.077-.163.152-.159.152-.077.076-.151.15-.145.15c-.096.099-.189.198-.278.297l-.131.147a9.52 9.52 0 00-.919 1.215l-.085.139c-.838 1.407-.919 2.676-.24 3.797.837 1.381 2.695 2.25 5.288 2.801 1.149.245 2.373.409 3.596.508.32.026.624.046.906.062l.275.013.211.008.249.007a.832.832 0 00.819-.626c.065-.256.122-.502.17-.737l.04-.199c.332-1.739.187-2.905-.495-3.692-.035-.041-.071-.079-.106-.117l-.072-.072c-.327-.319-.694-.518-1.21-.66l-.117-.03a4.907 4.907 0 00-.25-.056l-.134-.026-.139-.024a11.246 11.246 0 00-.073-.012l-.149-.023-.155-.022-.163-.021-.258-.03-.181-.019-.49-.05-.365-.039-.168-.019-.236-.028-.147-.019-.14-.02-.133-.019-.189-.03-.12-.022-.058-.01-.114-.023-.11-.023-.108-.025-.106-.026-.104-.028-.104-.029-.052-.015-.104-.032-.106-.034-.107-.036-.054-.019-.109-.04-.008-.019a1.462 1.462 0 01-.051-.151 4.196 4.196 0 01-.113-.691l-.015-.155-.017-.23-.03-.438-.018-.24-.01-.104-.01-.095-.005-.045-.011-.083-.012-.078-.007-.036-.014-.071-.016-.067-.018-.066-.019-.064c-.24-.741-1.028-1.04-1.676-.476zm.083 2.203l.112-.114.015.182.004.045.017.176.019.168c.104.848.297 1.399.762 1.784a.804.804 0 00.216.129c.125.052.252.1.381.145l.127.044.125.041.123.039.121.037.12.034.12.033.06.015.122.03.122.028.126.027.128.025.132.024.067.012.139.023.143.022.15.021.157.021.164.021.172.02.275.031.297.032.486.049.23.025.144.017.135.018.188.026.117.018.109.019.103.019.096.02.09.021.043.01.081.022.038.011.073.023.068.025.063.025a.95.95 0 01.361.25l.018.021c.223.28.309.811.197 1.684l-.021.149a9.424 9.424 0 01-.038.235l-.03.164-.016.085-.028.138h-.006l-.274-.016-.287-.019-.298-.023a26.969 26.969 0 01-3.385-.477 20.888 20.888 0 01-.332-.074l-.215-.051-.211-.053c-1.766-.458-2.992-1.096-3.454-1.859-.435-.718-.21-1.711.932-3.045l.117-.135.061-.068.127-.138c.065-.069.132-.14.202-.211z" fill="url(#paint60_linear_90_216)"/><path fill-rule="evenodd" clip-rule="evenodd" d="M345.008 250.544c-9.546 8.339 7.213 8.602 7.213 8.602 1.662-4.347-2.438-5.589-5.035-6.302 0 0-1.445-2.938-2.178-2.3z" fill="#fff"/><path d="M344.461 249.917l-.176.155-.17.154-.166.153-.16.153-.156.151-.076.075-.148.15c-.146.15-.285.299-.416.446l-.129.146c-1.664 1.926-2.06 3.627-1.18 5.078.837 1.382 2.694 2.25 5.287 2.802 1.149.244 2.373.408 3.596.508.373.03.724.052 1.045.068l.28.012.315.01a.832.832 0 00.79-.535c.884-2.312.408-4.15-1.167-5.451l-.065-.053c-.606-.488-1.269-.854-2.121-1.185l-.192-.073a22.976 22.976 0 00-.405-.144l-.213-.071a4.589 4.589 0 01-.109-.035l-.225-.071-.232-.071-.24-.071-.272-.078-.036-.067a13.444 13.444 0 00-.522-.878 6.415 6.415 0 00-.708-.922c-.244-.256-.489-.444-.761-.553-.432-.174-.901-.122-1.268.197zm.819 1.497l.007.008c.154.161.331.396.518.681.157.242.312.504.455.766l.036.068.068.127.075.148a.833.833 0 00.526.434l.234.065.225.064.217.063.209.063.202.062.194.062.187.062.181.062.173.062.085.031.164.063.159.063c.648.266 1.146.551 1.576.906l.05.042c.849.725 1.158 1.626.827 2.903l-.02.073-.067-.004a29.388 29.388 0 01-.86-.058 26.98 26.98 0 01-3.384-.477c-.15-.032-.297-.065-.44-.099l-.213-.052c-1.822-.459-3.087-1.108-3.558-1.885-.408-.673-.236-1.587.727-2.797l.095-.118.101-.12.106-.122.054-.061.114-.125.118-.126.124-.128.128-.131.134-.132.14-.134.145-.136.074-.069.114-.104z" fill="url(#paint61_linear_90_216)"/><path d="M263.853 178.782a.83.83 0 01.83.79l.002.041v2.223a.833.833 0 01-1.662.042l-.002-.042v-2.223c0-.459.373-.831.832-.831z" fill="url(#paint62_linear_90_216)"/><path d="M404.558 99.963a.832.832 0 011.011.541l.012.039 2.436 8.833a.831.831 0 01-1.591.482l-.012-.04-2.437-8.833a.832.832 0 01.581-1.022z" fill="url(#paint63_linear_90_216)"/><path d="M228.843 103.206c.446 0 .809.35.831.79l.001.041v5.557a.833.833 0 01-1.662.042l-.001-.042v-5.557a.83.83 0 01.831-.831z" fill="url(#paint64_linear_90_216)"/><path d="M441.679 196.564c.445 0 .809.351.831.79l.001.042v5.557a.833.833 0 01-1.662.042l-.001-.042v-5.557c0-.459.372-.832.831-.832z" fill="url(#paint65_linear_90_216)"/><path d="M66.7 302.338c.433.154.66.629.507 1.062l-3.869 10.925a.832.832 0 01-1.567-.555l3.868-10.925a.832.832 0 011.061-.507z" fill="url(#paint66_linear_90_216)"/><path d="M155.433 350.106a.831.831 0 01.166 1.164l-6.669 8.891a.831.831 0 11-1.33-.997l6.669-8.892a.831.831 0 011.164-.166z" fill="url(#paint67_linear_90_216)"/><path d="M473.217 367.998a.832.832 0 011.139.292l4.56 7.713a.831.831 0 11-1.432.846l-4.56-7.712a.832.832 0 01.293-1.139z" fill="url(#paint68_linear_90_216)"/><path d="M583.349 343.444c.398.23.534.738.304 1.136l-3.242 5.61a.831.831 0 11-1.44-.832l3.242-5.61a.831.831 0 011.136-.304z" fill="url(#paint69_linear_90_216)"/><path d="M612.837 266.583c.446 0 .809.351.831.791l.001.041v5.557a.832.832 0 01-1.662.042l-.001-.042v-5.557c0-.459.372-.832.831-.832z" fill="url(#paint70_linear_90_216)"/><path d="M653.958 140.994c.446 0 .809.35.831.79l.001.041v1.111a.831.831 0 01-1.662.042l-.001-.042v-1.111a.83.83 0 01.831-.831z" fill="url(#paint71_linear_90_216)"/><path d="M152.568 192.061a.83.83 0 11.265 1.641c-3.333.54-6.423 2.491-8.343 5.268a.832.832 0 11-1.368-.945c2.178-3.15 5.665-5.353 9.446-5.964z" fill="url(#paint72_linear_90_216)"/><path fill-rule="evenodd" clip-rule="evenodd" d="M316.031 167.871c.61-35.599 53.569-35.594 54.172.001-.154 35.419-54.021 35.417-54.172-.001z" fill="#fff"/><path d="M315.201 167.857c.155 36.54 55.676 36.542 55.835.019v-.018c-.622-36.685-55.206-36.689-55.835-.001zm54.14-.995l.032 1.018v-.011c-.149 34.315-52.363 34.313-52.509-.001.585-34.146 50.903-34.484 52.477-1.006z" fill="url(#paint73_linear_90_216)"/><path fill-rule="evenodd" clip-rule="evenodd" d="M153.576 251.467c6.974-12.278 18.427-15.461 38.155-8.721-3.976-8.998 7.934-26.722 26.995-7.952-5.72-30.134 39.482-33.622 37.25-4.464 11.3-14.091 41.156-6.081 29.543 10.742 17.439-4.325 24.498-.28 35.958 10.395H153.576z" fill="#fff"/><path d="M235.964 209.5c-5.574.537-10.732 3.112-14.157 7.253l-.114.14c-3.286 4.051-4.781 9.327-4.161 15.467l.02.193-.145-.129c-3.931-3.471-7.732-5.579-11.317-6.383-3.743-.839-7.159-.225-9.958 1.622l-.151.102c-4.418 3.012-6.669 8.86-5.578 13.6l.017.07-.172-.055c-18.669-5.967-30.275-2.857-37.394 9.676a.831.831 0 00.723 1.242h167.9c.755 0 1.12-.925.567-1.44l-.2-.185-.395-.366-.39-.359-.385-.352-.38-.344-.374-.337-.37-.33-.183-.162-.363-.319-.359-.313-.178-.154-.352-.302-.174-.149-.346-.293a70.327 70.327 0 00-1.511-1.237l-.327-.258-.323-.251c-3.38-2.611-6.273-4.232-9.428-5.291l-.169-.056c-4.914-1.61-10.378-1.691-17.555-.21l-.45.094-.456.099-.094.021.007-.013c1.947-3.56 2.205-6.918.857-9.826-1.407-3.036-4.494-5.368-8.555-6.65-3.932-1.241-8.515-1.41-12.784-.427l-.16.037c-3.728.884-7.049 2.599-9.651 5.071l-.109.104v-.003c-.042-6.049-2.193-10.916-6.051-14.238-3.9-3.359-9.328-4.894-14.872-4.359zm13.787 5.619c3.921 3.377 5.902 8.541 5.397 15.147-.063.816.966 1.222 1.477.584 5.004-6.239 14.573-8.441 22.465-5.949 3.649 1.152 6.359 3.199 7.548 5.763 1.3 2.806.788 6.182-1.803 9.936-.435.63.142 1.463.885 1.279 8.479-2.103 14.484-2.216 19.756-.446l.142.048c.17.058.339.118.508.18l.252.094c.168.064.336.13.503.197l.251.103c.292.123.584.251.875.386l.25.118c.416.199.833.412 1.252.64l.251.138.253.143c.463.264.93.548 1.404.852l.259.168.391.26.263.179.264.183.266.187.268.192.271.196.272.201.274.205c.184.139.369.28.556.425l.281.22.284.224.287.23.289.234.146.119.294.242.297.247.3.253.303.257.153.131.309.265.311.271.316.277.319.282.161.143.488.437.305.275H155.042l.106-.169c6.959-10.928 18.064-13.168 36.315-6.933a.832.832 0 001.029-1.123c-1.874-4.24.142-10.446 4.556-13.359 2.42-1.597 5.374-2.128 8.678-1.387 3.829.858 8.015 3.387 12.418 7.723.58.572 1.552.053 1.4-.748-1.3-6.85.044-12.593 3.545-16.826 3.134-3.79 7.885-6.161 13.035-6.658 5.11-.493 10.086.914 13.627 3.964z" fill="url(#paint74_linear_90_216)"/><path fill-rule="evenodd" clip-rule="evenodd" d="M699.002 258.989h-58.279c-2.182-7.522-.857-16.026 22.946-9.179 7.45-13.848 21.982-.026 35.333 9.179z" fill="#fff"/><path d="M663.324 248.731l-.059.099-.033-.009c-10.825-3.038-17.703-3.081-21.27-.482-3.041 2.215-3.451 6.009-2.037 10.882a.83.83 0 00.798.599h58.279c.816 0 1.144-1.052.472-1.516l-.317-.219-.748-.522-.663-.468-.71-.507-1.048-.755-4.128-3.004-1.276-.922-.58-.416-.98-.697-.735-.515-.465-.322-.375-.258-.512-.346-.358-.24-.427-.282-.431-.282-.145-.094-.512-.329a79.532 79.532 0 00-.551-.348l-.362-.225-.18-.11-.356-.217a63.644 63.644 0 00-1.046-.615l-.342-.194c-1.98-1.115-3.78-1.943-5.471-2.498-5.784-1.897-10.283-.506-13.432 4.812zm12.913-3.231c1.541.505 3.201 1.264 5.037 2.29l.326.183c.547.311 1.109.645 1.688 1.002l.35.217.176.111.356.225.503.324.214.138.248.162.389.257.285.19.37.249.54.367.643.445.509.356.721.51.781.558.741.533 1.291.936 3.355 2.443 1.238.894.373.267h-55.015l-.039-.151-.058-.234a17.519 17.519 0 01-.309-1.568l-.03-.214c-.378-2.865.233-5.004 2.021-6.307 3.104-2.261 9.74-2.169 20.499.926a.833.833 0 00.962-.405c2.764-5.139 6.546-6.439 11.835-4.704z" fill="url(#paint75_linear_90_216)"/><path fill-rule="evenodd" clip-rule="evenodd" d="M678.052 213.742H550.6c3.917-11.775 26.987-21.448 55.687-13.343 8.38-15.577 21.922-12.774 34.614 4.642 16.779-10.483 34.887 4.839 37.151 8.701z" fill="#fff"/><path d="M605.877 199.422l-.179-.049c-13.31-3.617-26.178-3.654-36.781-.556-9.911 2.896-17.012 8.367-19.106 14.662a.831.831 0 00.789 1.094h127.452a.831.831 0 00.717-1.252 8.266 8.266 0 00-.775-1.072l-.126-.149-.065-.076-.134-.153-.07-.078-.143-.157a71.894 71.894 0 00-.074-.08l-.151-.16-.078-.082-.16-.164a6.42 6.42 0 01-.081-.083l-.168-.167-.172-.168a3.529 3.529 0 00-.088-.085l-.179-.171a7.19 7.19 0 00-.091-.086l-.187-.173-.19-.174-.097-.088-.197-.175-.201-.176-.205-.177-.104-.089-.21-.177-.215-.177-.217-.178-.221-.177a40.235 40.235 0 00-8.919-5.38l-.254-.109c-8.155-3.475-16.376-3.579-23.839.775l-.038.022-.346-.461c-12.797-16.9-26.279-18.965-34.699-4.402l-.198.348zm15.973-8.252c5.783.894 12.174 5.847 18.379 14.361a.833.833 0 001.113.215c7.212-4.506 15.218-4.462 23.246-.972a38.637 38.637 0 018.545 5.155l.102.081c.357.287.7.575 1.026.858l.241.212c.317.281.616.558.893.827l.204.199c.266.264.511.519.729.76l.041.044H551.814l.042-.094c2.376-5.219 8.753-9.838 17.527-12.402 10.513-3.073 23.373-2.972 36.678.785a.831.831 0 00.959-.406c3.94-7.325 9.044-10.518 14.83-9.623z" fill="url(#paint76_linear_90_216)"/><defs><linearGradient id="paint0_linear_90_216" x1="514.048" y1="109.305" x2="514.048" y2="424.504" gradientUnits="userSpaceOnUse"><stop stop-color="#144794"/><stop offset="1" stop-color="#06162E"/></linearGradient><linearGradient id="paint1_linear_90_216" x1="517.855" y1="188.622" x2="517.855" y2="227.538" gradientUnits="userSpaceOnUse"><stop stop-color="#144794"/><stop offset="1" stop-color="#06162E"/></linearGradient><linearGradient id="paint2_linear_90_216" x1="518.263" y1="283.828" x2="518.263" y2="328.653" gradientUnits="userSpaceOnUse"><stop stop-color="#144794"/><stop offset="1" stop-color="#06162E"/></linearGradient><linearGradient id="paint3_linear_90_216" x1="539.438" y1="0" x2="539.438" y2="106.852" gradientUnits="userSpaceOnUse"><stop stop-color="#144794"/><stop offset="1" stop-color="#06162E"/></linearGradient><linearGradient id="paint4_linear_90_216" x1="487.09" y1="28.439" x2="487.09" y2="106.292" gradientUnits="userSpaceOnUse"><stop stop-color="#144794"/><stop offset="1" stop-color="#06162E"/></linearGradient><linearGradient id="paint5_linear_90_216" x1="473.47" y1="91.008" x2="473.47" y2="152.554" gradientUnits="userSpaceOnUse"><stop stop-color="#144794"/><stop offset="1" stop-color="#06162E"/></linearGradient><linearGradient id="paint6_linear_90_216" x1="548.082" y1="101.578" x2="548.082" y2="187.418" gradientUnits="userSpaceOnUse"><stop stop-color="#144794"/><stop offset="1" stop-color="#06162E"/></linearGradient><linearGradient id="paint7_linear_90_216" x1="511.804" y1="103.766" x2="511.804" y2="211.796" gradientUnits="userSpaceOnUse"><stop stop-color="#144794"/><stop offset="1" stop-color="#06162E"/></linearGradient><linearGradient id="paint8_linear_90_216" x1="574.852" y1="84.849" x2="574.852" y2="127.938" gradientUnits="userSpaceOnUse"><stop stop-color="#144794"/><stop offset="1" stop-color="#06162E"/></linearGradient><linearGradient id="paint9_linear_90_216" x1="114.015" y1="123.096" x2="114.015" y2="438.295" gradientUnits="userSpaceOnUse"><stop stop-color="#144794"/><stop offset="1" stop-color="#06162E"/></linearGradient><linearGradient id="paint10_linear_90_216" x1="110.207" y1="202.425" x2="110.207" y2="241.341" gradientUnits="userSpaceOnUse"><stop stop-color="#144794"/><stop offset="1" stop-color="#06162E"/></linearGradient><linearGradient id="paint11_linear_90_216" x1="109.8" y1="297.619" x2="109.8" y2="342.444" gradientUnits="userSpaceOnUse"><stop stop-color="#144794"/><stop offset="1" stop-color="#06162E"/></linearGradient><linearGradient id="paint12_linear_90_216" x1="88.626" y1="13.791" x2="88.626" y2="120.644" gradientUnits="userSpaceOnUse"><stop stop-color="#144794"/><stop offset="1" stop-color="#06162E"/></linearGradient><linearGradient id="paint13_linear_90_216" x1="140.973" y1="42.241" x2="140.973" y2="120.083" gradientUnits="userSpaceOnUse"><stop stop-color="#144794"/><stop offset="1" stop-color="#06162E"/></linearGradient><linearGradient id="paint14_linear_90_216" x1="154.593" y1="104.8" x2="154.593" y2="166.346" gradientUnits="userSpaceOnUse"><stop stop-color="#144794"/><stop offset="1" stop-color="#06162E"/></linearGradient><linearGradient id="paint15_linear_90_216" x1="79.982" y1="115.369" x2="79.982" y2="201.212" gradientUnits="userSpaceOnUse"><stop stop-color="#144794"/><stop offset="1" stop-color="#06162E"/></linearGradient><linearGradient id="paint16_linear_90_216" x1="116.259" y1="117.569" x2="116.259" y2="225.587" gradientUnits="userSpaceOnUse"><stop stop-color="#144794"/><stop offset="1" stop-color="#06162E"/></linearGradient><linearGradient id="paint17_linear_90_216" x1="53.211" y1="98.64" x2="53.211" y2="141.733" gradientUnits="userSpaceOnUse"><stop stop-color="#144794"/><stop offset="1" stop-color="#06162E"/></linearGradient><linearGradient id="paint18_linear_90_216" x1="294.529" y1="394.14" x2="294.529" y2="428.511" gradientUnits="userSpaceOnUse"><stop stop-color="#144794"/><stop offset="1" stop-color="#06162E"/></linearGradient><linearGradient id="paint19_linear_90_216" x1="388.253" y1="465.497" x2="388.253" y2="469.247" gradientUnits="userSpaceOnUse"><stop stop-color="#144794"/><stop offset="1" stop-color="#06162E"/></linearGradient><linearGradient id="paint20_linear_90_216" x1="331.396" y1="441.806" x2="331.396" y2="445.557" gradientUnits="userSpaceOnUse"><stop stop-color="#144794"/><stop offset="1" stop-color="#06162E"/></linearGradient><linearGradient id="paint21_linear_90_216" x1="293.491" y1="437.068" x2="293.491" y2="440.819" gradientUnits="userSpaceOnUse"><stop stop-color="#144794"/><stop offset="1" stop-color="#06162E"/></linearGradient><linearGradient id="paint22_linear_90_216" x1="277.38" y1="446.544" x2="277.38" y2="450.295" gradientUnits="userSpaceOnUse"><stop stop-color="#144794"/><stop offset="1" stop-color="#06162E"/></linearGradient><linearGradient id="paint23_linear_90_216" x1="230.946" y1="447.492" x2="230.946" y2="451.243" gradientUnits="userSpaceOnUse"><stop stop-color="#144794"/><stop offset="1" stop-color="#06162E"/></linearGradient><linearGradient id="paint24_linear_90_216" x1="309.601" y1="418.115" x2="309.601" y2="421.866" gradientUnits="userSpaceOnUse"><stop stop-color="#144794"/><stop offset="1" stop-color="#06162E"/></linearGradient><linearGradient id="paint25_linear_90_216" x1="348.452" y1="427.592" x2="348.452" y2="431.343" gradientUnits="userSpaceOnUse"><stop stop-color="#144794"/><stop offset="1" stop-color="#06162E"/></linearGradient><linearGradient id="paint26_linear_90_216" x1="124.555" y1="417.135" x2="124.555" y2="452.371" gradientUnits="userSpaceOnUse"><stop stop-color="#144794"/><stop offset="1" stop-color="#06162E"/></linearGradient><linearGradient id="paint27_linear_90_216" x1="549.486" y1="402.877" x2="549.486" y2="429.402" gradientUnits="userSpaceOnUse"><stop stop-color="#144794"/><stop offset="1" stop-color="#06162E"/></linearGradient><linearGradient id="paint28_linear_90_216" x1="363.449" y1="256.912" x2="363.449" y2="301.327" gradientUnits="userSpaceOnUse"><stop stop-color="#144794"/><stop offset="1" stop-color="#06162E"/></linearGradient><linearGradient id="paint29_linear_90_216" x1="350.526" y1="241.272" x2="350.526" y2="271.231" gradientUnits="userSpaceOnUse"><stop stop-color="#144794"/><stop offset="1" stop-color="#06162E"/></linearGradient><linearGradient id="paint30_linear_90_216" x1="350.704" y1="245.192" x2="350.704" y2="250.981" gradientUnits="userSpaceOnUse"><stop stop-color="#144794"/><stop offset="1" stop-color="#06162E"/></linearGradient><linearGradient id="paint31_linear_90_216" x1="485.633" y1="240.674" x2="485.633" y2="272.452" gradientUnits="userSpaceOnUse"><stop stop-color="#144794"/><stop offset="1" stop-color="#06162E"/></linearGradient><linearGradient id="paint32_linear_90_216" x1="457.927" y1="253.401" x2="457.927" y2="292.599" gradientUnits="userSpaceOnUse"><stop stop-color="#144794"/><stop offset="1" stop-color="#06162E"/></linearGradient><linearGradient id="paint33_linear_90_216" x1="475.724" y1="238.441" x2="475.724" y2="268.959" gradientUnits="userSpaceOnUse"><stop stop-color="#144794"/><stop offset="1" stop-color="#06162E"/></linearGradient><linearGradient id="paint34_linear_90_216" x1="490.248" y1="231.986" x2="490.248" y2="263.142" gradientUnits="userSpaceOnUse"><stop stop-color="#144794"/><stop offset="1" stop-color="#06162E"/></linearGradient><linearGradient id="paint35_linear_90_216" x1="479.827" y1="261.715" x2="479.827" y2="269.572" gradientUnits="userSpaceOnUse"><stop stop-color="#144794"/><stop offset="1" stop-color="#06162E"/></linearGradient><linearGradient id="paint36_linear_90_216" x1="471.81" y1="244.848" x2="471.81" y2="251.475" gradientUnits="userSpaceOnUse"><stop stop-color="#144794"/><stop offset="1" stop-color="#06162E"/></linearGradient><linearGradient id="paint37_linear_90_216" x1="462.871" y1="243.479" x2="462.871" y2="268.932" gradientUnits="userSpaceOnUse"><stop stop-color="#144794"/><stop offset="1" stop-color="#06162E"/></linearGradient><linearGradient id="paint38_linear_90_216" x1="338.64" y1="263.74" x2="338.64" y2="336.981" gradientUnits="userSpaceOnUse"><stop stop-color="#144794"/><stop offset="1" stop-color="#06162E"/></linearGradient><linearGradient id="paint39_linear_90_216" x1="503.109" y1="245.914" x2="503.109" y2="286.385" gradientUnits="userSpaceOnUse"><stop stop-color="#144794"/><stop offset="1" stop-color="#06162E"/></linearGradient><linearGradient id="paint40_linear_90_216" x1="303.148" y1="259.89" x2="303.148" y2="381.957" gradientUnits="userSpaceOnUse"><stop stop-color="#144794"/><stop offset="1" stop-color="#06162E"/></linearGradient><linearGradient id="paint41_linear_90_216" x1="486.902" y1="268.633" x2="486.902" y2="292.395" gradientUnits="userSpaceOnUse"><stop stop-color="#144794"/><stop offset="1" stop-color="#06162E"/></linearGradient><linearGradient id="paint42_linear_90_216" x1="133.25" y1="261.678" x2="133.25" y2="292.981" gradientUnits="userSpaceOnUse"><stop stop-color="#144794"/><stop offset="1" stop-color="#06162E"/></linearGradient><linearGradient id="paint43_linear_90_216" x1="259.395" y1="319.831" x2="259.395" y2="354.084" gradientUnits="userSpaceOnUse"><stop stop-color="#144794"/><stop offset="1" stop-color="#06162E"/></linearGradient><linearGradient id="paint44_linear_90_216" x1="341.992" y1="341.037" x2="341.992" y2="368.941" gradientUnits="userSpaceOnUse"><stop stop-color="#144794"/><stop offset="1" stop-color="#06162E"/></linearGradient><linearGradient id="paint45_linear_90_216" x1="425.759" y1="289.91" x2="425.759" y2="335.36" gradientUnits="userSpaceOnUse"><stop stop-color="#144794"/><stop offset="1" stop-color="#06162E"/></linearGradient><linearGradient id="paint46_linear_90_216" x1="242.202" y1="299.225" x2="242.202" y2="425.261" gradientUnits="userSpaceOnUse"><stop stop-color="#144794"/><stop offset="1" stop-color="#06162E"/></linearGradient><linearGradient id="paint47_linear_90_216" x1="319.887" y1="299.395" x2="319.887" y2="299.595" gradientUnits="userSpaceOnUse"><stop stop-color="#144794"/><stop offset="1" stop-color="#06162E"/></linearGradient><linearGradient id="paint48_linear_90_216" x1="336.258" y1="292.776" x2="336.258" y2="293.193" gradientUnits="userSpaceOnUse"><stop stop-color="#144794"/><stop offset="1" stop-color="#06162E"/></linearGradient><linearGradient id="paint49_linear_90_216" x1="341.651" y1="283.415" x2="341.651" y2="337.314" gradientUnits="userSpaceOnUse"><stop stop-color="#144794"/><stop offset="1" stop-color="#06162E"/></linearGradient><linearGradient id="paint50_linear_90_216" x1="480.988" y1="191.808" x2="480.988" y2="303.002" gradientUnits="userSpaceOnUse"><stop stop-color="#144794"/><stop offset="1" stop-color="#06162E"/></linearGradient><linearGradient id="paint51_linear_90_216" x1="233.793" y1="304.171" x2="233.793" y2="314.911" gradientUnits="userSpaceOnUse"><stop stop-color="#144794"/><stop offset="1" stop-color="#06162E"/></linearGradient><linearGradient id="paint52_linear_90_216" x1="183.614" y1="409.568" x2="183.614" y2="416.983" gradientUnits="userSpaceOnUse"><stop stop-color="#144794"/><stop offset="1" stop-color="#06162E"/></linearGradient><linearGradient id="paint53_linear_90_216" x1="361.356" y1="347.676" x2="361.356" y2="359.518" gradientUnits="userSpaceOnUse"><stop stop-color="#144794"/><stop offset="1" stop-color="#06162E"/></linearGradient><linearGradient id="paint54_linear_90_216" x1="429.266" y1="318.943" x2="429.266" y2="334.71" gradientUnits="userSpaceOnUse"><stop stop-color="#144794"/><stop offset="1" stop-color="#06162E"/></linearGradient><linearGradient id="paint55_linear_90_216" x1="430.049" y1="310.579" x2="430.049" y2="312.767" gradientUnits="userSpaceOnUse"><stop stop-color="#144794"/><stop offset="1" stop-color="#06162E"/></linearGradient><linearGradient id="paint56_linear_90_216" x1="269.228" y1="353.645" x2="269.228" y2="365.307" gradientUnits="userSpaceOnUse"><stop stop-color="#144794"/><stop offset="1" stop-color="#06162E"/></linearGradient><linearGradient id="paint57_linear_90_216" x1="361.044" y1="251.159" x2="361.044" y2="276.295" gradientUnits="userSpaceOnUse"><stop stop-color="#144794"/><stop offset="1" stop-color="#06162E"/></linearGradient><linearGradient id="paint58_linear_90_216" x1="345.439" y1="263.109" x2="345.439" y2="271.431" gradientUnits="userSpaceOnUse"><stop stop-color="#144794"/><stop offset="1" stop-color="#06162E"/></linearGradient><linearGradient id="paint59_linear_90_216" x1="347.211" y1="258.523" x2="347.211" y2="268.868" gradientUnits="userSpaceOnUse"><stop stop-color="#144794"/><stop offset="1" stop-color="#06162E"/></linearGradient><linearGradient id="paint60_linear_90_216" x1="346.768" y1="254.212" x2="346.768" y2="264.566" gradientUnits="userSpaceOnUse"><stop stop-color="#144794"/><stop offset="1" stop-color="#06162E"/></linearGradient><linearGradient id="paint61_linear_90_216" x1="347.333" y1="249.622" x2="347.333" y2="259.978" gradientUnits="userSpaceOnUse"><stop stop-color="#144794"/><stop offset="1" stop-color="#06162E"/></linearGradient><linearGradient id="paint62_linear_90_216" x1="263.853" y1="178.782" x2="263.853" y2="182.668" gradientUnits="userSpaceOnUse"><stop stop-color="#144794"/><stop offset="1" stop-color="#06162E"/></linearGradient><linearGradient id="paint63_linear_90_216" x1="405.997" y1="99.933" x2="405.997" y2="110.428" gradientUnits="userSpaceOnUse"><stop stop-color="#144794"/><stop offset="1" stop-color="#06162E"/></linearGradient><linearGradient id="paint64_linear_90_216" x1="228.843" y1="103.206" x2="228.843" y2="110.426" gradientUnits="userSpaceOnUse"><stop stop-color="#144794"/><stop offset="1" stop-color="#06162E"/></linearGradient><linearGradient id="paint65_linear_90_216" x1="441.679" y1="196.564" x2="441.679" y2="203.785" gradientUnits="userSpaceOnUse"><stop stop-color="#144794"/><stop offset="1" stop-color="#06162E"/></linearGradient><linearGradient id="paint66_linear_90_216" x1="64.489" y1="302.291" x2="64.489" y2="314.879" gradientUnits="userSpaceOnUse"><stop stop-color="#144794"/><stop offset="1" stop-color="#06162E"/></linearGradient><linearGradient id="paint67_linear_90_216" x1="151.599" y1="349.939" x2="151.599" y2="360.494" gradientUnits="userSpaceOnUse"><stop stop-color="#144794"/><stop offset="1" stop-color="#06162E"/></linearGradient><linearGradient id="paint68_linear_90_216" x1="475.92" y1="367.882" x2="475.92" y2="377.258" gradientUnits="userSpaceOnUse"><stop stop-color="#144794"/><stop offset="1" stop-color="#06162E"/></linearGradient><linearGradient id="paint69_linear_90_216" x1="581.312" y1="343.332" x2="581.312" y2="350.606" gradientUnits="userSpaceOnUse"><stop stop-color="#144794"/><stop offset="1" stop-color="#06162E"/></linearGradient><linearGradient id="paint70_linear_90_216" x1="612.837" y1="266.583" x2="612.837" y2="273.804" gradientUnits="userSpaceOnUse"><stop stop-color="#144794"/><stop offset="1" stop-color="#06162E"/></linearGradient><linearGradient id="paint71_linear_90_216" x1="653.958" y1="140.994" x2="653.958" y2="143.768" gradientUnits="userSpaceOnUse"><stop stop-color="#144794"/><stop offset="1" stop-color="#06162E"/></linearGradient><linearGradient id="paint72_linear_90_216" x1="148.253" y1="192.05" x2="148.253" y2="199.329" gradientUnits="userSpaceOnUse"><stop stop-color="#144794"/><stop offset="1" stop-color="#06162E"/></linearGradient><linearGradient id="paint73_linear_90_216" x1="343.119" y1="140.343" x2="343.119" y2="195.265" gradientUnits="userSpaceOnUse"><stop stop-color="#144794"/><stop offset="1" stop-color="#06162E"/></linearGradient><linearGradient id="paint74_linear_90_216" x1="237.527" y1="209.396" x2="237.527" y2="252.298" gradientUnits="userSpaceOnUse"><stop stop-color="#144794"/><stop offset="1" stop-color="#06162E"/></linearGradient><linearGradient id="paint75_linear_90_216" x1="669.49" y1="243.113" x2="669.49" y2="259.82" gradientUnits="userSpaceOnUse"><stop stop-color="#144794"/><stop offset="1" stop-color="#06162E"/></linearGradient><linearGradient id="paint76_linear_90_216" x1="614.326" y1="189.352" x2="614.326" y2="214.573" gradientUnits="userSpaceOnUse"><stop stop-color="#144794"/><stop offset="1" stop-color="#06162E"/></linearGradient></defs></svg>